M48
; DRILL file {KiCad (5.1.4)-1} date 11/3/2022 10:10:10 PM
; FORMAT={-:-/ absolute / inch / decimal}
; #@! TF.CreationDate,2022-11-03T22:10:10-04:00
; #@! TF.GenerationSoftware,Kicad,Pcbnew,(5.1.4)-1
; #@! TF.FileFunction,Plated,1,2,PTH
FMAT,2
INCH
T1C0.0157
T2C0.0394
T3C0.0500
%
G90
G05
T1
X3.6772Y-3.0413
X4.2618Y-3.4783
T2
X5.9118Y-1.9346
X5.9118Y-2.0346
X5.9118Y-2.1346
X5.9118Y-2.2346
X4.5013Y-4.1323
X4.5615Y-4.0525
X4.6217Y-3.9726
X4.6819Y-3.8927
X8.2289Y-3.6259
X8.3088Y-3.5657
X8.3887Y-3.5055
X8.4685Y-3.4454
X7.1381Y-3.8849
X7.1983Y-3.9648
X7.2585Y-4.0447
X7.3186Y-4.1245
X3.3625Y-3.4514
X3.4423Y-3.5116
X3.5222Y-3.5718
X3.6021Y-3.6319
T3
X7.9759Y-3.0485
X8.1829Y-2.9961
X3.4686Y-3.2364
X3.5761Y-3.4209
X7.3943Y-3.4869
X7.6012Y-3.4344
X4.0503Y-3.6747
X4.1577Y-3.8592
T0
M30
