M48
; DRILL file {KiCad (5.1.4)-1} date 11/3/2022 10:10:10 PM
; FORMAT={-:-/ absolute / inch / decimal}
; #@! TF.CreationDate,2022-11-03T22:10:10-04:00
; #@! TF.GenerationSoftware,Kicad,Pcbnew,(5.1.4)-1
; #@! TF.FileFunction,NonPlated,1,2,NPTH
FMAT,2
INCH
T1C0.0670
T2C0.1181
T3C0.1350
%
G90
G05
T1
X3.8888Y-3.3657
X4.1246Y-3.5434
X4.4705Y-3.804
X7.9428Y-3.3644
X8.2887Y-3.1037
X3.5429Y-3.105
X7.3611Y-3.8027
X7.707Y-3.5421
T2
X8.0474Y-3.4704
X8.2567Y-3.4211
X3.8568Y-3.0483
X3.9619Y-3.2359
X7.4657Y-3.9088
X7.675Y-3.8595
X4.4385Y-3.4866
X4.5436Y-3.6742
T3
X3.7158Y-3.2353
X4.2975Y-3.6737
X8.1157Y-3.2341
X7.5341Y-3.6724
T0
M30
