G04 #@! TF.GenerationSoftware,KiCad,Pcbnew,(5.1.4)-1*
G04 #@! TF.CreationDate,2022-11-03T22:09:19-04:00*
G04 #@! TF.ProjectId,ThumbsUp,5468756d-6273-4557-902e-6b696361645f,rev?*
G04 #@! TF.SameCoordinates,Original*
G04 #@! TF.FileFunction,Legend,Bot*
G04 #@! TF.FilePolarity,Positive*
%FSLAX46Y46*%
G04 Gerber Fmt 4.6, Leading zero omitted, Abs format (unit mm)*
G04 Created by KiCad (PCBNEW (5.1.4)-1) date 2022-11-03 22:09:19*
%MOMM*%
%LPD*%
G04 APERTURE LIST*
%ADD10C,0.400000*%
%ADD11C,0.100000*%
%ADD12C,0.150000*%
%ADD13C,0.254000*%
%ADD14R,0.902000X1.602000*%
%ADD15R,0.702000X1.602000*%
%ADD16C,2.702000*%
%ADD17C,3.102000*%
%ADD18C,2.134000*%
%ADD19C,3.531000*%
%ADD20C,1.803800*%
%ADD21C,1.802000*%
%ADD22C,1.802000*%
%ADD23R,1.802000X1.802000*%
%ADD24O,1.802000X1.802000*%
G04 APERTURE END LIST*
D10*
X153050000Y-64700000D02*
G75*
G03X153150000Y-64700000I50000J0D01*
G01*
X153150000Y-64700000D02*
G75*
G03X153050000Y-64700000I-50000J0D01*
G01*
X153150000Y-64700000D02*
X153150000Y-64700000D01*
X153050000Y-64700000D02*
X153050000Y-64700000D01*
D11*
X144500000Y-63150000D02*
X145350000Y-63150000D01*
X144500000Y-60150000D02*
X144500000Y-63150000D01*
X145350000Y-60150000D02*
X144500000Y-60150000D01*
X156200000Y-63150000D02*
X155350000Y-63150000D01*
X156200000Y-60150000D02*
X156200000Y-63150000D01*
X155350000Y-60150000D02*
X156200000Y-60150000D01*
D12*
X186677305Y-98689297D02*
X186978212Y-99088615D01*
X193099696Y-99734716D02*
G75*
G02X193799921Y-99833127I300907J-399318D01*
G01*
X197497867Y-98924728D02*
X195101961Y-100730173D01*
X197596278Y-98224502D02*
X197497867Y-98924728D01*
X194789700Y-95330868D02*
X192793111Y-96835405D01*
X189144747Y-101963703D02*
X189505836Y-102442884D01*
X195489925Y-95429278D02*
X194789700Y-95330868D01*
X189505836Y-102442884D02*
X193099695Y-99734717D01*
X193799921Y-99833127D02*
X194401736Y-100631762D01*
X195101961Y-100730173D02*
X194401736Y-100631762D01*
X192793112Y-96835406D02*
G75*
G02X190692435Y-96540175I-902723J1197954D01*
G01*
X190271165Y-95981130D02*
X186677305Y-98689297D01*
X190692435Y-96540175D02*
X190271165Y-95981130D01*
X115650435Y-96325992D02*
X115951343Y-95926674D01*
X114885105Y-89864237D02*
G75*
G02X114786696Y-89164012I300908J399317D01*
G01*
X112894194Y-85859706D02*
X115290100Y-87665151D01*
X112193969Y-85958117D02*
X112894194Y-85859706D01*
X110186026Y-89453566D02*
X112182615Y-90958104D01*
X118117877Y-93051586D02*
X118478966Y-92572405D01*
X110087616Y-88753341D02*
X110186026Y-89453566D01*
X118478966Y-92572405D02*
X114885106Y-89864237D01*
X114786696Y-89164012D02*
X115388511Y-88365377D01*
X115290100Y-87665151D02*
X115388511Y-88365377D01*
X112182615Y-90958104D02*
G75*
G02X112477846Y-93058779I-902722J-1197953D01*
G01*
X112056575Y-93617824D02*
X115650435Y-96325992D01*
X112477846Y-93058779D02*
X112056575Y-93617824D01*
X100875678Y-85192415D02*
X101176586Y-84793097D01*
X100110348Y-78730660D02*
G75*
G02X100011939Y-78030435I300908J399317D01*
G01*
X98119437Y-74726129D02*
X100515343Y-76531574D01*
X97419212Y-74824540D02*
X98119437Y-74726129D01*
X95411269Y-78319989D02*
X97407858Y-79824527D01*
X103343120Y-81918009D02*
X103704209Y-81438828D01*
X95312859Y-77619764D02*
X95411269Y-78319989D01*
X103704209Y-81438828D02*
X100110349Y-78730660D01*
X100011939Y-78030435D02*
X100613754Y-77231800D01*
X100515343Y-76531574D02*
X100613754Y-77231800D01*
X97407858Y-79824527D02*
G75*
G02X97703089Y-81925202I-902722J-1197953D01*
G01*
X97281818Y-82484247D02*
X100875678Y-85192415D01*
X97703089Y-81925202D02*
X97281818Y-82484247D01*
X201452062Y-87555719D02*
X201752969Y-87955037D01*
X207874453Y-88601138D02*
G75*
G02X208574678Y-88699549I300907J-399318D01*
G01*
X212272624Y-87791150D02*
X209876718Y-89596595D01*
X212371035Y-87090924D02*
X212272624Y-87791150D01*
X209564457Y-84197290D02*
X207567868Y-85701827D01*
X203919504Y-90830125D02*
X204280593Y-91309306D01*
X210264682Y-84295700D02*
X209564457Y-84197290D01*
X204280593Y-91309306D02*
X207874452Y-88601139D01*
X208574678Y-88699549D02*
X209176493Y-89498184D01*
X209876718Y-89596595D02*
X209176493Y-89498184D01*
X207567869Y-85701828D02*
G75*
G02X205467192Y-85406597I-902723J1197954D01*
G01*
X205045922Y-84847552D02*
X201452062Y-87555719D01*
X205467192Y-85406597D02*
X205045922Y-84847552D01*
D13*
X151378095Y-61604523D02*
X151378095Y-62511666D01*
X151438571Y-62693095D01*
X151559523Y-62814047D01*
X151740952Y-62874523D01*
X151861904Y-62874523D01*
X150108095Y-62874523D02*
X150833809Y-62874523D01*
X150470952Y-62874523D02*
X150470952Y-61604523D01*
X150591904Y-61785952D01*
X150712857Y-61906904D01*
X150833809Y-61967380D01*
X149503333Y-62874523D02*
X149261428Y-62874523D01*
X149140476Y-62814047D01*
X149080000Y-62753571D01*
X148959047Y-62572142D01*
X148898571Y-62330238D01*
X148898571Y-61846428D01*
X148959047Y-61725476D01*
X149019523Y-61665000D01*
X149140476Y-61604523D01*
X149382380Y-61604523D01*
X149503333Y-61665000D01*
X149563809Y-61725476D01*
X149624285Y-61846428D01*
X149624285Y-62148809D01*
X149563809Y-62269761D01*
X149503333Y-62330238D01*
X149382380Y-62390714D01*
X149140476Y-62390714D01*
X149019523Y-62330238D01*
X148959047Y-62269761D01*
X148898571Y-62148809D01*
D12*
X194080296Y-101340255D02*
X193478481Y-100541620D01*
X193642137Y-101312679D01*
X192946057Y-100942830D01*
X193547872Y-101741465D01*
X192641815Y-101172093D02*
X192711206Y-102371938D01*
X192109391Y-101573303D02*
X193243630Y-101970728D01*
X191881210Y-101745250D02*
X191386816Y-102117802D01*
X191882291Y-102221439D01*
X191768200Y-102307413D01*
X191720798Y-102402759D01*
X191711425Y-102469447D01*
X191730711Y-102574165D01*
X191874000Y-102764316D01*
X191969346Y-102811719D01*
X192036034Y-102821091D01*
X192140752Y-102801806D01*
X192368934Y-102629859D01*
X192416337Y-102534513D01*
X192425709Y-102467825D01*
X190892423Y-102490354D02*
X190816362Y-102547670D01*
X190768960Y-102643016D01*
X190759587Y-102709704D01*
X190778873Y-102814422D01*
X190855474Y-102995201D01*
X190998763Y-103185353D01*
X191151425Y-103308816D01*
X191246771Y-103356218D01*
X191313459Y-103365591D01*
X191418177Y-103346305D01*
X191494238Y-103288990D01*
X191541641Y-103193644D01*
X191551013Y-103126955D01*
X191531728Y-103022237D01*
X191455126Y-102841458D01*
X191311837Y-102651307D01*
X191159175Y-102527844D01*
X191063829Y-102480441D01*
X190997141Y-102471069D01*
X190892423Y-102490354D01*
X118427899Y-91322333D02*
X119029714Y-90523697D01*
X118333634Y-90893546D01*
X118497290Y-90122487D01*
X117895475Y-90921123D01*
X118193048Y-89893224D02*
X117058809Y-90290650D01*
X117660624Y-89492014D02*
X117591233Y-90691860D01*
X116336234Y-89746151D02*
X116792597Y-90090045D01*
X116564416Y-89918098D02*
X117166231Y-89119462D01*
X117156318Y-89290869D01*
X117175062Y-89424245D01*
X117222465Y-89519591D01*
X116223765Y-88945893D02*
X116328484Y-88965179D01*
X116395172Y-88955806D01*
X116490518Y-88908403D01*
X116519176Y-88870373D01*
X116538461Y-88765655D01*
X116529089Y-88698967D01*
X116481686Y-88603621D01*
X116329565Y-88488989D01*
X116224847Y-88469704D01*
X116158158Y-88479076D01*
X116062812Y-88526479D01*
X116034155Y-88564509D01*
X116014869Y-88669228D01*
X116024242Y-88735916D01*
X116071644Y-88831262D01*
X116223765Y-88945893D01*
X116271168Y-89041239D01*
X116280540Y-89107927D01*
X116261255Y-89212646D01*
X116146623Y-89364767D01*
X116051277Y-89412169D01*
X115984589Y-89421542D01*
X115879871Y-89402256D01*
X115727750Y-89287625D01*
X115680347Y-89192279D01*
X115670975Y-89125591D01*
X115690260Y-89020872D01*
X115804892Y-88868751D01*
X115900238Y-88821349D01*
X115966926Y-88811976D01*
X116071644Y-88831262D01*
X103653142Y-80188756D02*
X104254957Y-79390120D01*
X103558877Y-79759969D01*
X103722533Y-78988910D01*
X103120718Y-79787546D01*
X103418291Y-78759647D02*
X102284052Y-79157073D01*
X102885867Y-78358437D02*
X102816476Y-79558283D01*
X102562340Y-78233893D02*
X102552967Y-78167205D01*
X102505565Y-78071859D01*
X102315413Y-77928569D01*
X102210695Y-77909284D01*
X102144007Y-77918656D01*
X102048661Y-77966059D01*
X101991345Y-78042120D01*
X101943402Y-78184868D01*
X102055871Y-78985126D01*
X101561477Y-78612574D01*
X101801734Y-77660736D02*
X101792362Y-77594048D01*
X101744959Y-77498702D01*
X101554808Y-77355412D01*
X101450090Y-77336127D01*
X101383401Y-77345499D01*
X101288055Y-77392902D01*
X101230740Y-77468962D01*
X101182796Y-77611711D01*
X101295265Y-78411969D01*
X100800872Y-78039416D01*
X208855053Y-90206677D02*
X208253238Y-89408042D01*
X208416894Y-90179101D01*
X207720814Y-89809252D01*
X208322629Y-90607887D01*
X207416572Y-90038515D02*
X207485963Y-91238360D01*
X206884148Y-90439725D02*
X208018387Y-90837150D01*
X206675252Y-90716390D02*
X206608564Y-90707018D01*
X206503846Y-90726303D01*
X206313694Y-90869592D01*
X206266292Y-90964938D01*
X206256919Y-91031627D01*
X206276205Y-91136345D01*
X206333521Y-91212406D01*
X206457524Y-91297838D01*
X207257782Y-91410307D01*
X206763388Y-91782859D01*
X205477029Y-91500065D02*
X205629150Y-91385434D01*
X205733868Y-91366148D01*
X205800556Y-91375521D01*
X205962590Y-91432296D01*
X206115252Y-91555759D01*
X206344515Y-91860001D01*
X206363800Y-91964720D01*
X206354428Y-92031408D01*
X206307025Y-92126754D01*
X206154904Y-92241385D01*
X206050186Y-92260671D01*
X205983498Y-92251298D01*
X205888152Y-92203896D01*
X205744862Y-92013744D01*
X205725577Y-91909026D01*
X205734949Y-91842338D01*
X205782352Y-91746992D01*
X205934473Y-91632360D01*
X206039192Y-91613075D01*
X206105880Y-91622447D01*
X206201226Y-91669850D01*
%LPC*%
D14*
X146600000Y-60600000D03*
X146600000Y-63400000D03*
X154100000Y-60600000D03*
X154100000Y-63400000D03*
D15*
X147600000Y-60600000D03*
X148100000Y-63400000D03*
X148600000Y-60600000D03*
X149100000Y-63400000D03*
X149600000Y-60600000D03*
X150100000Y-63400000D03*
X150600000Y-60600000D03*
X151100000Y-63400000D03*
X151600000Y-60600000D03*
X152100000Y-63400000D03*
X152600000Y-60600000D03*
X153100000Y-63400000D03*
D16*
X187013128Y-101253541D03*
D11*
G36*
X187279032Y-99361532D02*
G01*
X188905137Y-101519445D01*
X186747224Y-103145550D01*
X185121119Y-100987637D01*
X187279032Y-99361532D01*
X187279032Y-99361532D01*
G37*
D17*
X194945830Y-98030520D03*
D18*
X187814322Y-88566689D03*
X193071311Y-87234749D03*
D19*
X191365031Y-93278639D03*
D17*
X189628660Y-99282597D03*
D16*
X197561362Y-96059576D03*
D11*
G36*
X197827266Y-94167567D02*
G01*
X199453371Y-96325480D01*
X197295458Y-97951585D01*
X195669353Y-95793672D01*
X197827266Y-94167567D01*
X197827266Y-94167567D01*
G37*
D20*
X186972536Y-96588622D03*
X195757526Y-89968656D03*
D21*
X91492618Y-92251511D03*
D22*
X91492618Y-92251511D02*
X91492618Y-92251511D01*
D21*
X89464083Y-90722901D03*
D22*
X89464083Y-90722901D02*
X89464083Y-90722901D01*
D21*
X87435549Y-89194291D03*
D22*
X87435549Y-89194291D02*
X87435549Y-89194291D01*
D21*
X85407015Y-87665681D03*
D11*
G36*
X85584350Y-88927487D02*
G01*
X84145209Y-87843016D01*
X85229680Y-86403875D01*
X86668821Y-87488346D01*
X85584350Y-88927487D01*
X85584350Y-88927487D01*
G37*
D21*
X209015141Y-92097906D03*
D22*
X209015141Y-92097906D02*
X209015141Y-92097906D01*
D21*
X211043676Y-90569296D03*
D22*
X211043676Y-90569296D02*
X211043676Y-90569296D01*
D21*
X213072210Y-89040686D03*
D22*
X213072210Y-89040686D02*
X213072210Y-89040686D01*
D21*
X215100744Y-87512076D03*
D11*
G36*
X213838938Y-87334741D02*
G01*
X215278079Y-86250270D01*
X216362550Y-87689411D01*
X214923409Y-88773882D01*
X213838938Y-87334741D01*
X213838938Y-87334741D01*
G37*
D16*
X118022779Y-95296376D03*
D11*
G36*
X116130770Y-95562280D02*
G01*
X117756875Y-93404367D01*
X119914788Y-95030472D01*
X118288683Y-97188385D01*
X116130770Y-95562280D01*
X116130770Y-95562280D01*
G37*
D17*
X112738063Y-88559359D03*
D18*
X105606555Y-98023190D03*
X102877189Y-93336980D03*
D19*
X109157264Y-93311240D03*
D17*
X115407248Y-93325432D03*
D16*
X110122532Y-86588415D03*
D11*
G36*
X108230523Y-86854319D02*
G01*
X109856628Y-84696406D01*
X112014541Y-86322511D01*
X110388436Y-88480424D01*
X108230523Y-86854319D01*
X108230523Y-86854319D01*
G37*
D20*
X113549759Y-96621223D03*
X104764769Y-90001257D03*
D16*
X103248022Y-84162799D03*
D11*
G36*
X101356013Y-84428703D02*
G01*
X102982118Y-82270790D01*
X105140031Y-83896895D01*
X103513926Y-86054808D01*
X101356013Y-84428703D01*
X101356013Y-84428703D01*
G37*
D17*
X97963306Y-77425782D03*
D18*
X90831798Y-86889613D03*
X88102432Y-82203403D03*
D19*
X94382507Y-82177663D03*
D17*
X100632491Y-82191855D03*
D16*
X95347775Y-75454838D03*
D11*
G36*
X93455766Y-75720742D02*
G01*
X95081871Y-73562829D01*
X97239784Y-75188934D01*
X95613679Y-77346847D01*
X93455766Y-75720742D01*
X93455766Y-75720742D01*
G37*
D20*
X98775002Y-85487646D03*
X89990012Y-78867680D03*
D16*
X201787885Y-90119963D03*
D11*
G36*
X202053789Y-88227954D02*
G01*
X203679894Y-90385867D01*
X201521981Y-92011972D01*
X199895876Y-89854059D01*
X202053789Y-88227954D01*
X202053789Y-88227954D01*
G37*
D17*
X209720587Y-86896942D03*
D18*
X202589079Y-77433111D03*
X207846068Y-76101171D03*
D19*
X206139788Y-82145061D03*
D17*
X204403417Y-88149019D03*
D16*
X212336119Y-84925998D03*
D11*
G36*
X212602023Y-83033989D02*
G01*
X214228128Y-85191902D01*
X212070215Y-86818007D01*
X210444110Y-84660094D01*
X212602023Y-83033989D01*
X212602023Y-83033989D01*
G37*
D20*
X201747293Y-85455044D03*
X210532283Y-78835078D03*
D23*
X150158765Y-49138249D03*
D24*
X150158765Y-51678249D03*
X150158765Y-54218249D03*
X150158765Y-56758249D03*
D21*
X185893643Y-104762834D03*
D22*
X185893643Y-104762834D02*
X185893643Y-104762834D01*
D21*
X184365033Y-102734299D03*
D22*
X184365033Y-102734299D02*
X184365033Y-102734299D01*
D21*
X182836423Y-100705765D03*
D22*
X182836423Y-100705765D02*
X182836423Y-100705765D01*
D21*
X181307813Y-98677231D03*
D11*
G36*
X181130478Y-99939037D02*
G01*
X180046007Y-98499896D01*
X181485148Y-97415425D01*
X182569619Y-98854566D01*
X181130478Y-99939037D01*
X181130478Y-99939037D01*
G37*
D21*
X114334284Y-104961436D03*
D22*
X114334284Y-104961436D02*
X114334284Y-104961436D01*
D21*
X115862894Y-102932901D03*
D22*
X115862894Y-102932901D02*
X115862894Y-102932901D01*
D21*
X117391504Y-100904367D03*
D22*
X117391504Y-100904367D02*
X117391504Y-100904367D01*
D21*
X118920114Y-98875833D03*
D11*
G36*
X117658308Y-99053168D02*
G01*
X118742779Y-97614027D01*
X120181920Y-98698498D01*
X119097449Y-100137639D01*
X117658308Y-99053168D01*
X117658308Y-99053168D01*
G37*
M02*
