G04 #@! TF.GenerationSoftware,KiCad,Pcbnew,(5.1.4)-1*
G04 #@! TF.CreationDate,2022-11-03T22:09:19-04:00*
G04 #@! TF.ProjectId,ThumbsUp,5468756d-6273-4557-902e-6b696361645f,rev?*
G04 #@! TF.SameCoordinates,Original*
G04 #@! TF.FileFunction,Copper,L1,Top*
G04 #@! TF.FilePolarity,Positive*
%FSLAX46Y46*%
G04 Gerber Fmt 4.6, Leading zero omitted, Abs format (unit mm)*
G04 Created by KiCad (PCBNEW (5.1.4)-1) date 2022-11-03 22:09:19*
%MOMM*%
%LPD*%
G04 APERTURE LIST*
%ADD10C,2.032000*%
%ADD11C,1.700000*%
%ADD12C,1.700000*%
%ADD13C,0.100000*%
%ADD14R,1.700000X1.700000*%
%ADD15O,1.700000X1.700000*%
%ADD16C,0.800000*%
%ADD17C,0.250000*%
G04 APERTURE END LIST*
D10*
X187814322Y-88566689D03*
X193071311Y-87234749D03*
D11*
X91492618Y-92251511D03*
D12*
X91492618Y-92251511D02*
X91492618Y-92251511D01*
D11*
X89464083Y-90722901D03*
D12*
X89464083Y-90722901D02*
X89464083Y-90722901D01*
D11*
X87435549Y-89194291D03*
D12*
X87435549Y-89194291D02*
X87435549Y-89194291D01*
D11*
X85407015Y-87665681D03*
D13*
G36*
X85574312Y-88856064D02*
G01*
X84216632Y-87832978D01*
X85239718Y-86475298D01*
X86597398Y-87498384D01*
X85574312Y-88856064D01*
X85574312Y-88856064D01*
G37*
D11*
X209015141Y-92097906D03*
D12*
X209015141Y-92097906D02*
X209015141Y-92097906D01*
D11*
X211043676Y-90569296D03*
D12*
X211043676Y-90569296D02*
X211043676Y-90569296D01*
D11*
X213072210Y-89040686D03*
D12*
X213072210Y-89040686D02*
X213072210Y-89040686D01*
D11*
X215100744Y-87512076D03*
D13*
G36*
X213910361Y-87344779D02*
G01*
X215268041Y-86321693D01*
X216291127Y-87679373D01*
X214933447Y-88702459D01*
X213910361Y-87344779D01*
X213910361Y-87344779D01*
G37*
D10*
X105606555Y-98023190D03*
X102877189Y-93336980D03*
X90831798Y-86889613D03*
X88102432Y-82203403D03*
X202589079Y-77433111D03*
X207846068Y-76101171D03*
D14*
X150158765Y-49138249D03*
D15*
X150158765Y-51678249D03*
X150158765Y-54218249D03*
X150158765Y-56758249D03*
D11*
X185893643Y-104762834D03*
D12*
X185893643Y-104762834D02*
X185893643Y-104762834D01*
D11*
X184365033Y-102734299D03*
D12*
X184365033Y-102734299D02*
X184365033Y-102734299D01*
D11*
X182836423Y-100705765D03*
D12*
X182836423Y-100705765D02*
X182836423Y-100705765D01*
D11*
X181307813Y-98677231D03*
D13*
G36*
X181140516Y-99867614D02*
G01*
X180117430Y-98509934D01*
X181475110Y-97486848D01*
X182498196Y-98844528D01*
X181140516Y-99867614D01*
X181140516Y-99867614D01*
G37*
D11*
X114334284Y-104961436D03*
D12*
X114334284Y-104961436D02*
X114334284Y-104961436D01*
D11*
X115862894Y-102932901D03*
D12*
X115862894Y-102932901D02*
X115862894Y-102932901D01*
D11*
X117391504Y-100904367D03*
D12*
X117391504Y-100904367D02*
X117391504Y-100904367D01*
D11*
X118920114Y-98875833D03*
D13*
G36*
X117729731Y-99043130D02*
G01*
X118752817Y-97685450D01*
X120110497Y-98708536D01*
X119087411Y-100066216D01*
X117729731Y-99043130D01*
X117729731Y-99043130D01*
G37*
D16*
X93400000Y-77250000D03*
X108250000Y-88350000D03*
D17*
X90831798Y-86889613D02*
X90831798Y-81568202D01*
X90831798Y-81568202D02*
X93400000Y-79000000D01*
X93400000Y-79000000D02*
X93400000Y-77250000D01*
X91492618Y-87550433D02*
X90831798Y-86889613D01*
X91492618Y-92251511D02*
X91492618Y-87550433D01*
X89050000Y-83150971D02*
X88102432Y-82203403D01*
X89464083Y-90722901D02*
X89050000Y-90308818D01*
X89050000Y-90308818D02*
X89050000Y-83150971D01*
X105606555Y-98023190D02*
X105606555Y-91993445D01*
X105606555Y-91993445D02*
X108300000Y-89300000D01*
X108300000Y-89300000D02*
X108300000Y-88500000D01*
X108300000Y-88500000D02*
X108250000Y-88450000D01*
X108250000Y-88450000D02*
X108250000Y-88350000D01*
X203605078Y-78449110D02*
X207399110Y-78449110D01*
X202589079Y-77433111D02*
X203605078Y-78449110D01*
X207399110Y-78449110D02*
X211150000Y-82200000D01*
X211150000Y-83561332D02*
X215100744Y-87512076D01*
X211150000Y-82200000D02*
X211150000Y-83561332D01*
M02*
