G04 #@! TF.GenerationSoftware,KiCad,Pcbnew,(5.1.4)-1*
G04 #@! TF.CreationDate,2022-11-03T22:09:19-04:00*
G04 #@! TF.ProjectId,ThumbsUp,5468756d-6273-4557-902e-6b696361645f,rev?*
G04 #@! TF.SameCoordinates,Original*
G04 #@! TF.FileFunction,Copper,L2,Bot*
G04 #@! TF.FilePolarity,Positive*
%FSLAX46Y46*%
G04 Gerber Fmt 4.6, Leading zero omitted, Abs format (unit mm)*
G04 Created by KiCad (PCBNEW (5.1.4)-1) date 2022-11-03 22:09:19*
%MOMM*%
%LPD*%
G04 APERTURE LIST*
%ADD10R,0.800000X1.500000*%
%ADD11R,0.600000X1.500000*%
%ADD12C,2.600000*%
%ADD13C,0.100000*%
%ADD14C,2.032000*%
%ADD15C,1.700000*%
%ADD16C,1.700000*%
%ADD17R,1.700000X1.700000*%
%ADD18O,1.700000X1.700000*%
%ADD19C,0.800000*%
%ADD20C,0.381000*%
%ADD21C,0.250000*%
G04 APERTURE END LIST*
D10*
X146600000Y-60600000D03*
X146600000Y-63400000D03*
X154100000Y-60600000D03*
X154100000Y-63400000D03*
D11*
X147600000Y-60600000D03*
X148100000Y-63400000D03*
X148600000Y-60600000D03*
X149100000Y-63400000D03*
X149600000Y-60600000D03*
X150100000Y-63400000D03*
X150600000Y-60600000D03*
X151100000Y-63400000D03*
X151600000Y-60600000D03*
X152100000Y-63400000D03*
X152600000Y-60600000D03*
X153100000Y-63400000D03*
D12*
X187013128Y-101253541D03*
D13*
G36*
X187268995Y-99432955D02*
G01*
X188833714Y-101509408D01*
X186757261Y-103074127D01*
X185192542Y-100997674D01*
X187268995Y-99432955D01*
X187268995Y-99432955D01*
G37*
D14*
X187814322Y-88566689D03*
X193071311Y-87234749D03*
D12*
X197561362Y-96059576D03*
D13*
G36*
X197817229Y-94238990D02*
G01*
X199381948Y-96315443D01*
X197305495Y-97880162D01*
X195740776Y-95803709D01*
X197817229Y-94238990D01*
X197817229Y-94238990D01*
G37*
D15*
X91492618Y-92251511D03*
D16*
X91492618Y-92251511D02*
X91492618Y-92251511D01*
D15*
X89464083Y-90722901D03*
D16*
X89464083Y-90722901D02*
X89464083Y-90722901D01*
D15*
X87435549Y-89194291D03*
D16*
X87435549Y-89194291D02*
X87435549Y-89194291D01*
D15*
X85407015Y-87665681D03*
D13*
G36*
X85574312Y-88856064D02*
G01*
X84216632Y-87832978D01*
X85239718Y-86475298D01*
X86597398Y-87498384D01*
X85574312Y-88856064D01*
X85574312Y-88856064D01*
G37*
D15*
X209015141Y-92097906D03*
D16*
X209015141Y-92097906D02*
X209015141Y-92097906D01*
D15*
X211043676Y-90569296D03*
D16*
X211043676Y-90569296D02*
X211043676Y-90569296D01*
D15*
X213072210Y-89040686D03*
D16*
X213072210Y-89040686D02*
X213072210Y-89040686D01*
D15*
X215100744Y-87512076D03*
D13*
G36*
X213910361Y-87344779D02*
G01*
X215268041Y-86321693D01*
X216291127Y-87679373D01*
X214933447Y-88702459D01*
X213910361Y-87344779D01*
X213910361Y-87344779D01*
G37*
D12*
X118022779Y-95296376D03*
D13*
G36*
X116202193Y-95552243D02*
G01*
X117766912Y-93475790D01*
X119843365Y-95040509D01*
X118278646Y-97116962D01*
X116202193Y-95552243D01*
X116202193Y-95552243D01*
G37*
D14*
X105606555Y-98023190D03*
X102877189Y-93336980D03*
D12*
X110122532Y-86588415D03*
D13*
G36*
X108301946Y-86844282D02*
G01*
X109866665Y-84767829D01*
X111943118Y-86332548D01*
X110378399Y-88409001D01*
X108301946Y-86844282D01*
X108301946Y-86844282D01*
G37*
D12*
X103248022Y-84162799D03*
D13*
G36*
X101427436Y-84418666D02*
G01*
X102992155Y-82342213D01*
X105068608Y-83906932D01*
X103503889Y-85983385D01*
X101427436Y-84418666D01*
X101427436Y-84418666D01*
G37*
D14*
X90831798Y-86889613D03*
X88102432Y-82203403D03*
D12*
X95347775Y-75454838D03*
D13*
G36*
X93527189Y-75710705D02*
G01*
X95091908Y-73634252D01*
X97168361Y-75198971D01*
X95603642Y-77275424D01*
X93527189Y-75710705D01*
X93527189Y-75710705D01*
G37*
D12*
X201787885Y-90119963D03*
D13*
G36*
X202043752Y-88299377D02*
G01*
X203608471Y-90375830D01*
X201532018Y-91940549D01*
X199967299Y-89864096D01*
X202043752Y-88299377D01*
X202043752Y-88299377D01*
G37*
D14*
X202589079Y-77433111D03*
X207846068Y-76101171D03*
D12*
X212336119Y-84925998D03*
D13*
G36*
X212591986Y-83105412D02*
G01*
X214156705Y-85181865D01*
X212080252Y-86746584D01*
X210515533Y-84670131D01*
X212591986Y-83105412D01*
X212591986Y-83105412D01*
G37*
D17*
X150158765Y-49138249D03*
D18*
X150158765Y-51678249D03*
X150158765Y-54218249D03*
X150158765Y-56758249D03*
D15*
X185893643Y-104762834D03*
D16*
X185893643Y-104762834D02*
X185893643Y-104762834D01*
D15*
X184365033Y-102734299D03*
D16*
X184365033Y-102734299D02*
X184365033Y-102734299D01*
D15*
X182836423Y-100705765D03*
D16*
X182836423Y-100705765D02*
X182836423Y-100705765D01*
D15*
X181307813Y-98677231D03*
D13*
G36*
X181140516Y-99867614D02*
G01*
X180117430Y-98509934D01*
X181475110Y-97486848D01*
X182498196Y-98844528D01*
X181140516Y-99867614D01*
X181140516Y-99867614D01*
G37*
D15*
X114334284Y-104961436D03*
D16*
X114334284Y-104961436D02*
X114334284Y-104961436D01*
D15*
X115862894Y-102932901D03*
D16*
X115862894Y-102932901D02*
X115862894Y-102932901D01*
D15*
X117391504Y-100904367D03*
D16*
X117391504Y-100904367D02*
X117391504Y-100904367D01*
D15*
X118920114Y-98875833D03*
D13*
G36*
X117729731Y-99043130D02*
G01*
X118752817Y-97685450D01*
X120110497Y-98708536D01*
X119087411Y-100066216D01*
X117729731Y-99043130D01*
X117729731Y-99043130D01*
G37*
D19*
X93400000Y-77250000D03*
X108250000Y-88350000D03*
D20*
X148100000Y-64152902D02*
X148100000Y-63400000D01*
X148487599Y-64540501D02*
X148100000Y-64152902D01*
X162370561Y-65520561D02*
X161390501Y-64540501D01*
X171234486Y-87438635D02*
X162370561Y-65520561D01*
X171234486Y-87650732D02*
X171234486Y-87438635D01*
X184162834Y-104762834D02*
X171700000Y-92300000D01*
X161390501Y-64540501D02*
X148487599Y-64540501D01*
X185893643Y-104762834D02*
X184162834Y-104762834D01*
X171700000Y-92252186D02*
X171271547Y-91823733D01*
X171700000Y-92300000D02*
X171700000Y-92252186D01*
X171271547Y-91823733D02*
X171271547Y-87687793D01*
X171271547Y-87687793D02*
X171234486Y-87650732D01*
X147609501Y-59459499D02*
X160504457Y-59459499D01*
X147600000Y-59469000D02*
X147609501Y-59459499D01*
X147600000Y-60600000D02*
X147600000Y-59469000D01*
X172795034Y-90164452D02*
X180630156Y-97999574D01*
X172795034Y-87347121D02*
X172795034Y-90164452D01*
X160504457Y-59459499D02*
X162204448Y-61159490D01*
X162204448Y-61159490D02*
X172795034Y-87347121D01*
X180630156Y-97999574D02*
X181307813Y-98677231D01*
D21*
X95195162Y-75454838D02*
X95347775Y-75454838D01*
X93400000Y-77250000D02*
X95195162Y-75454838D01*
X99260821Y-88150000D02*
X103248022Y-84162799D01*
X96350000Y-88150000D02*
X99260821Y-88150000D01*
X88102432Y-82203403D02*
X90403403Y-82203403D01*
X90403403Y-82203403D02*
X96350000Y-88150000D01*
X104314029Y-93336980D02*
X109877049Y-98900000D01*
X102877189Y-93336980D02*
X104314029Y-93336980D01*
X114419155Y-98900000D02*
X118022779Y-95296376D01*
X109877049Y-98900000D02*
X114419155Y-98900000D01*
X94836980Y-93336980D02*
X102877189Y-93336980D01*
X90650000Y-89150000D02*
X94836980Y-93336980D01*
X87435549Y-89194291D02*
X87479840Y-89150000D01*
X87479840Y-89150000D02*
X90650000Y-89150000D01*
X110011585Y-86588415D02*
X110122532Y-86588415D01*
X108250000Y-88350000D02*
X110011585Y-86588415D01*
X85407015Y-87665681D02*
X88422696Y-84650000D01*
X88422696Y-84650000D02*
X92100000Y-84650000D01*
X96275356Y-88825356D02*
X102074644Y-88825356D01*
X92100000Y-84650000D02*
X96275356Y-88825356D01*
X102074644Y-88825356D02*
X103850000Y-87050000D01*
X106950000Y-87050000D02*
X108250000Y-88350000D01*
X103850000Y-87050000D02*
X106950000Y-87050000D01*
X207402094Y-92097906D02*
X209015141Y-92097906D01*
X205600000Y-93900000D02*
X207402094Y-92097906D01*
X197561362Y-96059576D02*
X199720938Y-93900000D01*
X199720938Y-93900000D02*
X205600000Y-93900000D01*
X197561362Y-95161362D02*
X197561362Y-96059576D01*
X187814322Y-88566689D02*
X190966689Y-88566689D01*
X190966689Y-88566689D02*
X197561362Y-95161362D01*
X209841595Y-90569296D02*
X211043676Y-90569296D01*
X194087310Y-86218750D02*
X194618750Y-86218750D01*
X193071311Y-87234749D02*
X194087310Y-86218750D01*
X194618750Y-86218750D02*
X201650000Y-93250000D01*
X201650000Y-93250000D02*
X205450000Y-93250000D01*
X205450000Y-93250000D02*
X208130704Y-90569296D01*
X208130704Y-90569296D02*
X209841595Y-90569296D01*
X186014146Y-100254559D02*
X187013128Y-101253541D01*
X191634471Y-87234749D02*
X189599722Y-85200000D01*
X193071311Y-87234749D02*
X191634471Y-87234749D01*
X189599722Y-85200000D02*
X186300000Y-85200000D01*
X186300000Y-85200000D02*
X184650000Y-86850000D01*
X184650000Y-86850000D02*
X184650000Y-98890413D01*
X184650000Y-98890413D02*
X186014146Y-100254559D01*
X203417922Y-91750000D02*
X201787885Y-90119963D01*
X206250000Y-91750000D02*
X203417922Y-91750000D01*
X213072210Y-89040686D02*
X208959314Y-89040686D01*
X208959314Y-89040686D02*
X208725000Y-89275000D01*
X208725000Y-89275000D02*
X206250000Y-91750000D01*
X207050000Y-87600000D02*
X208725000Y-89275000D01*
X206830069Y-77117170D02*
X206830069Y-78330069D01*
X207846068Y-76101171D02*
X206830069Y-77117170D01*
X210150000Y-81650000D02*
X210150000Y-82750000D01*
X210150000Y-82750000D02*
X207050000Y-85850000D01*
X206830069Y-78330069D02*
X210150000Y-81650000D01*
X207050000Y-85850000D02*
X207050000Y-87600000D01*
X212514666Y-84925998D02*
X212336119Y-84925998D01*
X215100744Y-87512076D02*
X212514666Y-84925998D01*
X162557296Y-64607296D02*
X160274999Y-62324999D01*
X184365033Y-102734299D02*
X182911155Y-102734299D01*
X182911155Y-102734299D02*
X171787058Y-91610202D01*
X171749997Y-87437201D02*
X171749997Y-87338341D01*
X149175001Y-62324999D02*
X149100000Y-62400000D01*
X160274999Y-62324999D02*
X149175001Y-62324999D01*
X171787057Y-87474261D02*
X171749997Y-87437201D01*
X171749997Y-87338341D02*
X162557296Y-64607296D01*
X149100000Y-62400000D02*
X149100000Y-63400000D01*
X171787058Y-91610202D02*
X171787057Y-87474261D01*
X172237069Y-87342434D02*
X162940186Y-64353776D01*
X182836423Y-100705765D02*
X181519031Y-100705765D01*
X181519031Y-100705765D02*
X172237069Y-91423803D01*
X148600000Y-61600000D02*
X148600000Y-60600000D01*
X160261411Y-61675001D02*
X148675001Y-61675001D01*
X162940186Y-64353776D02*
X160261411Y-61675001D01*
X148675001Y-61675001D02*
X148600000Y-61600000D01*
X172237069Y-91423803D02*
X172237069Y-87342434D01*
M02*
