M48
; DRILL file {KiCad (5.1.4)-1} date 12/11/2022 8:48:05 PM
; FORMAT={-:-/ absolute / metric / decimal}
; #@! TF.CreationDate,2022-12-11T20:48:05-05:00
; #@! TF.GenerationSoftware,Kicad,Pcbnew,(5.1.4)-1
; #@! TF.FileFunction,NonPlated,1,2,NPTH
FMAT,2
METRIC
T1C1.702
T2C3.000
T3C3.429
%
G90
G05
T1
X186.973Y-96.589
X195.758Y-89.969
X89.99Y-78.868
X98.775Y-85.488
X186.973Y-96.589
X195.758Y-89.969
X104.765Y-90.001
X113.55Y-96.621
X201.747Y-85.455
X210.532Y-78.835
T2
X189.629Y-99.283
X194.946Y-98.031
X97.963Y-77.426
X100.632Y-82.192
X189.629Y-99.283
X194.946Y-98.031
X112.738Y-88.559
X115.407Y-93.325
X204.403Y-88.149
X209.721Y-86.897
T3
X191.365Y-93.279
X94.383Y-82.178
X191.365Y-93.279
X109.157Y-93.311
X206.14Y-82.145
T0
M30
