M48
; DRILL file {KiCad (5.1.4)-1} date 11/3/2022 10:20:18 PM
; FORMAT={-:-/ absolute / inch / decimal}
; #@! TF.CreationDate,2022-11-03T22:20:18-04:00
; #@! TF.GenerationSoftware,Kicad,Pcbnew,(5.1.4)-1
; #@! TF.FileFunction,NonPlated,1,2,NPTH
FMAT,2
INCH
T1C0.0670
T2C0.1181
T3C0.1350
%
G90
G05
T1
X6.7001Y-7.5821
X7.1016Y-7.4199
X4.2483Y-5.9799
X4.6498Y-6.1421
X2.1823Y-7.2046
X2.5839Y-7.3668
X3.9902Y-6.6187
X4.3917Y-6.7809
X6.1839Y-6.3045
X6.5854Y-6.1423
X6.9035Y-6.1412
X7.305Y-5.9789
X2.9314Y-7.2949
X3.3329Y-7.4571
X7.1616Y-6.78
X7.5631Y-6.6178
X8.9694Y-7.3659
X9.3709Y-7.2037
X4.4516Y-7.4208
X4.8532Y-7.583
X8.2203Y-7.4562
X8.6219Y-7.294
X3.7321Y-7.2575
X4.1336Y-7.4197
X6.442Y-6.9433
X6.8435Y-6.7811
X4.7097Y-6.782
X5.1113Y-6.9442
X4.9678Y-6.1432
X5.3693Y-6.3054
X7.4196Y-7.4188
X7.8212Y-7.2566
T2
X4.0206Y-7.1214
X4.1707Y-7.2755
X6.5156Y-7.0728
X6.7305Y-7.0794
X4.9982Y-6.6459
X5.1483Y-6.8
X5.2563Y-6.0071
X5.4064Y-6.1612
X7.4932Y-7.5483
X7.7082Y-7.5549
X6.7736Y-7.7116
X6.9886Y-7.7182
X4.5368Y-5.8438
X4.6868Y-5.9978
X2.4709Y-7.0685
X2.6209Y-7.2226
X4.2787Y-6.4826
X4.4288Y-6.6366
X6.2575Y-6.434
X6.4724Y-6.4406
X6.977Y-6.2707
X7.192Y-6.2773
X3.2199Y-7.1588
X3.37Y-7.3129
X7.2351Y-6.9095
X7.4501Y-6.9161
X9.0429Y-7.4954
X9.2579Y-7.502
X4.7401Y-7.2847
X4.8902Y-7.4388
X8.2939Y-7.5857
X8.5088Y-7.5923
T3
X3.1322Y-7.376
X7.3623Y-6.6989
X9.1701Y-7.2848
X4.6524Y-7.5019
X8.4211Y-7.3751
X3.9328Y-7.3386
X6.6428Y-6.8622
X4.9105Y-6.8631
X5.1686Y-6.2243
X7.6204Y-7.3377
X6.9009Y-7.501
X4.449Y-6.061
X2.3831Y-7.2857
X4.1909Y-6.6998
X6.3847Y-6.2234
X7.1042Y-6.0601
T0
M30
