G04 #@! TF.GenerationSoftware,KiCad,Pcbnew,(5.1.4)-1*
G04 #@! TF.CreationDate,2022-11-03T22:20:12-04:00*
G04 #@! TF.ProjectId,ThumbsUp,5468756d-6273-4557-902e-6b696361645f,rev?*
G04 #@! TF.SameCoordinates,Original*
G04 #@! TF.FileFunction,Copper,L2,Bot*
G04 #@! TF.FilePolarity,Positive*
%FSLAX46Y46*%
G04 Gerber Fmt 4.6, Leading zero omitted, Abs format (unit mm)*
G04 Created by KiCad (PCBNEW (5.1.4)-1) date 2022-11-03 22:20:12*
%MOMM*%
%LPD*%
G04 APERTURE LIST*
%ADD10O,1.700000X2.700000*%
%ADD11R,0.500000X2.250000*%
%ADD12R,1.800000X1.100000*%
%ADD13C,1.700000*%
%ADD14C,1.700000*%
%ADD15C,0.100000*%
%ADD16C,2.600000*%
%ADD17C,2.032000*%
%ADD18R,1.700000X1.700000*%
%ADD19O,1.700000X1.700000*%
%ADD20R,1.800000X2.100000*%
%ADD21R,1.500000X0.550000*%
%ADD22R,0.550000X1.500000*%
%ADD23C,0.975000*%
%ADD24C,1.250000*%
%ADD25R,1.200000X0.900000*%
%ADD26R,0.900000X1.200000*%
%ADD27C,0.800000*%
%ADD28C,0.250000*%
%ADD29C,0.381000*%
%ADD30C,0.254000*%
G04 APERTURE END LIST*
D10*
X143050000Y-155000000D03*
X150350000Y-155000000D03*
X150350000Y-159500000D03*
X143050000Y-159500000D03*
D11*
X145100000Y-159500000D03*
X145900000Y-159500000D03*
X146700000Y-159500000D03*
X147500000Y-159500000D03*
X148300000Y-159500000D03*
D12*
X161600000Y-226050000D03*
X167800000Y-229750000D03*
X161600000Y-229750000D03*
X167800000Y-226050000D03*
D13*
X194165141Y-177645498D03*
D14*
X194165141Y-177645498D02*
X194165141Y-177645498D01*
D13*
X191810094Y-178596999D03*
D14*
X191810094Y-178596999D02*
X191810094Y-178596999D01*
D13*
X189455047Y-179548499D03*
D14*
X189455047Y-179548499D02*
X189455047Y-179548499D01*
D13*
X187100000Y-180500000D03*
D15*
G36*
X188206522Y-180969691D02*
G01*
X186630309Y-181606522D01*
X185993478Y-180030309D01*
X187569691Y-179393478D01*
X188206522Y-180969691D01*
X188206522Y-180969691D01*
G37*
D13*
X241528381Y-182311090D03*
D15*
G36*
X241058690Y-183417612D02*
G01*
X240421859Y-181841399D01*
X241998072Y-181204568D01*
X242634903Y-182780781D01*
X241058690Y-183417612D01*
X241058690Y-183417612D01*
G37*
D13*
X242479882Y-184666137D03*
D14*
X242479882Y-184666137D02*
X242479882Y-184666137D01*
D13*
X243431382Y-187021184D03*
D14*
X243431382Y-187021184D02*
X243431382Y-187021184D01*
D13*
X244382883Y-189376231D03*
D14*
X244382883Y-189376231D02*
X244382883Y-189376231D01*
D13*
X172994345Y-146690649D03*
D15*
G36*
X174100867Y-147160340D02*
G01*
X172524654Y-147797171D01*
X171887823Y-146220958D01*
X173464036Y-145584127D01*
X174100867Y-147160340D01*
X174100867Y-147160340D01*
G37*
D13*
X175349392Y-145739148D03*
D14*
X175349392Y-145739148D02*
X175349392Y-145739148D01*
D13*
X177704439Y-144787648D03*
D14*
X177704439Y-144787648D02*
X177704439Y-144787648D01*
D13*
X180059486Y-143836147D03*
D14*
X180059486Y-143836147D02*
X180059486Y-143836147D01*
D13*
X180600000Y-164000000D03*
D15*
G36*
X181706522Y-164469691D02*
G01*
X180130309Y-165106522D01*
X179493478Y-163530309D01*
X181069691Y-162893478D01*
X181706522Y-164469691D01*
X181706522Y-164469691D01*
G37*
D13*
X182955047Y-163048499D03*
D14*
X182955047Y-163048499D02*
X182955047Y-163048499D01*
D13*
X185310094Y-162096999D03*
D14*
X185310094Y-162096999D02*
X185310094Y-162096999D01*
D13*
X187665141Y-161145498D03*
D14*
X187665141Y-161145498D02*
X187665141Y-161145498D01*
D13*
X182393643Y-228262834D03*
D14*
X182393643Y-228262834D02*
X182393643Y-228262834D01*
D13*
X180865033Y-226234299D03*
D14*
X180865033Y-226234299D02*
X180865033Y-226234299D01*
D13*
X179336423Y-224205765D03*
D14*
X179336423Y-224205765D02*
X179336423Y-224205765D01*
D13*
X177807813Y-222177231D03*
D15*
G36*
X177640516Y-223367614D02*
G01*
X176617430Y-222009934D01*
X177975110Y-220986848D01*
X178998196Y-222344528D01*
X177640516Y-223367614D01*
X177640516Y-223367614D01*
G37*
D16*
X238186938Y-189323428D03*
D15*
G36*
X238905288Y-187631100D02*
G01*
X239879266Y-190041778D01*
X237468588Y-191015756D01*
X236494610Y-188605078D01*
X238905288Y-187631100D01*
X238905288Y-187631100D01*
G37*
D17*
X236133916Y-179637189D03*
X230711323Y-179563136D03*
D16*
X226653830Y-191610330D03*
D15*
G36*
X227372180Y-189918002D02*
G01*
X228346158Y-192328680D01*
X225935480Y-193302658D01*
X224961502Y-190891980D01*
X227372180Y-189918002D01*
X227372180Y-189918002D01*
G37*
D16*
X185712716Y-158215455D03*
D15*
G36*
X186431066Y-156523127D02*
G01*
X187405044Y-158933805D01*
X184994366Y-159907783D01*
X184020388Y-157497105D01*
X186431066Y-156523127D01*
X186431066Y-156523127D01*
G37*
D17*
X183659694Y-148529216D03*
X178237101Y-148455163D03*
D16*
X174179608Y-160502357D03*
D15*
G36*
X174897958Y-158810029D02*
G01*
X175871936Y-161220707D01*
X173461258Y-162194685D01*
X172487280Y-159784007D01*
X174897958Y-158810029D01*
X174897958Y-158810029D01*
G37*
D16*
X192268331Y-174441172D03*
D15*
G36*
X192986681Y-172748844D02*
G01*
X193960659Y-175159522D01*
X191549981Y-176133500D01*
X190576003Y-173722822D01*
X192986681Y-172748844D01*
X192986681Y-172748844D01*
G37*
D17*
X190215309Y-164754933D03*
X184792716Y-164680880D03*
D16*
X180735223Y-176728074D03*
D15*
G36*
X181453573Y-175035746D02*
G01*
X182427551Y-177446424D01*
X180016873Y-178420402D01*
X179042895Y-176009724D01*
X181453573Y-175035746D01*
X181453573Y-175035746D01*
G37*
D16*
X198823946Y-190666890D03*
D15*
G36*
X199542296Y-188974562D02*
G01*
X200516274Y-191385240D01*
X198105596Y-192359218D01*
X197131618Y-189948540D01*
X199542296Y-188974562D01*
X199542296Y-188974562D01*
G37*
D17*
X196770924Y-180980651D03*
X191348331Y-180906598D03*
D16*
X187290838Y-192953792D03*
D15*
G36*
X188009188Y-191261464D02*
G01*
X188983166Y-193672142D01*
X186572488Y-194646120D01*
X185598510Y-192235442D01*
X188009188Y-191261464D01*
X188009188Y-191261464D01*
G37*
D16*
X219161004Y-191617731D03*
D15*
G36*
X219879354Y-189925403D02*
G01*
X220853332Y-192336081D01*
X218442654Y-193310059D01*
X217468676Y-190899381D01*
X219879354Y-189925403D01*
X219879354Y-189925403D01*
G37*
D17*
X217107982Y-181931492D03*
X211685389Y-181857439D03*
D16*
X207627896Y-193904633D03*
D15*
G36*
X208346246Y-192212305D02*
G01*
X209320224Y-194622983D01*
X206909546Y-195596961D01*
X205935568Y-193186283D01*
X208346246Y-192212305D01*
X208346246Y-192212305D01*
G37*
D13*
X205515141Y-215597906D03*
D14*
X205515141Y-215597906D02*
X205515141Y-215597906D01*
D13*
X207543676Y-214069296D03*
D14*
X207543676Y-214069296D02*
X207543676Y-214069296D01*
D13*
X209572210Y-212540686D03*
D14*
X209572210Y-212540686D02*
X209572210Y-212540686D01*
D13*
X211600744Y-211012076D03*
D15*
G36*
X210410361Y-210844779D02*
G01*
X211768041Y-209821693D01*
X212791127Y-211179373D01*
X211433447Y-212202459D01*
X210410361Y-210844779D01*
X210410361Y-210844779D01*
G37*
D13*
X87992618Y-215751511D03*
D14*
X87992618Y-215751511D02*
X87992618Y-215751511D01*
D13*
X85964083Y-214222901D03*
D14*
X85964083Y-214222901D02*
X85964083Y-214222901D01*
D13*
X83935549Y-212694291D03*
D14*
X83935549Y-212694291D02*
X83935549Y-212694291D01*
D13*
X81907015Y-211165681D03*
D15*
G36*
X82074312Y-212356064D02*
G01*
X80716632Y-211332978D01*
X81739718Y-209975298D01*
X83097398Y-210998384D01*
X82074312Y-212356064D01*
X82074312Y-212356064D01*
G37*
D13*
X52395205Y-182503276D03*
D15*
G36*
X51288683Y-182972967D02*
G01*
X51925514Y-181396754D01*
X53501727Y-182033585D01*
X52864896Y-183609798D01*
X51288683Y-182972967D01*
X51288683Y-182972967D01*
G37*
D13*
X51443704Y-184858323D03*
D14*
X51443704Y-184858323D02*
X51443704Y-184858323D01*
D13*
X50492204Y-187213370D03*
D14*
X50492204Y-187213370D02*
X50492204Y-187213370D01*
D13*
X49540703Y-189568417D03*
D14*
X49540703Y-189568417D02*
X49540703Y-189568417D01*
D13*
X120197799Y-146824591D03*
D15*
G36*
X119728108Y-145718069D02*
G01*
X121304321Y-146354900D01*
X120667490Y-147931113D01*
X119091277Y-147294282D01*
X119728108Y-145718069D01*
X119728108Y-145718069D01*
G37*
D13*
X117842752Y-145873090D03*
D14*
X117842752Y-145873090D02*
X117842752Y-145873090D01*
D13*
X115487705Y-144921590D03*
D14*
X115487705Y-144921590D02*
X115487705Y-144921590D01*
D13*
X113132658Y-143970089D03*
D14*
X113132658Y-143970089D02*
X113132658Y-143970089D01*
D13*
X113658765Y-163138249D03*
D15*
G36*
X113189074Y-162031727D02*
G01*
X114765287Y-162668558D01*
X114128456Y-164244771D01*
X112552243Y-163607940D01*
X113189074Y-162031727D01*
X113189074Y-162031727D01*
G37*
D13*
X111303718Y-162186748D03*
D14*
X111303718Y-162186748D02*
X111303718Y-162186748D01*
D13*
X108948671Y-161235248D03*
D14*
X108948671Y-161235248D02*
X108948671Y-161235248D01*
D13*
X106593624Y-160283747D03*
D14*
X106593624Y-160283747D02*
X106593624Y-160283747D01*
D13*
X99778867Y-176283747D03*
D14*
X99778867Y-176283747D02*
X99778867Y-176283747D01*
D13*
X102133914Y-177235248D03*
D14*
X102133914Y-177235248D02*
X102133914Y-177235248D01*
D13*
X104488961Y-178186748D03*
D14*
X104488961Y-178186748D02*
X104488961Y-178186748D01*
D13*
X106844008Y-179138249D03*
D15*
G36*
X106374317Y-178031727D02*
G01*
X107950530Y-178668558D01*
X107313699Y-180244771D01*
X105737486Y-179607940D01*
X106374317Y-178031727D01*
X106374317Y-178031727D01*
G37*
D16*
X112197605Y-147205393D03*
D15*
G36*
X110505277Y-147923743D02*
G01*
X111479255Y-145513065D01*
X113889933Y-146487043D01*
X112915955Y-148897721D01*
X110505277Y-147923743D01*
X110505277Y-147923743D01*
G37*
D17*
X106945799Y-155599240D03*
X110795044Y-159419359D03*
D16*
X122082444Y-153571904D03*
D15*
G36*
X120390116Y-154290254D02*
G01*
X121364094Y-151879576D01*
X123774772Y-152853554D01*
X122800794Y-155264232D01*
X120390116Y-154290254D01*
X120390116Y-154290254D01*
G37*
D16*
X173991610Y-178589843D03*
D15*
G36*
X174709960Y-176897515D02*
G01*
X175683938Y-179308193D01*
X173273260Y-180282171D01*
X172299282Y-177871493D01*
X174709960Y-176897515D01*
X174709960Y-176897515D01*
G37*
D17*
X171938588Y-168903604D03*
X166515995Y-168829551D03*
D16*
X162458502Y-180876745D03*
D15*
G36*
X163176852Y-179184417D02*
G01*
X164150830Y-181595095D01*
X161740152Y-182569073D01*
X160766174Y-180158395D01*
X163176852Y-179184417D01*
X163176852Y-179184417D01*
G37*
D16*
X59723382Y-178313366D03*
D15*
G36*
X58031054Y-179031716D02*
G01*
X59005032Y-176621038D01*
X61415710Y-177595016D01*
X60441732Y-180005694D01*
X58031054Y-179031716D01*
X58031054Y-179031716D01*
G37*
D17*
X54471576Y-186707213D03*
X58320821Y-190527332D03*
D16*
X69608221Y-184679877D03*
D15*
G36*
X67915893Y-185398227D02*
G01*
X68889871Y-182987549D01*
X71300549Y-183961527D01*
X70326571Y-186372205D01*
X67915893Y-185398227D01*
X67915893Y-185398227D01*
G37*
D16*
X78749316Y-180607669D03*
D15*
G36*
X77056988Y-181326019D02*
G01*
X78030966Y-178915341D01*
X80441644Y-179889319D01*
X79467666Y-182299997D01*
X77056988Y-181326019D01*
X77056988Y-181326019D01*
G37*
D17*
X73497510Y-189001516D03*
X77346755Y-192821635D03*
D16*
X88634155Y-186974180D03*
D15*
G36*
X86941827Y-187692530D02*
G01*
X87915805Y-185281852D01*
X90326483Y-186255830D01*
X89352505Y-188666508D01*
X86941827Y-187692530D01*
X86941827Y-187692530D01*
G37*
D16*
X99086374Y-179656828D03*
D15*
G36*
X97394046Y-180375178D02*
G01*
X98368024Y-177964500D01*
X100778702Y-178938478D01*
X99804724Y-181349156D01*
X97394046Y-180375178D01*
X97394046Y-180375178D01*
G37*
D17*
X93834568Y-188050675D03*
X97683813Y-191870794D03*
D16*
X108971213Y-186023339D03*
D15*
G36*
X107278885Y-186741689D02*
G01*
X108252863Y-184331011D01*
X110663541Y-185304989D01*
X109689563Y-187715667D01*
X107278885Y-186741689D01*
X107278885Y-186741689D01*
G37*
D16*
X180547225Y-194815560D03*
D15*
G36*
X181265575Y-193123232D02*
G01*
X182239553Y-195533910D01*
X179828875Y-196507888D01*
X178854897Y-194097210D01*
X181265575Y-193123232D01*
X181265575Y-193123232D01*
G37*
D17*
X178494203Y-185129321D03*
X173071610Y-185055268D03*
D16*
X169014117Y-197102462D03*
D15*
G36*
X169732467Y-195410134D02*
G01*
X170706445Y-197820812D01*
X168295767Y-198794790D01*
X167321789Y-196384112D01*
X169732467Y-195410134D01*
X169732467Y-195410134D01*
G37*
D16*
X130474326Y-151354063D03*
D15*
G36*
X128781998Y-152072413D02*
G01*
X129755976Y-149661735D01*
X132166654Y-150635713D01*
X131192676Y-153046391D01*
X128781998Y-152072413D01*
X128781998Y-152072413D01*
G37*
D17*
X125222520Y-159747910D03*
X129071765Y-163568029D03*
D16*
X140359165Y-157720574D03*
D15*
G36*
X138666837Y-158438924D02*
G01*
X139640815Y-156028246D01*
X142051493Y-157002224D01*
X141077515Y-159412902D01*
X138666837Y-158438924D01*
X138666837Y-158438924D01*
G37*
D16*
X117363095Y-183805498D03*
D15*
G36*
X115670767Y-184523848D02*
G01*
X116644745Y-182113170D01*
X119055423Y-183087148D01*
X118081445Y-185497826D01*
X115670767Y-184523848D01*
X115670767Y-184523848D01*
G37*
D17*
X112111289Y-192199345D03*
X115960534Y-196019464D03*
D16*
X127247934Y-190172009D03*
D15*
G36*
X125555606Y-190890359D02*
G01*
X126529584Y-188479681D01*
X128940262Y-189453659D01*
X127966284Y-191864337D01*
X125555606Y-190890359D01*
X125555606Y-190890359D01*
G37*
D16*
X123918710Y-167579781D03*
D15*
G36*
X122226382Y-168298131D02*
G01*
X123200360Y-165887453D01*
X125611038Y-166861431D01*
X124637060Y-169272109D01*
X122226382Y-168298131D01*
X122226382Y-168298131D01*
G37*
D17*
X118666904Y-175973628D03*
X122516149Y-179793747D03*
D16*
X133803549Y-173946292D03*
D15*
G36*
X132111221Y-174664642D02*
G01*
X133085199Y-172253964D01*
X135495877Y-173227942D01*
X134521899Y-175638620D01*
X132111221Y-174664642D01*
X132111221Y-174664642D01*
G37*
D16*
X167435995Y-162364125D03*
D15*
G36*
X168154345Y-160671797D02*
G01*
X169128323Y-163082475D01*
X166717645Y-164056453D01*
X165743667Y-161645775D01*
X168154345Y-160671797D01*
X168154345Y-160671797D01*
G37*
D17*
X165382973Y-152677886D03*
X159960380Y-152603833D03*
D16*
X155902887Y-164651027D03*
D15*
G36*
X156621237Y-162958699D02*
G01*
X157595215Y-165369377D01*
X155184537Y-166343355D01*
X154210559Y-163932677D01*
X156621237Y-162958699D01*
X156621237Y-162958699D01*
G37*
D16*
X105641989Y-163431110D03*
D15*
G36*
X103949661Y-164149460D02*
G01*
X104923639Y-161738782D01*
X107334317Y-162712760D01*
X106360339Y-165123438D01*
X103949661Y-164149460D01*
X103949661Y-164149460D01*
G37*
D17*
X100390183Y-171824957D03*
X104239428Y-175645076D03*
D16*
X115526828Y-169797621D03*
D15*
G36*
X113834500Y-170515971D02*
G01*
X114808478Y-168105293D01*
X117219156Y-169079271D01*
X116245178Y-171489949D01*
X113834500Y-170515971D01*
X113834500Y-170515971D01*
G37*
D13*
X101828320Y-226087050D03*
D14*
X101828320Y-226087050D02*
X101828320Y-226087050D01*
D13*
X99799785Y-224558440D03*
D14*
X99799785Y-224558440D02*
X99799785Y-224558440D01*
D13*
X97771251Y-223029830D03*
D14*
X97771251Y-223029830D02*
X97771251Y-223029830D01*
D13*
X95742717Y-221501220D03*
D15*
G36*
X95910014Y-222691603D02*
G01*
X94552334Y-221668517D01*
X95575420Y-220310837D01*
X96933100Y-221333923D01*
X95910014Y-222691603D01*
X95910014Y-222691603D01*
G37*
D18*
X146658765Y-172638249D03*
D19*
X146658765Y-175178249D03*
X146658765Y-177718249D03*
X146658765Y-180258249D03*
D13*
X191716901Y-226026163D03*
D15*
G36*
X192907284Y-226193460D02*
G01*
X191549604Y-227216546D01*
X190526518Y-225858866D01*
X191884198Y-224835780D01*
X192907284Y-226193460D01*
X192907284Y-226193460D01*
G37*
D13*
X193745435Y-224497553D03*
D14*
X193745435Y-224497553D02*
X193745435Y-224497553D01*
D13*
X195773969Y-222968943D03*
D14*
X195773969Y-222968943D02*
X195773969Y-222968943D01*
D13*
X197802504Y-221440333D03*
D14*
X197802504Y-221440333D02*
X197802504Y-221440333D01*
D13*
X110834284Y-228461436D03*
D14*
X110834284Y-228461436D02*
X110834284Y-228461436D01*
D13*
X112362894Y-226432901D03*
D14*
X112362894Y-226432901D02*
X112362894Y-226432901D01*
D13*
X113891504Y-224404367D03*
D14*
X113891504Y-224404367D02*
X113891504Y-224404367D01*
D13*
X115420114Y-222375833D03*
D15*
G36*
X114229731Y-222543130D02*
G01*
X115252817Y-221185450D01*
X116610497Y-222208536D01*
X115587411Y-223566216D01*
X114229731Y-222543130D01*
X114229731Y-222543130D01*
G37*
D20*
X162718750Y-212725000D03*
X162718750Y-209825000D03*
X160418750Y-209825000D03*
X160418750Y-212725000D03*
D21*
X138793750Y-206487500D03*
X138793750Y-207287500D03*
X138793750Y-208087500D03*
X138793750Y-208887500D03*
X138793750Y-209687500D03*
X138793750Y-210487500D03*
X138793750Y-211287500D03*
X138793750Y-212087500D03*
X138793750Y-212887500D03*
X138793750Y-213687500D03*
X138793750Y-214487500D03*
D22*
X140493750Y-216187500D03*
X141293750Y-216187500D03*
X142093750Y-216187500D03*
X142893750Y-216187500D03*
X143693750Y-216187500D03*
X144493750Y-216187500D03*
X145293750Y-216187500D03*
X146093750Y-216187500D03*
X146893750Y-216187500D03*
X147693750Y-216187500D03*
X148493750Y-216187500D03*
D21*
X150193750Y-214487500D03*
X150193750Y-213687500D03*
X150193750Y-212887500D03*
X150193750Y-212087500D03*
X150193750Y-211287500D03*
X150193750Y-210487500D03*
X150193750Y-209687500D03*
X150193750Y-208887500D03*
X150193750Y-208087500D03*
X150193750Y-207287500D03*
X150193750Y-206487500D03*
D22*
X148493750Y-204787500D03*
X147693750Y-204787500D03*
X146893750Y-204787500D03*
X146093750Y-204787500D03*
X145293750Y-204787500D03*
X144493750Y-204787500D03*
X143693750Y-204787500D03*
X142893750Y-204787500D03*
X142093750Y-204787500D03*
X141293750Y-204787500D03*
X140493750Y-204787500D03*
D15*
G36*
X140973892Y-220176174D02*
G01*
X140997553Y-220179684D01*
X141020757Y-220185496D01*
X141043279Y-220193554D01*
X141064903Y-220203782D01*
X141085420Y-220216079D01*
X141104633Y-220230329D01*
X141122357Y-220246393D01*
X141138421Y-220264117D01*
X141152671Y-220283330D01*
X141164968Y-220303847D01*
X141175196Y-220325471D01*
X141183254Y-220347993D01*
X141189066Y-220371197D01*
X141192576Y-220394858D01*
X141193750Y-220418750D01*
X141193750Y-220906250D01*
X141192576Y-220930142D01*
X141189066Y-220953803D01*
X141183254Y-220977007D01*
X141175196Y-220999529D01*
X141164968Y-221021153D01*
X141152671Y-221041670D01*
X141138421Y-221060883D01*
X141122357Y-221078607D01*
X141104633Y-221094671D01*
X141085420Y-221108921D01*
X141064903Y-221121218D01*
X141043279Y-221131446D01*
X141020757Y-221139504D01*
X140997553Y-221145316D01*
X140973892Y-221148826D01*
X140950000Y-221150000D01*
X140037500Y-221150000D01*
X140013608Y-221148826D01*
X139989947Y-221145316D01*
X139966743Y-221139504D01*
X139944221Y-221131446D01*
X139922597Y-221121218D01*
X139902080Y-221108921D01*
X139882867Y-221094671D01*
X139865143Y-221078607D01*
X139849079Y-221060883D01*
X139834829Y-221041670D01*
X139822532Y-221021153D01*
X139812304Y-220999529D01*
X139804246Y-220977007D01*
X139798434Y-220953803D01*
X139794924Y-220930142D01*
X139793750Y-220906250D01*
X139793750Y-220418750D01*
X139794924Y-220394858D01*
X139798434Y-220371197D01*
X139804246Y-220347993D01*
X139812304Y-220325471D01*
X139822532Y-220303847D01*
X139834829Y-220283330D01*
X139849079Y-220264117D01*
X139865143Y-220246393D01*
X139882867Y-220230329D01*
X139902080Y-220216079D01*
X139922597Y-220203782D01*
X139944221Y-220193554D01*
X139966743Y-220185496D01*
X139989947Y-220179684D01*
X140013608Y-220176174D01*
X140037500Y-220175000D01*
X140950000Y-220175000D01*
X140973892Y-220176174D01*
X140973892Y-220176174D01*
G37*
D23*
X140493750Y-220662500D03*
D15*
G36*
X140973892Y-222051174D02*
G01*
X140997553Y-222054684D01*
X141020757Y-222060496D01*
X141043279Y-222068554D01*
X141064903Y-222078782D01*
X141085420Y-222091079D01*
X141104633Y-222105329D01*
X141122357Y-222121393D01*
X141138421Y-222139117D01*
X141152671Y-222158330D01*
X141164968Y-222178847D01*
X141175196Y-222200471D01*
X141183254Y-222222993D01*
X141189066Y-222246197D01*
X141192576Y-222269858D01*
X141193750Y-222293750D01*
X141193750Y-222781250D01*
X141192576Y-222805142D01*
X141189066Y-222828803D01*
X141183254Y-222852007D01*
X141175196Y-222874529D01*
X141164968Y-222896153D01*
X141152671Y-222916670D01*
X141138421Y-222935883D01*
X141122357Y-222953607D01*
X141104633Y-222969671D01*
X141085420Y-222983921D01*
X141064903Y-222996218D01*
X141043279Y-223006446D01*
X141020757Y-223014504D01*
X140997553Y-223020316D01*
X140973892Y-223023826D01*
X140950000Y-223025000D01*
X140037500Y-223025000D01*
X140013608Y-223023826D01*
X139989947Y-223020316D01*
X139966743Y-223014504D01*
X139944221Y-223006446D01*
X139922597Y-222996218D01*
X139902080Y-222983921D01*
X139882867Y-222969671D01*
X139865143Y-222953607D01*
X139849079Y-222935883D01*
X139834829Y-222916670D01*
X139822532Y-222896153D01*
X139812304Y-222874529D01*
X139804246Y-222852007D01*
X139798434Y-222828803D01*
X139794924Y-222805142D01*
X139793750Y-222781250D01*
X139793750Y-222293750D01*
X139794924Y-222269858D01*
X139798434Y-222246197D01*
X139804246Y-222222993D01*
X139812304Y-222200471D01*
X139822532Y-222178847D01*
X139834829Y-222158330D01*
X139849079Y-222139117D01*
X139865143Y-222121393D01*
X139882867Y-222105329D01*
X139902080Y-222091079D01*
X139922597Y-222078782D01*
X139944221Y-222068554D01*
X139966743Y-222060496D01*
X139989947Y-222054684D01*
X140013608Y-222051174D01*
X140037500Y-222050000D01*
X140950000Y-222050000D01*
X140973892Y-222051174D01*
X140973892Y-222051174D01*
G37*
D23*
X140493750Y-222537500D03*
D15*
G36*
X152086392Y-221763674D02*
G01*
X152110053Y-221767184D01*
X152133257Y-221772996D01*
X152155779Y-221781054D01*
X152177403Y-221791282D01*
X152197920Y-221803579D01*
X152217133Y-221817829D01*
X152234857Y-221833893D01*
X152250921Y-221851617D01*
X152265171Y-221870830D01*
X152277468Y-221891347D01*
X152287696Y-221912971D01*
X152295754Y-221935493D01*
X152301566Y-221958697D01*
X152305076Y-221982358D01*
X152306250Y-222006250D01*
X152306250Y-222493750D01*
X152305076Y-222517642D01*
X152301566Y-222541303D01*
X152295754Y-222564507D01*
X152287696Y-222587029D01*
X152277468Y-222608653D01*
X152265171Y-222629170D01*
X152250921Y-222648383D01*
X152234857Y-222666107D01*
X152217133Y-222682171D01*
X152197920Y-222696421D01*
X152177403Y-222708718D01*
X152155779Y-222718946D01*
X152133257Y-222727004D01*
X152110053Y-222732816D01*
X152086392Y-222736326D01*
X152062500Y-222737500D01*
X151150000Y-222737500D01*
X151126108Y-222736326D01*
X151102447Y-222732816D01*
X151079243Y-222727004D01*
X151056721Y-222718946D01*
X151035097Y-222708718D01*
X151014580Y-222696421D01*
X150995367Y-222682171D01*
X150977643Y-222666107D01*
X150961579Y-222648383D01*
X150947329Y-222629170D01*
X150935032Y-222608653D01*
X150924804Y-222587029D01*
X150916746Y-222564507D01*
X150910934Y-222541303D01*
X150907424Y-222517642D01*
X150906250Y-222493750D01*
X150906250Y-222006250D01*
X150907424Y-221982358D01*
X150910934Y-221958697D01*
X150916746Y-221935493D01*
X150924804Y-221912971D01*
X150935032Y-221891347D01*
X150947329Y-221870830D01*
X150961579Y-221851617D01*
X150977643Y-221833893D01*
X150995367Y-221817829D01*
X151014580Y-221803579D01*
X151035097Y-221791282D01*
X151056721Y-221781054D01*
X151079243Y-221772996D01*
X151102447Y-221767184D01*
X151126108Y-221763674D01*
X151150000Y-221762500D01*
X152062500Y-221762500D01*
X152086392Y-221763674D01*
X152086392Y-221763674D01*
G37*
D23*
X151606250Y-222250000D03*
D15*
G36*
X152086392Y-219888674D02*
G01*
X152110053Y-219892184D01*
X152133257Y-219897996D01*
X152155779Y-219906054D01*
X152177403Y-219916282D01*
X152197920Y-219928579D01*
X152217133Y-219942829D01*
X152234857Y-219958893D01*
X152250921Y-219976617D01*
X152265171Y-219995830D01*
X152277468Y-220016347D01*
X152287696Y-220037971D01*
X152295754Y-220060493D01*
X152301566Y-220083697D01*
X152305076Y-220107358D01*
X152306250Y-220131250D01*
X152306250Y-220618750D01*
X152305076Y-220642642D01*
X152301566Y-220666303D01*
X152295754Y-220689507D01*
X152287696Y-220712029D01*
X152277468Y-220733653D01*
X152265171Y-220754170D01*
X152250921Y-220773383D01*
X152234857Y-220791107D01*
X152217133Y-220807171D01*
X152197920Y-220821421D01*
X152177403Y-220833718D01*
X152155779Y-220843946D01*
X152133257Y-220852004D01*
X152110053Y-220857816D01*
X152086392Y-220861326D01*
X152062500Y-220862500D01*
X151150000Y-220862500D01*
X151126108Y-220861326D01*
X151102447Y-220857816D01*
X151079243Y-220852004D01*
X151056721Y-220843946D01*
X151035097Y-220833718D01*
X151014580Y-220821421D01*
X150995367Y-220807171D01*
X150977643Y-220791107D01*
X150961579Y-220773383D01*
X150947329Y-220754170D01*
X150935032Y-220733653D01*
X150924804Y-220712029D01*
X150916746Y-220689507D01*
X150910934Y-220666303D01*
X150907424Y-220642642D01*
X150906250Y-220618750D01*
X150906250Y-220131250D01*
X150907424Y-220107358D01*
X150910934Y-220083697D01*
X150916746Y-220060493D01*
X150924804Y-220037971D01*
X150935032Y-220016347D01*
X150947329Y-219995830D01*
X150961579Y-219976617D01*
X150977643Y-219958893D01*
X150995367Y-219942829D01*
X151014580Y-219928579D01*
X151035097Y-219916282D01*
X151056721Y-219906054D01*
X151079243Y-219897996D01*
X151102447Y-219892184D01*
X151126108Y-219888674D01*
X151150000Y-219887500D01*
X152062500Y-219887500D01*
X152086392Y-219888674D01*
X152086392Y-219888674D01*
G37*
D23*
X151606250Y-220375000D03*
D15*
G36*
X148117642Y-186838674D02*
G01*
X148141303Y-186842184D01*
X148164507Y-186847996D01*
X148187029Y-186856054D01*
X148208653Y-186866282D01*
X148229170Y-186878579D01*
X148248383Y-186892829D01*
X148266107Y-186908893D01*
X148282171Y-186926617D01*
X148296421Y-186945830D01*
X148308718Y-186966347D01*
X148318946Y-186987971D01*
X148327004Y-187010493D01*
X148332816Y-187033697D01*
X148336326Y-187057358D01*
X148337500Y-187081250D01*
X148337500Y-187568750D01*
X148336326Y-187592642D01*
X148332816Y-187616303D01*
X148327004Y-187639507D01*
X148318946Y-187662029D01*
X148308718Y-187683653D01*
X148296421Y-187704170D01*
X148282171Y-187723383D01*
X148266107Y-187741107D01*
X148248383Y-187757171D01*
X148229170Y-187771421D01*
X148208653Y-187783718D01*
X148187029Y-187793946D01*
X148164507Y-187802004D01*
X148141303Y-187807816D01*
X148117642Y-187811326D01*
X148093750Y-187812500D01*
X147181250Y-187812500D01*
X147157358Y-187811326D01*
X147133697Y-187807816D01*
X147110493Y-187802004D01*
X147087971Y-187793946D01*
X147066347Y-187783718D01*
X147045830Y-187771421D01*
X147026617Y-187757171D01*
X147008893Y-187741107D01*
X146992829Y-187723383D01*
X146978579Y-187704170D01*
X146966282Y-187683653D01*
X146956054Y-187662029D01*
X146947996Y-187639507D01*
X146942184Y-187616303D01*
X146938674Y-187592642D01*
X146937500Y-187568750D01*
X146937500Y-187081250D01*
X146938674Y-187057358D01*
X146942184Y-187033697D01*
X146947996Y-187010493D01*
X146956054Y-186987971D01*
X146966282Y-186966347D01*
X146978579Y-186945830D01*
X146992829Y-186926617D01*
X147008893Y-186908893D01*
X147026617Y-186892829D01*
X147045830Y-186878579D01*
X147066347Y-186866282D01*
X147087971Y-186856054D01*
X147110493Y-186847996D01*
X147133697Y-186842184D01*
X147157358Y-186838674D01*
X147181250Y-186837500D01*
X148093750Y-186837500D01*
X148117642Y-186838674D01*
X148117642Y-186838674D01*
G37*
D23*
X147637500Y-187325000D03*
D15*
G36*
X148117642Y-188713674D02*
G01*
X148141303Y-188717184D01*
X148164507Y-188722996D01*
X148187029Y-188731054D01*
X148208653Y-188741282D01*
X148229170Y-188753579D01*
X148248383Y-188767829D01*
X148266107Y-188783893D01*
X148282171Y-188801617D01*
X148296421Y-188820830D01*
X148308718Y-188841347D01*
X148318946Y-188862971D01*
X148327004Y-188885493D01*
X148332816Y-188908697D01*
X148336326Y-188932358D01*
X148337500Y-188956250D01*
X148337500Y-189443750D01*
X148336326Y-189467642D01*
X148332816Y-189491303D01*
X148327004Y-189514507D01*
X148318946Y-189537029D01*
X148308718Y-189558653D01*
X148296421Y-189579170D01*
X148282171Y-189598383D01*
X148266107Y-189616107D01*
X148248383Y-189632171D01*
X148229170Y-189646421D01*
X148208653Y-189658718D01*
X148187029Y-189668946D01*
X148164507Y-189677004D01*
X148141303Y-189682816D01*
X148117642Y-189686326D01*
X148093750Y-189687500D01*
X147181250Y-189687500D01*
X147157358Y-189686326D01*
X147133697Y-189682816D01*
X147110493Y-189677004D01*
X147087971Y-189668946D01*
X147066347Y-189658718D01*
X147045830Y-189646421D01*
X147026617Y-189632171D01*
X147008893Y-189616107D01*
X146992829Y-189598383D01*
X146978579Y-189579170D01*
X146966282Y-189558653D01*
X146956054Y-189537029D01*
X146947996Y-189514507D01*
X146942184Y-189491303D01*
X146938674Y-189467642D01*
X146937500Y-189443750D01*
X146937500Y-188956250D01*
X146938674Y-188932358D01*
X146942184Y-188908697D01*
X146947996Y-188885493D01*
X146956054Y-188862971D01*
X146966282Y-188841347D01*
X146978579Y-188820830D01*
X146992829Y-188801617D01*
X147008893Y-188783893D01*
X147026617Y-188767829D01*
X147045830Y-188753579D01*
X147066347Y-188741282D01*
X147087971Y-188731054D01*
X147110493Y-188722996D01*
X147133697Y-188717184D01*
X147157358Y-188713674D01*
X147181250Y-188712500D01*
X148093750Y-188712500D01*
X148117642Y-188713674D01*
X148117642Y-188713674D01*
G37*
D23*
X147637500Y-189200000D03*
D15*
G36*
X145736392Y-186838674D02*
G01*
X145760053Y-186842184D01*
X145783257Y-186847996D01*
X145805779Y-186856054D01*
X145827403Y-186866282D01*
X145847920Y-186878579D01*
X145867133Y-186892829D01*
X145884857Y-186908893D01*
X145900921Y-186926617D01*
X145915171Y-186945830D01*
X145927468Y-186966347D01*
X145937696Y-186987971D01*
X145945754Y-187010493D01*
X145951566Y-187033697D01*
X145955076Y-187057358D01*
X145956250Y-187081250D01*
X145956250Y-187568750D01*
X145955076Y-187592642D01*
X145951566Y-187616303D01*
X145945754Y-187639507D01*
X145937696Y-187662029D01*
X145927468Y-187683653D01*
X145915171Y-187704170D01*
X145900921Y-187723383D01*
X145884857Y-187741107D01*
X145867133Y-187757171D01*
X145847920Y-187771421D01*
X145827403Y-187783718D01*
X145805779Y-187793946D01*
X145783257Y-187802004D01*
X145760053Y-187807816D01*
X145736392Y-187811326D01*
X145712500Y-187812500D01*
X144800000Y-187812500D01*
X144776108Y-187811326D01*
X144752447Y-187807816D01*
X144729243Y-187802004D01*
X144706721Y-187793946D01*
X144685097Y-187783718D01*
X144664580Y-187771421D01*
X144645367Y-187757171D01*
X144627643Y-187741107D01*
X144611579Y-187723383D01*
X144597329Y-187704170D01*
X144585032Y-187683653D01*
X144574804Y-187662029D01*
X144566746Y-187639507D01*
X144560934Y-187616303D01*
X144557424Y-187592642D01*
X144556250Y-187568750D01*
X144556250Y-187081250D01*
X144557424Y-187057358D01*
X144560934Y-187033697D01*
X144566746Y-187010493D01*
X144574804Y-186987971D01*
X144585032Y-186966347D01*
X144597329Y-186945830D01*
X144611579Y-186926617D01*
X144627643Y-186908893D01*
X144645367Y-186892829D01*
X144664580Y-186878579D01*
X144685097Y-186866282D01*
X144706721Y-186856054D01*
X144729243Y-186847996D01*
X144752447Y-186842184D01*
X144776108Y-186838674D01*
X144800000Y-186837500D01*
X145712500Y-186837500D01*
X145736392Y-186838674D01*
X145736392Y-186838674D01*
G37*
D23*
X145256250Y-187325000D03*
D15*
G36*
X145736392Y-188713674D02*
G01*
X145760053Y-188717184D01*
X145783257Y-188722996D01*
X145805779Y-188731054D01*
X145827403Y-188741282D01*
X145847920Y-188753579D01*
X145867133Y-188767829D01*
X145884857Y-188783893D01*
X145900921Y-188801617D01*
X145915171Y-188820830D01*
X145927468Y-188841347D01*
X145937696Y-188862971D01*
X145945754Y-188885493D01*
X145951566Y-188908697D01*
X145955076Y-188932358D01*
X145956250Y-188956250D01*
X145956250Y-189443750D01*
X145955076Y-189467642D01*
X145951566Y-189491303D01*
X145945754Y-189514507D01*
X145937696Y-189537029D01*
X145927468Y-189558653D01*
X145915171Y-189579170D01*
X145900921Y-189598383D01*
X145884857Y-189616107D01*
X145867133Y-189632171D01*
X145847920Y-189646421D01*
X145827403Y-189658718D01*
X145805779Y-189668946D01*
X145783257Y-189677004D01*
X145760053Y-189682816D01*
X145736392Y-189686326D01*
X145712500Y-189687500D01*
X144800000Y-189687500D01*
X144776108Y-189686326D01*
X144752447Y-189682816D01*
X144729243Y-189677004D01*
X144706721Y-189668946D01*
X144685097Y-189658718D01*
X144664580Y-189646421D01*
X144645367Y-189632171D01*
X144627643Y-189616107D01*
X144611579Y-189598383D01*
X144597329Y-189579170D01*
X144585032Y-189558653D01*
X144574804Y-189537029D01*
X144566746Y-189514507D01*
X144560934Y-189491303D01*
X144557424Y-189467642D01*
X144556250Y-189443750D01*
X144556250Y-188956250D01*
X144557424Y-188932358D01*
X144560934Y-188908697D01*
X144566746Y-188885493D01*
X144574804Y-188862971D01*
X144585032Y-188841347D01*
X144597329Y-188820830D01*
X144611579Y-188801617D01*
X144627643Y-188783893D01*
X144645367Y-188767829D01*
X144664580Y-188753579D01*
X144685097Y-188741282D01*
X144706721Y-188731054D01*
X144729243Y-188722996D01*
X144752447Y-188717184D01*
X144776108Y-188713674D01*
X144800000Y-188712500D01*
X145712500Y-188712500D01*
X145736392Y-188713674D01*
X145736392Y-188713674D01*
G37*
D23*
X145256250Y-189200000D03*
D15*
G36*
X141937004Y-186888704D02*
G01*
X141961273Y-186892304D01*
X141985071Y-186898265D01*
X142008171Y-186906530D01*
X142030349Y-186917020D01*
X142051393Y-186929633D01*
X142071098Y-186944247D01*
X142089277Y-186960723D01*
X142105753Y-186978902D01*
X142120367Y-186998607D01*
X142132980Y-187019651D01*
X142143470Y-187041829D01*
X142151735Y-187064929D01*
X142157696Y-187088727D01*
X142161296Y-187112996D01*
X142162500Y-187137500D01*
X142162500Y-187887500D01*
X142161296Y-187912004D01*
X142157696Y-187936273D01*
X142151735Y-187960071D01*
X142143470Y-187983171D01*
X142132980Y-188005349D01*
X142120367Y-188026393D01*
X142105753Y-188046098D01*
X142089277Y-188064277D01*
X142071098Y-188080753D01*
X142051393Y-188095367D01*
X142030349Y-188107980D01*
X142008171Y-188118470D01*
X141985071Y-188126735D01*
X141961273Y-188132696D01*
X141937004Y-188136296D01*
X141912500Y-188137500D01*
X140662500Y-188137500D01*
X140637996Y-188136296D01*
X140613727Y-188132696D01*
X140589929Y-188126735D01*
X140566829Y-188118470D01*
X140544651Y-188107980D01*
X140523607Y-188095367D01*
X140503902Y-188080753D01*
X140485723Y-188064277D01*
X140469247Y-188046098D01*
X140454633Y-188026393D01*
X140442020Y-188005349D01*
X140431530Y-187983171D01*
X140423265Y-187960071D01*
X140417304Y-187936273D01*
X140413704Y-187912004D01*
X140412500Y-187887500D01*
X140412500Y-187137500D01*
X140413704Y-187112996D01*
X140417304Y-187088727D01*
X140423265Y-187064929D01*
X140431530Y-187041829D01*
X140442020Y-187019651D01*
X140454633Y-186998607D01*
X140469247Y-186978902D01*
X140485723Y-186960723D01*
X140503902Y-186944247D01*
X140523607Y-186929633D01*
X140544651Y-186917020D01*
X140566829Y-186906530D01*
X140589929Y-186898265D01*
X140613727Y-186892304D01*
X140637996Y-186888704D01*
X140662500Y-186887500D01*
X141912500Y-186887500D01*
X141937004Y-186888704D01*
X141937004Y-186888704D01*
G37*
D24*
X141287500Y-187512500D03*
D15*
G36*
X141937004Y-189688704D02*
G01*
X141961273Y-189692304D01*
X141985071Y-189698265D01*
X142008171Y-189706530D01*
X142030349Y-189717020D01*
X142051393Y-189729633D01*
X142071098Y-189744247D01*
X142089277Y-189760723D01*
X142105753Y-189778902D01*
X142120367Y-189798607D01*
X142132980Y-189819651D01*
X142143470Y-189841829D01*
X142151735Y-189864929D01*
X142157696Y-189888727D01*
X142161296Y-189912996D01*
X142162500Y-189937500D01*
X142162500Y-190687500D01*
X142161296Y-190712004D01*
X142157696Y-190736273D01*
X142151735Y-190760071D01*
X142143470Y-190783171D01*
X142132980Y-190805349D01*
X142120367Y-190826393D01*
X142105753Y-190846098D01*
X142089277Y-190864277D01*
X142071098Y-190880753D01*
X142051393Y-190895367D01*
X142030349Y-190907980D01*
X142008171Y-190918470D01*
X141985071Y-190926735D01*
X141961273Y-190932696D01*
X141937004Y-190936296D01*
X141912500Y-190937500D01*
X140662500Y-190937500D01*
X140637996Y-190936296D01*
X140613727Y-190932696D01*
X140589929Y-190926735D01*
X140566829Y-190918470D01*
X140544651Y-190907980D01*
X140523607Y-190895367D01*
X140503902Y-190880753D01*
X140485723Y-190864277D01*
X140469247Y-190846098D01*
X140454633Y-190826393D01*
X140442020Y-190805349D01*
X140431530Y-190783171D01*
X140423265Y-190760071D01*
X140417304Y-190736273D01*
X140413704Y-190712004D01*
X140412500Y-190687500D01*
X140412500Y-189937500D01*
X140413704Y-189912996D01*
X140417304Y-189888727D01*
X140423265Y-189864929D01*
X140431530Y-189841829D01*
X140442020Y-189819651D01*
X140454633Y-189798607D01*
X140469247Y-189778902D01*
X140485723Y-189760723D01*
X140503902Y-189744247D01*
X140523607Y-189729633D01*
X140544651Y-189717020D01*
X140566829Y-189706530D01*
X140589929Y-189698265D01*
X140613727Y-189692304D01*
X140637996Y-189688704D01*
X140662500Y-189687500D01*
X141912500Y-189687500D01*
X141937004Y-189688704D01*
X141937004Y-189688704D01*
G37*
D24*
X141287500Y-190312500D03*
D25*
X194468750Y-206312500D03*
X194468750Y-209612500D03*
X192087500Y-206312500D03*
X192087500Y-209612500D03*
X180181250Y-206312500D03*
X180181250Y-209612500D03*
X182562500Y-206312500D03*
X182562500Y-209612500D03*
X184943750Y-206312500D03*
X184943750Y-209612500D03*
X187325000Y-206312500D03*
X187325000Y-209612500D03*
D26*
X157956250Y-186531250D03*
X154656250Y-186531250D03*
X157956250Y-188912500D03*
X154656250Y-188912500D03*
X157956250Y-191293750D03*
X154656250Y-191293750D03*
X157956250Y-193675000D03*
X154656250Y-193675000D03*
X155700000Y-171450000D03*
X152400000Y-171450000D03*
X155700000Y-173831250D03*
X152400000Y-173831250D03*
X155700000Y-176212500D03*
X152400000Y-176212500D03*
X155700000Y-178593750D03*
X152400000Y-178593750D03*
D25*
X199231250Y-206312500D03*
X199231250Y-209612500D03*
X196850000Y-206312500D03*
X196850000Y-209612500D03*
X189706250Y-206312500D03*
X189706250Y-209612500D03*
D26*
X157956250Y-196056250D03*
X154656250Y-196056250D03*
X155700000Y-180975000D03*
X152400000Y-180975000D03*
D25*
X177800000Y-206312500D03*
X177800000Y-209612500D03*
D26*
X157956250Y-184150000D03*
X154656250Y-184150000D03*
X155700000Y-169068750D03*
X152400000Y-169068750D03*
D25*
X118268750Y-206312500D03*
X118268750Y-209612500D03*
D26*
X133287500Y-184150000D03*
X136587500Y-184150000D03*
X138112500Y-169068750D03*
X141412500Y-169068750D03*
D25*
X96837500Y-206312500D03*
X96837500Y-209612500D03*
X99218750Y-206312500D03*
X99218750Y-209612500D03*
X106362500Y-206312500D03*
X106362500Y-209612500D03*
D26*
X133287500Y-196056250D03*
X136587500Y-196056250D03*
X138112500Y-180975000D03*
X141412500Y-180975000D03*
D25*
X101600000Y-206312500D03*
X101600000Y-209612500D03*
X103981250Y-206312500D03*
X103981250Y-209612500D03*
X115887500Y-206312500D03*
X115887500Y-209612500D03*
X113506250Y-206312500D03*
X113506250Y-209612500D03*
X111125000Y-206312500D03*
X111125000Y-209612500D03*
X108743750Y-206312500D03*
X108743750Y-209612500D03*
D26*
X133287500Y-186531250D03*
X136587500Y-186531250D03*
X133287500Y-188912500D03*
X136587500Y-188912500D03*
X133287500Y-191293750D03*
X136587500Y-191293750D03*
X133287500Y-193675000D03*
X136587500Y-193675000D03*
X138112500Y-171450000D03*
X141412500Y-171450000D03*
X138112500Y-173831250D03*
X141412500Y-173831250D03*
X138112500Y-176212500D03*
X141412500Y-176212500D03*
X138112500Y-178593750D03*
X141412500Y-178593750D03*
D15*
G36*
X135417642Y-206032424D02*
G01*
X135441303Y-206035934D01*
X135464507Y-206041746D01*
X135487029Y-206049804D01*
X135508653Y-206060032D01*
X135529170Y-206072329D01*
X135548383Y-206086579D01*
X135566107Y-206102643D01*
X135582171Y-206120367D01*
X135596421Y-206139580D01*
X135608718Y-206160097D01*
X135618946Y-206181721D01*
X135627004Y-206204243D01*
X135632816Y-206227447D01*
X135636326Y-206251108D01*
X135637500Y-206275000D01*
X135637500Y-206762500D01*
X135636326Y-206786392D01*
X135632816Y-206810053D01*
X135627004Y-206833257D01*
X135618946Y-206855779D01*
X135608718Y-206877403D01*
X135596421Y-206897920D01*
X135582171Y-206917133D01*
X135566107Y-206934857D01*
X135548383Y-206950921D01*
X135529170Y-206965171D01*
X135508653Y-206977468D01*
X135487029Y-206987696D01*
X135464507Y-206995754D01*
X135441303Y-207001566D01*
X135417642Y-207005076D01*
X135393750Y-207006250D01*
X134481250Y-207006250D01*
X134457358Y-207005076D01*
X134433697Y-207001566D01*
X134410493Y-206995754D01*
X134387971Y-206987696D01*
X134366347Y-206977468D01*
X134345830Y-206965171D01*
X134326617Y-206950921D01*
X134308893Y-206934857D01*
X134292829Y-206917133D01*
X134278579Y-206897920D01*
X134266282Y-206877403D01*
X134256054Y-206855779D01*
X134247996Y-206833257D01*
X134242184Y-206810053D01*
X134238674Y-206786392D01*
X134237500Y-206762500D01*
X134237500Y-206275000D01*
X134238674Y-206251108D01*
X134242184Y-206227447D01*
X134247996Y-206204243D01*
X134256054Y-206181721D01*
X134266282Y-206160097D01*
X134278579Y-206139580D01*
X134292829Y-206120367D01*
X134308893Y-206102643D01*
X134326617Y-206086579D01*
X134345830Y-206072329D01*
X134366347Y-206060032D01*
X134387971Y-206049804D01*
X134410493Y-206041746D01*
X134433697Y-206035934D01*
X134457358Y-206032424D01*
X134481250Y-206031250D01*
X135393750Y-206031250D01*
X135417642Y-206032424D01*
X135417642Y-206032424D01*
G37*
D23*
X134937500Y-206518750D03*
D15*
G36*
X135417642Y-204157424D02*
G01*
X135441303Y-204160934D01*
X135464507Y-204166746D01*
X135487029Y-204174804D01*
X135508653Y-204185032D01*
X135529170Y-204197329D01*
X135548383Y-204211579D01*
X135566107Y-204227643D01*
X135582171Y-204245367D01*
X135596421Y-204264580D01*
X135608718Y-204285097D01*
X135618946Y-204306721D01*
X135627004Y-204329243D01*
X135632816Y-204352447D01*
X135636326Y-204376108D01*
X135637500Y-204400000D01*
X135637500Y-204887500D01*
X135636326Y-204911392D01*
X135632816Y-204935053D01*
X135627004Y-204958257D01*
X135618946Y-204980779D01*
X135608718Y-205002403D01*
X135596421Y-205022920D01*
X135582171Y-205042133D01*
X135566107Y-205059857D01*
X135548383Y-205075921D01*
X135529170Y-205090171D01*
X135508653Y-205102468D01*
X135487029Y-205112696D01*
X135464507Y-205120754D01*
X135441303Y-205126566D01*
X135417642Y-205130076D01*
X135393750Y-205131250D01*
X134481250Y-205131250D01*
X134457358Y-205130076D01*
X134433697Y-205126566D01*
X134410493Y-205120754D01*
X134387971Y-205112696D01*
X134366347Y-205102468D01*
X134345830Y-205090171D01*
X134326617Y-205075921D01*
X134308893Y-205059857D01*
X134292829Y-205042133D01*
X134278579Y-205022920D01*
X134266282Y-205002403D01*
X134256054Y-204980779D01*
X134247996Y-204958257D01*
X134242184Y-204935053D01*
X134238674Y-204911392D01*
X134237500Y-204887500D01*
X134237500Y-204400000D01*
X134238674Y-204376108D01*
X134242184Y-204352447D01*
X134247996Y-204329243D01*
X134256054Y-204306721D01*
X134266282Y-204285097D01*
X134278579Y-204264580D01*
X134292829Y-204245367D01*
X134308893Y-204227643D01*
X134326617Y-204211579D01*
X134345830Y-204197329D01*
X134366347Y-204185032D01*
X134387971Y-204174804D01*
X134410493Y-204166746D01*
X134433697Y-204160934D01*
X134457358Y-204157424D01*
X134481250Y-204156250D01*
X135393750Y-204156250D01*
X135417642Y-204157424D01*
X135417642Y-204157424D01*
G37*
D23*
X134937500Y-204643750D03*
D15*
G36*
X148048892Y-195357424D02*
G01*
X148072553Y-195360934D01*
X148095757Y-195366746D01*
X148118279Y-195374804D01*
X148139903Y-195385032D01*
X148160420Y-195397329D01*
X148179633Y-195411579D01*
X148197357Y-195427643D01*
X148213421Y-195445367D01*
X148227671Y-195464580D01*
X148239968Y-195485097D01*
X148250196Y-195506721D01*
X148258254Y-195529243D01*
X148264066Y-195552447D01*
X148267576Y-195576108D01*
X148268750Y-195600000D01*
X148268750Y-196512500D01*
X148267576Y-196536392D01*
X148264066Y-196560053D01*
X148258254Y-196583257D01*
X148250196Y-196605779D01*
X148239968Y-196627403D01*
X148227671Y-196647920D01*
X148213421Y-196667133D01*
X148197357Y-196684857D01*
X148179633Y-196700921D01*
X148160420Y-196715171D01*
X148139903Y-196727468D01*
X148118279Y-196737696D01*
X148095757Y-196745754D01*
X148072553Y-196751566D01*
X148048892Y-196755076D01*
X148025000Y-196756250D01*
X147537500Y-196756250D01*
X147513608Y-196755076D01*
X147489947Y-196751566D01*
X147466743Y-196745754D01*
X147444221Y-196737696D01*
X147422597Y-196727468D01*
X147402080Y-196715171D01*
X147382867Y-196700921D01*
X147365143Y-196684857D01*
X147349079Y-196667133D01*
X147334829Y-196647920D01*
X147322532Y-196627403D01*
X147312304Y-196605779D01*
X147304246Y-196583257D01*
X147298434Y-196560053D01*
X147294924Y-196536392D01*
X147293750Y-196512500D01*
X147293750Y-195600000D01*
X147294924Y-195576108D01*
X147298434Y-195552447D01*
X147304246Y-195529243D01*
X147312304Y-195506721D01*
X147322532Y-195485097D01*
X147334829Y-195464580D01*
X147349079Y-195445367D01*
X147365143Y-195427643D01*
X147382867Y-195411579D01*
X147402080Y-195397329D01*
X147422597Y-195385032D01*
X147444221Y-195374804D01*
X147466743Y-195366746D01*
X147489947Y-195360934D01*
X147513608Y-195357424D01*
X147537500Y-195356250D01*
X148025000Y-195356250D01*
X148048892Y-195357424D01*
X148048892Y-195357424D01*
G37*
D23*
X147781250Y-196056250D03*
D15*
G36*
X146173892Y-195357424D02*
G01*
X146197553Y-195360934D01*
X146220757Y-195366746D01*
X146243279Y-195374804D01*
X146264903Y-195385032D01*
X146285420Y-195397329D01*
X146304633Y-195411579D01*
X146322357Y-195427643D01*
X146338421Y-195445367D01*
X146352671Y-195464580D01*
X146364968Y-195485097D01*
X146375196Y-195506721D01*
X146383254Y-195529243D01*
X146389066Y-195552447D01*
X146392576Y-195576108D01*
X146393750Y-195600000D01*
X146393750Y-196512500D01*
X146392576Y-196536392D01*
X146389066Y-196560053D01*
X146383254Y-196583257D01*
X146375196Y-196605779D01*
X146364968Y-196627403D01*
X146352671Y-196647920D01*
X146338421Y-196667133D01*
X146322357Y-196684857D01*
X146304633Y-196700921D01*
X146285420Y-196715171D01*
X146264903Y-196727468D01*
X146243279Y-196737696D01*
X146220757Y-196745754D01*
X146197553Y-196751566D01*
X146173892Y-196755076D01*
X146150000Y-196756250D01*
X145662500Y-196756250D01*
X145638608Y-196755076D01*
X145614947Y-196751566D01*
X145591743Y-196745754D01*
X145569221Y-196737696D01*
X145547597Y-196727468D01*
X145527080Y-196715171D01*
X145507867Y-196700921D01*
X145490143Y-196684857D01*
X145474079Y-196667133D01*
X145459829Y-196647920D01*
X145447532Y-196627403D01*
X145437304Y-196605779D01*
X145429246Y-196583257D01*
X145423434Y-196560053D01*
X145419924Y-196536392D01*
X145418750Y-196512500D01*
X145418750Y-195600000D01*
X145419924Y-195576108D01*
X145423434Y-195552447D01*
X145429246Y-195529243D01*
X145437304Y-195506721D01*
X145447532Y-195485097D01*
X145459829Y-195464580D01*
X145474079Y-195445367D01*
X145490143Y-195427643D01*
X145507867Y-195411579D01*
X145527080Y-195397329D01*
X145547597Y-195385032D01*
X145569221Y-195374804D01*
X145591743Y-195366746D01*
X145614947Y-195360934D01*
X145638608Y-195357424D01*
X145662500Y-195356250D01*
X146150000Y-195356250D01*
X146173892Y-195357424D01*
X146173892Y-195357424D01*
G37*
D23*
X145906250Y-196056250D03*
D15*
G36*
X148048892Y-198532424D02*
G01*
X148072553Y-198535934D01*
X148095757Y-198541746D01*
X148118279Y-198549804D01*
X148139903Y-198560032D01*
X148160420Y-198572329D01*
X148179633Y-198586579D01*
X148197357Y-198602643D01*
X148213421Y-198620367D01*
X148227671Y-198639580D01*
X148239968Y-198660097D01*
X148250196Y-198681721D01*
X148258254Y-198704243D01*
X148264066Y-198727447D01*
X148267576Y-198751108D01*
X148268750Y-198775000D01*
X148268750Y-199687500D01*
X148267576Y-199711392D01*
X148264066Y-199735053D01*
X148258254Y-199758257D01*
X148250196Y-199780779D01*
X148239968Y-199802403D01*
X148227671Y-199822920D01*
X148213421Y-199842133D01*
X148197357Y-199859857D01*
X148179633Y-199875921D01*
X148160420Y-199890171D01*
X148139903Y-199902468D01*
X148118279Y-199912696D01*
X148095757Y-199920754D01*
X148072553Y-199926566D01*
X148048892Y-199930076D01*
X148025000Y-199931250D01*
X147537500Y-199931250D01*
X147513608Y-199930076D01*
X147489947Y-199926566D01*
X147466743Y-199920754D01*
X147444221Y-199912696D01*
X147422597Y-199902468D01*
X147402080Y-199890171D01*
X147382867Y-199875921D01*
X147365143Y-199859857D01*
X147349079Y-199842133D01*
X147334829Y-199822920D01*
X147322532Y-199802403D01*
X147312304Y-199780779D01*
X147304246Y-199758257D01*
X147298434Y-199735053D01*
X147294924Y-199711392D01*
X147293750Y-199687500D01*
X147293750Y-198775000D01*
X147294924Y-198751108D01*
X147298434Y-198727447D01*
X147304246Y-198704243D01*
X147312304Y-198681721D01*
X147322532Y-198660097D01*
X147334829Y-198639580D01*
X147349079Y-198620367D01*
X147365143Y-198602643D01*
X147382867Y-198586579D01*
X147402080Y-198572329D01*
X147422597Y-198560032D01*
X147444221Y-198549804D01*
X147466743Y-198541746D01*
X147489947Y-198535934D01*
X147513608Y-198532424D01*
X147537500Y-198531250D01*
X148025000Y-198531250D01*
X148048892Y-198532424D01*
X148048892Y-198532424D01*
G37*
D23*
X147781250Y-199231250D03*
D15*
G36*
X146173892Y-198532424D02*
G01*
X146197553Y-198535934D01*
X146220757Y-198541746D01*
X146243279Y-198549804D01*
X146264903Y-198560032D01*
X146285420Y-198572329D01*
X146304633Y-198586579D01*
X146322357Y-198602643D01*
X146338421Y-198620367D01*
X146352671Y-198639580D01*
X146364968Y-198660097D01*
X146375196Y-198681721D01*
X146383254Y-198704243D01*
X146389066Y-198727447D01*
X146392576Y-198751108D01*
X146393750Y-198775000D01*
X146393750Y-199687500D01*
X146392576Y-199711392D01*
X146389066Y-199735053D01*
X146383254Y-199758257D01*
X146375196Y-199780779D01*
X146364968Y-199802403D01*
X146352671Y-199822920D01*
X146338421Y-199842133D01*
X146322357Y-199859857D01*
X146304633Y-199875921D01*
X146285420Y-199890171D01*
X146264903Y-199902468D01*
X146243279Y-199912696D01*
X146220757Y-199920754D01*
X146197553Y-199926566D01*
X146173892Y-199930076D01*
X146150000Y-199931250D01*
X145662500Y-199931250D01*
X145638608Y-199930076D01*
X145614947Y-199926566D01*
X145591743Y-199920754D01*
X145569221Y-199912696D01*
X145547597Y-199902468D01*
X145527080Y-199890171D01*
X145507867Y-199875921D01*
X145490143Y-199859857D01*
X145474079Y-199842133D01*
X145459829Y-199822920D01*
X145447532Y-199802403D01*
X145437304Y-199780779D01*
X145429246Y-199758257D01*
X145423434Y-199735053D01*
X145419924Y-199711392D01*
X145418750Y-199687500D01*
X145418750Y-198775000D01*
X145419924Y-198751108D01*
X145423434Y-198727447D01*
X145429246Y-198704243D01*
X145437304Y-198681721D01*
X145447532Y-198660097D01*
X145459829Y-198639580D01*
X145474079Y-198620367D01*
X145490143Y-198602643D01*
X145507867Y-198586579D01*
X145527080Y-198572329D01*
X145547597Y-198560032D01*
X145569221Y-198549804D01*
X145591743Y-198541746D01*
X145614947Y-198535934D01*
X145638608Y-198532424D01*
X145662500Y-198531250D01*
X146150000Y-198531250D01*
X146173892Y-198532424D01*
X146173892Y-198532424D01*
G37*
D23*
X145906250Y-199231250D03*
D15*
G36*
X148117642Y-221907424D02*
G01*
X148141303Y-221910934D01*
X148164507Y-221916746D01*
X148187029Y-221924804D01*
X148208653Y-221935032D01*
X148229170Y-221947329D01*
X148248383Y-221961579D01*
X148266107Y-221977643D01*
X148282171Y-221995367D01*
X148296421Y-222014580D01*
X148308718Y-222035097D01*
X148318946Y-222056721D01*
X148327004Y-222079243D01*
X148332816Y-222102447D01*
X148336326Y-222126108D01*
X148337500Y-222150000D01*
X148337500Y-222637500D01*
X148336326Y-222661392D01*
X148332816Y-222685053D01*
X148327004Y-222708257D01*
X148318946Y-222730779D01*
X148308718Y-222752403D01*
X148296421Y-222772920D01*
X148282171Y-222792133D01*
X148266107Y-222809857D01*
X148248383Y-222825921D01*
X148229170Y-222840171D01*
X148208653Y-222852468D01*
X148187029Y-222862696D01*
X148164507Y-222870754D01*
X148141303Y-222876566D01*
X148117642Y-222880076D01*
X148093750Y-222881250D01*
X147181250Y-222881250D01*
X147157358Y-222880076D01*
X147133697Y-222876566D01*
X147110493Y-222870754D01*
X147087971Y-222862696D01*
X147066347Y-222852468D01*
X147045830Y-222840171D01*
X147026617Y-222825921D01*
X147008893Y-222809857D01*
X146992829Y-222792133D01*
X146978579Y-222772920D01*
X146966282Y-222752403D01*
X146956054Y-222730779D01*
X146947996Y-222708257D01*
X146942184Y-222685053D01*
X146938674Y-222661392D01*
X146937500Y-222637500D01*
X146937500Y-222150000D01*
X146938674Y-222126108D01*
X146942184Y-222102447D01*
X146947996Y-222079243D01*
X146956054Y-222056721D01*
X146966282Y-222035097D01*
X146978579Y-222014580D01*
X146992829Y-221995367D01*
X147008893Y-221977643D01*
X147026617Y-221961579D01*
X147045830Y-221947329D01*
X147066347Y-221935032D01*
X147087971Y-221924804D01*
X147110493Y-221916746D01*
X147133697Y-221910934D01*
X147157358Y-221907424D01*
X147181250Y-221906250D01*
X148093750Y-221906250D01*
X148117642Y-221907424D01*
X148117642Y-221907424D01*
G37*
D23*
X147637500Y-222393750D03*
D15*
G36*
X148117642Y-220032424D02*
G01*
X148141303Y-220035934D01*
X148164507Y-220041746D01*
X148187029Y-220049804D01*
X148208653Y-220060032D01*
X148229170Y-220072329D01*
X148248383Y-220086579D01*
X148266107Y-220102643D01*
X148282171Y-220120367D01*
X148296421Y-220139580D01*
X148308718Y-220160097D01*
X148318946Y-220181721D01*
X148327004Y-220204243D01*
X148332816Y-220227447D01*
X148336326Y-220251108D01*
X148337500Y-220275000D01*
X148337500Y-220762500D01*
X148336326Y-220786392D01*
X148332816Y-220810053D01*
X148327004Y-220833257D01*
X148318946Y-220855779D01*
X148308718Y-220877403D01*
X148296421Y-220897920D01*
X148282171Y-220917133D01*
X148266107Y-220934857D01*
X148248383Y-220950921D01*
X148229170Y-220965171D01*
X148208653Y-220977468D01*
X148187029Y-220987696D01*
X148164507Y-220995754D01*
X148141303Y-221001566D01*
X148117642Y-221005076D01*
X148093750Y-221006250D01*
X147181250Y-221006250D01*
X147157358Y-221005076D01*
X147133697Y-221001566D01*
X147110493Y-220995754D01*
X147087971Y-220987696D01*
X147066347Y-220977468D01*
X147045830Y-220965171D01*
X147026617Y-220950921D01*
X147008893Y-220934857D01*
X146992829Y-220917133D01*
X146978579Y-220897920D01*
X146966282Y-220877403D01*
X146956054Y-220855779D01*
X146947996Y-220833257D01*
X146942184Y-220810053D01*
X146938674Y-220786392D01*
X146937500Y-220762500D01*
X146937500Y-220275000D01*
X146938674Y-220251108D01*
X146942184Y-220227447D01*
X146947996Y-220204243D01*
X146956054Y-220181721D01*
X146966282Y-220160097D01*
X146978579Y-220139580D01*
X146992829Y-220120367D01*
X147008893Y-220102643D01*
X147026617Y-220086579D01*
X147045830Y-220072329D01*
X147066347Y-220060032D01*
X147087971Y-220049804D01*
X147110493Y-220041746D01*
X147133697Y-220035934D01*
X147157358Y-220032424D01*
X147181250Y-220031250D01*
X148093750Y-220031250D01*
X148117642Y-220032424D01*
X148117642Y-220032424D01*
G37*
D23*
X147637500Y-220518750D03*
D15*
G36*
X135417642Y-213682424D02*
G01*
X135441303Y-213685934D01*
X135464507Y-213691746D01*
X135487029Y-213699804D01*
X135508653Y-213710032D01*
X135529170Y-213722329D01*
X135548383Y-213736579D01*
X135566107Y-213752643D01*
X135582171Y-213770367D01*
X135596421Y-213789580D01*
X135608718Y-213810097D01*
X135618946Y-213831721D01*
X135627004Y-213854243D01*
X135632816Y-213877447D01*
X135636326Y-213901108D01*
X135637500Y-213925000D01*
X135637500Y-214412500D01*
X135636326Y-214436392D01*
X135632816Y-214460053D01*
X135627004Y-214483257D01*
X135618946Y-214505779D01*
X135608718Y-214527403D01*
X135596421Y-214547920D01*
X135582171Y-214567133D01*
X135566107Y-214584857D01*
X135548383Y-214600921D01*
X135529170Y-214615171D01*
X135508653Y-214627468D01*
X135487029Y-214637696D01*
X135464507Y-214645754D01*
X135441303Y-214651566D01*
X135417642Y-214655076D01*
X135393750Y-214656250D01*
X134481250Y-214656250D01*
X134457358Y-214655076D01*
X134433697Y-214651566D01*
X134410493Y-214645754D01*
X134387971Y-214637696D01*
X134366347Y-214627468D01*
X134345830Y-214615171D01*
X134326617Y-214600921D01*
X134308893Y-214584857D01*
X134292829Y-214567133D01*
X134278579Y-214547920D01*
X134266282Y-214527403D01*
X134256054Y-214505779D01*
X134247996Y-214483257D01*
X134242184Y-214460053D01*
X134238674Y-214436392D01*
X134237500Y-214412500D01*
X134237500Y-213925000D01*
X134238674Y-213901108D01*
X134242184Y-213877447D01*
X134247996Y-213854243D01*
X134256054Y-213831721D01*
X134266282Y-213810097D01*
X134278579Y-213789580D01*
X134292829Y-213770367D01*
X134308893Y-213752643D01*
X134326617Y-213736579D01*
X134345830Y-213722329D01*
X134366347Y-213710032D01*
X134387971Y-213699804D01*
X134410493Y-213691746D01*
X134433697Y-213685934D01*
X134457358Y-213682424D01*
X134481250Y-213681250D01*
X135393750Y-213681250D01*
X135417642Y-213682424D01*
X135417642Y-213682424D01*
G37*
D23*
X134937500Y-214168750D03*
D15*
G36*
X135417642Y-215557424D02*
G01*
X135441303Y-215560934D01*
X135464507Y-215566746D01*
X135487029Y-215574804D01*
X135508653Y-215585032D01*
X135529170Y-215597329D01*
X135548383Y-215611579D01*
X135566107Y-215627643D01*
X135582171Y-215645367D01*
X135596421Y-215664580D01*
X135608718Y-215685097D01*
X135618946Y-215706721D01*
X135627004Y-215729243D01*
X135632816Y-215752447D01*
X135636326Y-215776108D01*
X135637500Y-215800000D01*
X135637500Y-216287500D01*
X135636326Y-216311392D01*
X135632816Y-216335053D01*
X135627004Y-216358257D01*
X135618946Y-216380779D01*
X135608718Y-216402403D01*
X135596421Y-216422920D01*
X135582171Y-216442133D01*
X135566107Y-216459857D01*
X135548383Y-216475921D01*
X135529170Y-216490171D01*
X135508653Y-216502468D01*
X135487029Y-216512696D01*
X135464507Y-216520754D01*
X135441303Y-216526566D01*
X135417642Y-216530076D01*
X135393750Y-216531250D01*
X134481250Y-216531250D01*
X134457358Y-216530076D01*
X134433697Y-216526566D01*
X134410493Y-216520754D01*
X134387971Y-216512696D01*
X134366347Y-216502468D01*
X134345830Y-216490171D01*
X134326617Y-216475921D01*
X134308893Y-216459857D01*
X134292829Y-216442133D01*
X134278579Y-216422920D01*
X134266282Y-216402403D01*
X134256054Y-216380779D01*
X134247996Y-216358257D01*
X134242184Y-216335053D01*
X134238674Y-216311392D01*
X134237500Y-216287500D01*
X134237500Y-215800000D01*
X134238674Y-215776108D01*
X134242184Y-215752447D01*
X134247996Y-215729243D01*
X134256054Y-215706721D01*
X134266282Y-215685097D01*
X134278579Y-215664580D01*
X134292829Y-215645367D01*
X134308893Y-215627643D01*
X134326617Y-215611579D01*
X134345830Y-215597329D01*
X134366347Y-215585032D01*
X134387971Y-215574804D01*
X134410493Y-215566746D01*
X134433697Y-215560934D01*
X134457358Y-215557424D01*
X134481250Y-215556250D01*
X135393750Y-215556250D01*
X135417642Y-215557424D01*
X135417642Y-215557424D01*
G37*
D23*
X134937500Y-216043750D03*
D15*
G36*
X166373892Y-209351174D02*
G01*
X166397553Y-209354684D01*
X166420757Y-209360496D01*
X166443279Y-209368554D01*
X166464903Y-209378782D01*
X166485420Y-209391079D01*
X166504633Y-209405329D01*
X166522357Y-209421393D01*
X166538421Y-209439117D01*
X166552671Y-209458330D01*
X166564968Y-209478847D01*
X166575196Y-209500471D01*
X166583254Y-209522993D01*
X166589066Y-209546197D01*
X166592576Y-209569858D01*
X166593750Y-209593750D01*
X166593750Y-210081250D01*
X166592576Y-210105142D01*
X166589066Y-210128803D01*
X166583254Y-210152007D01*
X166575196Y-210174529D01*
X166564968Y-210196153D01*
X166552671Y-210216670D01*
X166538421Y-210235883D01*
X166522357Y-210253607D01*
X166504633Y-210269671D01*
X166485420Y-210283921D01*
X166464903Y-210296218D01*
X166443279Y-210306446D01*
X166420757Y-210314504D01*
X166397553Y-210320316D01*
X166373892Y-210323826D01*
X166350000Y-210325000D01*
X165437500Y-210325000D01*
X165413608Y-210323826D01*
X165389947Y-210320316D01*
X165366743Y-210314504D01*
X165344221Y-210306446D01*
X165322597Y-210296218D01*
X165302080Y-210283921D01*
X165282867Y-210269671D01*
X165265143Y-210253607D01*
X165249079Y-210235883D01*
X165234829Y-210216670D01*
X165222532Y-210196153D01*
X165212304Y-210174529D01*
X165204246Y-210152007D01*
X165198434Y-210128803D01*
X165194924Y-210105142D01*
X165193750Y-210081250D01*
X165193750Y-209593750D01*
X165194924Y-209569858D01*
X165198434Y-209546197D01*
X165204246Y-209522993D01*
X165212304Y-209500471D01*
X165222532Y-209478847D01*
X165234829Y-209458330D01*
X165249079Y-209439117D01*
X165265143Y-209421393D01*
X165282867Y-209405329D01*
X165302080Y-209391079D01*
X165322597Y-209378782D01*
X165344221Y-209368554D01*
X165366743Y-209360496D01*
X165389947Y-209354684D01*
X165413608Y-209351174D01*
X165437500Y-209350000D01*
X166350000Y-209350000D01*
X166373892Y-209351174D01*
X166373892Y-209351174D01*
G37*
D23*
X165893750Y-209837500D03*
D15*
G36*
X166373892Y-207476174D02*
G01*
X166397553Y-207479684D01*
X166420757Y-207485496D01*
X166443279Y-207493554D01*
X166464903Y-207503782D01*
X166485420Y-207516079D01*
X166504633Y-207530329D01*
X166522357Y-207546393D01*
X166538421Y-207564117D01*
X166552671Y-207583330D01*
X166564968Y-207603847D01*
X166575196Y-207625471D01*
X166583254Y-207647993D01*
X166589066Y-207671197D01*
X166592576Y-207694858D01*
X166593750Y-207718750D01*
X166593750Y-208206250D01*
X166592576Y-208230142D01*
X166589066Y-208253803D01*
X166583254Y-208277007D01*
X166575196Y-208299529D01*
X166564968Y-208321153D01*
X166552671Y-208341670D01*
X166538421Y-208360883D01*
X166522357Y-208378607D01*
X166504633Y-208394671D01*
X166485420Y-208408921D01*
X166464903Y-208421218D01*
X166443279Y-208431446D01*
X166420757Y-208439504D01*
X166397553Y-208445316D01*
X166373892Y-208448826D01*
X166350000Y-208450000D01*
X165437500Y-208450000D01*
X165413608Y-208448826D01*
X165389947Y-208445316D01*
X165366743Y-208439504D01*
X165344221Y-208431446D01*
X165322597Y-208421218D01*
X165302080Y-208408921D01*
X165282867Y-208394671D01*
X165265143Y-208378607D01*
X165249079Y-208360883D01*
X165234829Y-208341670D01*
X165222532Y-208321153D01*
X165212304Y-208299529D01*
X165204246Y-208277007D01*
X165198434Y-208253803D01*
X165194924Y-208230142D01*
X165193750Y-208206250D01*
X165193750Y-207718750D01*
X165194924Y-207694858D01*
X165198434Y-207671197D01*
X165204246Y-207647993D01*
X165212304Y-207625471D01*
X165222532Y-207603847D01*
X165234829Y-207583330D01*
X165249079Y-207564117D01*
X165265143Y-207546393D01*
X165282867Y-207530329D01*
X165302080Y-207516079D01*
X165322597Y-207503782D01*
X165344221Y-207493554D01*
X165366743Y-207485496D01*
X165389947Y-207479684D01*
X165413608Y-207476174D01*
X165437500Y-207475000D01*
X166350000Y-207475000D01*
X166373892Y-207476174D01*
X166373892Y-207476174D01*
G37*
D23*
X165893750Y-207962500D03*
D15*
G36*
X166373892Y-212094924D02*
G01*
X166397553Y-212098434D01*
X166420757Y-212104246D01*
X166443279Y-212112304D01*
X166464903Y-212122532D01*
X166485420Y-212134829D01*
X166504633Y-212149079D01*
X166522357Y-212165143D01*
X166538421Y-212182867D01*
X166552671Y-212202080D01*
X166564968Y-212222597D01*
X166575196Y-212244221D01*
X166583254Y-212266743D01*
X166589066Y-212289947D01*
X166592576Y-212313608D01*
X166593750Y-212337500D01*
X166593750Y-212825000D01*
X166592576Y-212848892D01*
X166589066Y-212872553D01*
X166583254Y-212895757D01*
X166575196Y-212918279D01*
X166564968Y-212939903D01*
X166552671Y-212960420D01*
X166538421Y-212979633D01*
X166522357Y-212997357D01*
X166504633Y-213013421D01*
X166485420Y-213027671D01*
X166464903Y-213039968D01*
X166443279Y-213050196D01*
X166420757Y-213058254D01*
X166397553Y-213064066D01*
X166373892Y-213067576D01*
X166350000Y-213068750D01*
X165437500Y-213068750D01*
X165413608Y-213067576D01*
X165389947Y-213064066D01*
X165366743Y-213058254D01*
X165344221Y-213050196D01*
X165322597Y-213039968D01*
X165302080Y-213027671D01*
X165282867Y-213013421D01*
X165265143Y-212997357D01*
X165249079Y-212979633D01*
X165234829Y-212960420D01*
X165222532Y-212939903D01*
X165212304Y-212918279D01*
X165204246Y-212895757D01*
X165198434Y-212872553D01*
X165194924Y-212848892D01*
X165193750Y-212825000D01*
X165193750Y-212337500D01*
X165194924Y-212313608D01*
X165198434Y-212289947D01*
X165204246Y-212266743D01*
X165212304Y-212244221D01*
X165222532Y-212222597D01*
X165234829Y-212202080D01*
X165249079Y-212182867D01*
X165265143Y-212165143D01*
X165282867Y-212149079D01*
X165302080Y-212134829D01*
X165322597Y-212122532D01*
X165344221Y-212112304D01*
X165366743Y-212104246D01*
X165389947Y-212098434D01*
X165413608Y-212094924D01*
X165437500Y-212093750D01*
X166350000Y-212093750D01*
X166373892Y-212094924D01*
X166373892Y-212094924D01*
G37*
D23*
X165893750Y-212581250D03*
D15*
G36*
X166373892Y-213969924D02*
G01*
X166397553Y-213973434D01*
X166420757Y-213979246D01*
X166443279Y-213987304D01*
X166464903Y-213997532D01*
X166485420Y-214009829D01*
X166504633Y-214024079D01*
X166522357Y-214040143D01*
X166538421Y-214057867D01*
X166552671Y-214077080D01*
X166564968Y-214097597D01*
X166575196Y-214119221D01*
X166583254Y-214141743D01*
X166589066Y-214164947D01*
X166592576Y-214188608D01*
X166593750Y-214212500D01*
X166593750Y-214700000D01*
X166592576Y-214723892D01*
X166589066Y-214747553D01*
X166583254Y-214770757D01*
X166575196Y-214793279D01*
X166564968Y-214814903D01*
X166552671Y-214835420D01*
X166538421Y-214854633D01*
X166522357Y-214872357D01*
X166504633Y-214888421D01*
X166485420Y-214902671D01*
X166464903Y-214914968D01*
X166443279Y-214925196D01*
X166420757Y-214933254D01*
X166397553Y-214939066D01*
X166373892Y-214942576D01*
X166350000Y-214943750D01*
X165437500Y-214943750D01*
X165413608Y-214942576D01*
X165389947Y-214939066D01*
X165366743Y-214933254D01*
X165344221Y-214925196D01*
X165322597Y-214914968D01*
X165302080Y-214902671D01*
X165282867Y-214888421D01*
X165265143Y-214872357D01*
X165249079Y-214854633D01*
X165234829Y-214835420D01*
X165222532Y-214814903D01*
X165212304Y-214793279D01*
X165204246Y-214770757D01*
X165198434Y-214747553D01*
X165194924Y-214723892D01*
X165193750Y-214700000D01*
X165193750Y-214212500D01*
X165194924Y-214188608D01*
X165198434Y-214164947D01*
X165204246Y-214141743D01*
X165212304Y-214119221D01*
X165222532Y-214097597D01*
X165234829Y-214077080D01*
X165249079Y-214057867D01*
X165265143Y-214040143D01*
X165282867Y-214024079D01*
X165302080Y-214009829D01*
X165322597Y-213997532D01*
X165344221Y-213987304D01*
X165366743Y-213979246D01*
X165389947Y-213973434D01*
X165413608Y-213969924D01*
X165437500Y-213968750D01*
X166350000Y-213968750D01*
X166373892Y-213969924D01*
X166373892Y-213969924D01*
G37*
D23*
X165893750Y-214456250D03*
D15*
G36*
X148048892Y-200913674D02*
G01*
X148072553Y-200917184D01*
X148095757Y-200922996D01*
X148118279Y-200931054D01*
X148139903Y-200941282D01*
X148160420Y-200953579D01*
X148179633Y-200967829D01*
X148197357Y-200983893D01*
X148213421Y-201001617D01*
X148227671Y-201020830D01*
X148239968Y-201041347D01*
X148250196Y-201062971D01*
X148258254Y-201085493D01*
X148264066Y-201108697D01*
X148267576Y-201132358D01*
X148268750Y-201156250D01*
X148268750Y-202068750D01*
X148267576Y-202092642D01*
X148264066Y-202116303D01*
X148258254Y-202139507D01*
X148250196Y-202162029D01*
X148239968Y-202183653D01*
X148227671Y-202204170D01*
X148213421Y-202223383D01*
X148197357Y-202241107D01*
X148179633Y-202257171D01*
X148160420Y-202271421D01*
X148139903Y-202283718D01*
X148118279Y-202293946D01*
X148095757Y-202302004D01*
X148072553Y-202307816D01*
X148048892Y-202311326D01*
X148025000Y-202312500D01*
X147537500Y-202312500D01*
X147513608Y-202311326D01*
X147489947Y-202307816D01*
X147466743Y-202302004D01*
X147444221Y-202293946D01*
X147422597Y-202283718D01*
X147402080Y-202271421D01*
X147382867Y-202257171D01*
X147365143Y-202241107D01*
X147349079Y-202223383D01*
X147334829Y-202204170D01*
X147322532Y-202183653D01*
X147312304Y-202162029D01*
X147304246Y-202139507D01*
X147298434Y-202116303D01*
X147294924Y-202092642D01*
X147293750Y-202068750D01*
X147293750Y-201156250D01*
X147294924Y-201132358D01*
X147298434Y-201108697D01*
X147304246Y-201085493D01*
X147312304Y-201062971D01*
X147322532Y-201041347D01*
X147334829Y-201020830D01*
X147349079Y-201001617D01*
X147365143Y-200983893D01*
X147382867Y-200967829D01*
X147402080Y-200953579D01*
X147422597Y-200941282D01*
X147444221Y-200931054D01*
X147466743Y-200922996D01*
X147489947Y-200917184D01*
X147513608Y-200913674D01*
X147537500Y-200912500D01*
X148025000Y-200912500D01*
X148048892Y-200913674D01*
X148048892Y-200913674D01*
G37*
D23*
X147781250Y-201612500D03*
D15*
G36*
X146173892Y-200913674D02*
G01*
X146197553Y-200917184D01*
X146220757Y-200922996D01*
X146243279Y-200931054D01*
X146264903Y-200941282D01*
X146285420Y-200953579D01*
X146304633Y-200967829D01*
X146322357Y-200983893D01*
X146338421Y-201001617D01*
X146352671Y-201020830D01*
X146364968Y-201041347D01*
X146375196Y-201062971D01*
X146383254Y-201085493D01*
X146389066Y-201108697D01*
X146392576Y-201132358D01*
X146393750Y-201156250D01*
X146393750Y-202068750D01*
X146392576Y-202092642D01*
X146389066Y-202116303D01*
X146383254Y-202139507D01*
X146375196Y-202162029D01*
X146364968Y-202183653D01*
X146352671Y-202204170D01*
X146338421Y-202223383D01*
X146322357Y-202241107D01*
X146304633Y-202257171D01*
X146285420Y-202271421D01*
X146264903Y-202283718D01*
X146243279Y-202293946D01*
X146220757Y-202302004D01*
X146197553Y-202307816D01*
X146173892Y-202311326D01*
X146150000Y-202312500D01*
X145662500Y-202312500D01*
X145638608Y-202311326D01*
X145614947Y-202307816D01*
X145591743Y-202302004D01*
X145569221Y-202293946D01*
X145547597Y-202283718D01*
X145527080Y-202271421D01*
X145507867Y-202257171D01*
X145490143Y-202241107D01*
X145474079Y-202223383D01*
X145459829Y-202204170D01*
X145447532Y-202183653D01*
X145437304Y-202162029D01*
X145429246Y-202139507D01*
X145423434Y-202116303D01*
X145419924Y-202092642D01*
X145418750Y-202068750D01*
X145418750Y-201156250D01*
X145419924Y-201132358D01*
X145423434Y-201108697D01*
X145429246Y-201085493D01*
X145437304Y-201062971D01*
X145447532Y-201041347D01*
X145459829Y-201020830D01*
X145474079Y-201001617D01*
X145490143Y-200983893D01*
X145507867Y-200967829D01*
X145527080Y-200953579D01*
X145547597Y-200941282D01*
X145569221Y-200931054D01*
X145591743Y-200922996D01*
X145614947Y-200917184D01*
X145638608Y-200913674D01*
X145662500Y-200912500D01*
X146150000Y-200912500D01*
X146173892Y-200913674D01*
X146173892Y-200913674D01*
G37*
D23*
X145906250Y-201612500D03*
D15*
G36*
X156923892Y-207119924D02*
G01*
X156947553Y-207123434D01*
X156970757Y-207129246D01*
X156993279Y-207137304D01*
X157014903Y-207147532D01*
X157035420Y-207159829D01*
X157054633Y-207174079D01*
X157072357Y-207190143D01*
X157088421Y-207207867D01*
X157102671Y-207227080D01*
X157114968Y-207247597D01*
X157125196Y-207269221D01*
X157133254Y-207291743D01*
X157139066Y-207314947D01*
X157142576Y-207338608D01*
X157143750Y-207362500D01*
X157143750Y-208275000D01*
X157142576Y-208298892D01*
X157139066Y-208322553D01*
X157133254Y-208345757D01*
X157125196Y-208368279D01*
X157114968Y-208389903D01*
X157102671Y-208410420D01*
X157088421Y-208429633D01*
X157072357Y-208447357D01*
X157054633Y-208463421D01*
X157035420Y-208477671D01*
X157014903Y-208489968D01*
X156993279Y-208500196D01*
X156970757Y-208508254D01*
X156947553Y-208514066D01*
X156923892Y-208517576D01*
X156900000Y-208518750D01*
X156412500Y-208518750D01*
X156388608Y-208517576D01*
X156364947Y-208514066D01*
X156341743Y-208508254D01*
X156319221Y-208500196D01*
X156297597Y-208489968D01*
X156277080Y-208477671D01*
X156257867Y-208463421D01*
X156240143Y-208447357D01*
X156224079Y-208429633D01*
X156209829Y-208410420D01*
X156197532Y-208389903D01*
X156187304Y-208368279D01*
X156179246Y-208345757D01*
X156173434Y-208322553D01*
X156169924Y-208298892D01*
X156168750Y-208275000D01*
X156168750Y-207362500D01*
X156169924Y-207338608D01*
X156173434Y-207314947D01*
X156179246Y-207291743D01*
X156187304Y-207269221D01*
X156197532Y-207247597D01*
X156209829Y-207227080D01*
X156224079Y-207207867D01*
X156240143Y-207190143D01*
X156257867Y-207174079D01*
X156277080Y-207159829D01*
X156297597Y-207147532D01*
X156319221Y-207137304D01*
X156341743Y-207129246D01*
X156364947Y-207123434D01*
X156388608Y-207119924D01*
X156412500Y-207118750D01*
X156900000Y-207118750D01*
X156923892Y-207119924D01*
X156923892Y-207119924D01*
G37*
D23*
X156656250Y-207818750D03*
D15*
G36*
X155048892Y-207119924D02*
G01*
X155072553Y-207123434D01*
X155095757Y-207129246D01*
X155118279Y-207137304D01*
X155139903Y-207147532D01*
X155160420Y-207159829D01*
X155179633Y-207174079D01*
X155197357Y-207190143D01*
X155213421Y-207207867D01*
X155227671Y-207227080D01*
X155239968Y-207247597D01*
X155250196Y-207269221D01*
X155258254Y-207291743D01*
X155264066Y-207314947D01*
X155267576Y-207338608D01*
X155268750Y-207362500D01*
X155268750Y-208275000D01*
X155267576Y-208298892D01*
X155264066Y-208322553D01*
X155258254Y-208345757D01*
X155250196Y-208368279D01*
X155239968Y-208389903D01*
X155227671Y-208410420D01*
X155213421Y-208429633D01*
X155197357Y-208447357D01*
X155179633Y-208463421D01*
X155160420Y-208477671D01*
X155139903Y-208489968D01*
X155118279Y-208500196D01*
X155095757Y-208508254D01*
X155072553Y-208514066D01*
X155048892Y-208517576D01*
X155025000Y-208518750D01*
X154537500Y-208518750D01*
X154513608Y-208517576D01*
X154489947Y-208514066D01*
X154466743Y-208508254D01*
X154444221Y-208500196D01*
X154422597Y-208489968D01*
X154402080Y-208477671D01*
X154382867Y-208463421D01*
X154365143Y-208447357D01*
X154349079Y-208429633D01*
X154334829Y-208410420D01*
X154322532Y-208389903D01*
X154312304Y-208368279D01*
X154304246Y-208345757D01*
X154298434Y-208322553D01*
X154294924Y-208298892D01*
X154293750Y-208275000D01*
X154293750Y-207362500D01*
X154294924Y-207338608D01*
X154298434Y-207314947D01*
X154304246Y-207291743D01*
X154312304Y-207269221D01*
X154322532Y-207247597D01*
X154334829Y-207227080D01*
X154349079Y-207207867D01*
X154365143Y-207190143D01*
X154382867Y-207174079D01*
X154402080Y-207159829D01*
X154422597Y-207147532D01*
X154444221Y-207137304D01*
X154466743Y-207129246D01*
X154489947Y-207123434D01*
X154513608Y-207119924D01*
X154537500Y-207118750D01*
X155025000Y-207118750D01*
X155048892Y-207119924D01*
X155048892Y-207119924D01*
G37*
D23*
X154781250Y-207818750D03*
D15*
G36*
X137298892Y-200913674D02*
G01*
X137322553Y-200917184D01*
X137345757Y-200922996D01*
X137368279Y-200931054D01*
X137389903Y-200941282D01*
X137410420Y-200953579D01*
X137429633Y-200967829D01*
X137447357Y-200983893D01*
X137463421Y-201001617D01*
X137477671Y-201020830D01*
X137489968Y-201041347D01*
X137500196Y-201062971D01*
X137508254Y-201085493D01*
X137514066Y-201108697D01*
X137517576Y-201132358D01*
X137518750Y-201156250D01*
X137518750Y-202068750D01*
X137517576Y-202092642D01*
X137514066Y-202116303D01*
X137508254Y-202139507D01*
X137500196Y-202162029D01*
X137489968Y-202183653D01*
X137477671Y-202204170D01*
X137463421Y-202223383D01*
X137447357Y-202241107D01*
X137429633Y-202257171D01*
X137410420Y-202271421D01*
X137389903Y-202283718D01*
X137368279Y-202293946D01*
X137345757Y-202302004D01*
X137322553Y-202307816D01*
X137298892Y-202311326D01*
X137275000Y-202312500D01*
X136787500Y-202312500D01*
X136763608Y-202311326D01*
X136739947Y-202307816D01*
X136716743Y-202302004D01*
X136694221Y-202293946D01*
X136672597Y-202283718D01*
X136652080Y-202271421D01*
X136632867Y-202257171D01*
X136615143Y-202241107D01*
X136599079Y-202223383D01*
X136584829Y-202204170D01*
X136572532Y-202183653D01*
X136562304Y-202162029D01*
X136554246Y-202139507D01*
X136548434Y-202116303D01*
X136544924Y-202092642D01*
X136543750Y-202068750D01*
X136543750Y-201156250D01*
X136544924Y-201132358D01*
X136548434Y-201108697D01*
X136554246Y-201085493D01*
X136562304Y-201062971D01*
X136572532Y-201041347D01*
X136584829Y-201020830D01*
X136599079Y-201001617D01*
X136615143Y-200983893D01*
X136632867Y-200967829D01*
X136652080Y-200953579D01*
X136672597Y-200941282D01*
X136694221Y-200931054D01*
X136716743Y-200922996D01*
X136739947Y-200917184D01*
X136763608Y-200913674D01*
X136787500Y-200912500D01*
X137275000Y-200912500D01*
X137298892Y-200913674D01*
X137298892Y-200913674D01*
G37*
D23*
X137031250Y-201612500D03*
D15*
G36*
X139173892Y-200913674D02*
G01*
X139197553Y-200917184D01*
X139220757Y-200922996D01*
X139243279Y-200931054D01*
X139264903Y-200941282D01*
X139285420Y-200953579D01*
X139304633Y-200967829D01*
X139322357Y-200983893D01*
X139338421Y-201001617D01*
X139352671Y-201020830D01*
X139364968Y-201041347D01*
X139375196Y-201062971D01*
X139383254Y-201085493D01*
X139389066Y-201108697D01*
X139392576Y-201132358D01*
X139393750Y-201156250D01*
X139393750Y-202068750D01*
X139392576Y-202092642D01*
X139389066Y-202116303D01*
X139383254Y-202139507D01*
X139375196Y-202162029D01*
X139364968Y-202183653D01*
X139352671Y-202204170D01*
X139338421Y-202223383D01*
X139322357Y-202241107D01*
X139304633Y-202257171D01*
X139285420Y-202271421D01*
X139264903Y-202283718D01*
X139243279Y-202293946D01*
X139220757Y-202302004D01*
X139197553Y-202307816D01*
X139173892Y-202311326D01*
X139150000Y-202312500D01*
X138662500Y-202312500D01*
X138638608Y-202311326D01*
X138614947Y-202307816D01*
X138591743Y-202302004D01*
X138569221Y-202293946D01*
X138547597Y-202283718D01*
X138527080Y-202271421D01*
X138507867Y-202257171D01*
X138490143Y-202241107D01*
X138474079Y-202223383D01*
X138459829Y-202204170D01*
X138447532Y-202183653D01*
X138437304Y-202162029D01*
X138429246Y-202139507D01*
X138423434Y-202116303D01*
X138419924Y-202092642D01*
X138418750Y-202068750D01*
X138418750Y-201156250D01*
X138419924Y-201132358D01*
X138423434Y-201108697D01*
X138429246Y-201085493D01*
X138437304Y-201062971D01*
X138447532Y-201041347D01*
X138459829Y-201020830D01*
X138474079Y-201001617D01*
X138490143Y-200983893D01*
X138507867Y-200967829D01*
X138527080Y-200953579D01*
X138547597Y-200941282D01*
X138569221Y-200931054D01*
X138591743Y-200922996D01*
X138614947Y-200917184D01*
X138638608Y-200913674D01*
X138662500Y-200912500D01*
X139150000Y-200912500D01*
X139173892Y-200913674D01*
X139173892Y-200913674D01*
G37*
D23*
X138906250Y-201612500D03*
D27*
X150018750Y-203993750D03*
X146843750Y-207168750D03*
X131762500Y-202406250D03*
X131762500Y-207168750D03*
X136700000Y-204350000D03*
X135350000Y-201850000D03*
X150018750Y-199231250D03*
X154781250Y-199231250D03*
X167481250Y-223043750D03*
X167481250Y-223043750D03*
X163512500Y-223043750D03*
X136700000Y-214050000D03*
X154781250Y-206375000D03*
X134937500Y-219868750D03*
X149225000Y-221150043D03*
X140503250Y-202406250D03*
X154781250Y-216831252D03*
X145256250Y-200962500D03*
X141293750Y-196077922D03*
X144499608Y-196781260D03*
X137318750Y-178593750D03*
X152400000Y-167481250D03*
X141287500Y-167481250D03*
X151437500Y-213687500D03*
X151606250Y-204787500D03*
X137318750Y-176212500D03*
X137318750Y-173831250D03*
X137318750Y-171450000D03*
X131762500Y-193675000D03*
X153193750Y-184150000D03*
X138112500Y-184150000D03*
X152225000Y-214487500D03*
X152400000Y-205581250D03*
X154656250Y-196056250D03*
X131762500Y-191293750D03*
X131762500Y-188912500D03*
X131762500Y-186531250D03*
X108743750Y-204787500D03*
X144462500Y-223837500D03*
X142081250Y-225425000D03*
X111125000Y-204787500D03*
X113506250Y-204787500D03*
X115887500Y-204787500D03*
X88900000Y-189706250D03*
X103981250Y-204787500D03*
X69550000Y-187850000D03*
X101600000Y-204787500D03*
X137318750Y-180975000D03*
X131762500Y-196056250D03*
X106362500Y-204787500D03*
X118268750Y-204787500D03*
X180100000Y-190850000D03*
X177800000Y-203993750D03*
X157162500Y-180975000D03*
X159543750Y-196056250D03*
X189706250Y-203993750D03*
X157162500Y-178593750D03*
X157162500Y-176212500D03*
X157162500Y-173831250D03*
X157162500Y-171450000D03*
X159427966Y-193559215D03*
X159543750Y-191293750D03*
X159543750Y-188912500D03*
X159543750Y-186531250D03*
X187283098Y-203951848D03*
X184943750Y-203993750D03*
X184943750Y-203993750D03*
X182562500Y-203993750D03*
X180181250Y-203993750D03*
X141287500Y-219075000D03*
X138906250Y-219075000D03*
X75840239Y-194828510D03*
X57900000Y-180200000D03*
X146093750Y-203243750D03*
X124618750Y-214312501D03*
X137318750Y-203200000D03*
X125618761Y-214312488D03*
X126618772Y-214312501D03*
X99218750Y-201612500D03*
X99218750Y-211137500D03*
X130025000Y-212081250D03*
X127618783Y-214312500D03*
X198823946Y-187873946D03*
X200818750Y-210901515D03*
X134306250Y-212887500D03*
X180150002Y-192450000D03*
X201612500Y-193675000D03*
X201612500Y-200818750D03*
X133350000Y-212012500D03*
X146843750Y-217487500D03*
X146093750Y-218237500D03*
X144493750Y-219075000D03*
X146050000Y-219868750D03*
X157956244Y-222250000D03*
X156956235Y-222250000D03*
X149225000Y-222250000D03*
X149225000Y-229393750D03*
X153200000Y-207250000D03*
X153150000Y-218100000D03*
D28*
X150018750Y-204787500D02*
X147637500Y-207168750D01*
X151606250Y-206375000D02*
X150812500Y-205581250D01*
X136750000Y-204350000D02*
X136700000Y-204350000D01*
D29*
X148300000Y-168937500D02*
X149225000Y-169862500D01*
X148300000Y-159500000D02*
X148300000Y-168937500D01*
X149225000Y-196056250D02*
X147781250Y-196056250D01*
X149225000Y-169862500D02*
X149225000Y-196056250D01*
X143693750Y-197643750D02*
X143693750Y-204787500D01*
X148431250Y-197643750D02*
X143693750Y-197643750D01*
X149225000Y-196056250D02*
X149225000Y-196850000D01*
X149225000Y-196850000D02*
X148431250Y-197643750D01*
X147781250Y-199231250D02*
X147781250Y-198293750D01*
X147781250Y-198293750D02*
X148431250Y-197643750D01*
X147781250Y-199231250D02*
X147781250Y-201612500D01*
X165893750Y-209837500D02*
X165893750Y-212581250D01*
X137581250Y-207287500D02*
X134937500Y-204643750D01*
X138793750Y-207287500D02*
X137581250Y-207287500D01*
X138281250Y-213687500D02*
X138206263Y-213612513D01*
X138793750Y-213687500D02*
X138281250Y-213687500D01*
X182393643Y-228262834D02*
X173494084Y-228262834D01*
X171281250Y-226050000D02*
X167800000Y-226050000D01*
X173494084Y-228262834D02*
X171281250Y-226050000D01*
X147781250Y-199231250D02*
X150018750Y-199231250D01*
X143693750Y-205918500D02*
X143693750Y-204787500D01*
X142324750Y-207287500D02*
X143693750Y-205918500D01*
X138793750Y-207287500D02*
X142324750Y-207287500D01*
X166984260Y-213671760D02*
X166984260Y-215603240D01*
X165893750Y-212581250D02*
X166984260Y-213671760D01*
X166984260Y-215603240D02*
X165893750Y-216693750D01*
X166984260Y-207456030D02*
X165903230Y-206375000D01*
X165893750Y-209837500D02*
X166984260Y-208746990D01*
X166984260Y-208746990D02*
X166984260Y-207456030D01*
X167800000Y-226050000D02*
X167800000Y-223362500D01*
X167800000Y-223362500D02*
X167481250Y-223043750D01*
X156100013Y-208374987D02*
X156656250Y-207818750D01*
X155565740Y-208909260D02*
X156100013Y-208374987D01*
X154274780Y-208909260D02*
X155565740Y-208909260D01*
X154253020Y-208887500D02*
X154274780Y-208909260D01*
X150193750Y-208887500D02*
X154253020Y-208887500D01*
X135056250Y-214050000D02*
X134937500Y-214168750D01*
X136700000Y-214050000D02*
X135056250Y-214050000D01*
X137062500Y-213687500D02*
X138793750Y-213687500D01*
X136700000Y-214050000D02*
X137062500Y-213687500D01*
X138793750Y-192806250D02*
X138793750Y-197756250D01*
X138793750Y-197756250D02*
X138793750Y-206262500D01*
X139606250Y-191993750D02*
X138793750Y-192806250D01*
X141287500Y-190312500D02*
X139606250Y-191993750D01*
X154781250Y-206375000D02*
X154781250Y-207818750D01*
X151324750Y-208087500D02*
X150193750Y-208087500D01*
X153925000Y-208087500D02*
X151324750Y-208087500D01*
X154193750Y-207818750D02*
X153925000Y-208087500D01*
X154781250Y-207818750D02*
X154193750Y-207818750D01*
X136731250Y-216043750D02*
X134937500Y-216043750D01*
X138793750Y-214487500D02*
X138287500Y-214487500D01*
X138287500Y-214487500D02*
X136731250Y-216043750D01*
X147693750Y-220462500D02*
X147637500Y-220518750D01*
X147693750Y-216187500D02*
X147693750Y-220462500D01*
X134937500Y-216043750D02*
X134937500Y-219868750D01*
X147637500Y-220518750D02*
X148268793Y-221150043D01*
X149790685Y-221150043D02*
X149225000Y-221150043D01*
X150831207Y-221150043D02*
X149790685Y-221150043D01*
X148268793Y-221150043D02*
X148659315Y-221150043D01*
X151606250Y-220375000D02*
X150831207Y-221150043D01*
X148659315Y-221150043D02*
X149225000Y-221150043D01*
X139700000Y-202406250D02*
X138906250Y-201612500D01*
X140503250Y-202406250D02*
X139700000Y-202406250D01*
X152818748Y-216831252D02*
X154781250Y-216831252D01*
X151606250Y-220375000D02*
X151606250Y-218043750D01*
X151606250Y-218043750D02*
X152818748Y-216831252D01*
X141293750Y-203656500D02*
X141293750Y-204787500D01*
X142875000Y-189100000D02*
X142875000Y-194496672D01*
X141287500Y-187512500D02*
X142875000Y-189100000D01*
X142875000Y-194496672D02*
X141293750Y-196077922D01*
X141293750Y-196077922D02*
X141293750Y-203656500D01*
X145100000Y-161006000D02*
X145100000Y-159500000D01*
X145100000Y-168431250D02*
X145100000Y-161006000D01*
X144462500Y-169068750D02*
X145100000Y-168431250D01*
X144462500Y-183356250D02*
X144462500Y-169068750D01*
X141287500Y-187512500D02*
X141287500Y-186531250D01*
X141287500Y-186531250D02*
X144462500Y-183356250D01*
X145293750Y-202225000D02*
X145293750Y-204787500D01*
X145906250Y-201612500D02*
X145293750Y-202225000D01*
X145906250Y-201612500D02*
X145256250Y-200962500D01*
X144899607Y-196381261D02*
X144499608Y-196781260D01*
X145906250Y-196056250D02*
X145224618Y-196056250D01*
X145224618Y-196056250D02*
X144899607Y-196381261D01*
D28*
X150193750Y-210487500D02*
X156512500Y-210487500D01*
X158750000Y-212725000D02*
X160418750Y-212725000D01*
X156512500Y-210487500D02*
X158750000Y-212725000D01*
X160418750Y-214025000D02*
X160418750Y-212725000D01*
X160850000Y-214456250D02*
X160418750Y-214025000D01*
X165893750Y-214456250D02*
X160850000Y-214456250D01*
X150193750Y-209687500D02*
X157818750Y-209687500D01*
X161493749Y-208449999D02*
X162718750Y-209675000D01*
X159056251Y-208449999D02*
X161493749Y-208449999D01*
X157818750Y-209687500D02*
X159056251Y-208449999D01*
X162718750Y-209675000D02*
X162718750Y-209825000D01*
X164431250Y-207962500D02*
X162718750Y-209675000D01*
X165893750Y-207962500D02*
X164431250Y-207962500D01*
X145906250Y-199231250D02*
X145256250Y-199231250D01*
X144493750Y-199993750D02*
X144493750Y-204787500D01*
X145256250Y-199231250D02*
X144493750Y-199993750D01*
X136506250Y-208087500D02*
X134937500Y-206518750D01*
X138793750Y-208087500D02*
X136506250Y-208087500D01*
X138112500Y-178593750D02*
X137318750Y-178593750D01*
X141412500Y-169068750D02*
X141412500Y-180975000D01*
X152400000Y-169068750D02*
X152400000Y-180975000D01*
X152400000Y-169068750D02*
X152400000Y-167481250D01*
X141287500Y-168943750D02*
X141412500Y-169068750D01*
X141287500Y-167481250D02*
X141287500Y-168943750D01*
X150193750Y-213687500D02*
X151437500Y-213687500D01*
X151700000Y-180975000D02*
X152400000Y-180975000D01*
X151606250Y-181068750D02*
X151700000Y-180975000D01*
X151606250Y-204787500D02*
X151606250Y-181068750D01*
X138112500Y-176212500D02*
X137318750Y-176212500D01*
X138112500Y-173831250D02*
X137318750Y-173831250D01*
X138112500Y-171450000D02*
X137318750Y-171450000D01*
X133287500Y-193675000D02*
X131762500Y-193675000D01*
X154656250Y-184150000D02*
X154656250Y-196056250D01*
X154656250Y-184150000D02*
X153193750Y-184150000D01*
X138112500Y-184150000D02*
X136587500Y-184150000D01*
X136587500Y-184150000D02*
X136587500Y-196056250D01*
X150193750Y-214487500D02*
X152225000Y-214487500D01*
X153956250Y-196056250D02*
X154656250Y-196056250D01*
X152400000Y-197612500D02*
X153956250Y-196056250D01*
X152400000Y-205581250D02*
X152400000Y-197612500D01*
X133287500Y-191293750D02*
X131762500Y-191293750D01*
X133287500Y-188912500D02*
X131762500Y-188912500D01*
X133287500Y-186531250D02*
X132587500Y-186531250D01*
X132587500Y-186531250D02*
X131762500Y-186531250D01*
X108743750Y-204787500D02*
X108743750Y-206312500D01*
X189706250Y-209612500D02*
X177800000Y-209612500D01*
X106362500Y-209612500D02*
X118268750Y-209612500D01*
X163481250Y-224631250D02*
X145256250Y-224631250D01*
X177800000Y-209612500D02*
X177800000Y-210312500D01*
X177800000Y-210312500D02*
X163481250Y-224631250D01*
X145256250Y-224631250D02*
X144462500Y-223837500D01*
X144234435Y-223837500D02*
X144462500Y-223837500D01*
X143693750Y-223068750D02*
X144462500Y-223837500D01*
X143693750Y-216187500D02*
X143693750Y-223068750D01*
X134231250Y-225425000D02*
X141515565Y-225425000D01*
X141515565Y-225425000D02*
X142081250Y-225425000D01*
X118418750Y-209612500D02*
X134231250Y-225425000D01*
X118268750Y-209612500D02*
X118418750Y-209612500D01*
X111125000Y-204787500D02*
X111125000Y-206312500D01*
X113506250Y-204787500D02*
X113506250Y-206312500D01*
X115887500Y-204787500D02*
X115887500Y-206312500D01*
X88900000Y-188912500D02*
X88634155Y-188646655D01*
X88900000Y-189706250D02*
X88900000Y-188912500D01*
X88634155Y-186974180D02*
X88634155Y-188646655D01*
X74995994Y-190500000D02*
X73497510Y-189001516D01*
X79650000Y-190500000D02*
X74995994Y-190500000D01*
X81600000Y-192450000D02*
X79650000Y-190500000D01*
X88900000Y-189706250D02*
X86156250Y-192450000D01*
X86156250Y-192450000D02*
X81600000Y-192450000D01*
X103981250Y-204787500D02*
X103981250Y-206312500D01*
X199231250Y-209612500D02*
X192087500Y-209612500D01*
X103981250Y-209612500D02*
X96837500Y-209612500D01*
X191237500Y-209612500D02*
X189712500Y-211137500D01*
X192087500Y-209612500D02*
X191237500Y-209612500D01*
X189712500Y-211137500D02*
X177611410Y-211137500D01*
X177611410Y-211137500D02*
X163667650Y-225081261D01*
X163667650Y-225081261D02*
X144291743Y-225081261D01*
X142893750Y-222073910D02*
X142893750Y-215918750D01*
X142875000Y-222092660D02*
X142893750Y-222073910D01*
X142875000Y-223664518D02*
X142875000Y-223043750D01*
X144291743Y-225081261D02*
X142875000Y-223664518D01*
X142875000Y-223043750D02*
X142875000Y-222092660D01*
X142875000Y-225704254D02*
X142875000Y-223043750D01*
X104262500Y-209612500D02*
X104500000Y-210900000D01*
X103981250Y-209612500D02*
X104262500Y-209612500D01*
X104500000Y-210900000D02*
X119000000Y-210900000D01*
X119000000Y-210900000D02*
X134250002Y-226150002D01*
X134250002Y-226150002D02*
X142429252Y-226150002D01*
X142429252Y-226150002D02*
X142875000Y-225704254D01*
X69608221Y-186181972D02*
X69550000Y-186240193D01*
X69608221Y-184679877D02*
X69608221Y-186181972D01*
X69550000Y-186240193D02*
X69550000Y-187850000D01*
X69550000Y-187850000D02*
X67000000Y-190400000D01*
X67000000Y-190400000D02*
X63000000Y-190400000D01*
X63000000Y-190400000D02*
X60950000Y-188350000D01*
X56114363Y-188350000D02*
X54471576Y-186707213D01*
X60950000Y-188350000D02*
X56114363Y-188350000D01*
X101600000Y-204787500D02*
X101600000Y-206312500D01*
X122082444Y-153571904D02*
X122082444Y-156567556D01*
X122082444Y-156567556D02*
X119450000Y-159200000D01*
X119450000Y-159200000D02*
X115100000Y-159200000D01*
X115100000Y-159200000D02*
X112900000Y-157000000D01*
X108346559Y-157000000D02*
X106945799Y-155599240D01*
X112900000Y-157000000D02*
X108346559Y-157000000D01*
X138112500Y-180975000D02*
X137318750Y-180975000D01*
X115526828Y-171299716D02*
X115500000Y-171326544D01*
X115526828Y-169797621D02*
X115526828Y-171299716D01*
X115500000Y-171326544D02*
X115500000Y-172650000D01*
X115500000Y-172650000D02*
X113400000Y-174750000D01*
X113400000Y-174750000D02*
X109050000Y-174750000D01*
X109050000Y-174750000D02*
X107650000Y-173350000D01*
X101915226Y-173350000D02*
X100390183Y-171824957D01*
X107650000Y-173350000D02*
X101915226Y-173350000D01*
X133287500Y-196056250D02*
X131762500Y-196056250D01*
X100750000Y-189500000D02*
X95283893Y-189500000D01*
X104896647Y-191600000D02*
X102850000Y-191600000D01*
X95283893Y-189500000D02*
X94850567Y-189066674D01*
X108971213Y-187525434D02*
X104896647Y-191600000D01*
X94850567Y-189066674D02*
X93834568Y-188050675D01*
X102850000Y-191600000D02*
X100750000Y-189500000D01*
X108971213Y-186023339D02*
X108971213Y-187525434D01*
X106362500Y-204787500D02*
X106362500Y-206312500D01*
X99218750Y-204787500D02*
X99218750Y-206312500D01*
X83935549Y-212694291D02*
X91842340Y-204787500D01*
X91842340Y-204787500D02*
X99218750Y-204787500D01*
X85964083Y-213798417D02*
X85964083Y-214222901D01*
X93874484Y-206312500D02*
X96837500Y-206312500D01*
X85964083Y-214222901D02*
X93874484Y-206312500D01*
X126724610Y-161250000D02*
X125222520Y-159747910D01*
X131650000Y-161250000D02*
X126724610Y-161250000D01*
X140359165Y-159222669D02*
X140350000Y-159231834D01*
X140359165Y-157720574D02*
X140359165Y-159222669D01*
X140350000Y-159231834D02*
X140350000Y-160950000D01*
X137900000Y-163400000D02*
X133800000Y-163400000D01*
X133800000Y-163400000D02*
X131650000Y-161250000D01*
X138112500Y-163512500D02*
X137950000Y-163350000D01*
X138112500Y-169068750D02*
X138112500Y-163512500D01*
X140350000Y-160950000D02*
X137950000Y-163350000D01*
X137950000Y-163350000D02*
X137900000Y-163400000D01*
X133803549Y-173946292D02*
X133803549Y-177296451D01*
X133803549Y-177296451D02*
X131500000Y-179600000D01*
X131500000Y-179600000D02*
X126300000Y-179600000D01*
X126300000Y-179600000D02*
X123750000Y-177050000D01*
X119743276Y-177050000D02*
X118666904Y-175973628D01*
X123750000Y-177050000D02*
X119743276Y-177050000D01*
X133287500Y-181387500D02*
X131500000Y-179600000D01*
X133287500Y-184150000D02*
X133287500Y-181387500D01*
X113611944Y-193700000D02*
X112111289Y-192199345D01*
X118050000Y-193700000D02*
X113611944Y-193700000D01*
X120250000Y-195900000D02*
X118050000Y-193700000D01*
X124500000Y-195900000D02*
X120250000Y-195900000D01*
X127247934Y-190172009D02*
X127247934Y-193152066D01*
X127247934Y-193152066D02*
X124500000Y-195900000D01*
X118268750Y-204787500D02*
X118268750Y-206312500D01*
X154833553Y-163581693D02*
X154833553Y-158616447D01*
X155902887Y-164651027D02*
X154833553Y-163581693D01*
X154833553Y-158616447D02*
X158200000Y-155250000D01*
X162810859Y-155250000D02*
X165382973Y-152677886D01*
X158200000Y-155250000D02*
X162810859Y-155250000D01*
X155700000Y-164853914D02*
X155902887Y-164651027D01*
X155700000Y-169068750D02*
X155700000Y-164853914D01*
X161389168Y-179807411D02*
X161389168Y-173510832D01*
X162458502Y-180876745D02*
X161389168Y-179807411D01*
X161389168Y-173510832D02*
X163600000Y-171300000D01*
X163600000Y-171300000D02*
X167900000Y-171300000D01*
X170296396Y-168903604D02*
X171938588Y-168903604D01*
X167900000Y-171300000D02*
X170296396Y-168903604D01*
X159185247Y-184150000D02*
X162458502Y-180876745D01*
X157956250Y-184150000D02*
X159185247Y-184150000D01*
X169202462Y-197102462D02*
X169500000Y-197400000D01*
X169014117Y-197102462D02*
X169202462Y-197102462D01*
X169550000Y-197400000D02*
X168700000Y-198250000D01*
X169500000Y-197400000D02*
X169550000Y-197400000D01*
X168700000Y-198250000D02*
X168700000Y-198450000D01*
X172500000Y-198450000D02*
X180100000Y-190850000D01*
X168700000Y-198450000D02*
X172500000Y-198450000D01*
X177800000Y-203993750D02*
X177800000Y-206312500D01*
X181338910Y-150850000D02*
X183659694Y-148529216D01*
X173400000Y-150850000D02*
X181338910Y-150850000D01*
X171350000Y-152900000D02*
X173400000Y-150850000D01*
X174179608Y-160502357D02*
X171350000Y-157672749D01*
X171350000Y-157672749D02*
X171350000Y-152900000D01*
X155700000Y-180975000D02*
X157162500Y-180975000D01*
X187720242Y-167250000D02*
X190215309Y-164754933D01*
X180150000Y-167250000D02*
X187720242Y-167250000D01*
X178100000Y-169300000D02*
X180150000Y-167250000D01*
X180735223Y-176728074D02*
X178100000Y-174092851D01*
X178100000Y-174092851D02*
X178100000Y-169300000D01*
X157956250Y-196056250D02*
X159543750Y-196056250D01*
X194251575Y-183500000D02*
X196770924Y-180980651D01*
X190350000Y-183500000D02*
X194251575Y-183500000D01*
X186350000Y-187500000D02*
X190350000Y-183500000D01*
X187290838Y-192953792D02*
X186350000Y-192012954D01*
X186350000Y-192012954D02*
X186350000Y-187500000D01*
X189706250Y-206312500D02*
X189706250Y-203993750D01*
X208722211Y-211690687D02*
X209572210Y-212540686D01*
X201819024Y-204787500D02*
X208722211Y-211690687D01*
X197640625Y-204787500D02*
X201819024Y-204787500D01*
X196850000Y-206312500D02*
X196850000Y-205578125D01*
X196850000Y-205578125D02*
X197640625Y-204787500D01*
X207138046Y-214069296D02*
X207543676Y-214069296D01*
X199381250Y-206312500D02*
X207138046Y-214069296D01*
X199231250Y-206312500D02*
X199381250Y-206312500D01*
X155700000Y-178593750D02*
X157162500Y-178593750D01*
X155700000Y-176212500D02*
X157162500Y-176212500D01*
X155700000Y-173831250D02*
X157162500Y-173831250D01*
X155700000Y-171450000D02*
X157162500Y-171450000D01*
X159312181Y-193675000D02*
X159427966Y-193559215D01*
X157956250Y-193675000D02*
X159312181Y-193675000D01*
X157956250Y-191293750D02*
X159543750Y-191293750D01*
X157956250Y-188912500D02*
X159543750Y-188912500D01*
X157956250Y-186531250D02*
X159543750Y-186531250D01*
X187283098Y-206270598D02*
X187325000Y-206312500D01*
X187283098Y-203951848D02*
X187283098Y-206270598D01*
X184943750Y-203993750D02*
X184943750Y-206312500D01*
X182562500Y-203993750D02*
X182562500Y-206312500D01*
X180181250Y-206312500D02*
X180181250Y-203993750D01*
X215918508Y-181931492D02*
X217107982Y-181931492D01*
X213400000Y-184450000D02*
X215918508Y-181931492D01*
X209950000Y-184450000D02*
X213400000Y-184450000D01*
X206250000Y-188150000D02*
X209950000Y-184450000D01*
X207627896Y-193904633D02*
X206250000Y-192526737D01*
X206250000Y-192526737D02*
X206250000Y-188150000D01*
X206125801Y-193904633D02*
X207627896Y-193904633D01*
X203795367Y-193904633D02*
X206125801Y-193904633D01*
X192087500Y-205612500D02*
X203795367Y-193904633D01*
X192087500Y-206312500D02*
X192087500Y-205612500D01*
X225250000Y-190206500D02*
X226653830Y-191610330D01*
X225250000Y-183950000D02*
X225250000Y-190206500D01*
X226205980Y-182994020D02*
X225250000Y-183950000D01*
X231305980Y-182994020D02*
X226205980Y-182994020D01*
X236133916Y-179637189D02*
X234662811Y-179637189D01*
X234662811Y-179637189D02*
X231305980Y-182994020D01*
X225584496Y-192679664D02*
X226653830Y-191610330D01*
X219826660Y-198437500D02*
X225584496Y-192679664D01*
X201643750Y-198437500D02*
X219826660Y-198437500D01*
X194468750Y-206312500D02*
X194468750Y-205612500D01*
X194468750Y-205612500D02*
X201643750Y-198437500D01*
X63950000Y-182250000D02*
X65150000Y-181050000D01*
X53118862Y-181779619D02*
X54070381Y-181779619D01*
X69200000Y-182200000D02*
X76034315Y-182200000D01*
X52395205Y-182503276D02*
X53118862Y-181779619D01*
X54070381Y-181779619D02*
X54750000Y-181100000D01*
X68050000Y-181050000D02*
X69200000Y-182200000D01*
X65150000Y-181050000D02*
X68050000Y-181050000D01*
X54750000Y-181100000D02*
X56200000Y-181100000D01*
X56200000Y-181100000D02*
X57350000Y-182250000D01*
X57350000Y-182250000D02*
X63950000Y-182250000D01*
X75808003Y-182200000D02*
X76034315Y-182200000D01*
X71437500Y-186570503D02*
X75808003Y-182200000D01*
X71437500Y-191293750D02*
X71437500Y-186570503D01*
X71949386Y-191805636D02*
X71437500Y-191293750D01*
X77346755Y-192821635D02*
X76330756Y-191805636D01*
X76330756Y-191805636D02*
X71949386Y-191805636D01*
X78749316Y-180806934D02*
X78749316Y-180607669D01*
X78581250Y-180975000D02*
X78749316Y-180806934D01*
X76034315Y-182200000D02*
X77259315Y-180975000D01*
X77259315Y-180975000D02*
X78581250Y-180975000D01*
X141293750Y-216187500D02*
X141293750Y-219068750D01*
X141293750Y-219068750D02*
X141287500Y-219075000D01*
X75840239Y-194328151D02*
X75840239Y-194828510D01*
X77346755Y-192821635D02*
X75840239Y-194328151D01*
X59723382Y-178376618D02*
X59723382Y-178313366D01*
X57900000Y-180200000D02*
X59723382Y-178376618D01*
X146093750Y-204787500D02*
X146093750Y-203243750D01*
X124618750Y-212159315D02*
X133578065Y-203200000D01*
X136753065Y-203200000D02*
X137318750Y-203200000D01*
X124618750Y-214312501D02*
X124618750Y-212159315D01*
X133578065Y-203200000D02*
X136753065Y-203200000D01*
X125618761Y-211924477D02*
X125618761Y-213746803D01*
X138793750Y-208887500D02*
X128655738Y-208887500D01*
X128655738Y-208887500D02*
X125618761Y-211924477D01*
X125618761Y-213746803D02*
X125618761Y-214312488D01*
X126618772Y-211676067D02*
X126618772Y-213746816D01*
X128607339Y-209687500D02*
X126618772Y-211676067D01*
X138793750Y-209687500D02*
X128607339Y-209687500D01*
X126618772Y-213746816D02*
X126618772Y-214312501D01*
X122644897Y-168853594D02*
X123918710Y-167579781D01*
X122644897Y-169994897D02*
X122644897Y-168853594D01*
X129404992Y-152423397D02*
X129276603Y-152423397D01*
X130474326Y-151354063D02*
X129404992Y-152423397D01*
X129276603Y-152423397D02*
X128200000Y-153500000D01*
X99218750Y-201612500D02*
X104811786Y-196019464D01*
X122644897Y-168661353D02*
X122644897Y-169994897D01*
X129071765Y-163568029D02*
X127738221Y-163568029D01*
X127738221Y-163568029D02*
X122644897Y-168661353D01*
X121079309Y-179793747D02*
X122516149Y-179793747D01*
X118674997Y-179793747D02*
X121079309Y-179793747D01*
X116681250Y-177800000D02*
X118674997Y-179793747D01*
X116681250Y-172243750D02*
X116681250Y-177800000D01*
X122644897Y-169994897D02*
X118930103Y-169994897D01*
X118930103Y-169994897D02*
X116681250Y-172243750D01*
X127634315Y-153500000D02*
X128200000Y-153500000D01*
X125900000Y-153500000D02*
X127634315Y-153500000D01*
X123031250Y-156368750D02*
X125900000Y-153500000D01*
X123031250Y-160337500D02*
X123031250Y-156368750D01*
X129071765Y-163568029D02*
X126261779Y-163568029D01*
X126261779Y-163568029D02*
X123031250Y-160337500D01*
X104811786Y-196019464D02*
X107119464Y-196019464D01*
X107119464Y-196019464D02*
X115960534Y-196019464D01*
X107156250Y-195982678D02*
X107119464Y-196019464D01*
X112536355Y-185913645D02*
X107156250Y-191293750D01*
X107156250Y-191293750D02*
X107156250Y-195982678D01*
X117363095Y-183805498D02*
X115254948Y-185913645D01*
X115254948Y-185913645D02*
X112536355Y-185913645D01*
X118674997Y-182493596D02*
X117363095Y-183805498D01*
X118674997Y-179793747D02*
X118674997Y-182493596D01*
X92606629Y-211137500D02*
X87992618Y-215751511D01*
X99218750Y-211137500D02*
X92606629Y-211137500D01*
X138793750Y-211287500D02*
X130025000Y-211287500D01*
X130025000Y-211287500D02*
X130025000Y-212081250D01*
X105641989Y-163858011D02*
X105641989Y-163431110D01*
X99086374Y-179716458D02*
X99086374Y-179656828D01*
X104239428Y-175645076D02*
X103223429Y-174629077D01*
X103223429Y-174629077D02*
X99057729Y-174629077D01*
X97683813Y-195388883D02*
X81907015Y-211165681D01*
X97683813Y-191870794D02*
X97683813Y-195388883D01*
X105641989Y-164933205D02*
X105641989Y-163431110D01*
X105641989Y-166485404D02*
X105641989Y-164933205D01*
X98425000Y-173996348D02*
X98425000Y-172017413D01*
X99057729Y-174629077D02*
X98425000Y-173996348D01*
X98425000Y-172017413D02*
X99279665Y-169902044D01*
X99279665Y-169902044D02*
X99319209Y-169862500D01*
X99319209Y-169862500D02*
X102264893Y-169862500D01*
X102264893Y-169862500D02*
X105641989Y-166485404D01*
X104572655Y-162361776D02*
X105641989Y-163431110D01*
X104572655Y-159746095D02*
X104572655Y-162361776D01*
X105915390Y-158403360D02*
X104572655Y-159746095D01*
X110795044Y-159419359D02*
X109779045Y-158403360D01*
X109779045Y-158403360D02*
X105915390Y-158403360D01*
X104775000Y-157262970D02*
X104775000Y-156300611D01*
X105915390Y-158403360D02*
X104775000Y-157262970D01*
X104775000Y-156300611D02*
X106030254Y-153987500D01*
X106030254Y-153987500D02*
X108743750Y-153987500D01*
X112197605Y-148707488D02*
X112197605Y-147205393D01*
X108743750Y-153987500D02*
X112197605Y-150533645D01*
X112197605Y-150533645D02*
X112197605Y-148707488D01*
X96246973Y-191870794D02*
X97683813Y-191870794D01*
X94954775Y-191870794D02*
X96246973Y-191870794D01*
X99057729Y-174629077D02*
X96700000Y-176986806D01*
X94318750Y-181906250D02*
X91281250Y-184943750D01*
X96700000Y-181906250D02*
X94318750Y-181906250D01*
X91281250Y-184943750D02*
X91281250Y-188197269D01*
X91281250Y-188197269D02*
X94954775Y-191870794D01*
X97361922Y-179656828D02*
X96700000Y-180318750D01*
X99086374Y-179656828D02*
X97361922Y-179656828D01*
X96700000Y-176986806D02*
X96700000Y-180318750D01*
X96700000Y-180318750D02*
X96700000Y-181906250D01*
X127618783Y-213746815D02*
X127618783Y-214312500D01*
X127618783Y-211312467D02*
X127618783Y-213746815D01*
X138793750Y-210487500D02*
X128443750Y-210487500D01*
X128443750Y-210487500D02*
X127618783Y-211312467D01*
X193337665Y-173371838D02*
X193337665Y-172187665D01*
X192268331Y-174441172D02*
X193337665Y-173371838D01*
X193337665Y-172187665D02*
X192300000Y-171150000D01*
X198823946Y-190666890D02*
X198823946Y-187873946D01*
X194468750Y-173318750D02*
X192300000Y-171150000D01*
X194468750Y-174625000D02*
X194468750Y-173318750D01*
X196056250Y-176212500D02*
X194468750Y-174625000D01*
X196056250Y-179387500D02*
X196056250Y-176212500D01*
X191348331Y-180906598D02*
X194537152Y-180906598D01*
X194537152Y-180906598D02*
X196056250Y-179387500D01*
X197162455Y-179387500D02*
X196056250Y-179387500D01*
X198411447Y-180636492D02*
X197162455Y-179387500D01*
X198411447Y-181742697D02*
X198411447Y-180636492D01*
X200818750Y-184150000D02*
X198411447Y-181742697D01*
X198823946Y-187873946D02*
X200818750Y-185879142D01*
X200818750Y-185879142D02*
X200818750Y-184150000D01*
X192087500Y-165893750D02*
X190500000Y-167481250D01*
X186950370Y-164680880D02*
X188912500Y-162718750D01*
X188912500Y-162718750D02*
X190728779Y-162718750D01*
X190728779Y-162718750D02*
X191472823Y-163462794D01*
X190500000Y-167481250D02*
X190500000Y-169350000D01*
X184792716Y-164680880D02*
X186950370Y-164680880D01*
X191472823Y-163462794D02*
X192087500Y-164984174D01*
X190500000Y-169350000D02*
X192300000Y-171150000D01*
X192087500Y-164984174D02*
X192087500Y-165893750D01*
X187214811Y-158215455D02*
X185712716Y-158215455D01*
X189706250Y-160706894D02*
X187214811Y-158215455D01*
X188912500Y-162718750D02*
X189706250Y-161925000D01*
X189706250Y-161925000D02*
X189706250Y-160706894D01*
X179253100Y-147439164D02*
X178237101Y-148455163D01*
X180642264Y-146050000D02*
X179253100Y-147439164D01*
X183356250Y-155858989D02*
X183356250Y-151608671D01*
X185712716Y-158215455D02*
X183356250Y-155858989D01*
X183356250Y-151608671D02*
X185726004Y-149238918D01*
X185726004Y-149238918D02*
X184632568Y-146532568D01*
X184632568Y-146532568D02*
X184150000Y-146050000D01*
X184150000Y-146050000D02*
X180642264Y-146050000D01*
X201218749Y-211301514D02*
X205515141Y-215597906D01*
X200818750Y-210901515D02*
X201218749Y-211301514D01*
X138793750Y-212887500D02*
X134306250Y-212887500D01*
X167531994Y-162268126D02*
X167435995Y-162364125D01*
X173991610Y-177087748D02*
X174050000Y-177029358D01*
X173991610Y-178589843D02*
X173991610Y-177087748D01*
X174050000Y-177029358D02*
X174050000Y-175675218D01*
X174050000Y-175675218D02*
X174087609Y-175637609D01*
X180547225Y-194815560D02*
X180547225Y-192847223D01*
X180547225Y-192847223D02*
X180150002Y-192450000D01*
X180550001Y-192849999D02*
X180150002Y-192450000D01*
X183584896Y-195884894D02*
X180550001Y-192849999D01*
X199402606Y-195884894D02*
X183584896Y-195884894D01*
X201612500Y-193675000D02*
X199402606Y-195884894D01*
X173166083Y-166687500D02*
X168658046Y-166687500D01*
X176212500Y-169733917D02*
X173166083Y-166687500D01*
X174087609Y-175637609D02*
X176212500Y-173512718D01*
X176212500Y-173512718D02*
X176212500Y-169733917D01*
X167531994Y-167813552D02*
X166515995Y-168829551D01*
X168466523Y-164896748D02*
X168466523Y-166879023D01*
X167435995Y-163866220D02*
X168466523Y-164896748D01*
X167435995Y-162364125D02*
X167435995Y-163866220D01*
X168658046Y-166687500D02*
X168466523Y-166879023D01*
X168466523Y-166879023D02*
X167531994Y-167813552D01*
X169068750Y-160731370D02*
X167435995Y-162364125D01*
X169068750Y-153193750D02*
X169068750Y-160731370D01*
X165893750Y-150018750D02*
X169068750Y-153193750D01*
X159960380Y-152603833D02*
X162545463Y-150018750D01*
X162545463Y-150018750D02*
X165893750Y-150018750D01*
X173991610Y-184135268D02*
X173071610Y-185055268D01*
X173991610Y-178589843D02*
X173991610Y-184135268D01*
X211600744Y-210806994D02*
X211600744Y-211012076D01*
X201612500Y-200818750D02*
X211600744Y-210806994D01*
X138793750Y-212087500D02*
X133506250Y-212087500D01*
X133506250Y-212087500D02*
X133431250Y-212012500D01*
X133431250Y-212012500D02*
X133350000Y-212012500D01*
X219161004Y-191617731D02*
X219161004Y-189261004D01*
X240804724Y-181587433D02*
X241528381Y-182311090D01*
X237167291Y-177950000D02*
X240804724Y-181587433D01*
X235350000Y-177950000D02*
X237167291Y-177950000D01*
X230755990Y-182544010D02*
X235350000Y-177950000D01*
X225877998Y-182544010D02*
X230755990Y-182544010D01*
X219161004Y-189261004D02*
X223261004Y-185161004D01*
X223261004Y-185161004D02*
X225877998Y-182544010D01*
X218281250Y-180181250D02*
X223261004Y-185161004D01*
X216422390Y-180181250D02*
X218281250Y-180181250D01*
X215628640Y-180975000D02*
X216422390Y-180181250D01*
X211685389Y-181857439D02*
X212567828Y-180975000D01*
X212567828Y-180975000D02*
X215628640Y-180975000D01*
X146893750Y-216187500D02*
X146893750Y-217437500D01*
X146893750Y-217437500D02*
X146843750Y-217487500D01*
X238050000Y-189186490D02*
X238186938Y-189323428D01*
X238050000Y-186350000D02*
X238050000Y-189186490D01*
X240796019Y-186350000D02*
X242479882Y-184666137D01*
X238050000Y-186350000D02*
X240796019Y-186350000D01*
X146093750Y-216187500D02*
X146093750Y-218237500D01*
X144493750Y-216187500D02*
X144493750Y-219075000D01*
X145293750Y-216187500D02*
X145293750Y-219112500D01*
X145650001Y-219468751D02*
X146050000Y-219868750D01*
X145293750Y-219112500D02*
X145650001Y-219468751D01*
X157956244Y-218049994D02*
X157956244Y-221684315D01*
X157956244Y-221684315D02*
X157956244Y-222250000D01*
X151193750Y-211287500D02*
X157956244Y-218049994D01*
X150193750Y-211287500D02*
X151193750Y-211287500D01*
X151193750Y-212087500D02*
X156956235Y-217849985D01*
X156956235Y-221684315D02*
X156956235Y-222250000D01*
X150193750Y-212087500D02*
X151193750Y-212087500D01*
X156956235Y-217849985D02*
X156956235Y-221684315D01*
X145256250Y-186737500D02*
X145256250Y-187325000D01*
X145256250Y-169862500D02*
X145256250Y-186737500D01*
X145900000Y-159500000D02*
X145900000Y-169218750D01*
X145900000Y-169218750D02*
X145256250Y-169862500D01*
X142093750Y-203787500D02*
X142093750Y-204787500D01*
X142093750Y-196837500D02*
X142093750Y-203787500D01*
X145256250Y-193675000D02*
X142093750Y-196837500D01*
X145256250Y-189200000D02*
X145256250Y-193675000D01*
X147637500Y-181768750D02*
X147637500Y-187325000D01*
X148193737Y-181212513D02*
X147637500Y-181768750D01*
X148193737Y-170359728D02*
X148193737Y-181212513D01*
X146700000Y-159500000D02*
X146700000Y-168865991D01*
X146700000Y-168865991D02*
X148193737Y-170359728D01*
X147637500Y-191930160D02*
X147637500Y-189787500D01*
X142875000Y-196692660D02*
X147637500Y-191930160D01*
X147637500Y-189787500D02*
X147637500Y-189200000D01*
X142875000Y-196850000D02*
X142875000Y-196692660D01*
X142893750Y-204787500D02*
X142893750Y-196868750D01*
X142893750Y-196868750D02*
X142875000Y-196850000D01*
X151606250Y-222250000D02*
X149225000Y-222250000D01*
X161243750Y-229393750D02*
X161600000Y-229750000D01*
X149225000Y-229393750D02*
X161243750Y-229393750D01*
X150231250Y-207250000D02*
X150193750Y-207287500D01*
X153200000Y-207250000D02*
X150231250Y-207250000D01*
X153150000Y-218665685D02*
X153150000Y-218100000D01*
X153150000Y-220706250D02*
X153150000Y-218665685D01*
X151606250Y-222250000D02*
X153150000Y-220706250D01*
X140493750Y-220662500D02*
X140493750Y-216187500D01*
X150350000Y-159500000D02*
X150350000Y-155000000D01*
X150350000Y-155000000D02*
X143050000Y-155000000D01*
X143050000Y-155000000D02*
X143050000Y-159500000D01*
D30*
G36*
X132315000Y-212114439D02*
G01*
X132354774Y-212314398D01*
X132432795Y-212502756D01*
X132546063Y-212672274D01*
X132690226Y-212816437D01*
X132859744Y-212929705D01*
X133048102Y-213007726D01*
X133248061Y-213047500D01*
X133282799Y-213047500D01*
X133311024Y-213189398D01*
X133389045Y-213377756D01*
X133502313Y-213547274D01*
X133602733Y-213647694D01*
X133599428Y-213681250D01*
X133602500Y-213883000D01*
X133761250Y-214041750D01*
X134810500Y-214041750D01*
X134810500Y-214021750D01*
X135064500Y-214021750D01*
X135064500Y-214041750D01*
X136113750Y-214041750D01*
X136272500Y-213883000D01*
X136275572Y-213681250D01*
X136272248Y-213647500D01*
X137633769Y-213647500D01*
X137682509Y-213687500D01*
X137592565Y-213761315D01*
X137513213Y-213858006D01*
X137500833Y-213881167D01*
X137408750Y-213973250D01*
X137418296Y-214086837D01*
X137417938Y-214088018D01*
X137406837Y-214200729D01*
X136389318Y-215218250D01*
X136051590Y-215218250D01*
X136017292Y-215176458D01*
X136010936Y-215171242D01*
X136088685Y-215107435D01*
X136168037Y-215010744D01*
X136227002Y-214900430D01*
X136263312Y-214780732D01*
X136275572Y-214656250D01*
X136272500Y-214454500D01*
X136113750Y-214295750D01*
X135064500Y-214295750D01*
X135064500Y-214315750D01*
X134810500Y-214315750D01*
X134810500Y-214295750D01*
X133761250Y-214295750D01*
X133602500Y-214454500D01*
X133599428Y-214656250D01*
X133611688Y-214780732D01*
X133647998Y-214900430D01*
X133706963Y-215010744D01*
X133786315Y-215107435D01*
X133864064Y-215171242D01*
X133857708Y-215176458D01*
X133748042Y-215310086D01*
X133666553Y-215462541D01*
X133616372Y-215627965D01*
X133599428Y-215800000D01*
X133599428Y-216287500D01*
X133616372Y-216459535D01*
X133666553Y-216624959D01*
X133748042Y-216777414D01*
X133857708Y-216911042D01*
X133991336Y-217020708D01*
X134112000Y-217085204D01*
X134112001Y-219241246D01*
X134020295Y-219378494D01*
X133942274Y-219566852D01*
X133902500Y-219766811D01*
X133902500Y-219970689D01*
X133942274Y-220170648D01*
X134020295Y-220359006D01*
X134133563Y-220528524D01*
X134277726Y-220672687D01*
X134447244Y-220785955D01*
X134635602Y-220863976D01*
X134835561Y-220903750D01*
X135039439Y-220903750D01*
X135239398Y-220863976D01*
X135427756Y-220785955D01*
X135597274Y-220672687D01*
X135741437Y-220528524D01*
X135854705Y-220359006D01*
X135932726Y-220170648D01*
X135972500Y-219970689D01*
X135972500Y-219766811D01*
X135932726Y-219566852D01*
X135854705Y-219378494D01*
X135763000Y-219241247D01*
X135763000Y-217085204D01*
X135883664Y-217020708D01*
X136017292Y-216911042D01*
X136051590Y-216869250D01*
X136690700Y-216869250D01*
X136731250Y-216873244D01*
X136771800Y-216869250D01*
X136771803Y-216869250D01*
X136893076Y-216857306D01*
X137048684Y-216810103D01*
X137192092Y-216733449D01*
X137317791Y-216630291D01*
X137343648Y-216598784D01*
X138541862Y-215400572D01*
X139543750Y-215400572D01*
X139584712Y-215396538D01*
X139580678Y-215437500D01*
X139580678Y-216937500D01*
X139592938Y-217061982D01*
X139629248Y-217181680D01*
X139688213Y-217291994D01*
X139733751Y-217347482D01*
X139733750Y-218450491D01*
X139710187Y-218415226D01*
X139566024Y-218271063D01*
X139396506Y-218157795D01*
X139208148Y-218079774D01*
X139008189Y-218040000D01*
X138804311Y-218040000D01*
X138604352Y-218079774D01*
X138415994Y-218157795D01*
X138246476Y-218271063D01*
X138102313Y-218415226D01*
X137989045Y-218584744D01*
X137911024Y-218773102D01*
X137871250Y-218973061D01*
X137871250Y-219176939D01*
X137911024Y-219376898D01*
X137989045Y-219565256D01*
X138102313Y-219734774D01*
X138246476Y-219878937D01*
X138415994Y-219992205D01*
X138604352Y-220070226D01*
X138804311Y-220110000D01*
X139008189Y-220110000D01*
X139208148Y-220070226D01*
X139234567Y-220059283D01*
X139222803Y-220081291D01*
X139172622Y-220246715D01*
X139155678Y-220418750D01*
X139155678Y-220906250D01*
X139172622Y-221078285D01*
X139222803Y-221243709D01*
X139304292Y-221396164D01*
X139413958Y-221529792D01*
X139420314Y-221535008D01*
X139342565Y-221598815D01*
X139263213Y-221695506D01*
X139204248Y-221805820D01*
X139167938Y-221925518D01*
X139155678Y-222050000D01*
X139158750Y-222251750D01*
X139317500Y-222410500D01*
X140366750Y-222410500D01*
X140366750Y-222390500D01*
X140620750Y-222390500D01*
X140620750Y-222410500D01*
X141670000Y-222410500D01*
X141828750Y-222251750D01*
X141831822Y-222050000D01*
X141819562Y-221925518D01*
X141783252Y-221805820D01*
X141724287Y-221695506D01*
X141644935Y-221598815D01*
X141567186Y-221535008D01*
X141573542Y-221529792D01*
X141683208Y-221396164D01*
X141764697Y-221243709D01*
X141814878Y-221078285D01*
X141831822Y-220906250D01*
X141831822Y-220418750D01*
X141814878Y-220246715D01*
X141764697Y-220081291D01*
X141728078Y-220012782D01*
X141777756Y-219992205D01*
X141947274Y-219878937D01*
X142091437Y-219734774D01*
X142133750Y-219671447D01*
X142133750Y-221918119D01*
X142131506Y-221925518D01*
X142125998Y-221943675D01*
X142111324Y-222092660D01*
X142115001Y-222129992D01*
X142115000Y-223006416D01*
X142115000Y-223627196D01*
X142111324Y-223664518D01*
X142115000Y-223701840D01*
X142115000Y-223701850D01*
X142115001Y-223701858D01*
X142115000Y-224390000D01*
X141979311Y-224390000D01*
X141779352Y-224429774D01*
X141599552Y-224504250D01*
X134385302Y-224504250D01*
X132906052Y-223025000D01*
X139155678Y-223025000D01*
X139167938Y-223149482D01*
X139204248Y-223269180D01*
X139263213Y-223379494D01*
X139342565Y-223476185D01*
X139439256Y-223555537D01*
X139549570Y-223614502D01*
X139669268Y-223650812D01*
X139793750Y-223663072D01*
X140208000Y-223660000D01*
X140366750Y-223501250D01*
X140366750Y-222664500D01*
X140620750Y-222664500D01*
X140620750Y-223501250D01*
X140779500Y-223660000D01*
X141193750Y-223663072D01*
X141318232Y-223650812D01*
X141437930Y-223614502D01*
X141548244Y-223555537D01*
X141644935Y-223476185D01*
X141724287Y-223379494D01*
X141783252Y-223269180D01*
X141819562Y-223149482D01*
X141831822Y-223025000D01*
X141828750Y-222823250D01*
X141670000Y-222664500D01*
X140620750Y-222664500D01*
X140366750Y-222664500D01*
X139317500Y-222664500D01*
X139158750Y-222823250D01*
X139155678Y-223025000D01*
X132906052Y-223025000D01*
X130302000Y-220420948D01*
X130302000Y-213081428D01*
X130326898Y-213076476D01*
X130515256Y-212998455D01*
X130684774Y-212885187D01*
X130828937Y-212741024D01*
X130942205Y-212571506D01*
X131020226Y-212383148D01*
X131060000Y-212183189D01*
X131060000Y-212047500D01*
X132315000Y-212047500D01*
X132315000Y-212114439D01*
X132315000Y-212114439D01*
G37*
X132315000Y-212114439D02*
X132354774Y-212314398D01*
X132432795Y-212502756D01*
X132546063Y-212672274D01*
X132690226Y-212816437D01*
X132859744Y-212929705D01*
X133048102Y-213007726D01*
X133248061Y-213047500D01*
X133282799Y-213047500D01*
X133311024Y-213189398D01*
X133389045Y-213377756D01*
X133502313Y-213547274D01*
X133602733Y-213647694D01*
X133599428Y-213681250D01*
X133602500Y-213883000D01*
X133761250Y-214041750D01*
X134810500Y-214041750D01*
X134810500Y-214021750D01*
X135064500Y-214021750D01*
X135064500Y-214041750D01*
X136113750Y-214041750D01*
X136272500Y-213883000D01*
X136275572Y-213681250D01*
X136272248Y-213647500D01*
X137633769Y-213647500D01*
X137682509Y-213687500D01*
X137592565Y-213761315D01*
X137513213Y-213858006D01*
X137500833Y-213881167D01*
X137408750Y-213973250D01*
X137418296Y-214086837D01*
X137417938Y-214088018D01*
X137406837Y-214200729D01*
X136389318Y-215218250D01*
X136051590Y-215218250D01*
X136017292Y-215176458D01*
X136010936Y-215171242D01*
X136088685Y-215107435D01*
X136168037Y-215010744D01*
X136227002Y-214900430D01*
X136263312Y-214780732D01*
X136275572Y-214656250D01*
X136272500Y-214454500D01*
X136113750Y-214295750D01*
X135064500Y-214295750D01*
X135064500Y-214315750D01*
X134810500Y-214315750D01*
X134810500Y-214295750D01*
X133761250Y-214295750D01*
X133602500Y-214454500D01*
X133599428Y-214656250D01*
X133611688Y-214780732D01*
X133647998Y-214900430D01*
X133706963Y-215010744D01*
X133786315Y-215107435D01*
X133864064Y-215171242D01*
X133857708Y-215176458D01*
X133748042Y-215310086D01*
X133666553Y-215462541D01*
X133616372Y-215627965D01*
X133599428Y-215800000D01*
X133599428Y-216287500D01*
X133616372Y-216459535D01*
X133666553Y-216624959D01*
X133748042Y-216777414D01*
X133857708Y-216911042D01*
X133991336Y-217020708D01*
X134112000Y-217085204D01*
X134112001Y-219241246D01*
X134020295Y-219378494D01*
X133942274Y-219566852D01*
X133902500Y-219766811D01*
X133902500Y-219970689D01*
X133942274Y-220170648D01*
X134020295Y-220359006D01*
X134133563Y-220528524D01*
X134277726Y-220672687D01*
X134447244Y-220785955D01*
X134635602Y-220863976D01*
X134835561Y-220903750D01*
X135039439Y-220903750D01*
X135239398Y-220863976D01*
X135427756Y-220785955D01*
X135597274Y-220672687D01*
X135741437Y-220528524D01*
X135854705Y-220359006D01*
X135932726Y-220170648D01*
X135972500Y-219970689D01*
X135972500Y-219766811D01*
X135932726Y-219566852D01*
X135854705Y-219378494D01*
X135763000Y-219241247D01*
X135763000Y-217085204D01*
X135883664Y-217020708D01*
X136017292Y-216911042D01*
X136051590Y-216869250D01*
X136690700Y-216869250D01*
X136731250Y-216873244D01*
X136771800Y-216869250D01*
X136771803Y-216869250D01*
X136893076Y-216857306D01*
X137048684Y-216810103D01*
X137192092Y-216733449D01*
X137317791Y-216630291D01*
X137343648Y-216598784D01*
X138541862Y-215400572D01*
X139543750Y-215400572D01*
X139584712Y-215396538D01*
X139580678Y-215437500D01*
X139580678Y-216937500D01*
X139592938Y-217061982D01*
X139629248Y-217181680D01*
X139688213Y-217291994D01*
X139733751Y-217347482D01*
X139733750Y-218450491D01*
X139710187Y-218415226D01*
X139566024Y-218271063D01*
X139396506Y-218157795D01*
X139208148Y-218079774D01*
X139008189Y-218040000D01*
X138804311Y-218040000D01*
X138604352Y-218079774D01*
X138415994Y-218157795D01*
X138246476Y-218271063D01*
X138102313Y-218415226D01*
X137989045Y-218584744D01*
X137911024Y-218773102D01*
X137871250Y-218973061D01*
X137871250Y-219176939D01*
X137911024Y-219376898D01*
X137989045Y-219565256D01*
X138102313Y-219734774D01*
X138246476Y-219878937D01*
X138415994Y-219992205D01*
X138604352Y-220070226D01*
X138804311Y-220110000D01*
X139008189Y-220110000D01*
X139208148Y-220070226D01*
X139234567Y-220059283D01*
X139222803Y-220081291D01*
X139172622Y-220246715D01*
X139155678Y-220418750D01*
X139155678Y-220906250D01*
X139172622Y-221078285D01*
X139222803Y-221243709D01*
X139304292Y-221396164D01*
X139413958Y-221529792D01*
X139420314Y-221535008D01*
X139342565Y-221598815D01*
X139263213Y-221695506D01*
X139204248Y-221805820D01*
X139167938Y-221925518D01*
X139155678Y-222050000D01*
X139158750Y-222251750D01*
X139317500Y-222410500D01*
X140366750Y-222410500D01*
X140366750Y-222390500D01*
X140620750Y-222390500D01*
X140620750Y-222410500D01*
X141670000Y-222410500D01*
X141828750Y-222251750D01*
X141831822Y-222050000D01*
X141819562Y-221925518D01*
X141783252Y-221805820D01*
X141724287Y-221695506D01*
X141644935Y-221598815D01*
X141567186Y-221535008D01*
X141573542Y-221529792D01*
X141683208Y-221396164D01*
X141764697Y-221243709D01*
X141814878Y-221078285D01*
X141831822Y-220906250D01*
X141831822Y-220418750D01*
X141814878Y-220246715D01*
X141764697Y-220081291D01*
X141728078Y-220012782D01*
X141777756Y-219992205D01*
X141947274Y-219878937D01*
X142091437Y-219734774D01*
X142133750Y-219671447D01*
X142133750Y-221918119D01*
X142131506Y-221925518D01*
X142125998Y-221943675D01*
X142111324Y-222092660D01*
X142115001Y-222129992D01*
X142115000Y-223006416D01*
X142115000Y-223627196D01*
X142111324Y-223664518D01*
X142115000Y-223701840D01*
X142115000Y-223701850D01*
X142115001Y-223701858D01*
X142115000Y-224390000D01*
X141979311Y-224390000D01*
X141779352Y-224429774D01*
X141599552Y-224504250D01*
X134385302Y-224504250D01*
X132906052Y-223025000D01*
X139155678Y-223025000D01*
X139167938Y-223149482D01*
X139204248Y-223269180D01*
X139263213Y-223379494D01*
X139342565Y-223476185D01*
X139439256Y-223555537D01*
X139549570Y-223614502D01*
X139669268Y-223650812D01*
X139793750Y-223663072D01*
X140208000Y-223660000D01*
X140366750Y-223501250D01*
X140366750Y-222664500D01*
X140620750Y-222664500D01*
X140620750Y-223501250D01*
X140779500Y-223660000D01*
X141193750Y-223663072D01*
X141318232Y-223650812D01*
X141437930Y-223614502D01*
X141548244Y-223555537D01*
X141644935Y-223476185D01*
X141724287Y-223379494D01*
X141783252Y-223269180D01*
X141819562Y-223149482D01*
X141831822Y-223025000D01*
X141828750Y-222823250D01*
X141670000Y-222664500D01*
X140620750Y-222664500D01*
X140366750Y-222664500D01*
X139317500Y-222664500D01*
X139158750Y-222823250D01*
X139155678Y-223025000D01*
X132906052Y-223025000D01*
X130302000Y-220420948D01*
X130302000Y-213081428D01*
X130326898Y-213076476D01*
X130515256Y-212998455D01*
X130684774Y-212885187D01*
X130828937Y-212741024D01*
X130942205Y-212571506D01*
X131020226Y-212383148D01*
X131060000Y-212183189D01*
X131060000Y-212047500D01*
X132315000Y-212047500D01*
X132315000Y-212114439D01*
G36*
X158186201Y-213236003D02*
G01*
X158209999Y-213265001D01*
X158325724Y-213359974D01*
X158457753Y-213430546D01*
X158601014Y-213474003D01*
X158712667Y-213485000D01*
X158712677Y-213485000D01*
X158750000Y-213488676D01*
X158787323Y-213485000D01*
X158880678Y-213485000D01*
X158880678Y-213775000D01*
X158892938Y-213899482D01*
X158929248Y-214019180D01*
X158988213Y-214129494D01*
X159067565Y-214226185D01*
X159164256Y-214305537D01*
X159274570Y-214364502D01*
X159394268Y-214400812D01*
X159518750Y-214413072D01*
X159764424Y-214413072D01*
X159783776Y-214449276D01*
X159815146Y-214487500D01*
X159878749Y-214565001D01*
X159907753Y-214588804D01*
X160286196Y-214967247D01*
X160309999Y-214996251D01*
X160425724Y-215091224D01*
X160557753Y-215161796D01*
X160701014Y-215205253D01*
X160786625Y-215213685D01*
X160850000Y-215219927D01*
X160887333Y-215216250D01*
X164725905Y-215216250D01*
X164813958Y-215323542D01*
X164947586Y-215433208D01*
X165100041Y-215514697D01*
X165265465Y-215564878D01*
X165437500Y-215581822D01*
X166350000Y-215581822D01*
X166522035Y-215564878D01*
X166560500Y-215553210D01*
X166560500Y-220477199D01*
X163166449Y-223871250D01*
X145571052Y-223871250D01*
X145497500Y-223797698D01*
X145497500Y-223735561D01*
X145457726Y-223535602D01*
X145379705Y-223347244D01*
X145266437Y-223177726D01*
X145122274Y-223033563D01*
X144952756Y-222920295D01*
X144858494Y-222881250D01*
X146299428Y-222881250D01*
X146311688Y-223005732D01*
X146347998Y-223125430D01*
X146406963Y-223235744D01*
X146486315Y-223332435D01*
X146583006Y-223411787D01*
X146693320Y-223470752D01*
X146813018Y-223507062D01*
X146937500Y-223519322D01*
X147351750Y-223516250D01*
X147510500Y-223357500D01*
X147510500Y-222520750D01*
X146461250Y-222520750D01*
X146302500Y-222679500D01*
X146299428Y-222881250D01*
X144858494Y-222881250D01*
X144764398Y-222842274D01*
X144564439Y-222802500D01*
X144502301Y-222802500D01*
X144453750Y-222753949D01*
X144453750Y-220110000D01*
X144595689Y-220110000D01*
X144795648Y-220070226D01*
X144984006Y-219992205D01*
X145015142Y-219971401D01*
X145054774Y-220170648D01*
X145132795Y-220359006D01*
X145246063Y-220528524D01*
X145390226Y-220672687D01*
X145559744Y-220785955D01*
X145748102Y-220863976D01*
X145948061Y-220903750D01*
X146151939Y-220903750D01*
X146310239Y-220872262D01*
X146316372Y-220934535D01*
X146366553Y-221099959D01*
X146448042Y-221252414D01*
X146557708Y-221386042D01*
X146564064Y-221391258D01*
X146486315Y-221455065D01*
X146406963Y-221551756D01*
X146347998Y-221662070D01*
X146311688Y-221781768D01*
X146299428Y-221906250D01*
X146302500Y-222108000D01*
X146461250Y-222266750D01*
X147510500Y-222266750D01*
X147510500Y-222246750D01*
X147764500Y-222246750D01*
X147764500Y-222266750D01*
X147784500Y-222266750D01*
X147784500Y-222520750D01*
X147764500Y-222520750D01*
X147764500Y-223357500D01*
X147923250Y-223516250D01*
X148337500Y-223519322D01*
X148461982Y-223507062D01*
X148581680Y-223470752D01*
X148691994Y-223411787D01*
X148788685Y-223332435D01*
X148868037Y-223235744D01*
X148873869Y-223224833D01*
X148923102Y-223245226D01*
X149123061Y-223285000D01*
X149326939Y-223285000D01*
X149526898Y-223245226D01*
X149715256Y-223167205D01*
X149884774Y-223053937D01*
X149928711Y-223010000D01*
X150438405Y-223010000D01*
X150526458Y-223117292D01*
X150660086Y-223226958D01*
X150812541Y-223308447D01*
X150977965Y-223358628D01*
X151150000Y-223375572D01*
X152062500Y-223375572D01*
X152234535Y-223358628D01*
X152399959Y-223308447D01*
X152552414Y-223226958D01*
X152686042Y-223117292D01*
X152795708Y-222983664D01*
X152877197Y-222831209D01*
X152927378Y-222665785D01*
X152944322Y-222493750D01*
X152944322Y-222006250D01*
X152942572Y-221988480D01*
X153661004Y-221270048D01*
X153690001Y-221246251D01*
X153784974Y-221130526D01*
X153855546Y-220998497D01*
X153899003Y-220855236D01*
X153910000Y-220743583D01*
X153910000Y-220743574D01*
X153913676Y-220706251D01*
X153910000Y-220668928D01*
X153910000Y-218803711D01*
X153953937Y-218759774D01*
X154067205Y-218590256D01*
X154145226Y-218401898D01*
X154185000Y-218201939D01*
X154185000Y-217998061D01*
X154145226Y-217798102D01*
X154086676Y-217656752D01*
X154153747Y-217656752D01*
X154290994Y-217748457D01*
X154479352Y-217826478D01*
X154679311Y-217866252D01*
X154883189Y-217866252D01*
X155083148Y-217826478D01*
X155271506Y-217748457D01*
X155441024Y-217635189D01*
X155553830Y-217522383D01*
X156196235Y-218164788D01*
X156196236Y-221546288D01*
X156152298Y-221590226D01*
X156039030Y-221759744D01*
X155961009Y-221948102D01*
X155921235Y-222148061D01*
X155921235Y-222351939D01*
X155961009Y-222551898D01*
X156039030Y-222740256D01*
X156152298Y-222909774D01*
X156296461Y-223053937D01*
X156465979Y-223167205D01*
X156654337Y-223245226D01*
X156854296Y-223285000D01*
X157058174Y-223285000D01*
X157258133Y-223245226D01*
X157446491Y-223167205D01*
X157456240Y-223160691D01*
X157465988Y-223167205D01*
X157654346Y-223245226D01*
X157854305Y-223285000D01*
X158058183Y-223285000D01*
X158258142Y-223245226D01*
X158446500Y-223167205D01*
X158616018Y-223053937D01*
X158760181Y-222909774D01*
X158873449Y-222740256D01*
X158951470Y-222551898D01*
X158991244Y-222351939D01*
X158991244Y-222148061D01*
X158951470Y-221948102D01*
X158873449Y-221759744D01*
X158760181Y-221590226D01*
X158716244Y-221546289D01*
X158716244Y-218087319D01*
X158719920Y-218049994D01*
X158716244Y-218012669D01*
X158716244Y-218012661D01*
X158705247Y-217901008D01*
X158661790Y-217757747D01*
X158591218Y-217625718D01*
X158496245Y-217509993D01*
X158467248Y-217486196D01*
X152228551Y-211247500D01*
X156197699Y-211247500D01*
X158186201Y-213236003D01*
X158186201Y-213236003D01*
G37*
X158186201Y-213236003D02*
X158209999Y-213265001D01*
X158325724Y-213359974D01*
X158457753Y-213430546D01*
X158601014Y-213474003D01*
X158712667Y-213485000D01*
X158712677Y-213485000D01*
X158750000Y-213488676D01*
X158787323Y-213485000D01*
X158880678Y-213485000D01*
X158880678Y-213775000D01*
X158892938Y-213899482D01*
X158929248Y-214019180D01*
X158988213Y-214129494D01*
X159067565Y-214226185D01*
X159164256Y-214305537D01*
X159274570Y-214364502D01*
X159394268Y-214400812D01*
X159518750Y-214413072D01*
X159764424Y-214413072D01*
X159783776Y-214449276D01*
X159815146Y-214487500D01*
X159878749Y-214565001D01*
X159907753Y-214588804D01*
X160286196Y-214967247D01*
X160309999Y-214996251D01*
X160425724Y-215091224D01*
X160557753Y-215161796D01*
X160701014Y-215205253D01*
X160786625Y-215213685D01*
X160850000Y-215219927D01*
X160887333Y-215216250D01*
X164725905Y-215216250D01*
X164813958Y-215323542D01*
X164947586Y-215433208D01*
X165100041Y-215514697D01*
X165265465Y-215564878D01*
X165437500Y-215581822D01*
X166350000Y-215581822D01*
X166522035Y-215564878D01*
X166560500Y-215553210D01*
X166560500Y-220477199D01*
X163166449Y-223871250D01*
X145571052Y-223871250D01*
X145497500Y-223797698D01*
X145497500Y-223735561D01*
X145457726Y-223535602D01*
X145379705Y-223347244D01*
X145266437Y-223177726D01*
X145122274Y-223033563D01*
X144952756Y-222920295D01*
X144858494Y-222881250D01*
X146299428Y-222881250D01*
X146311688Y-223005732D01*
X146347998Y-223125430D01*
X146406963Y-223235744D01*
X146486315Y-223332435D01*
X146583006Y-223411787D01*
X146693320Y-223470752D01*
X146813018Y-223507062D01*
X146937500Y-223519322D01*
X147351750Y-223516250D01*
X147510500Y-223357500D01*
X147510500Y-222520750D01*
X146461250Y-222520750D01*
X146302500Y-222679500D01*
X146299428Y-222881250D01*
X144858494Y-222881250D01*
X144764398Y-222842274D01*
X144564439Y-222802500D01*
X144502301Y-222802500D01*
X144453750Y-222753949D01*
X144453750Y-220110000D01*
X144595689Y-220110000D01*
X144795648Y-220070226D01*
X144984006Y-219992205D01*
X145015142Y-219971401D01*
X145054774Y-220170648D01*
X145132795Y-220359006D01*
X145246063Y-220528524D01*
X145390226Y-220672687D01*
X145559744Y-220785955D01*
X145748102Y-220863976D01*
X145948061Y-220903750D01*
X146151939Y-220903750D01*
X146310239Y-220872262D01*
X146316372Y-220934535D01*
X146366553Y-221099959D01*
X146448042Y-221252414D01*
X146557708Y-221386042D01*
X146564064Y-221391258D01*
X146486315Y-221455065D01*
X146406963Y-221551756D01*
X146347998Y-221662070D01*
X146311688Y-221781768D01*
X146299428Y-221906250D01*
X146302500Y-222108000D01*
X146461250Y-222266750D01*
X147510500Y-222266750D01*
X147510500Y-222246750D01*
X147764500Y-222246750D01*
X147764500Y-222266750D01*
X147784500Y-222266750D01*
X147784500Y-222520750D01*
X147764500Y-222520750D01*
X147764500Y-223357500D01*
X147923250Y-223516250D01*
X148337500Y-223519322D01*
X148461982Y-223507062D01*
X148581680Y-223470752D01*
X148691994Y-223411787D01*
X148788685Y-223332435D01*
X148868037Y-223235744D01*
X148873869Y-223224833D01*
X148923102Y-223245226D01*
X149123061Y-223285000D01*
X149326939Y-223285000D01*
X149526898Y-223245226D01*
X149715256Y-223167205D01*
X149884774Y-223053937D01*
X149928711Y-223010000D01*
X150438405Y-223010000D01*
X150526458Y-223117292D01*
X150660086Y-223226958D01*
X150812541Y-223308447D01*
X150977965Y-223358628D01*
X151150000Y-223375572D01*
X152062500Y-223375572D01*
X152234535Y-223358628D01*
X152399959Y-223308447D01*
X152552414Y-223226958D01*
X152686042Y-223117292D01*
X152795708Y-222983664D01*
X152877197Y-222831209D01*
X152927378Y-222665785D01*
X152944322Y-222493750D01*
X152944322Y-222006250D01*
X152942572Y-221988480D01*
X153661004Y-221270048D01*
X153690001Y-221246251D01*
X153784974Y-221130526D01*
X153855546Y-220998497D01*
X153899003Y-220855236D01*
X153910000Y-220743583D01*
X153910000Y-220743574D01*
X153913676Y-220706251D01*
X153910000Y-220668928D01*
X153910000Y-218803711D01*
X153953937Y-218759774D01*
X154067205Y-218590256D01*
X154145226Y-218401898D01*
X154185000Y-218201939D01*
X154185000Y-217998061D01*
X154145226Y-217798102D01*
X154086676Y-217656752D01*
X154153747Y-217656752D01*
X154290994Y-217748457D01*
X154479352Y-217826478D01*
X154679311Y-217866252D01*
X154883189Y-217866252D01*
X155083148Y-217826478D01*
X155271506Y-217748457D01*
X155441024Y-217635189D01*
X155553830Y-217522383D01*
X156196235Y-218164788D01*
X156196236Y-221546288D01*
X156152298Y-221590226D01*
X156039030Y-221759744D01*
X155961009Y-221948102D01*
X155921235Y-222148061D01*
X155921235Y-222351939D01*
X155961009Y-222551898D01*
X156039030Y-222740256D01*
X156152298Y-222909774D01*
X156296461Y-223053937D01*
X156465979Y-223167205D01*
X156654337Y-223245226D01*
X156854296Y-223285000D01*
X157058174Y-223285000D01*
X157258133Y-223245226D01*
X157446491Y-223167205D01*
X157456240Y-223160691D01*
X157465988Y-223167205D01*
X157654346Y-223245226D01*
X157854305Y-223285000D01*
X158058183Y-223285000D01*
X158258142Y-223245226D01*
X158446500Y-223167205D01*
X158616018Y-223053937D01*
X158760181Y-222909774D01*
X158873449Y-222740256D01*
X158951470Y-222551898D01*
X158991244Y-222351939D01*
X158991244Y-222148061D01*
X158951470Y-221948102D01*
X158873449Y-221759744D01*
X158760181Y-221590226D01*
X158716244Y-221546289D01*
X158716244Y-218087319D01*
X158719920Y-218049994D01*
X158716244Y-218012669D01*
X158716244Y-218012661D01*
X158705247Y-217901008D01*
X158661790Y-217757747D01*
X158591218Y-217625718D01*
X158496245Y-217509993D01*
X158467248Y-217486196D01*
X152228551Y-211247500D01*
X156197699Y-211247500D01*
X158186201Y-213236003D01*
G36*
X143767565Y-205988685D02*
G01*
X143864256Y-206068037D01*
X143887417Y-206080417D01*
X143979500Y-206172500D01*
X144093087Y-206162954D01*
X144094268Y-206163312D01*
X144218750Y-206175572D01*
X144768750Y-206175572D01*
X144893232Y-206163312D01*
X144893750Y-206163155D01*
X144894268Y-206163312D01*
X145018750Y-206175572D01*
X145568750Y-206175572D01*
X145693232Y-206163312D01*
X145693750Y-206163155D01*
X145694268Y-206163312D01*
X145818750Y-206175572D01*
X146368750Y-206175572D01*
X146493232Y-206163312D01*
X146493750Y-206163155D01*
X146494268Y-206163312D01*
X146560432Y-206169828D01*
X146541852Y-206173524D01*
X146353494Y-206251545D01*
X146183976Y-206364813D01*
X146039813Y-206508976D01*
X145926545Y-206678494D01*
X145848524Y-206866852D01*
X145808750Y-207066811D01*
X145808750Y-207270689D01*
X145848524Y-207470648D01*
X145926545Y-207659006D01*
X146039813Y-207828524D01*
X146183976Y-207972687D01*
X146353494Y-208085955D01*
X146541852Y-208163976D01*
X146741811Y-208203750D01*
X146945689Y-208203750D01*
X147145648Y-208163976D01*
X147334006Y-208085955D01*
X147503524Y-207972687D01*
X147552188Y-207924023D01*
X147637500Y-207932426D01*
X147786485Y-207917752D01*
X147929746Y-207874296D01*
X148061776Y-207803724D01*
X148148502Y-207732549D01*
X148805678Y-207075373D01*
X148805678Y-207562500D01*
X148817938Y-207686982D01*
X148818095Y-207687500D01*
X148817938Y-207688018D01*
X148805678Y-207812500D01*
X148805678Y-208362500D01*
X148817938Y-208486982D01*
X148818296Y-208488163D01*
X148808750Y-208601750D01*
X148900833Y-208693833D01*
X148913213Y-208716994D01*
X148992565Y-208813685D01*
X149082509Y-208887500D01*
X148992565Y-208961315D01*
X148913213Y-209058006D01*
X148900833Y-209081167D01*
X148808750Y-209173250D01*
X148818296Y-209286837D01*
X148817938Y-209288018D01*
X148805678Y-209412500D01*
X148805678Y-209962500D01*
X148817938Y-210086982D01*
X148818095Y-210087500D01*
X148817938Y-210088018D01*
X148805678Y-210212500D01*
X148805678Y-210762500D01*
X148817938Y-210886982D01*
X148818095Y-210887500D01*
X148817938Y-210888018D01*
X148805678Y-211012500D01*
X148805678Y-211562500D01*
X148817938Y-211686982D01*
X148818095Y-211687500D01*
X148817938Y-211688018D01*
X148805678Y-211812500D01*
X148805678Y-212362500D01*
X148817938Y-212486982D01*
X148818095Y-212487500D01*
X148817938Y-212488018D01*
X148805678Y-212612500D01*
X148805678Y-213162500D01*
X148817938Y-213286982D01*
X148818095Y-213287500D01*
X148817938Y-213288018D01*
X148805678Y-213412500D01*
X148805678Y-213962500D01*
X148817938Y-214086982D01*
X148818095Y-214087500D01*
X148817938Y-214088018D01*
X148805678Y-214212500D01*
X148805678Y-214762500D01*
X148809869Y-214805052D01*
X148779500Y-214802500D01*
X148620750Y-214961250D01*
X148620750Y-216060500D01*
X149245000Y-216060500D01*
X149403750Y-215901750D01*
X149406814Y-215440713D01*
X149402686Y-215396528D01*
X149443750Y-215400572D01*
X150943750Y-215400572D01*
X151068232Y-215388312D01*
X151187930Y-215352002D01*
X151298244Y-215293037D01*
X151353731Y-215247500D01*
X151521289Y-215247500D01*
X151565226Y-215291437D01*
X151734744Y-215404705D01*
X151923102Y-215482726D01*
X152123061Y-215522500D01*
X152326939Y-215522500D01*
X152526898Y-215482726D01*
X152715256Y-215404705D01*
X152884774Y-215291437D01*
X153028937Y-215147274D01*
X153088932Y-215057484D01*
X154037200Y-216005752D01*
X152859298Y-216005752D01*
X152818747Y-216001758D01*
X152778197Y-216005752D01*
X152778195Y-216005752D01*
X152656922Y-216017696D01*
X152515816Y-216060500D01*
X152501314Y-216064899D01*
X152357905Y-216141553D01*
X152321442Y-216171478D01*
X152232207Y-216244711D01*
X152206354Y-216276213D01*
X151051211Y-217431357D01*
X151019710Y-217457209D01*
X150993859Y-217488709D01*
X150916551Y-217582908D01*
X150839897Y-217726317D01*
X150792695Y-217881924D01*
X150776756Y-218043750D01*
X150780751Y-218084310D01*
X150780750Y-219333545D01*
X150660086Y-219398042D01*
X150526458Y-219507708D01*
X150416792Y-219641336D01*
X150335303Y-219793791D01*
X150285122Y-219959215D01*
X150268178Y-220131250D01*
X150268178Y-220324543D01*
X149852503Y-220324543D01*
X149715256Y-220232838D01*
X149526898Y-220154817D01*
X149326939Y-220115043D01*
X149123061Y-220115043D01*
X148962954Y-220146890D01*
X148958628Y-220102965D01*
X148908447Y-219937541D01*
X148826958Y-219785086D01*
X148717292Y-219651458D01*
X148583664Y-219541792D01*
X148519250Y-219507362D01*
X148519250Y-217572500D01*
X148620752Y-217572500D01*
X148620752Y-217413752D01*
X148779500Y-217572500D01*
X148896381Y-217562677D01*
X149015895Y-217525765D01*
X149125911Y-217466246D01*
X149222201Y-217386408D01*
X149301066Y-217289318D01*
X149359474Y-217178708D01*
X149395180Y-217058829D01*
X149406814Y-216934287D01*
X149403750Y-216473250D01*
X149245000Y-216314500D01*
X148620750Y-216314500D01*
X148620750Y-216334500D01*
X148606822Y-216334500D01*
X148606822Y-215437500D01*
X148594562Y-215313018D01*
X148558252Y-215193320D01*
X148499287Y-215083006D01*
X148419935Y-214986315D01*
X148323244Y-214906963D01*
X148300083Y-214894583D01*
X148208000Y-214802500D01*
X148094413Y-214812046D01*
X148093232Y-214811688D01*
X147968750Y-214799428D01*
X147418750Y-214799428D01*
X147294268Y-214811688D01*
X147293750Y-214811845D01*
X147293232Y-214811688D01*
X147168750Y-214799428D01*
X146618750Y-214799428D01*
X146494268Y-214811688D01*
X146493750Y-214811845D01*
X146493232Y-214811688D01*
X146368750Y-214799428D01*
X145818750Y-214799428D01*
X145694268Y-214811688D01*
X145693750Y-214811845D01*
X145693232Y-214811688D01*
X145568750Y-214799428D01*
X145018750Y-214799428D01*
X144894268Y-214811688D01*
X144893750Y-214811845D01*
X144893232Y-214811688D01*
X144768750Y-214799428D01*
X144218750Y-214799428D01*
X144094268Y-214811688D01*
X144093750Y-214811845D01*
X144093232Y-214811688D01*
X143968750Y-214799428D01*
X143418750Y-214799428D01*
X143294268Y-214811688D01*
X143293750Y-214811845D01*
X143293232Y-214811688D01*
X143168750Y-214799428D01*
X142618750Y-214799428D01*
X142494268Y-214811688D01*
X142493750Y-214811845D01*
X142493232Y-214811688D01*
X142368750Y-214799428D01*
X141818750Y-214799428D01*
X141694268Y-214811688D01*
X141693750Y-214811845D01*
X141693232Y-214811688D01*
X141568750Y-214799428D01*
X141018750Y-214799428D01*
X140894268Y-214811688D01*
X140893750Y-214811845D01*
X140893232Y-214811688D01*
X140768750Y-214799428D01*
X140218750Y-214799428D01*
X140177788Y-214803462D01*
X140181822Y-214762500D01*
X140181822Y-214212500D01*
X140169562Y-214088018D01*
X140169204Y-214086837D01*
X140178750Y-213973250D01*
X140086667Y-213881167D01*
X140074287Y-213858006D01*
X139994935Y-213761315D01*
X139904991Y-213687500D01*
X139994935Y-213613685D01*
X140074287Y-213516994D01*
X140086667Y-213493833D01*
X140178750Y-213401750D01*
X140169204Y-213288163D01*
X140169562Y-213286982D01*
X140181822Y-213162500D01*
X140181822Y-212612500D01*
X140169562Y-212488018D01*
X140169405Y-212487500D01*
X140169562Y-212486982D01*
X140181822Y-212362500D01*
X140181822Y-211812500D01*
X140169562Y-211688018D01*
X140169405Y-211687500D01*
X140169562Y-211686982D01*
X140181822Y-211562500D01*
X140181822Y-211012500D01*
X140169562Y-210888018D01*
X140169405Y-210887500D01*
X140169562Y-210886982D01*
X140181822Y-210762500D01*
X140181822Y-210212500D01*
X140169562Y-210088018D01*
X140169405Y-210087500D01*
X140169562Y-210086982D01*
X140181822Y-209962500D01*
X140181822Y-209412500D01*
X140169562Y-209288018D01*
X140169405Y-209287500D01*
X140169562Y-209286982D01*
X140181822Y-209162500D01*
X140181822Y-208612500D01*
X140169562Y-208488018D01*
X140169405Y-208487500D01*
X140169562Y-208486982D01*
X140181822Y-208362500D01*
X140181822Y-207812500D01*
X140169562Y-207688018D01*
X140169204Y-207686837D01*
X140178750Y-207573250D01*
X140086667Y-207481167D01*
X140074287Y-207458006D01*
X139994935Y-207361315D01*
X139904991Y-207287500D01*
X139994935Y-207213685D01*
X140074287Y-207116994D01*
X140086667Y-207093833D01*
X140178750Y-207001750D01*
X140169204Y-206888163D01*
X140169562Y-206886982D01*
X140181822Y-206762500D01*
X140181822Y-206212500D01*
X140177788Y-206171538D01*
X140218750Y-206175572D01*
X140768750Y-206175572D01*
X140893232Y-206163312D01*
X140893750Y-206163155D01*
X140894268Y-206163312D01*
X141018750Y-206175572D01*
X141568750Y-206175572D01*
X141693232Y-206163312D01*
X141693750Y-206163155D01*
X141694268Y-206163312D01*
X141818750Y-206175572D01*
X142368750Y-206175572D01*
X142493232Y-206163312D01*
X142493750Y-206163155D01*
X142494268Y-206163312D01*
X142618750Y-206175572D01*
X143168750Y-206175572D01*
X143293232Y-206163312D01*
X143294413Y-206162954D01*
X143408000Y-206172500D01*
X143500083Y-206080417D01*
X143523244Y-206068037D01*
X143619935Y-205988685D01*
X143693750Y-205898741D01*
X143767565Y-205988685D01*
X143767565Y-205988685D01*
G37*
X143767565Y-205988685D02*
X143864256Y-206068037D01*
X143887417Y-206080417D01*
X143979500Y-206172500D01*
X144093087Y-206162954D01*
X144094268Y-206163312D01*
X144218750Y-206175572D01*
X144768750Y-206175572D01*
X144893232Y-206163312D01*
X144893750Y-206163155D01*
X144894268Y-206163312D01*
X145018750Y-206175572D01*
X145568750Y-206175572D01*
X145693232Y-206163312D01*
X145693750Y-206163155D01*
X145694268Y-206163312D01*
X145818750Y-206175572D01*
X146368750Y-206175572D01*
X146493232Y-206163312D01*
X146493750Y-206163155D01*
X146494268Y-206163312D01*
X146560432Y-206169828D01*
X146541852Y-206173524D01*
X146353494Y-206251545D01*
X146183976Y-206364813D01*
X146039813Y-206508976D01*
X145926545Y-206678494D01*
X145848524Y-206866852D01*
X145808750Y-207066811D01*
X145808750Y-207270689D01*
X145848524Y-207470648D01*
X145926545Y-207659006D01*
X146039813Y-207828524D01*
X146183976Y-207972687D01*
X146353494Y-208085955D01*
X146541852Y-208163976D01*
X146741811Y-208203750D01*
X146945689Y-208203750D01*
X147145648Y-208163976D01*
X147334006Y-208085955D01*
X147503524Y-207972687D01*
X147552188Y-207924023D01*
X147637500Y-207932426D01*
X147786485Y-207917752D01*
X147929746Y-207874296D01*
X148061776Y-207803724D01*
X148148502Y-207732549D01*
X148805678Y-207075373D01*
X148805678Y-207562500D01*
X148817938Y-207686982D01*
X148818095Y-207687500D01*
X148817938Y-207688018D01*
X148805678Y-207812500D01*
X148805678Y-208362500D01*
X148817938Y-208486982D01*
X148818296Y-208488163D01*
X148808750Y-208601750D01*
X148900833Y-208693833D01*
X148913213Y-208716994D01*
X148992565Y-208813685D01*
X149082509Y-208887500D01*
X148992565Y-208961315D01*
X148913213Y-209058006D01*
X148900833Y-209081167D01*
X148808750Y-209173250D01*
X148818296Y-209286837D01*
X148817938Y-209288018D01*
X148805678Y-209412500D01*
X148805678Y-209962500D01*
X148817938Y-210086982D01*
X148818095Y-210087500D01*
X148817938Y-210088018D01*
X148805678Y-210212500D01*
X148805678Y-210762500D01*
X148817938Y-210886982D01*
X148818095Y-210887500D01*
X148817938Y-210888018D01*
X148805678Y-211012500D01*
X148805678Y-211562500D01*
X148817938Y-211686982D01*
X148818095Y-211687500D01*
X148817938Y-211688018D01*
X148805678Y-211812500D01*
X148805678Y-212362500D01*
X148817938Y-212486982D01*
X148818095Y-212487500D01*
X148817938Y-212488018D01*
X148805678Y-212612500D01*
X148805678Y-213162500D01*
X148817938Y-213286982D01*
X148818095Y-213287500D01*
X148817938Y-213288018D01*
X148805678Y-213412500D01*
X148805678Y-213962500D01*
X148817938Y-214086982D01*
X148818095Y-214087500D01*
X148817938Y-214088018D01*
X148805678Y-214212500D01*
X148805678Y-214762500D01*
X148809869Y-214805052D01*
X148779500Y-214802500D01*
X148620750Y-214961250D01*
X148620750Y-216060500D01*
X149245000Y-216060500D01*
X149403750Y-215901750D01*
X149406814Y-215440713D01*
X149402686Y-215396528D01*
X149443750Y-215400572D01*
X150943750Y-215400572D01*
X151068232Y-215388312D01*
X151187930Y-215352002D01*
X151298244Y-215293037D01*
X151353731Y-215247500D01*
X151521289Y-215247500D01*
X151565226Y-215291437D01*
X151734744Y-215404705D01*
X151923102Y-215482726D01*
X152123061Y-215522500D01*
X152326939Y-215522500D01*
X152526898Y-215482726D01*
X152715256Y-215404705D01*
X152884774Y-215291437D01*
X153028937Y-215147274D01*
X153088932Y-215057484D01*
X154037200Y-216005752D01*
X152859298Y-216005752D01*
X152818747Y-216001758D01*
X152778197Y-216005752D01*
X152778195Y-216005752D01*
X152656922Y-216017696D01*
X152515816Y-216060500D01*
X152501314Y-216064899D01*
X152357905Y-216141553D01*
X152321442Y-216171478D01*
X152232207Y-216244711D01*
X152206354Y-216276213D01*
X151051211Y-217431357D01*
X151019710Y-217457209D01*
X150993859Y-217488709D01*
X150916551Y-217582908D01*
X150839897Y-217726317D01*
X150792695Y-217881924D01*
X150776756Y-218043750D01*
X150780751Y-218084310D01*
X150780750Y-219333545D01*
X150660086Y-219398042D01*
X150526458Y-219507708D01*
X150416792Y-219641336D01*
X150335303Y-219793791D01*
X150285122Y-219959215D01*
X150268178Y-220131250D01*
X150268178Y-220324543D01*
X149852503Y-220324543D01*
X149715256Y-220232838D01*
X149526898Y-220154817D01*
X149326939Y-220115043D01*
X149123061Y-220115043D01*
X148962954Y-220146890D01*
X148958628Y-220102965D01*
X148908447Y-219937541D01*
X148826958Y-219785086D01*
X148717292Y-219651458D01*
X148583664Y-219541792D01*
X148519250Y-219507362D01*
X148519250Y-217572500D01*
X148620752Y-217572500D01*
X148620752Y-217413752D01*
X148779500Y-217572500D01*
X148896381Y-217562677D01*
X149015895Y-217525765D01*
X149125911Y-217466246D01*
X149222201Y-217386408D01*
X149301066Y-217289318D01*
X149359474Y-217178708D01*
X149395180Y-217058829D01*
X149406814Y-216934287D01*
X149403750Y-216473250D01*
X149245000Y-216314500D01*
X148620750Y-216314500D01*
X148620750Y-216334500D01*
X148606822Y-216334500D01*
X148606822Y-215437500D01*
X148594562Y-215313018D01*
X148558252Y-215193320D01*
X148499287Y-215083006D01*
X148419935Y-214986315D01*
X148323244Y-214906963D01*
X148300083Y-214894583D01*
X148208000Y-214802500D01*
X148094413Y-214812046D01*
X148093232Y-214811688D01*
X147968750Y-214799428D01*
X147418750Y-214799428D01*
X147294268Y-214811688D01*
X147293750Y-214811845D01*
X147293232Y-214811688D01*
X147168750Y-214799428D01*
X146618750Y-214799428D01*
X146494268Y-214811688D01*
X146493750Y-214811845D01*
X146493232Y-214811688D01*
X146368750Y-214799428D01*
X145818750Y-214799428D01*
X145694268Y-214811688D01*
X145693750Y-214811845D01*
X145693232Y-214811688D01*
X145568750Y-214799428D01*
X145018750Y-214799428D01*
X144894268Y-214811688D01*
X144893750Y-214811845D01*
X144893232Y-214811688D01*
X144768750Y-214799428D01*
X144218750Y-214799428D01*
X144094268Y-214811688D01*
X144093750Y-214811845D01*
X144093232Y-214811688D01*
X143968750Y-214799428D01*
X143418750Y-214799428D01*
X143294268Y-214811688D01*
X143293750Y-214811845D01*
X143293232Y-214811688D01*
X143168750Y-214799428D01*
X142618750Y-214799428D01*
X142494268Y-214811688D01*
X142493750Y-214811845D01*
X142493232Y-214811688D01*
X142368750Y-214799428D01*
X141818750Y-214799428D01*
X141694268Y-214811688D01*
X141693750Y-214811845D01*
X141693232Y-214811688D01*
X141568750Y-214799428D01*
X141018750Y-214799428D01*
X140894268Y-214811688D01*
X140893750Y-214811845D01*
X140893232Y-214811688D01*
X140768750Y-214799428D01*
X140218750Y-214799428D01*
X140177788Y-214803462D01*
X140181822Y-214762500D01*
X140181822Y-214212500D01*
X140169562Y-214088018D01*
X140169204Y-214086837D01*
X140178750Y-213973250D01*
X140086667Y-213881167D01*
X140074287Y-213858006D01*
X139994935Y-213761315D01*
X139904991Y-213687500D01*
X139994935Y-213613685D01*
X140074287Y-213516994D01*
X140086667Y-213493833D01*
X140178750Y-213401750D01*
X140169204Y-213288163D01*
X140169562Y-213286982D01*
X140181822Y-213162500D01*
X140181822Y-212612500D01*
X140169562Y-212488018D01*
X140169405Y-212487500D01*
X140169562Y-212486982D01*
X140181822Y-212362500D01*
X140181822Y-211812500D01*
X140169562Y-211688018D01*
X140169405Y-211687500D01*
X140169562Y-211686982D01*
X140181822Y-211562500D01*
X140181822Y-211012500D01*
X140169562Y-210888018D01*
X140169405Y-210887500D01*
X140169562Y-210886982D01*
X140181822Y-210762500D01*
X140181822Y-210212500D01*
X140169562Y-210088018D01*
X140169405Y-210087500D01*
X140169562Y-210086982D01*
X140181822Y-209962500D01*
X140181822Y-209412500D01*
X140169562Y-209288018D01*
X140169405Y-209287500D01*
X140169562Y-209286982D01*
X140181822Y-209162500D01*
X140181822Y-208612500D01*
X140169562Y-208488018D01*
X140169405Y-208487500D01*
X140169562Y-208486982D01*
X140181822Y-208362500D01*
X140181822Y-207812500D01*
X140169562Y-207688018D01*
X140169204Y-207686837D01*
X140178750Y-207573250D01*
X140086667Y-207481167D01*
X140074287Y-207458006D01*
X139994935Y-207361315D01*
X139904991Y-207287500D01*
X139994935Y-207213685D01*
X140074287Y-207116994D01*
X140086667Y-207093833D01*
X140178750Y-207001750D01*
X140169204Y-206888163D01*
X140169562Y-206886982D01*
X140181822Y-206762500D01*
X140181822Y-206212500D01*
X140177788Y-206171538D01*
X140218750Y-206175572D01*
X140768750Y-206175572D01*
X140893232Y-206163312D01*
X140893750Y-206163155D01*
X140894268Y-206163312D01*
X141018750Y-206175572D01*
X141568750Y-206175572D01*
X141693232Y-206163312D01*
X141693750Y-206163155D01*
X141694268Y-206163312D01*
X141818750Y-206175572D01*
X142368750Y-206175572D01*
X142493232Y-206163312D01*
X142493750Y-206163155D01*
X142494268Y-206163312D01*
X142618750Y-206175572D01*
X143168750Y-206175572D01*
X143293232Y-206163312D01*
X143294413Y-206162954D01*
X143408000Y-206172500D01*
X143500083Y-206080417D01*
X143523244Y-206068037D01*
X143619935Y-205988685D01*
X143693750Y-205898741D01*
X143767565Y-205988685D01*
G36*
X164813958Y-208829792D02*
G01*
X164820314Y-208835008D01*
X164742565Y-208898815D01*
X164663213Y-208995506D01*
X164604248Y-209105820D01*
X164567938Y-209225518D01*
X164555678Y-209350000D01*
X164558750Y-209551750D01*
X164717500Y-209710500D01*
X165766750Y-209710500D01*
X165766750Y-209690500D01*
X166020750Y-209690500D01*
X166020750Y-209710500D01*
X166040750Y-209710500D01*
X166040750Y-209964500D01*
X166020750Y-209964500D01*
X166020750Y-210801250D01*
X166179500Y-210960000D01*
X166560500Y-210962825D01*
X166560500Y-211455925D01*
X166179500Y-211458750D01*
X166020750Y-211617500D01*
X166020750Y-212454250D01*
X166040750Y-212454250D01*
X166040750Y-212708250D01*
X166020750Y-212708250D01*
X166020750Y-212728250D01*
X165766750Y-212728250D01*
X165766750Y-212708250D01*
X164717500Y-212708250D01*
X164558750Y-212867000D01*
X164555678Y-213068750D01*
X164567938Y-213193232D01*
X164604248Y-213312930D01*
X164663213Y-213423244D01*
X164742565Y-213519935D01*
X164820314Y-213583742D01*
X164813958Y-213588958D01*
X164725905Y-213696250D01*
X164256822Y-213696250D01*
X164256822Y-212093750D01*
X164555678Y-212093750D01*
X164558750Y-212295500D01*
X164717500Y-212454250D01*
X165766750Y-212454250D01*
X165766750Y-211617500D01*
X165608000Y-211458750D01*
X165193750Y-211455678D01*
X165069268Y-211467938D01*
X164949570Y-211504248D01*
X164839256Y-211563213D01*
X164742565Y-211642565D01*
X164663213Y-211739256D01*
X164604248Y-211849570D01*
X164567938Y-211969268D01*
X164555678Y-212093750D01*
X164256822Y-212093750D01*
X164256822Y-211675000D01*
X164244562Y-211550518D01*
X164208252Y-211430820D01*
X164149287Y-211320506D01*
X164111941Y-211275000D01*
X164149287Y-211229494D01*
X164208252Y-211119180D01*
X164244562Y-210999482D01*
X164256822Y-210875000D01*
X164256822Y-210325000D01*
X164555678Y-210325000D01*
X164567938Y-210449482D01*
X164604248Y-210569180D01*
X164663213Y-210679494D01*
X164742565Y-210776185D01*
X164839256Y-210855537D01*
X164949570Y-210914502D01*
X165069268Y-210950812D01*
X165193750Y-210963072D01*
X165608000Y-210960000D01*
X165766750Y-210801250D01*
X165766750Y-209964500D01*
X164717500Y-209964500D01*
X164558750Y-210123250D01*
X164555678Y-210325000D01*
X164256822Y-210325000D01*
X164256822Y-209211730D01*
X164734987Y-208733565D01*
X164813958Y-208829792D01*
X164813958Y-208829792D01*
G37*
X164813958Y-208829792D02*
X164820314Y-208835008D01*
X164742565Y-208898815D01*
X164663213Y-208995506D01*
X164604248Y-209105820D01*
X164567938Y-209225518D01*
X164555678Y-209350000D01*
X164558750Y-209551750D01*
X164717500Y-209710500D01*
X165766750Y-209710500D01*
X165766750Y-209690500D01*
X166020750Y-209690500D01*
X166020750Y-209710500D01*
X166040750Y-209710500D01*
X166040750Y-209964500D01*
X166020750Y-209964500D01*
X166020750Y-210801250D01*
X166179500Y-210960000D01*
X166560500Y-210962825D01*
X166560500Y-211455925D01*
X166179500Y-211458750D01*
X166020750Y-211617500D01*
X166020750Y-212454250D01*
X166040750Y-212454250D01*
X166040750Y-212708250D01*
X166020750Y-212708250D01*
X166020750Y-212728250D01*
X165766750Y-212728250D01*
X165766750Y-212708250D01*
X164717500Y-212708250D01*
X164558750Y-212867000D01*
X164555678Y-213068750D01*
X164567938Y-213193232D01*
X164604248Y-213312930D01*
X164663213Y-213423244D01*
X164742565Y-213519935D01*
X164820314Y-213583742D01*
X164813958Y-213588958D01*
X164725905Y-213696250D01*
X164256822Y-213696250D01*
X164256822Y-212093750D01*
X164555678Y-212093750D01*
X164558750Y-212295500D01*
X164717500Y-212454250D01*
X165766750Y-212454250D01*
X165766750Y-211617500D01*
X165608000Y-211458750D01*
X165193750Y-211455678D01*
X165069268Y-211467938D01*
X164949570Y-211504248D01*
X164839256Y-211563213D01*
X164742565Y-211642565D01*
X164663213Y-211739256D01*
X164604248Y-211849570D01*
X164567938Y-211969268D01*
X164555678Y-212093750D01*
X164256822Y-212093750D01*
X164256822Y-211675000D01*
X164244562Y-211550518D01*
X164208252Y-211430820D01*
X164149287Y-211320506D01*
X164111941Y-211275000D01*
X164149287Y-211229494D01*
X164208252Y-211119180D01*
X164244562Y-210999482D01*
X164256822Y-210875000D01*
X164256822Y-210325000D01*
X164555678Y-210325000D01*
X164567938Y-210449482D01*
X164604248Y-210569180D01*
X164663213Y-210679494D01*
X164742565Y-210776185D01*
X164839256Y-210855537D01*
X164949570Y-210914502D01*
X165069268Y-210950812D01*
X165193750Y-210963072D01*
X165608000Y-210960000D01*
X165766750Y-210801250D01*
X165766750Y-209964500D01*
X164717500Y-209964500D01*
X164558750Y-210123250D01*
X164555678Y-210325000D01*
X164256822Y-210325000D01*
X164256822Y-209211730D01*
X164734987Y-208733565D01*
X164813958Y-208829792D01*
G36*
X155682740Y-208927500D02*
G01*
X155613257Y-208927500D01*
X155648542Y-208898542D01*
X155653758Y-208892186D01*
X155682740Y-208927500D01*
X155682740Y-208927500D01*
G37*
X155682740Y-208927500D02*
X155613257Y-208927500D01*
X155648542Y-208898542D01*
X155653758Y-208892186D01*
X155682740Y-208927500D01*
G36*
X166560500Y-206865540D02*
G01*
X166522035Y-206853872D01*
X166350000Y-206836928D01*
X165437500Y-206836928D01*
X165265465Y-206853872D01*
X165100041Y-206904053D01*
X164947586Y-206985542D01*
X164813958Y-207095208D01*
X164725905Y-207202500D01*
X164468575Y-207202500D01*
X164431250Y-207198824D01*
X164393925Y-207202500D01*
X164393917Y-207202500D01*
X164282264Y-207213497D01*
X164139003Y-207256954D01*
X164006974Y-207327526D01*
X163891249Y-207422499D01*
X163867451Y-207451497D01*
X163182020Y-208136928D01*
X162255479Y-208136928D01*
X162057553Y-207939002D01*
X162033750Y-207909998D01*
X161918025Y-207815025D01*
X161785996Y-207744453D01*
X161642735Y-207700996D01*
X161531082Y-207689999D01*
X161531071Y-207689999D01*
X161493749Y-207686323D01*
X161456427Y-207689999D01*
X159093576Y-207689999D01*
X159056251Y-207686323D01*
X159018926Y-207689999D01*
X159018918Y-207689999D01*
X158907265Y-207700996D01*
X158764004Y-207744453D01*
X158631975Y-207815025D01*
X158516250Y-207909998D01*
X158492452Y-207938996D01*
X157761439Y-208670009D01*
X157769562Y-208643232D01*
X157781822Y-208518750D01*
X157778750Y-208104500D01*
X157620000Y-207945750D01*
X156783250Y-207945750D01*
X156783250Y-207965750D01*
X156529250Y-207965750D01*
X156529250Y-207945750D01*
X156509250Y-207945750D01*
X156509250Y-207691750D01*
X156529250Y-207691750D01*
X156529250Y-206642500D01*
X156783250Y-206642500D01*
X156783250Y-207691750D01*
X157620000Y-207691750D01*
X157778750Y-207533000D01*
X157781822Y-207118750D01*
X157769562Y-206994268D01*
X157733252Y-206874570D01*
X157674287Y-206764256D01*
X157594935Y-206667565D01*
X157498244Y-206588213D01*
X157387930Y-206529248D01*
X157268232Y-206492938D01*
X157143750Y-206480678D01*
X156942000Y-206483750D01*
X156783250Y-206642500D01*
X156529250Y-206642500D01*
X156370500Y-206483750D01*
X156168750Y-206480678D01*
X156044268Y-206492938D01*
X155924570Y-206529248D01*
X155814256Y-206588213D01*
X155790187Y-206607966D01*
X155816250Y-206476939D01*
X155816250Y-206273061D01*
X155776476Y-206073102D01*
X155698455Y-205884744D01*
X155585187Y-205715226D01*
X155441024Y-205571063D01*
X155271506Y-205457795D01*
X155083148Y-205379774D01*
X154883189Y-205340000D01*
X154679311Y-205340000D01*
X154479352Y-205379774D01*
X154290994Y-205457795D01*
X154121476Y-205571063D01*
X153977313Y-205715226D01*
X153864045Y-205884744D01*
X153786024Y-206073102D01*
X153746250Y-206273061D01*
X153746250Y-206370209D01*
X153690256Y-206332795D01*
X153501898Y-206254774D01*
X153301939Y-206215000D01*
X153221326Y-206215000D01*
X153317205Y-206071506D01*
X153395226Y-205883148D01*
X153435000Y-205683189D01*
X153435000Y-205479311D01*
X153395226Y-205279352D01*
X153317205Y-205090994D01*
X153203937Y-204921476D01*
X153160000Y-204877539D01*
X153160000Y-198564500D01*
X166560500Y-198564500D01*
X166560500Y-206865540D01*
X166560500Y-206865540D01*
G37*
X166560500Y-206865540D02*
X166522035Y-206853872D01*
X166350000Y-206836928D01*
X165437500Y-206836928D01*
X165265465Y-206853872D01*
X165100041Y-206904053D01*
X164947586Y-206985542D01*
X164813958Y-207095208D01*
X164725905Y-207202500D01*
X164468575Y-207202500D01*
X164431250Y-207198824D01*
X164393925Y-207202500D01*
X164393917Y-207202500D01*
X164282264Y-207213497D01*
X164139003Y-207256954D01*
X164006974Y-207327526D01*
X163891249Y-207422499D01*
X163867451Y-207451497D01*
X163182020Y-208136928D01*
X162255479Y-208136928D01*
X162057553Y-207939002D01*
X162033750Y-207909998D01*
X161918025Y-207815025D01*
X161785996Y-207744453D01*
X161642735Y-207700996D01*
X161531082Y-207689999D01*
X161531071Y-207689999D01*
X161493749Y-207686323D01*
X161456427Y-207689999D01*
X159093576Y-207689999D01*
X159056251Y-207686323D01*
X159018926Y-207689999D01*
X159018918Y-207689999D01*
X158907265Y-207700996D01*
X158764004Y-207744453D01*
X158631975Y-207815025D01*
X158516250Y-207909998D01*
X158492452Y-207938996D01*
X157761439Y-208670009D01*
X157769562Y-208643232D01*
X157781822Y-208518750D01*
X157778750Y-208104500D01*
X157620000Y-207945750D01*
X156783250Y-207945750D01*
X156783250Y-207965750D01*
X156529250Y-207965750D01*
X156529250Y-207945750D01*
X156509250Y-207945750D01*
X156509250Y-207691750D01*
X156529250Y-207691750D01*
X156529250Y-206642500D01*
X156783250Y-206642500D01*
X156783250Y-207691750D01*
X157620000Y-207691750D01*
X157778750Y-207533000D01*
X157781822Y-207118750D01*
X157769562Y-206994268D01*
X157733252Y-206874570D01*
X157674287Y-206764256D01*
X157594935Y-206667565D01*
X157498244Y-206588213D01*
X157387930Y-206529248D01*
X157268232Y-206492938D01*
X157143750Y-206480678D01*
X156942000Y-206483750D01*
X156783250Y-206642500D01*
X156529250Y-206642500D01*
X156370500Y-206483750D01*
X156168750Y-206480678D01*
X156044268Y-206492938D01*
X155924570Y-206529248D01*
X155814256Y-206588213D01*
X155790187Y-206607966D01*
X155816250Y-206476939D01*
X155816250Y-206273061D01*
X155776476Y-206073102D01*
X155698455Y-205884744D01*
X155585187Y-205715226D01*
X155441024Y-205571063D01*
X155271506Y-205457795D01*
X155083148Y-205379774D01*
X154883189Y-205340000D01*
X154679311Y-205340000D01*
X154479352Y-205379774D01*
X154290994Y-205457795D01*
X154121476Y-205571063D01*
X153977313Y-205715226D01*
X153864045Y-205884744D01*
X153786024Y-206073102D01*
X153746250Y-206273061D01*
X153746250Y-206370209D01*
X153690256Y-206332795D01*
X153501898Y-206254774D01*
X153301939Y-206215000D01*
X153221326Y-206215000D01*
X153317205Y-206071506D01*
X153395226Y-205883148D01*
X153435000Y-205683189D01*
X153435000Y-205479311D01*
X153395226Y-205279352D01*
X153317205Y-205090994D01*
X153203937Y-204921476D01*
X153160000Y-204877539D01*
X153160000Y-198564500D01*
X166560500Y-198564500D01*
X166560500Y-206865540D01*
G36*
X136658976Y-204003937D02*
G01*
X136828494Y-204117205D01*
X137016852Y-204195226D01*
X137216811Y-204235000D01*
X137420689Y-204235000D01*
X137620648Y-204195226D01*
X137809006Y-204117205D01*
X137968251Y-204010801D01*
X137968251Y-205581864D01*
X137919268Y-205586688D01*
X137799570Y-205622998D01*
X137689256Y-205681963D01*
X137592565Y-205761315D01*
X137513213Y-205858006D01*
X137454248Y-205968320D01*
X137417938Y-206088018D01*
X137405678Y-206212500D01*
X137405678Y-206762500D01*
X137417938Y-206886982D01*
X137418296Y-206888163D01*
X137408750Y-207001750D01*
X137500833Y-207093833D01*
X137513213Y-207116994D01*
X137592565Y-207213685D01*
X137682509Y-207287500D01*
X137633769Y-207327500D01*
X136821052Y-207327500D01*
X136273822Y-206780270D01*
X136275572Y-206762500D01*
X136275572Y-206275000D01*
X136258628Y-206102965D01*
X136208447Y-205937541D01*
X136126958Y-205785086D01*
X136017292Y-205651458D01*
X136010936Y-205646242D01*
X136088685Y-205582435D01*
X136168037Y-205485744D01*
X136227002Y-205375430D01*
X136263312Y-205255732D01*
X136275572Y-205131250D01*
X136272500Y-204929500D01*
X136113750Y-204770750D01*
X135064500Y-204770750D01*
X135064500Y-204790750D01*
X134810500Y-204790750D01*
X134810500Y-204770750D01*
X133761250Y-204770750D01*
X133602500Y-204929500D01*
X133599428Y-205131250D01*
X133611688Y-205255732D01*
X133647998Y-205375430D01*
X133706963Y-205485744D01*
X133786315Y-205582435D01*
X133864064Y-205646242D01*
X133857708Y-205651458D01*
X133748042Y-205785086D01*
X133666553Y-205937541D01*
X133616372Y-206102965D01*
X133599428Y-206275000D01*
X133599428Y-206762500D01*
X133616372Y-206934535D01*
X133666553Y-207099959D01*
X133748042Y-207252414D01*
X133857708Y-207386042D01*
X133991336Y-207495708D01*
X134143791Y-207577197D01*
X134309215Y-207627378D01*
X134481250Y-207644322D01*
X134988271Y-207644322D01*
X135471448Y-208127500D01*
X132152458Y-208127500D01*
X132252756Y-208085955D01*
X132422274Y-207972687D01*
X132566437Y-207828524D01*
X132679705Y-207659006D01*
X132757726Y-207470648D01*
X132797500Y-207270689D01*
X132797500Y-207066811D01*
X132757726Y-206866852D01*
X132679705Y-206678494D01*
X132566437Y-206508976D01*
X132422274Y-206364813D01*
X132252756Y-206251545D01*
X132064398Y-206173524D01*
X131864439Y-206133750D01*
X131719117Y-206133750D01*
X133600886Y-204251981D01*
X133602500Y-204358000D01*
X133761250Y-204516750D01*
X134810500Y-204516750D01*
X134810500Y-204496750D01*
X135064500Y-204496750D01*
X135064500Y-204516750D01*
X136113750Y-204516750D01*
X136272500Y-204358000D01*
X136275572Y-204156250D01*
X136263312Y-204031768D01*
X136241541Y-203960000D01*
X136615039Y-203960000D01*
X136658976Y-204003937D01*
X136658976Y-204003937D01*
G37*
X136658976Y-204003937D02*
X136828494Y-204117205D01*
X137016852Y-204195226D01*
X137216811Y-204235000D01*
X137420689Y-204235000D01*
X137620648Y-204195226D01*
X137809006Y-204117205D01*
X137968251Y-204010801D01*
X137968251Y-205581864D01*
X137919268Y-205586688D01*
X137799570Y-205622998D01*
X137689256Y-205681963D01*
X137592565Y-205761315D01*
X137513213Y-205858006D01*
X137454248Y-205968320D01*
X137417938Y-206088018D01*
X137405678Y-206212500D01*
X137405678Y-206762500D01*
X137417938Y-206886982D01*
X137418296Y-206888163D01*
X137408750Y-207001750D01*
X137500833Y-207093833D01*
X137513213Y-207116994D01*
X137592565Y-207213685D01*
X137682509Y-207287500D01*
X137633769Y-207327500D01*
X136821052Y-207327500D01*
X136273822Y-206780270D01*
X136275572Y-206762500D01*
X136275572Y-206275000D01*
X136258628Y-206102965D01*
X136208447Y-205937541D01*
X136126958Y-205785086D01*
X136017292Y-205651458D01*
X136010936Y-205646242D01*
X136088685Y-205582435D01*
X136168037Y-205485744D01*
X136227002Y-205375430D01*
X136263312Y-205255732D01*
X136275572Y-205131250D01*
X136272500Y-204929500D01*
X136113750Y-204770750D01*
X135064500Y-204770750D01*
X135064500Y-204790750D01*
X134810500Y-204790750D01*
X134810500Y-204770750D01*
X133761250Y-204770750D01*
X133602500Y-204929500D01*
X133599428Y-205131250D01*
X133611688Y-205255732D01*
X133647998Y-205375430D01*
X133706963Y-205485744D01*
X133786315Y-205582435D01*
X133864064Y-205646242D01*
X133857708Y-205651458D01*
X133748042Y-205785086D01*
X133666553Y-205937541D01*
X133616372Y-206102965D01*
X133599428Y-206275000D01*
X133599428Y-206762500D01*
X133616372Y-206934535D01*
X133666553Y-207099959D01*
X133748042Y-207252414D01*
X133857708Y-207386042D01*
X133991336Y-207495708D01*
X134143791Y-207577197D01*
X134309215Y-207627378D01*
X134481250Y-207644322D01*
X134988271Y-207644322D01*
X135471448Y-208127500D01*
X132152458Y-208127500D01*
X132252756Y-208085955D01*
X132422274Y-207972687D01*
X132566437Y-207828524D01*
X132679705Y-207659006D01*
X132757726Y-207470648D01*
X132797500Y-207270689D01*
X132797500Y-207066811D01*
X132757726Y-206866852D01*
X132679705Y-206678494D01*
X132566437Y-206508976D01*
X132422274Y-206364813D01*
X132252756Y-206251545D01*
X132064398Y-206173524D01*
X131864439Y-206133750D01*
X131719117Y-206133750D01*
X133600886Y-204251981D01*
X133602500Y-204358000D01*
X133761250Y-204516750D01*
X134810500Y-204516750D01*
X134810500Y-204496750D01*
X135064500Y-204496750D01*
X135064500Y-204516750D01*
X136113750Y-204516750D01*
X136272500Y-204358000D01*
X136275572Y-204156250D01*
X136263312Y-204031768D01*
X136241541Y-203960000D01*
X136615039Y-203960000D01*
X136658976Y-204003937D01*
G36*
X137968250Y-200459932D02*
G01*
X137873244Y-200381963D01*
X137762930Y-200322998D01*
X137643232Y-200286688D01*
X137518750Y-200274428D01*
X137317000Y-200277500D01*
X137158250Y-200436250D01*
X137158250Y-201485500D01*
X137178250Y-201485500D01*
X137178250Y-201739500D01*
X137158250Y-201739500D01*
X137158250Y-201759500D01*
X136904250Y-201759500D01*
X136904250Y-201739500D01*
X136067500Y-201739500D01*
X135908750Y-201898250D01*
X135905678Y-202312500D01*
X135917938Y-202436982D01*
X135918854Y-202440000D01*
X133615390Y-202440000D01*
X133578065Y-202436324D01*
X133540740Y-202440000D01*
X133540732Y-202440000D01*
X133429079Y-202450997D01*
X133285818Y-202494454D01*
X133153789Y-202565026D01*
X133038064Y-202659999D01*
X133014266Y-202688997D01*
X130302000Y-205401263D01*
X130302000Y-202304311D01*
X130727500Y-202304311D01*
X130727500Y-202508189D01*
X130767274Y-202708148D01*
X130845295Y-202896506D01*
X130958563Y-203066024D01*
X131102726Y-203210187D01*
X131272244Y-203323455D01*
X131460602Y-203401476D01*
X131660561Y-203441250D01*
X131864439Y-203441250D01*
X132064398Y-203401476D01*
X132252756Y-203323455D01*
X132422274Y-203210187D01*
X132566437Y-203066024D01*
X132679705Y-202896506D01*
X132757726Y-202708148D01*
X132797500Y-202508189D01*
X132797500Y-202304311D01*
X132757726Y-202104352D01*
X132679705Y-201915994D01*
X132566437Y-201746476D01*
X132422274Y-201602313D01*
X132252756Y-201489045D01*
X132064398Y-201411024D01*
X131864439Y-201371250D01*
X131660561Y-201371250D01*
X131460602Y-201411024D01*
X131272244Y-201489045D01*
X131102726Y-201602313D01*
X130958563Y-201746476D01*
X130845295Y-201915994D01*
X130767274Y-202104352D01*
X130727500Y-202304311D01*
X130302000Y-202304311D01*
X130302000Y-200912500D01*
X135905678Y-200912500D01*
X135908750Y-201326750D01*
X136067500Y-201485500D01*
X136904250Y-201485500D01*
X136904250Y-200436250D01*
X136745500Y-200277500D01*
X136543750Y-200274428D01*
X136419268Y-200286688D01*
X136299570Y-200322998D01*
X136189256Y-200381963D01*
X136092565Y-200461315D01*
X136013213Y-200558006D01*
X135954248Y-200668320D01*
X135917938Y-200788018D01*
X135905678Y-200912500D01*
X130302000Y-200912500D01*
X130302000Y-198564500D01*
X137968250Y-198564500D01*
X137968250Y-200459932D01*
X137968250Y-200459932D01*
G37*
X137968250Y-200459932D02*
X137873244Y-200381963D01*
X137762930Y-200322998D01*
X137643232Y-200286688D01*
X137518750Y-200274428D01*
X137317000Y-200277500D01*
X137158250Y-200436250D01*
X137158250Y-201485500D01*
X137178250Y-201485500D01*
X137178250Y-201739500D01*
X137158250Y-201739500D01*
X137158250Y-201759500D01*
X136904250Y-201759500D01*
X136904250Y-201739500D01*
X136067500Y-201739500D01*
X135908750Y-201898250D01*
X135905678Y-202312500D01*
X135917938Y-202436982D01*
X135918854Y-202440000D01*
X133615390Y-202440000D01*
X133578065Y-202436324D01*
X133540740Y-202440000D01*
X133540732Y-202440000D01*
X133429079Y-202450997D01*
X133285818Y-202494454D01*
X133153789Y-202565026D01*
X133038064Y-202659999D01*
X133014266Y-202688997D01*
X130302000Y-205401263D01*
X130302000Y-202304311D01*
X130727500Y-202304311D01*
X130727500Y-202508189D01*
X130767274Y-202708148D01*
X130845295Y-202896506D01*
X130958563Y-203066024D01*
X131102726Y-203210187D01*
X131272244Y-203323455D01*
X131460602Y-203401476D01*
X131660561Y-203441250D01*
X131864439Y-203441250D01*
X132064398Y-203401476D01*
X132252756Y-203323455D01*
X132422274Y-203210187D01*
X132566437Y-203066024D01*
X132679705Y-202896506D01*
X132757726Y-202708148D01*
X132797500Y-202508189D01*
X132797500Y-202304311D01*
X132757726Y-202104352D01*
X132679705Y-201915994D01*
X132566437Y-201746476D01*
X132422274Y-201602313D01*
X132252756Y-201489045D01*
X132064398Y-201411024D01*
X131864439Y-201371250D01*
X131660561Y-201371250D01*
X131460602Y-201411024D01*
X131272244Y-201489045D01*
X131102726Y-201602313D01*
X130958563Y-201746476D01*
X130845295Y-201915994D01*
X130767274Y-202104352D01*
X130727500Y-202304311D01*
X130302000Y-202304311D01*
X130302000Y-200912500D01*
X135905678Y-200912500D01*
X135908750Y-201326750D01*
X136067500Y-201485500D01*
X136904250Y-201485500D01*
X136904250Y-200436250D01*
X136745500Y-200277500D01*
X136543750Y-200274428D01*
X136419268Y-200286688D01*
X136299570Y-200322998D01*
X136189256Y-200381963D01*
X136092565Y-200461315D01*
X136013213Y-200558006D01*
X135954248Y-200668320D01*
X135917938Y-200788018D01*
X135905678Y-200912500D01*
X130302000Y-200912500D01*
X130302000Y-198564500D01*
X137968250Y-198564500D01*
X137968250Y-200459932D01*
G36*
X150846250Y-203369241D02*
G01*
X150822687Y-203333976D01*
X150678524Y-203189813D01*
X150509006Y-203076545D01*
X150320648Y-202998524D01*
X150120689Y-202958750D01*
X149916811Y-202958750D01*
X149716852Y-202998524D01*
X149528494Y-203076545D01*
X149358976Y-203189813D01*
X149214813Y-203333976D01*
X149105547Y-203497504D01*
X149012930Y-203447998D01*
X148893232Y-203411688D01*
X148768750Y-203399428D01*
X148218750Y-203399428D01*
X148094268Y-203411688D01*
X148093750Y-203411845D01*
X148093232Y-203411688D01*
X147968750Y-203399428D01*
X147418750Y-203399428D01*
X147294268Y-203411688D01*
X147293750Y-203411845D01*
X147293232Y-203411688D01*
X147168750Y-203399428D01*
X147118061Y-203399428D01*
X147128750Y-203345689D01*
X147128750Y-203141811D01*
X147088976Y-202941852D01*
X147075760Y-202909947D01*
X147169268Y-202938312D01*
X147293750Y-202950572D01*
X147495500Y-202947500D01*
X147654250Y-202788750D01*
X147654250Y-201739500D01*
X147908250Y-201739500D01*
X147908250Y-202788750D01*
X148067000Y-202947500D01*
X148268750Y-202950572D01*
X148393232Y-202938312D01*
X148512930Y-202902002D01*
X148623244Y-202843037D01*
X148719935Y-202763685D01*
X148799287Y-202666994D01*
X148858252Y-202556680D01*
X148894562Y-202436982D01*
X148906822Y-202312500D01*
X148903750Y-201898250D01*
X148745000Y-201739500D01*
X147908250Y-201739500D01*
X147654250Y-201739500D01*
X147634250Y-201739500D01*
X147634250Y-201485500D01*
X147654250Y-201485500D01*
X147654250Y-200436250D01*
X147639875Y-200421875D01*
X147654250Y-200407500D01*
X147654250Y-199358250D01*
X147908250Y-199358250D01*
X147908250Y-200407500D01*
X147922625Y-200421875D01*
X147908250Y-200436250D01*
X147908250Y-201485500D01*
X148745000Y-201485500D01*
X148903750Y-201326750D01*
X148906822Y-200912500D01*
X148894562Y-200788018D01*
X148858252Y-200668320D01*
X148799287Y-200558006D01*
X148719935Y-200461315D01*
X148671877Y-200421875D01*
X148719935Y-200382435D01*
X148799287Y-200285744D01*
X148858252Y-200175430D01*
X148894562Y-200055732D01*
X148906822Y-199931250D01*
X148903750Y-199517000D01*
X148745000Y-199358250D01*
X147908250Y-199358250D01*
X147654250Y-199358250D01*
X147634250Y-199358250D01*
X147634250Y-199104250D01*
X147654250Y-199104250D01*
X147654250Y-199084250D01*
X147908250Y-199084250D01*
X147908250Y-199104250D01*
X148745000Y-199104250D01*
X148903750Y-198945500D01*
X148906575Y-198564500D01*
X150846250Y-198564500D01*
X150846250Y-203369241D01*
X150846250Y-203369241D01*
G37*
X150846250Y-203369241D02*
X150822687Y-203333976D01*
X150678524Y-203189813D01*
X150509006Y-203076545D01*
X150320648Y-202998524D01*
X150120689Y-202958750D01*
X149916811Y-202958750D01*
X149716852Y-202998524D01*
X149528494Y-203076545D01*
X149358976Y-203189813D01*
X149214813Y-203333976D01*
X149105547Y-203497504D01*
X149012930Y-203447998D01*
X148893232Y-203411688D01*
X148768750Y-203399428D01*
X148218750Y-203399428D01*
X148094268Y-203411688D01*
X148093750Y-203411845D01*
X148093232Y-203411688D01*
X147968750Y-203399428D01*
X147418750Y-203399428D01*
X147294268Y-203411688D01*
X147293750Y-203411845D01*
X147293232Y-203411688D01*
X147168750Y-203399428D01*
X147118061Y-203399428D01*
X147128750Y-203345689D01*
X147128750Y-203141811D01*
X147088976Y-202941852D01*
X147075760Y-202909947D01*
X147169268Y-202938312D01*
X147293750Y-202950572D01*
X147495500Y-202947500D01*
X147654250Y-202788750D01*
X147654250Y-201739500D01*
X147908250Y-201739500D01*
X147908250Y-202788750D01*
X148067000Y-202947500D01*
X148268750Y-202950572D01*
X148393232Y-202938312D01*
X148512930Y-202902002D01*
X148623244Y-202843037D01*
X148719935Y-202763685D01*
X148799287Y-202666994D01*
X148858252Y-202556680D01*
X148894562Y-202436982D01*
X148906822Y-202312500D01*
X148903750Y-201898250D01*
X148745000Y-201739500D01*
X147908250Y-201739500D01*
X147654250Y-201739500D01*
X147634250Y-201739500D01*
X147634250Y-201485500D01*
X147654250Y-201485500D01*
X147654250Y-200436250D01*
X147639875Y-200421875D01*
X147654250Y-200407500D01*
X147654250Y-199358250D01*
X147908250Y-199358250D01*
X147908250Y-200407500D01*
X147922625Y-200421875D01*
X147908250Y-200436250D01*
X147908250Y-201485500D01*
X148745000Y-201485500D01*
X148903750Y-201326750D01*
X148906822Y-200912500D01*
X148894562Y-200788018D01*
X148858252Y-200668320D01*
X148799287Y-200558006D01*
X148719935Y-200461315D01*
X148671877Y-200421875D01*
X148719935Y-200382435D01*
X148799287Y-200285744D01*
X148858252Y-200175430D01*
X148894562Y-200055732D01*
X148906822Y-199931250D01*
X148903750Y-199517000D01*
X148745000Y-199358250D01*
X147908250Y-199358250D01*
X147654250Y-199358250D01*
X147634250Y-199358250D01*
X147634250Y-199104250D01*
X147654250Y-199104250D01*
X147654250Y-199084250D01*
X147908250Y-199084250D01*
X147908250Y-199104250D01*
X148745000Y-199104250D01*
X148903750Y-198945500D01*
X148906575Y-198564500D01*
X150846250Y-198564500D01*
X150846250Y-203369241D01*
M02*
