G04 #@! TF.GenerationSoftware,KiCad,Pcbnew,(5.1.4)-1*
G04 #@! TF.CreationDate,2022-11-23T19:10:00-05:00*
G04 #@! TF.ProjectId,ThumbsUp,5468756d-6273-4557-902e-6b696361645f,rev?*
G04 #@! TF.SameCoordinates,Original*
G04 #@! TF.FileFunction,Copper,L1,Top*
G04 #@! TF.FilePolarity,Positive*
%FSLAX46Y46*%
G04 Gerber Fmt 4.6, Leading zero omitted, Abs format (unit mm)*
G04 Created by KiCad (PCBNEW (5.1.4)-1) date 2022-11-23 19:10:00*
%MOMM*%
%LPD*%
G04 APERTURE LIST*
%ADD10O,1.700000X2.700000*%
%ADD11C,1.700000*%
%ADD12C,1.700000*%
%ADD13C,0.100000*%
%ADD14C,2.032000*%
%ADD15R,1.700000X1.700000*%
%ADD16O,1.700000X1.700000*%
%ADD17C,0.800000*%
%ADD18C,0.508000*%
%ADD19C,0.250000*%
%ADD20C,0.254000*%
G04 APERTURE END LIST*
D10*
X143050000Y-155000000D03*
X150350000Y-155000000D03*
X150350000Y-159500000D03*
X143050000Y-159500000D03*
D11*
X194165141Y-177645498D03*
D12*
X194165141Y-177645498D02*
X194165141Y-177645498D01*
D11*
X191810094Y-178596999D03*
D12*
X191810094Y-178596999D02*
X191810094Y-178596999D01*
D11*
X189455047Y-179548499D03*
D12*
X189455047Y-179548499D02*
X189455047Y-179548499D01*
D11*
X187100000Y-180500000D03*
D13*
G36*
X188206522Y-180969691D02*
G01*
X186630309Y-181606522D01*
X185993478Y-180030309D01*
X187569691Y-179393478D01*
X188206522Y-180969691D01*
X188206522Y-180969691D01*
G37*
D11*
X241528381Y-182311090D03*
D13*
G36*
X241058690Y-183417612D02*
G01*
X240421859Y-181841399D01*
X241998072Y-181204568D01*
X242634903Y-182780781D01*
X241058690Y-183417612D01*
X241058690Y-183417612D01*
G37*
D11*
X242479882Y-184666137D03*
D12*
X242479882Y-184666137D02*
X242479882Y-184666137D01*
D11*
X243431382Y-187021184D03*
D12*
X243431382Y-187021184D02*
X243431382Y-187021184D01*
D11*
X244382883Y-189376231D03*
D12*
X244382883Y-189376231D02*
X244382883Y-189376231D01*
D11*
X172994345Y-146690649D03*
D13*
G36*
X174100867Y-147160340D02*
G01*
X172524654Y-147797171D01*
X171887823Y-146220958D01*
X173464036Y-145584127D01*
X174100867Y-147160340D01*
X174100867Y-147160340D01*
G37*
D11*
X175349392Y-145739148D03*
D12*
X175349392Y-145739148D02*
X175349392Y-145739148D01*
D11*
X177704439Y-144787648D03*
D12*
X177704439Y-144787648D02*
X177704439Y-144787648D01*
D11*
X180059486Y-143836147D03*
D12*
X180059486Y-143836147D02*
X180059486Y-143836147D01*
D11*
X180600000Y-164000000D03*
D13*
G36*
X181706522Y-164469691D02*
G01*
X180130309Y-165106522D01*
X179493478Y-163530309D01*
X181069691Y-162893478D01*
X181706522Y-164469691D01*
X181706522Y-164469691D01*
G37*
D11*
X182955047Y-163048499D03*
D12*
X182955047Y-163048499D02*
X182955047Y-163048499D01*
D11*
X185310094Y-162096999D03*
D12*
X185310094Y-162096999D02*
X185310094Y-162096999D01*
D11*
X187665141Y-161145498D03*
D12*
X187665141Y-161145498D02*
X187665141Y-161145498D01*
D11*
X182393643Y-228262834D03*
D12*
X182393643Y-228262834D02*
X182393643Y-228262834D01*
D11*
X180865033Y-226234299D03*
D12*
X180865033Y-226234299D02*
X180865033Y-226234299D01*
D11*
X179336423Y-224205765D03*
D12*
X179336423Y-224205765D02*
X179336423Y-224205765D01*
D11*
X177807813Y-222177231D03*
D13*
G36*
X177640516Y-223367614D02*
G01*
X176617430Y-222009934D01*
X177975110Y-220986848D01*
X178998196Y-222344528D01*
X177640516Y-223367614D01*
X177640516Y-223367614D01*
G37*
D14*
X236133916Y-179637189D03*
X230711323Y-179563136D03*
X183659694Y-148529216D03*
X178237101Y-148455163D03*
X190215309Y-164754933D03*
X184792716Y-164680880D03*
X196770924Y-180980651D03*
X191348331Y-180906598D03*
X217107982Y-181931492D03*
X211685389Y-181857439D03*
D11*
X205515141Y-215597906D03*
D12*
X205515141Y-215597906D02*
X205515141Y-215597906D01*
D11*
X207543676Y-214069296D03*
D12*
X207543676Y-214069296D02*
X207543676Y-214069296D01*
D11*
X209572210Y-212540686D03*
D12*
X209572210Y-212540686D02*
X209572210Y-212540686D01*
D11*
X211600744Y-211012076D03*
D13*
G36*
X210410361Y-210844779D02*
G01*
X211768041Y-209821693D01*
X212791127Y-211179373D01*
X211433447Y-212202459D01*
X210410361Y-210844779D01*
X210410361Y-210844779D01*
G37*
D11*
X87992618Y-215751511D03*
D12*
X87992618Y-215751511D02*
X87992618Y-215751511D01*
D11*
X85964083Y-214222901D03*
D12*
X85964083Y-214222901D02*
X85964083Y-214222901D01*
D11*
X83935549Y-212694291D03*
D12*
X83935549Y-212694291D02*
X83935549Y-212694291D01*
D11*
X81907015Y-211165681D03*
D13*
G36*
X82074312Y-212356064D02*
G01*
X80716632Y-211332978D01*
X81739718Y-209975298D01*
X83097398Y-210998384D01*
X82074312Y-212356064D01*
X82074312Y-212356064D01*
G37*
D11*
X52395205Y-182503276D03*
D13*
G36*
X51288683Y-182972967D02*
G01*
X51925514Y-181396754D01*
X53501727Y-182033585D01*
X52864896Y-183609798D01*
X51288683Y-182972967D01*
X51288683Y-182972967D01*
G37*
D11*
X51443704Y-184858323D03*
D12*
X51443704Y-184858323D02*
X51443704Y-184858323D01*
D11*
X50492204Y-187213370D03*
D12*
X50492204Y-187213370D02*
X50492204Y-187213370D01*
D11*
X49540703Y-189568417D03*
D12*
X49540703Y-189568417D02*
X49540703Y-189568417D01*
D11*
X120197799Y-146824591D03*
D13*
G36*
X119728108Y-145718069D02*
G01*
X121304321Y-146354900D01*
X120667490Y-147931113D01*
X119091277Y-147294282D01*
X119728108Y-145718069D01*
X119728108Y-145718069D01*
G37*
D11*
X117842752Y-145873090D03*
D12*
X117842752Y-145873090D02*
X117842752Y-145873090D01*
D11*
X115487705Y-144921590D03*
D12*
X115487705Y-144921590D02*
X115487705Y-144921590D01*
D11*
X113132658Y-143970089D03*
D12*
X113132658Y-143970089D02*
X113132658Y-143970089D01*
D11*
X113658765Y-163138249D03*
D13*
G36*
X113189074Y-162031727D02*
G01*
X114765287Y-162668558D01*
X114128456Y-164244771D01*
X112552243Y-163607940D01*
X113189074Y-162031727D01*
X113189074Y-162031727D01*
G37*
D11*
X111303718Y-162186748D03*
D12*
X111303718Y-162186748D02*
X111303718Y-162186748D01*
D11*
X108948671Y-161235248D03*
D12*
X108948671Y-161235248D02*
X108948671Y-161235248D01*
D11*
X106593624Y-160283747D03*
D12*
X106593624Y-160283747D02*
X106593624Y-160283747D01*
D11*
X99778867Y-176283747D03*
D12*
X99778867Y-176283747D02*
X99778867Y-176283747D01*
D11*
X102133914Y-177235248D03*
D12*
X102133914Y-177235248D02*
X102133914Y-177235248D01*
D11*
X104488961Y-178186748D03*
D12*
X104488961Y-178186748D02*
X104488961Y-178186748D01*
D11*
X106844008Y-179138249D03*
D13*
G36*
X106374317Y-178031727D02*
G01*
X107950530Y-178668558D01*
X107313699Y-180244771D01*
X105737486Y-179607940D01*
X106374317Y-178031727D01*
X106374317Y-178031727D01*
G37*
D14*
X106945799Y-155599240D03*
X110795044Y-159419359D03*
X171938588Y-168903604D03*
X166515995Y-168829551D03*
X54471576Y-186707213D03*
X58320821Y-190527332D03*
X73497510Y-189001516D03*
X77346755Y-192821635D03*
X93834568Y-188050675D03*
X97683813Y-191870794D03*
X178494203Y-185129321D03*
X173071610Y-185055268D03*
X125222520Y-159747910D03*
X129071765Y-163568029D03*
X112111289Y-192199345D03*
X115960534Y-196019464D03*
X118666904Y-175973628D03*
X122516149Y-179793747D03*
X165382973Y-152677886D03*
X159960380Y-152603833D03*
X100390183Y-171824957D03*
X104239428Y-175645076D03*
D11*
X101828320Y-226087050D03*
D12*
X101828320Y-226087050D02*
X101828320Y-226087050D01*
D11*
X99799785Y-224558440D03*
D12*
X99799785Y-224558440D02*
X99799785Y-224558440D01*
D11*
X97771251Y-223029830D03*
D12*
X97771251Y-223029830D02*
X97771251Y-223029830D01*
D11*
X95742717Y-221501220D03*
D13*
G36*
X95910014Y-222691603D02*
G01*
X94552334Y-221668517D01*
X95575420Y-220310837D01*
X96933100Y-221333923D01*
X95910014Y-222691603D01*
X95910014Y-222691603D01*
G37*
D15*
X146658765Y-172638249D03*
D16*
X146658765Y-175178249D03*
X146658765Y-177718249D03*
X146658765Y-180258249D03*
D11*
X191716901Y-226026163D03*
D13*
G36*
X192907284Y-226193460D02*
G01*
X191549604Y-227216546D01*
X190526518Y-225858866D01*
X191884198Y-224835780D01*
X192907284Y-226193460D01*
X192907284Y-226193460D01*
G37*
D11*
X193745435Y-224497553D03*
D12*
X193745435Y-224497553D02*
X193745435Y-224497553D01*
D11*
X195773969Y-222968943D03*
D12*
X195773969Y-222968943D02*
X195773969Y-222968943D01*
D11*
X197802504Y-221440333D03*
D12*
X197802504Y-221440333D02*
X197802504Y-221440333D01*
D11*
X110834284Y-228461436D03*
D12*
X110834284Y-228461436D02*
X110834284Y-228461436D01*
D11*
X112362894Y-226432901D03*
D12*
X112362894Y-226432901D02*
X112362894Y-226432901D01*
D11*
X113891504Y-224404367D03*
D12*
X113891504Y-224404367D02*
X113891504Y-224404367D01*
D11*
X115420114Y-222375833D03*
D13*
G36*
X114229731Y-222543130D02*
G01*
X115252817Y-221185450D01*
X116610497Y-222208536D01*
X115587411Y-223566216D01*
X114229731Y-222543130D01*
X114229731Y-222543130D01*
G37*
D17*
X134366000Y-210058000D03*
X134463006Y-227427000D03*
X149744026Y-206132010D03*
X152942990Y-214883984D03*
X134305270Y-222019980D03*
X152908000Y-223520000D03*
X149606000Y-163068000D03*
X136144000Y-210058000D03*
X148590000Y-208026000D03*
X136119019Y-222019980D03*
X136397990Y-227584000D03*
X144526000Y-169672000D03*
X137318750Y-178593750D03*
X153772000Y-219862000D03*
X151892000Y-185420000D03*
X137318750Y-176212500D03*
X137318750Y-173831250D03*
X137318750Y-171450000D03*
X131762500Y-193675000D03*
X153670000Y-197866000D03*
X155702000Y-220472000D03*
X131762500Y-191293750D03*
X131762500Y-188912500D03*
X131762500Y-186531250D03*
X108743750Y-204787500D03*
X125730000Y-219964000D03*
X125222036Y-210819964D03*
X111125000Y-204787500D03*
X113506250Y-204787500D03*
X115887500Y-204787500D03*
X88900000Y-189706250D03*
X103981250Y-204787500D03*
X126492000Y-220980000D03*
X127254002Y-211582000D03*
X69550000Y-187850000D03*
X101600000Y-204787500D03*
X137318750Y-180975000D03*
X131762500Y-196056250D03*
X106362500Y-204787500D03*
X118268750Y-204787500D03*
X180100000Y-190850000D03*
X177800000Y-203993750D03*
X157162500Y-180975000D03*
X159543750Y-196056250D03*
X189706250Y-203993750D03*
X157162500Y-178593750D03*
X157162500Y-176212500D03*
X157162500Y-173831250D03*
X157162500Y-171450000D03*
X159427966Y-193559215D03*
X159543750Y-191293750D03*
X159543750Y-188912500D03*
X159543750Y-186531250D03*
X187283098Y-203951848D03*
X184943750Y-203993750D03*
X182562500Y-203993750D03*
X180181250Y-203993750D03*
X99119540Y-217794583D03*
X57900000Y-180200000D03*
X147296000Y-209296000D03*
X148336000Y-202184000D03*
X96012000Y-215646000D03*
X97794933Y-216373010D03*
X96774000Y-217170000D03*
X99218750Y-201612500D03*
X99218750Y-211137500D03*
X127508000Y-218186000D03*
X97408473Y-217942960D03*
X198823946Y-187873946D03*
X200818750Y-210901515D03*
X133350000Y-218989000D03*
X133305576Y-205605696D03*
X180150002Y-192450000D03*
X201612500Y-193675000D03*
X201612500Y-200818750D03*
X132334000Y-218497041D03*
X132079996Y-205740000D03*
X146304000Y-225806000D03*
X145288000Y-225805997D03*
X143863298Y-225252691D03*
X143002000Y-226060000D03*
X145795998Y-202692000D03*
X145796000Y-191516004D03*
X146812000Y-203200000D03*
X147066008Y-191516000D03*
X151889426Y-211868166D03*
X151892000Y-226822000D03*
D18*
X152942990Y-209330974D02*
X152942990Y-214883984D01*
X149744026Y-206132010D02*
X152942990Y-209330974D01*
X134463006Y-222177716D02*
X134305270Y-222019980D01*
X134463006Y-227427000D02*
X134463006Y-222177716D01*
X134366000Y-210058000D02*
X134366000Y-221959250D01*
X134366000Y-221959250D02*
X134305270Y-222019980D01*
X152942990Y-215449669D02*
X152908000Y-215484659D01*
X152942990Y-214883984D02*
X152942990Y-215449669D01*
X152908000Y-215484659D02*
X152908000Y-223520000D01*
X149744026Y-206132010D02*
X149744026Y-163206026D01*
X149744026Y-163206026D02*
X149606000Y-163068000D01*
X142494000Y-170180000D02*
X149606000Y-163068000D01*
X134366000Y-210058000D02*
X142494000Y-201930000D01*
X142494000Y-201930000D02*
X142494000Y-170180000D01*
X136144000Y-221994999D02*
X136119019Y-222019980D01*
X136144000Y-210058000D02*
X136144000Y-221994999D01*
X136119019Y-227305029D02*
X136397990Y-227584000D01*
X136119019Y-222019980D02*
X136119019Y-227305029D01*
X144526000Y-201676000D02*
X144526000Y-169672000D01*
X144526000Y-203962000D02*
X144526000Y-201676000D01*
X148590000Y-208026000D02*
X144526000Y-203962000D01*
X136398000Y-210058000D02*
X136144000Y-210058000D01*
X144526000Y-201676000D02*
X144526000Y-201930000D01*
X144526000Y-201930000D02*
X136398000Y-210058000D01*
D19*
X134593761Y-175868761D02*
X134593761Y-173172832D01*
X137318750Y-178593750D02*
X134593761Y-175868761D01*
X134593761Y-173172832D02*
X120993737Y-159572809D01*
X113132658Y-149031758D02*
X113132658Y-143970089D01*
X120993737Y-159572809D02*
X120993737Y-156892837D01*
X120993737Y-156892837D02*
X113132658Y-149031758D01*
D20*
X153772000Y-199043962D02*
X151892000Y-197163962D01*
X153772000Y-219862000D02*
X153772000Y-199043962D01*
X151892000Y-197163962D02*
X151892000Y-185420000D01*
D19*
X137318750Y-176212500D02*
X137318750Y-175261411D01*
X116337704Y-145771589D02*
X115487705Y-144921590D01*
X121443748Y-151606248D02*
X116337704Y-146500204D01*
X116337704Y-146500204D02*
X116337704Y-145771589D01*
X137318750Y-175261411D02*
X121443748Y-159386409D01*
X121443748Y-159386409D02*
X121443748Y-151606248D01*
X117842752Y-147075171D02*
X117842752Y-145873090D01*
X121893759Y-151126178D02*
X117842752Y-147075171D01*
X121893759Y-159200009D02*
X121893759Y-151126178D01*
X137318750Y-173831250D02*
X136525000Y-173831250D01*
X136525000Y-173831250D02*
X121893759Y-159200009D01*
X122343770Y-153938979D02*
X122343770Y-148970562D01*
X137318750Y-171450000D02*
X137318750Y-168913959D01*
X137318750Y-168913959D02*
X122343770Y-153938979D01*
X122343770Y-148970562D02*
X120197799Y-146824591D01*
X131762500Y-192723910D02*
X115701099Y-176662509D01*
X131762500Y-193675000D02*
X131762500Y-192723910D01*
X106593624Y-160900126D02*
X106593624Y-160283747D01*
X115701099Y-176662509D02*
X108457186Y-176662509D01*
X108457186Y-176662509D02*
X103187500Y-171392822D01*
X103187500Y-171392822D02*
X103187500Y-164306250D01*
X103187500Y-164306250D02*
X106593624Y-160900126D01*
D20*
X155302001Y-220072001D02*
X155702000Y-220472000D01*
X155956000Y-219418002D02*
X155302001Y-220072001D01*
X153670000Y-197866000D02*
X155956000Y-200152000D01*
X155956000Y-200152000D02*
X155956000Y-219418002D01*
D19*
X106362500Y-161925000D02*
X108258919Y-161925000D01*
X130968750Y-191293750D02*
X115887498Y-176212498D01*
X108258919Y-161925000D02*
X108948671Y-161235248D01*
X131762500Y-191293750D02*
X130968750Y-191293750D01*
X115887498Y-176212498D02*
X108743748Y-176212498D01*
X108743748Y-176212498D02*
X103637510Y-171106260D01*
X103637510Y-171106260D02*
X103637510Y-164649990D01*
X103637510Y-164649990D02*
X106362500Y-161925000D01*
X118532281Y-164569781D02*
X112484670Y-164569781D01*
X131762500Y-188912500D02*
X127343740Y-184493740D01*
X112484670Y-164569781D02*
X111303718Y-163388829D01*
X127343740Y-184493740D02*
X127343740Y-173381240D01*
X127343740Y-173381240D02*
X118532281Y-164569781D01*
X111303718Y-163388829D02*
X111303718Y-162186748D01*
X117737160Y-163138249D02*
X113658765Y-163138249D01*
X127793751Y-173194840D02*
X117737160Y-163138249D01*
X127793751Y-182562501D02*
X127793751Y-173194840D01*
X131762500Y-186531250D02*
X127793751Y-182562501D01*
X108743750Y-200818750D02*
X108743750Y-204787500D01*
X98768739Y-177293875D02*
X98768739Y-181240070D01*
X99778867Y-176283747D02*
X98768739Y-177293875D01*
X98768739Y-181240070D02*
X102393750Y-184865081D01*
X102393750Y-184865081D02*
X102393750Y-194468750D01*
X102393750Y-194468750D02*
X108743750Y-200818750D01*
D20*
X125730000Y-219964000D02*
X125730000Y-211327928D01*
X125730000Y-211327928D02*
X125222036Y-210819964D01*
D19*
X111125000Y-202406250D02*
X111125000Y-204787500D01*
X102133914Y-177235248D02*
X99218750Y-180150412D01*
X102843761Y-184678681D02*
X102843761Y-194125011D01*
X102843761Y-194125011D02*
X111125000Y-202406250D01*
X99218750Y-181053671D02*
X102843761Y-184678681D01*
X99218750Y-180150412D02*
X99218750Y-181053671D01*
X113506250Y-200504071D02*
X113506250Y-204787500D01*
X110320277Y-197318098D02*
X113506250Y-200504071D01*
X110320277Y-185585322D02*
X110320277Y-197318098D01*
X104488961Y-179754006D02*
X110320277Y-185585322D01*
X104488961Y-178186748D02*
X104488961Y-179754006D01*
X110770288Y-183064529D02*
X110770288Y-197131698D01*
X110770288Y-197131698D02*
X115887500Y-202248910D01*
X115887500Y-202248910D02*
X115887500Y-204787500D01*
X106844008Y-179138249D02*
X110770288Y-183064529D01*
X103981250Y-201612500D02*
X103981250Y-204787500D01*
X100806250Y-198437500D02*
X103981250Y-201612500D01*
X97631250Y-198437500D02*
X100806250Y-198437500D01*
X88900000Y-189706250D02*
X97631250Y-198437500D01*
D20*
X126492000Y-212344002D02*
X127254002Y-211582000D01*
X126492000Y-220980000D02*
X126492000Y-212344002D01*
D19*
X101600000Y-200025000D02*
X101600000Y-204787500D01*
X70202000Y-187198000D02*
X75438000Y-187198000D01*
X69550000Y-187850000D02*
X70202000Y-187198000D01*
X75438000Y-187198000D02*
X87471250Y-199231250D01*
X87471250Y-199231250D02*
X100806250Y-199231250D01*
X100806250Y-199231250D02*
X101600000Y-200025000D01*
X137318750Y-180975000D02*
X134143750Y-177800000D01*
X134143750Y-177800000D02*
X134143750Y-173359232D01*
X134143750Y-173359232D02*
X118740768Y-157956250D01*
X118740768Y-157956250D02*
X109302809Y-157956250D01*
X109302809Y-157956250D02*
X106945799Y-155599240D01*
X102983224Y-171824957D02*
X100390183Y-171824957D01*
X115514699Y-177112520D02*
X108270787Y-177112520D01*
X127554215Y-189152036D02*
X115514699Y-177112520D01*
X127554215Y-191847965D02*
X127554215Y-189152036D01*
X131762500Y-196056250D02*
X127554215Y-191847965D01*
X108270787Y-177112520D02*
X102983224Y-171824957D01*
X106362500Y-203200000D02*
X106362500Y-204787500D01*
X100806250Y-197643750D02*
X106362500Y-203200000D01*
X100012500Y-197643750D02*
X100806250Y-197643750D01*
X93834568Y-188050675D02*
X93834568Y-191465818D01*
X93834568Y-191465818D02*
X100012500Y-197643750D01*
X118268750Y-203993750D02*
X118268750Y-204787500D01*
X112111289Y-192199345D02*
X112111289Y-197836289D01*
X112111289Y-197836289D02*
X118268750Y-203993750D01*
X178494203Y-189244203D02*
X178494203Y-185129321D01*
X180100000Y-190850000D02*
X178494203Y-189244203D01*
X183134000Y-198659750D02*
X177800000Y-203993750D01*
X183134000Y-193884000D02*
X183134000Y-198659750D01*
X180100000Y-190850000D02*
X183134000Y-193884000D01*
X157162500Y-180975000D02*
X159543750Y-178593750D01*
X159543750Y-173447428D02*
X161991189Y-170999989D01*
X161991189Y-170999989D02*
X162073998Y-170999989D01*
X181064103Y-148529216D02*
X183659694Y-148529216D01*
X162073998Y-170999989D02*
X170418783Y-162655204D01*
X170418783Y-162655204D02*
X170418783Y-159174536D01*
X170418783Y-159174536D02*
X181064103Y-148529216D01*
X159543750Y-178593750D02*
X159543750Y-173447428D01*
X187980384Y-165770932D02*
X189199310Y-165770932D01*
X189199310Y-165770932D02*
X190215309Y-164754933D01*
X180975000Y-169862500D02*
X183888816Y-169862500D01*
X178054000Y-177546000D02*
X178054000Y-172783500D01*
X159543750Y-196056250D02*
X178054000Y-177546000D01*
X178054000Y-172783500D02*
X180975000Y-169862500D01*
X183888816Y-169862500D02*
X187980384Y-165770932D01*
X196770924Y-187404076D02*
X196770924Y-180980651D01*
X192881250Y-191293750D02*
X196770924Y-187404076D01*
X189706250Y-203993750D02*
X192881250Y-200818750D01*
X192881250Y-200818750D02*
X192881250Y-191293750D01*
X180059486Y-148897422D02*
X180059486Y-143836147D01*
X157162500Y-178593750D02*
X159093739Y-176662511D01*
X169968772Y-158988136D02*
X180059486Y-148897422D01*
X169968772Y-162297800D02*
X169968772Y-158988136D01*
X159093739Y-173172833D02*
X169968772Y-162297800D01*
X159093739Y-176662511D02*
X159093739Y-173172833D01*
X177800000Y-144883209D02*
X177704439Y-144787648D01*
X177800000Y-146050000D02*
X177800000Y-144883209D01*
X176212500Y-147637500D02*
X177800000Y-146050000D01*
X158643732Y-174731268D02*
X158643732Y-172986428D01*
X157162500Y-176212500D02*
X158643732Y-174731268D01*
X158643732Y-172986428D02*
X169518761Y-162111400D01*
X169518761Y-162111400D02*
X169518761Y-158801738D01*
X169518761Y-158801738D02*
X176212500Y-152107999D01*
X176212500Y-152107999D02*
X176212500Y-147637500D01*
X175349392Y-152334697D02*
X175349392Y-145739148D01*
X169068750Y-158615339D02*
X175349392Y-152334697D01*
X169068750Y-161925000D02*
X169068750Y-158615339D01*
X157162500Y-173831250D02*
X169068750Y-161925000D01*
X172994345Y-154030655D02*
X172994345Y-146690649D01*
X161925000Y-161925000D02*
X165893750Y-157956250D01*
X165893750Y-157956250D02*
X169068750Y-157956250D01*
X157162500Y-171450000D02*
X161925000Y-166687500D01*
X169068750Y-157956250D02*
X172994345Y-154030655D01*
X161925000Y-166687500D02*
X161925000Y-161925000D01*
X177603989Y-176980011D02*
X161024785Y-193559215D01*
X177603989Y-172597100D02*
X177603989Y-176980011D01*
X161024785Y-193559215D02*
X159427966Y-193559215D01*
X183702416Y-169412489D02*
X180788600Y-169412489D01*
X187665141Y-165449764D02*
X183702416Y-169412489D01*
X187665141Y-161145498D02*
X187665141Y-165449764D01*
X180788600Y-169412489D02*
X177603989Y-172597100D01*
X186531250Y-163318155D02*
X185310094Y-162096999D01*
X186531250Y-165947244D02*
X186531250Y-163318155D01*
X183516016Y-168962478D02*
X186531250Y-165947244D01*
X168275000Y-182562500D02*
X168275000Y-178833285D01*
X159543750Y-191293750D02*
X168275000Y-182562500D01*
X168275000Y-178833285D02*
X172483285Y-174625000D01*
X172483285Y-174625000D02*
X174939678Y-174625000D01*
X174939678Y-174625000D02*
X180602200Y-168962478D01*
X180602200Y-168962478D02*
X183516016Y-168962478D01*
X182955047Y-164550114D02*
X182955047Y-163048499D01*
X176810545Y-170694616D02*
X182955047Y-164550114D01*
X172955300Y-170694616D02*
X176810545Y-170694616D01*
X171749906Y-171900011D02*
X172955300Y-170694616D01*
X162363989Y-171900011D02*
X171749906Y-171900011D01*
X160443772Y-173820228D02*
X162363989Y-171900011D01*
X160443772Y-188012478D02*
X160443772Y-173820228D01*
X159543750Y-188912500D02*
X160443772Y-188012478D01*
X179013505Y-164000000D02*
X171563506Y-171450000D01*
X159993761Y-186081239D02*
X159543750Y-186531250D01*
X159993761Y-173633828D02*
X159993761Y-186081239D01*
X162177589Y-171450000D02*
X159993761Y-173633828D01*
X171563506Y-171450000D02*
X162177589Y-171450000D01*
X180600000Y-164000000D02*
X179013505Y-164000000D01*
X184943750Y-201612500D02*
X187283098Y-203951848D01*
X184943750Y-184658000D02*
X184943750Y-201612500D01*
X190611121Y-184658000D02*
X184943750Y-184658000D01*
X194165141Y-181103980D02*
X190611121Y-184658000D01*
X194165141Y-177645498D02*
X194165141Y-181103980D01*
X184493739Y-203543739D02*
X184943750Y-203993750D01*
X184757350Y-184207989D02*
X184493739Y-184471600D01*
X190311584Y-184207989D02*
X184757350Y-184207989D01*
X193675000Y-180461905D02*
X193675000Y-180844573D01*
X193675000Y-180844573D02*
X190311584Y-184207989D01*
X191810094Y-178596999D02*
X193675000Y-180461905D01*
X184493739Y-184471600D02*
X184493739Y-203543739D01*
X184034022Y-202522228D02*
X182562500Y-203993750D01*
X184034022Y-184294906D02*
X184034022Y-202522228D01*
X184570950Y-183757978D02*
X184034022Y-184294906D01*
X189455047Y-179548499D02*
X189455047Y-183757978D01*
X189455047Y-183757978D02*
X184570950Y-183757978D01*
X187100000Y-180500000D02*
X183584011Y-184015989D01*
X183584011Y-184015989D02*
X183584011Y-200590989D01*
X183584011Y-200590989D02*
X180181250Y-203993750D01*
X94037017Y-213025288D02*
X75840239Y-194828510D01*
D20*
X75840239Y-194328151D02*
X77346755Y-192821635D01*
X75840239Y-194828510D02*
X75840239Y-194328151D01*
X99119540Y-216409855D02*
X99119540Y-217794583D01*
X95641729Y-214630000D02*
X97339685Y-214630000D01*
X94037017Y-213025288D02*
X95641729Y-214630000D01*
X97339685Y-214630000D02*
X99119540Y-216409855D01*
D19*
X58320821Y-190527332D02*
X57304822Y-189511333D01*
X57304822Y-180795178D02*
X57900000Y-180200000D01*
X57041677Y-184858323D02*
X57304822Y-184595178D01*
X51443704Y-184858323D02*
X57041677Y-184858323D01*
X57304822Y-189511333D02*
X57304822Y-184595178D01*
X57304822Y-184595178D02*
X57304822Y-180795178D01*
D20*
X148336000Y-206248000D02*
X148336000Y-202184000D01*
X149606000Y-207518000D02*
X148336000Y-206248000D01*
X149606000Y-208534000D02*
X149606000Y-207518000D01*
X147296000Y-209296000D02*
X148844000Y-209296000D01*
X148844000Y-209296000D02*
X149606000Y-208534000D01*
D19*
X72264410Y-192278000D02*
X95092660Y-215106250D01*
X58320821Y-190527332D02*
X60071489Y-192278000D01*
X60071489Y-192278000D02*
X72264410Y-192278000D01*
D20*
X95472250Y-215106250D02*
X96012000Y-215646000D01*
X95092660Y-215106250D02*
X95472250Y-215106250D01*
D19*
X51705780Y-187213370D02*
X57220421Y-192728011D01*
X71071623Y-192991623D02*
X93636261Y-215556261D01*
X70808012Y-192728011D02*
X71071623Y-192991623D01*
X57220421Y-192728011D02*
X70808012Y-192728011D01*
X50492204Y-187213370D02*
X51705780Y-187213370D01*
D20*
X93636261Y-215552263D02*
X94394263Y-215552263D01*
X95215010Y-216373010D02*
X97794933Y-216373010D01*
X94394263Y-215552263D02*
X95215010Y-216373010D01*
X94742000Y-217170000D02*
X96774000Y-217170000D01*
X93578272Y-216006272D02*
X94742000Y-217170000D01*
D19*
X93449861Y-216006272D02*
X93578272Y-216006272D01*
X57034022Y-193178022D02*
X70621612Y-193178022D01*
X53424417Y-189568417D02*
X57034022Y-193178022D01*
X70621612Y-193178022D02*
X93449861Y-216006272D01*
X49540703Y-189568417D02*
X53424417Y-189568417D01*
X99218750Y-201612500D02*
X99218750Y-211137500D01*
D20*
X127981002Y-217712998D02*
X127508000Y-218186000D01*
X127981002Y-208039932D02*
X127981002Y-217712998D01*
X115960534Y-196019464D02*
X127981002Y-208039932D01*
D19*
X104239428Y-175645076D02*
X103550000Y-174955648D01*
D20*
X94752960Y-217942960D02*
X97408473Y-217942960D01*
X93899871Y-217089871D02*
X94752960Y-217942960D01*
D19*
X93897052Y-217089872D02*
X93899871Y-217089872D01*
X81907015Y-211165681D02*
X87972861Y-211165681D01*
X87972861Y-211165681D02*
X93897052Y-217089872D01*
X191856598Y-180906598D02*
X191348331Y-180906598D01*
X198823946Y-187873946D02*
X200818750Y-189868750D01*
X200818750Y-189868750D02*
X200818750Y-210901515D01*
D20*
X133350000Y-218989000D02*
X133350000Y-205650120D01*
X133350000Y-205650120D02*
X133305576Y-205605696D01*
D19*
X173071610Y-185055268D02*
X180150002Y-192133660D01*
X180150002Y-192133660D02*
X180150002Y-192450000D01*
X201612500Y-193675000D02*
X201612500Y-200818750D01*
D20*
X132334000Y-218497041D02*
X132334000Y-205994004D01*
X132334000Y-205994004D02*
X132079996Y-205740000D01*
D19*
X211757439Y-181857439D02*
X211685389Y-181857439D01*
X219075000Y-193718267D02*
X193743267Y-219050000D01*
X211685389Y-181857439D02*
X219075000Y-189247050D01*
X219075000Y-189247050D02*
X219075000Y-193718267D01*
D20*
X148082000Y-227584000D02*
X146304000Y-225806000D01*
X152205962Y-227584000D02*
X148082000Y-227584000D01*
X160681413Y-219108549D02*
X152205962Y-227584000D01*
X193741853Y-219048587D02*
X160681413Y-219048587D01*
D19*
X232249551Y-178024908D02*
X230711323Y-179563136D01*
X241277801Y-184666137D02*
X239712500Y-183100836D01*
X242479882Y-184666137D02*
X241277801Y-184666137D01*
X239712500Y-183100836D02*
X239712500Y-180181250D01*
X239712500Y-180181250D02*
X237331250Y-177800000D01*
X237331250Y-177800000D02*
X232806219Y-177800000D01*
X232806219Y-177800000D02*
X232249551Y-178024908D01*
X230711323Y-179563136D02*
X219525011Y-190749448D01*
X219525011Y-193904667D02*
X193904667Y-219525011D01*
X219525011Y-190749448D02*
X219525011Y-193904667D01*
D20*
X145288000Y-226702068D02*
X145288000Y-225805997D01*
X160968990Y-219523010D02*
X152146000Y-228346000D01*
X146931932Y-228346000D02*
X145288000Y-226702068D01*
X152146000Y-228346000D02*
X146931932Y-228346000D01*
X193903841Y-219523010D02*
X160968990Y-219523010D01*
D19*
X236108464Y-192881250D02*
X221184839Y-192881250D01*
X243431382Y-187021184D02*
X241968530Y-187021184D01*
X241968530Y-187021184D02*
X236108464Y-192881250D01*
X221184839Y-192881250D02*
X194091067Y-219975022D01*
D20*
X194086242Y-219977020D02*
X161530979Y-219977021D01*
X161530979Y-219977021D02*
X152654000Y-228854000D01*
X152654000Y-228854000D02*
X146797864Y-228854000D01*
X143863298Y-225919434D02*
X143863298Y-225252691D01*
X146797864Y-228854000D02*
X143863298Y-225919434D01*
D19*
X240249893Y-189376231D02*
X236294864Y-193331261D01*
X221371239Y-193331261D02*
X194277467Y-220425033D01*
X244382883Y-189376231D02*
X240249893Y-189376231D01*
X236294864Y-193331261D02*
X221371239Y-193331261D01*
D20*
X152908000Y-229362000D02*
X146304000Y-229362000D01*
X194271470Y-220431030D02*
X161838970Y-220431030D01*
X161838970Y-220431030D02*
X152908000Y-229362000D01*
X194277467Y-220425033D02*
X194271470Y-220431030D01*
X146304000Y-229362000D02*
X143002000Y-226060000D01*
D19*
X180865033Y-226234299D02*
X180849484Y-226218750D01*
D20*
X145795998Y-191516006D02*
X145796000Y-191516004D01*
X145795998Y-202692000D02*
X145795998Y-191516006D01*
X146812000Y-203200000D02*
X146812000Y-191770008D01*
X146812000Y-191770008D02*
X147066008Y-191516000D01*
X151889426Y-226819426D02*
X151892000Y-226822000D01*
X151889426Y-211868166D02*
X151889426Y-226819426D01*
M02*
