M48
; DRILL file {KiCad (5.1.4)-1} date 11/3/2022 10:20:18 PM
; FORMAT={-:-/ absolute / inch / decimal}
; #@! TF.CreationDate,2022-11-03T22:20:18-04:00
; #@! TF.GenerationSoftware,Kicad,Pcbnew,(5.1.4)-1
; #@! TF.FileFunction,Plated,1,2,PTH
FMAT,2
INCH
T1C0.0157
T2C0.0276
T3C0.0394
T4C0.0500
%
G90
G05
T1
X2.2795Y-7.0945
X2.7382Y-7.3957
X2.9858Y-7.6704
X3.5Y-7.4688
X3.9062Y-7.9375
X3.9062Y-8.3125
X4.0Y-8.0625
X4.0938Y-8.0625
X4.1875Y-8.0625
X4.2812Y-8.0625
X4.375Y-8.0625
X4.4688Y-8.0625
X4.5625Y-8.0625
X4.6562Y-8.0625
X4.9062Y-8.4375
X4.9456Y-8.4375
X4.985Y-8.4375
X5.0244Y-8.4375
X5.1191Y-8.3497
X5.1875Y-7.3438
X5.1875Y-7.4375
X5.1875Y-7.5312
X5.1875Y-7.625
X5.1875Y-7.7188
X5.1875Y-7.9688
X5.1875Y-8.1562
X5.25Y-8.3469
X5.2876Y-8.3814
X5.3125Y-8.6562
X5.3287Y-7.9469
X5.3819Y-8.0453
X5.3819Y-8.4272
X5.4062Y-6.75
X5.4062Y-6.8438
X5.4062Y-6.9375
X5.4062Y-7.0312
X5.4062Y-7.125
X5.4062Y-8.0
X5.4375Y-7.25
X5.4688Y-8.625
X5.5316Y-7.9688
X5.5625Y-6.5938
X5.5625Y-8.625
X5.5627Y-7.7196
X5.5938Y-8.875
X5.6875Y-8.8125
X5.6887Y-8.625
X5.689Y-7.7473
X5.7188Y-7.9119
X5.75Y-8.6562
X5.7517Y-8.0017
X5.7517Y-8.592
X5.7812Y-8.1562
X5.7812Y-8.5625
X5.875Y-8.7067
X5.875Y-8.75
X5.875Y-9.0312
X5.9062Y-7.8438
X5.9062Y-8.0312
X5.9621Y-8.4129
X5.9688Y-8.0625
X5.9931Y-8.4444
X6.0Y-6.5938
X6.0Y-8.0938
X6.0295Y-8.5866
X6.0312Y-7.25
X6.0315Y-8.1594
X6.0888Y-7.7188
X6.0938Y-7.8438
X6.0938Y-8.125
X6.0938Y-8.5367
X6.1794Y-8.75
X6.1875Y-6.75
X6.1875Y-6.8438
X6.1875Y-6.9375
X6.1875Y-7.0312
X6.1875Y-7.125
X6.2187Y-8.75
X6.2767Y-7.6204
X6.2812Y-7.3438
X6.2812Y-7.4375
X6.2812Y-7.5312
X6.2812Y-7.7188
X6.4375Y-8.7812
X6.5938Y-8.7812
X6.5938Y-8.7812
X7.0Y-8.0312
X7.0906Y-7.5138
X7.0925Y-7.5768
X7.0938Y-8.0312
X7.1875Y-8.0312
X7.2812Y-8.0312
X7.2812Y-8.0312
X7.3734Y-8.0296
X7.4688Y-8.0312
X7.8277Y-7.3966
X7.9062Y-8.3032
X7.9375Y-7.625
X7.9375Y-7.9062
T3
X7.3661Y-7.1063
X7.4589Y-7.0688
X7.5516Y-7.0314
X7.6443Y-6.9939
X1.9504Y-7.4633
X1.9879Y-7.3706
X2.0253Y-7.2779
X2.0628Y-7.1852
X3.7694Y-8.7205
X3.8493Y-8.7807
X3.9291Y-8.8409
X4.009Y-8.9011
X4.1966Y-6.3104
X4.2893Y-6.3478
X4.382Y-6.3853
X4.4748Y-6.4228
X4.454Y-5.6681
X4.5468Y-5.7056
X4.6395Y-5.743
X4.7322Y-5.7805
X4.3636Y-8.9945
X4.4237Y-8.9147
X4.4839Y-8.8348
X4.5441Y-8.755
X5.774Y-6.7968
X5.774Y-6.8968
X5.774Y-6.9968
X5.774Y-7.0968
X7.1102Y-6.4567
X7.203Y-6.4192
X7.2957Y-6.3818
X7.3884Y-6.3443
X3.9283Y-6.9403
X4.021Y-6.9778
X4.1137Y-7.0152
X4.2065Y-7.0527
X7.0003Y-8.7471
X7.0605Y-8.827
X7.1207Y-8.9069
X7.1809Y-8.9867
X3.2247Y-8.3136
X3.3045Y-8.3738
X3.3844Y-8.434
X3.4643Y-8.4942
X9.509Y-7.1776
X9.5465Y-7.2703
X9.5839Y-7.363
X9.6214Y-7.4558
X7.5479Y-8.8987
X7.6278Y-8.8385
X7.7076Y-8.7783
X7.7875Y-8.7181
X6.8108Y-5.7752
X6.9035Y-5.7378
X6.9962Y-5.7003
X7.089Y-5.6628
X8.0911Y-8.4881
X8.171Y-8.4279
X8.2509Y-8.3677
X8.3307Y-8.3076
T4
X3.6943Y-7.4036
X3.8458Y-7.554
X6.5557Y-6.6468
X6.7692Y-6.6497
X4.6719Y-6.9281
X4.8235Y-7.0785
X4.93Y-6.2893
X5.0816Y-6.4397
X7.5334Y-7.1223
X7.7469Y-7.1252
X6.8138Y-7.2856
X7.0273Y-7.2886
X4.2105Y-6.126
X4.362Y-6.2764
X2.1446Y-7.3507
X2.2961Y-7.5011
X3.9524Y-6.7648
X4.1039Y-6.9152
X6.2977Y-6.008
X6.5111Y-6.0109
X7.0172Y-5.8447
X7.2307Y-5.8476
X2.8936Y-7.441
X3.0451Y-7.5914
X7.2753Y-6.4835
X7.4888Y-6.4864
X9.0831Y-7.0694
X9.2966Y-7.0723
X4.4138Y-7.5669
X4.5654Y-7.7173
X8.3341Y-7.1597
X8.5476Y-7.1627
T2
G00X5.6319Y-6.0787
M15
G01X5.6319Y-6.126
M16
G05
G00X5.6319Y-6.2559
M15
G01X5.6319Y-6.3031
M16
G05
G00X5.9193Y-6.0787
M15
G01X5.9193Y-6.126
M16
G05
G00X5.9193Y-6.2559
M15
G01X5.9193Y-6.3031
M16
G05
T0
M30
