G04 #@! TF.GenerationSoftware,KiCad,Pcbnew,(5.1.4)-1*
G04 #@! TF.CreationDate,2022-11-04T00:26:33-04:00*
G04 #@! TF.ProjectId,ThumbsUp,5468756d-6273-4557-902e-6b696361645f,rev?*
G04 #@! TF.SameCoordinates,Original*
G04 #@! TF.FileFunction,Legend,Top*
G04 #@! TF.FilePolarity,Positive*
%FSLAX46Y46*%
G04 Gerber Fmt 4.6, Leading zero omitted, Abs format (unit mm)*
G04 Created by KiCad (PCBNEW (5.1.4)-1) date 2022-11-04 00:26:33*
%MOMM*%
%LPD*%
G04 APERTURE LIST*
%ADD10C,0.150000*%
%ADD11C,0.120000*%
G04 APERTURE END LIST*
D10*
X133959523Y-358102380D02*
X134530952Y-358102380D01*
X134245238Y-359102380D02*
X134245238Y-358102380D01*
X134864285Y-359102380D02*
X134864285Y-358102380D01*
X135292857Y-359102380D02*
X135292857Y-358578571D01*
X135245238Y-358483333D01*
X135150000Y-358435714D01*
X135007142Y-358435714D01*
X134911904Y-358483333D01*
X134864285Y-358530952D01*
X136197619Y-358435714D02*
X136197619Y-359102380D01*
X135769047Y-358435714D02*
X135769047Y-358959523D01*
X135816666Y-359054761D01*
X135911904Y-359102380D01*
X136054761Y-359102380D01*
X136150000Y-359054761D01*
X136197619Y-359007142D01*
X136673809Y-359102380D02*
X136673809Y-358435714D01*
X136673809Y-358530952D02*
X136721428Y-358483333D01*
X136816666Y-358435714D01*
X136959523Y-358435714D01*
X137054761Y-358483333D01*
X137102380Y-358578571D01*
X137102380Y-359102380D01*
X137102380Y-358578571D02*
X137150000Y-358483333D01*
X137245238Y-358435714D01*
X137388095Y-358435714D01*
X137483333Y-358483333D01*
X137530952Y-358578571D01*
X137530952Y-359102380D01*
X138007142Y-359102380D02*
X138007142Y-358102380D01*
X138007142Y-358483333D02*
X138102380Y-358435714D01*
X138292857Y-358435714D01*
X138388095Y-358483333D01*
X138435714Y-358530952D01*
X138483333Y-358626190D01*
X138483333Y-358911904D01*
X138435714Y-359007142D01*
X138388095Y-359054761D01*
X138292857Y-359102380D01*
X138102380Y-359102380D01*
X138007142Y-359054761D01*
X138864285Y-359054761D02*
X138959523Y-359102380D01*
X139150000Y-359102380D01*
X139245238Y-359054761D01*
X139292857Y-358959523D01*
X139292857Y-358911904D01*
X139245238Y-358816666D01*
X139150000Y-358769047D01*
X139007142Y-358769047D01*
X138911904Y-358721428D01*
X138864285Y-358626190D01*
X138864285Y-358578571D01*
X138911904Y-358483333D01*
X139007142Y-358435714D01*
X139150000Y-358435714D01*
X139245238Y-358483333D01*
X140483333Y-358102380D02*
X140483333Y-358911904D01*
X140530952Y-359007142D01*
X140578571Y-359054761D01*
X140673809Y-359102380D01*
X140864285Y-359102380D01*
X140959523Y-359054761D01*
X141007142Y-359007142D01*
X141054761Y-358911904D01*
X141054761Y-358102380D01*
X141530952Y-358435714D02*
X141530952Y-359435714D01*
X141530952Y-358483333D02*
X141626190Y-358435714D01*
X141816666Y-358435714D01*
X141911904Y-358483333D01*
X141959523Y-358530952D01*
X142007142Y-358626190D01*
X142007142Y-358911904D01*
X141959523Y-359007142D01*
X141911904Y-359054761D01*
X141816666Y-359102380D01*
X141626190Y-359102380D01*
X141530952Y-359054761D01*
X142435714Y-359007142D02*
X142483333Y-359054761D01*
X142435714Y-359102380D01*
X142388095Y-359054761D01*
X142435714Y-359007142D01*
X142435714Y-359102380D01*
X142435714Y-358721428D02*
X142388095Y-358150000D01*
X142435714Y-358102380D01*
X142483333Y-358150000D01*
X142435714Y-358721428D01*
X142435714Y-358102380D01*
X143673809Y-359102380D02*
X143673809Y-358102380D01*
X143673809Y-358483333D02*
X143769047Y-358435714D01*
X143959523Y-358435714D01*
X144054761Y-358483333D01*
X144102380Y-358530952D01*
X144150000Y-358626190D01*
X144150000Y-358911904D01*
X144102380Y-359007142D01*
X144054761Y-359054761D01*
X143959523Y-359102380D01*
X143769047Y-359102380D01*
X143673809Y-359054761D01*
X144483333Y-358435714D02*
X144721428Y-359102380D01*
X144959523Y-358435714D02*
X144721428Y-359102380D01*
X144626190Y-359340476D01*
X144578571Y-359388095D01*
X144483333Y-359435714D01*
X146054761Y-359054761D02*
X146197619Y-359102380D01*
X146435714Y-359102380D01*
X146530952Y-359054761D01*
X146578571Y-359007142D01*
X146626190Y-358911904D01*
X146626190Y-358816666D01*
X146578571Y-358721428D01*
X146530952Y-358673809D01*
X146435714Y-358626190D01*
X146245238Y-358578571D01*
X146150000Y-358530952D01*
X146102380Y-358483333D01*
X146054761Y-358388095D01*
X146054761Y-358292857D01*
X146102380Y-358197619D01*
X146150000Y-358150000D01*
X146245238Y-358102380D01*
X146483333Y-358102380D01*
X146626190Y-358150000D01*
X147483333Y-359102380D02*
X147483333Y-358578571D01*
X147435714Y-358483333D01*
X147340476Y-358435714D01*
X147150000Y-358435714D01*
X147054761Y-358483333D01*
X147483333Y-359054761D02*
X147388095Y-359102380D01*
X147150000Y-359102380D01*
X147054761Y-359054761D01*
X147007142Y-358959523D01*
X147007142Y-358864285D01*
X147054761Y-358769047D01*
X147150000Y-358721428D01*
X147388095Y-358721428D01*
X147483333Y-358673809D01*
X147911904Y-359054761D02*
X148007142Y-359102380D01*
X148197619Y-359102380D01*
X148292857Y-359054761D01*
X148340476Y-358959523D01*
X148340476Y-358911904D01*
X148292857Y-358816666D01*
X148197619Y-358769047D01*
X148054761Y-358769047D01*
X147959523Y-358721428D01*
X147911904Y-358626190D01*
X147911904Y-358578571D01*
X147959523Y-358483333D01*
X148054761Y-358435714D01*
X148197619Y-358435714D01*
X148292857Y-358483333D01*
X148769047Y-359102380D02*
X148769047Y-358102380D01*
X149197619Y-359102380D02*
X149197619Y-358578571D01*
X149150000Y-358483333D01*
X149054761Y-358435714D01*
X148911904Y-358435714D01*
X148816666Y-358483333D01*
X148769047Y-358530952D01*
X150102380Y-359102380D02*
X150102380Y-358578571D01*
X150054761Y-358483333D01*
X149959523Y-358435714D01*
X149769047Y-358435714D01*
X149673809Y-358483333D01*
X150102380Y-359054761D02*
X150007142Y-359102380D01*
X149769047Y-359102380D01*
X149673809Y-359054761D01*
X149626190Y-358959523D01*
X149626190Y-358864285D01*
X149673809Y-358769047D01*
X149769047Y-358721428D01*
X150007142Y-358721428D01*
X150102380Y-358673809D01*
X151340476Y-359102380D02*
X151340476Y-358102380D01*
X151911904Y-359102380D02*
X151483333Y-358530952D01*
X151911904Y-358102380D02*
X151340476Y-358673809D01*
X152769047Y-359102380D02*
X152769047Y-358578571D01*
X152721428Y-358483333D01*
X152626190Y-358435714D01*
X152435714Y-358435714D01*
X152340476Y-358483333D01*
X152769047Y-359054761D02*
X152673809Y-359102380D01*
X152435714Y-359102380D01*
X152340476Y-359054761D01*
X152292857Y-358959523D01*
X152292857Y-358864285D01*
X152340476Y-358769047D01*
X152435714Y-358721428D01*
X152673809Y-358721428D01*
X152769047Y-358673809D01*
X153245238Y-359102380D02*
X153245238Y-358435714D01*
X153245238Y-358626190D02*
X153292857Y-358530952D01*
X153340476Y-358483333D01*
X153435714Y-358435714D01*
X153530952Y-358435714D01*
X153864285Y-359102380D02*
X153864285Y-358435714D01*
X153864285Y-358530952D02*
X153911904Y-358483333D01*
X154007142Y-358435714D01*
X154150000Y-358435714D01*
X154245238Y-358483333D01*
X154292857Y-358578571D01*
X154292857Y-359102380D01*
X154292857Y-358578571D02*
X154340476Y-358483333D01*
X154435714Y-358435714D01*
X154578571Y-358435714D01*
X154673809Y-358483333D01*
X154721428Y-358578571D01*
X154721428Y-359102380D01*
X155626190Y-359102380D02*
X155626190Y-358578571D01*
X155578571Y-358483333D01*
X155483333Y-358435714D01*
X155292857Y-358435714D01*
X155197619Y-358483333D01*
X155626190Y-359054761D02*
X155530952Y-359102380D01*
X155292857Y-359102380D01*
X155197619Y-359054761D01*
X155150000Y-358959523D01*
X155150000Y-358864285D01*
X155197619Y-358769047D01*
X155292857Y-358721428D01*
X155530952Y-358721428D01*
X155626190Y-358673809D01*
X156102380Y-358435714D02*
X156102380Y-359102380D01*
X156102380Y-358530952D02*
X156150000Y-358483333D01*
X156245238Y-358435714D01*
X156388095Y-358435714D01*
X156483333Y-358483333D01*
X156530952Y-358578571D01*
X156530952Y-359102380D01*
X157150000Y-359102380D02*
X157054761Y-359054761D01*
X157007142Y-359007142D01*
X156959523Y-358911904D01*
X156959523Y-358626190D01*
X157007142Y-358530952D01*
X157054761Y-358483333D01*
X157150000Y-358435714D01*
X157292857Y-358435714D01*
X157388095Y-358483333D01*
X157435714Y-358530952D01*
X157483333Y-358626190D01*
X157483333Y-358911904D01*
X157435714Y-359007142D01*
X157388095Y-359054761D01*
X157292857Y-359102380D01*
X157150000Y-359102380D01*
X157816666Y-358435714D02*
X158054761Y-359102380D01*
X158292857Y-358435714D01*
X139840476Y-359752380D02*
X140030952Y-359752380D01*
X140126190Y-359800000D01*
X140221428Y-359895238D01*
X140269047Y-360085714D01*
X140269047Y-360419047D01*
X140221428Y-360609523D01*
X140126190Y-360704761D01*
X140030952Y-360752380D01*
X139840476Y-360752380D01*
X139745238Y-360704761D01*
X139650000Y-360609523D01*
X139602380Y-360419047D01*
X139602380Y-360085714D01*
X139650000Y-359895238D01*
X139745238Y-359800000D01*
X139840476Y-359752380D01*
X141126190Y-360704761D02*
X141030952Y-360752380D01*
X140840476Y-360752380D01*
X140745238Y-360704761D01*
X140697619Y-360657142D01*
X140650000Y-360561904D01*
X140650000Y-360276190D01*
X140697619Y-360180952D01*
X140745238Y-360133333D01*
X140840476Y-360085714D01*
X141030952Y-360085714D01*
X141126190Y-360133333D01*
X141411904Y-360085714D02*
X141792857Y-360085714D01*
X141554761Y-359752380D02*
X141554761Y-360609523D01*
X141602380Y-360704761D01*
X141697619Y-360752380D01*
X141792857Y-360752380D01*
X142269047Y-360752380D02*
X142173809Y-360704761D01*
X142126190Y-360657142D01*
X142078571Y-360561904D01*
X142078571Y-360276190D01*
X142126190Y-360180952D01*
X142173809Y-360133333D01*
X142269047Y-360085714D01*
X142411904Y-360085714D01*
X142507142Y-360133333D01*
X142554761Y-360180952D01*
X142602380Y-360276190D01*
X142602380Y-360561904D01*
X142554761Y-360657142D01*
X142507142Y-360704761D01*
X142411904Y-360752380D01*
X142269047Y-360752380D01*
X143030952Y-360752380D02*
X143030952Y-359752380D01*
X143030952Y-360133333D02*
X143126190Y-360085714D01*
X143316666Y-360085714D01*
X143411904Y-360133333D01*
X143459523Y-360180952D01*
X143507142Y-360276190D01*
X143507142Y-360561904D01*
X143459523Y-360657142D01*
X143411904Y-360704761D01*
X143316666Y-360752380D01*
X143126190Y-360752380D01*
X143030952Y-360704761D01*
X144316666Y-360704761D02*
X144221428Y-360752380D01*
X144030952Y-360752380D01*
X143935714Y-360704761D01*
X143888095Y-360609523D01*
X143888095Y-360228571D01*
X143935714Y-360133333D01*
X144030952Y-360085714D01*
X144221428Y-360085714D01*
X144316666Y-360133333D01*
X144364285Y-360228571D01*
X144364285Y-360323809D01*
X143888095Y-360419047D01*
X144792857Y-360752380D02*
X144792857Y-360085714D01*
X144792857Y-360276190D02*
X144840476Y-360180952D01*
X144888095Y-360133333D01*
X144983333Y-360085714D01*
X145078571Y-360085714D01*
X146126190Y-359847619D02*
X146173809Y-359800000D01*
X146269047Y-359752380D01*
X146507142Y-359752380D01*
X146602380Y-359800000D01*
X146650000Y-359847619D01*
X146697619Y-359942857D01*
X146697619Y-360038095D01*
X146650000Y-360180952D01*
X146078571Y-360752380D01*
X146697619Y-360752380D01*
X147269047Y-360180952D02*
X147173809Y-360133333D01*
X147126190Y-360085714D01*
X147078571Y-359990476D01*
X147078571Y-359942857D01*
X147126190Y-359847619D01*
X147173809Y-359800000D01*
X147269047Y-359752380D01*
X147459523Y-359752380D01*
X147554761Y-359800000D01*
X147602380Y-359847619D01*
X147650000Y-359942857D01*
X147650000Y-359990476D01*
X147602380Y-360085714D01*
X147554761Y-360133333D01*
X147459523Y-360180952D01*
X147269047Y-360180952D01*
X147173809Y-360228571D01*
X147126190Y-360276190D01*
X147078571Y-360371428D01*
X147078571Y-360561904D01*
X147126190Y-360657142D01*
X147173809Y-360704761D01*
X147269047Y-360752380D01*
X147459523Y-360752380D01*
X147554761Y-360704761D01*
X147602380Y-360657142D01*
X147650000Y-360561904D01*
X147650000Y-360371428D01*
X147602380Y-360276190D01*
X147554761Y-360228571D01*
X147459523Y-360180952D01*
X148126190Y-360704761D02*
X148126190Y-360752380D01*
X148078571Y-360847619D01*
X148030952Y-360895238D01*
X149269047Y-359847619D02*
X149316666Y-359800000D01*
X149411904Y-359752380D01*
X149650000Y-359752380D01*
X149745238Y-359800000D01*
X149792857Y-359847619D01*
X149840476Y-359942857D01*
X149840476Y-360038095D01*
X149792857Y-360180952D01*
X149221428Y-360752380D01*
X149840476Y-360752380D01*
X150459523Y-359752380D02*
X150554761Y-359752380D01*
X150650000Y-359800000D01*
X150697619Y-359847619D01*
X150745238Y-359942857D01*
X150792857Y-360133333D01*
X150792857Y-360371428D01*
X150745238Y-360561904D01*
X150697619Y-360657142D01*
X150650000Y-360704761D01*
X150554761Y-360752380D01*
X150459523Y-360752380D01*
X150364285Y-360704761D01*
X150316666Y-360657142D01*
X150269047Y-360561904D01*
X150221428Y-360371428D01*
X150221428Y-360133333D01*
X150269047Y-359942857D01*
X150316666Y-359847619D01*
X150364285Y-359800000D01*
X150459523Y-359752380D01*
X151173809Y-359847619D02*
X151221428Y-359800000D01*
X151316666Y-359752380D01*
X151554761Y-359752380D01*
X151650000Y-359800000D01*
X151697619Y-359847619D01*
X151745238Y-359942857D01*
X151745238Y-360038095D01*
X151697619Y-360180952D01*
X151126190Y-360752380D01*
X151745238Y-360752380D01*
X152126190Y-359847619D02*
X152173809Y-359800000D01*
X152269047Y-359752380D01*
X152507142Y-359752380D01*
X152602380Y-359800000D01*
X152650000Y-359847619D01*
X152697619Y-359942857D01*
X152697619Y-360038095D01*
X152650000Y-360180952D01*
X152078571Y-360752380D01*
X152697619Y-360752380D01*
X127507142Y-362402380D02*
X127507142Y-361402380D01*
X127935714Y-362402380D02*
X127935714Y-361878571D01*
X127888095Y-361783333D01*
X127792857Y-361735714D01*
X127650000Y-361735714D01*
X127554761Y-361783333D01*
X127507142Y-361830952D01*
X128269047Y-361735714D02*
X128650000Y-361735714D01*
X128411904Y-361402380D02*
X128411904Y-362259523D01*
X128459523Y-362354761D01*
X128554761Y-362402380D01*
X128650000Y-362402380D01*
X128840476Y-361735714D02*
X129221428Y-361735714D01*
X128983333Y-361402380D02*
X128983333Y-362259523D01*
X129030952Y-362354761D01*
X129126190Y-362402380D01*
X129221428Y-362402380D01*
X129554761Y-361735714D02*
X129554761Y-362735714D01*
X129554761Y-361783333D02*
X129650000Y-361735714D01*
X129840476Y-361735714D01*
X129935714Y-361783333D01*
X129983333Y-361830952D01*
X130030952Y-361926190D01*
X130030952Y-362211904D01*
X129983333Y-362307142D01*
X129935714Y-362354761D01*
X129840476Y-362402380D01*
X129650000Y-362402380D01*
X129554761Y-362354761D01*
X130411904Y-362354761D02*
X130507142Y-362402380D01*
X130697619Y-362402380D01*
X130792857Y-362354761D01*
X130840476Y-362259523D01*
X130840476Y-362211904D01*
X130792857Y-362116666D01*
X130697619Y-362069047D01*
X130554761Y-362069047D01*
X130459523Y-362021428D01*
X130411904Y-361926190D01*
X130411904Y-361878571D01*
X130459523Y-361783333D01*
X130554761Y-361735714D01*
X130697619Y-361735714D01*
X130792857Y-361783333D01*
X131269047Y-362307142D02*
X131316666Y-362354761D01*
X131269047Y-362402380D01*
X131221428Y-362354761D01*
X131269047Y-362307142D01*
X131269047Y-362402380D01*
X131269047Y-361783333D02*
X131316666Y-361830952D01*
X131269047Y-361878571D01*
X131221428Y-361830952D01*
X131269047Y-361783333D01*
X131269047Y-361878571D01*
X132459523Y-361354761D02*
X131602380Y-362640476D01*
X133507142Y-361354761D02*
X132650000Y-362640476D01*
X134269047Y-361735714D02*
X134269047Y-362545238D01*
X134221428Y-362640476D01*
X134173809Y-362688095D01*
X134078571Y-362735714D01*
X133935714Y-362735714D01*
X133840476Y-362688095D01*
X134269047Y-362354761D02*
X134173809Y-362402380D01*
X133983333Y-362402380D01*
X133888095Y-362354761D01*
X133840476Y-362307142D01*
X133792857Y-362211904D01*
X133792857Y-361926190D01*
X133840476Y-361830952D01*
X133888095Y-361783333D01*
X133983333Y-361735714D01*
X134173809Y-361735714D01*
X134269047Y-361783333D01*
X134745238Y-362402380D02*
X134745238Y-361735714D01*
X134745238Y-361402380D02*
X134697619Y-361450000D01*
X134745238Y-361497619D01*
X134792857Y-361450000D01*
X134745238Y-361402380D01*
X134745238Y-361497619D01*
X135078571Y-361735714D02*
X135459523Y-361735714D01*
X135221428Y-361402380D02*
X135221428Y-362259523D01*
X135269047Y-362354761D01*
X135364285Y-362402380D01*
X135459523Y-362402380D01*
X135792857Y-362402380D02*
X135792857Y-361402380D01*
X136221428Y-362402380D02*
X136221428Y-361878571D01*
X136173809Y-361783333D01*
X136078571Y-361735714D01*
X135935714Y-361735714D01*
X135840476Y-361783333D01*
X135792857Y-361830952D01*
X137126190Y-361735714D02*
X137126190Y-362402380D01*
X136697619Y-361735714D02*
X136697619Y-362259523D01*
X136745238Y-362354761D01*
X136840476Y-362402380D01*
X136983333Y-362402380D01*
X137078571Y-362354761D01*
X137126190Y-362307142D01*
X137602380Y-362402380D02*
X137602380Y-361402380D01*
X137602380Y-361783333D02*
X137697619Y-361735714D01*
X137888095Y-361735714D01*
X137983333Y-361783333D01*
X138030952Y-361830952D01*
X138078571Y-361926190D01*
X138078571Y-362211904D01*
X138030952Y-362307142D01*
X137983333Y-362354761D01*
X137888095Y-362402380D01*
X137697619Y-362402380D01*
X137602380Y-362354761D01*
X138507142Y-362307142D02*
X138554761Y-362354761D01*
X138507142Y-362402380D01*
X138459523Y-362354761D01*
X138507142Y-362307142D01*
X138507142Y-362402380D01*
X139411904Y-362354761D02*
X139316666Y-362402380D01*
X139126190Y-362402380D01*
X139030952Y-362354761D01*
X138983333Y-362307142D01*
X138935714Y-362211904D01*
X138935714Y-361926190D01*
X138983333Y-361830952D01*
X139030952Y-361783333D01*
X139126190Y-361735714D01*
X139316666Y-361735714D01*
X139411904Y-361783333D01*
X139983333Y-362402380D02*
X139888095Y-362354761D01*
X139840476Y-362307142D01*
X139792857Y-362211904D01*
X139792857Y-361926190D01*
X139840476Y-361830952D01*
X139888095Y-361783333D01*
X139983333Y-361735714D01*
X140126190Y-361735714D01*
X140221428Y-361783333D01*
X140269047Y-361830952D01*
X140316666Y-361926190D01*
X140316666Y-362211904D01*
X140269047Y-362307142D01*
X140221428Y-362354761D01*
X140126190Y-362402380D01*
X139983333Y-362402380D01*
X140745238Y-362402380D02*
X140745238Y-361735714D01*
X140745238Y-361830952D02*
X140792857Y-361783333D01*
X140888095Y-361735714D01*
X141030952Y-361735714D01*
X141126190Y-361783333D01*
X141173809Y-361878571D01*
X141173809Y-362402380D01*
X141173809Y-361878571D02*
X141221428Y-361783333D01*
X141316666Y-361735714D01*
X141459523Y-361735714D01*
X141554761Y-361783333D01*
X141602380Y-361878571D01*
X141602380Y-362402380D01*
X142792857Y-361354761D02*
X141935714Y-362640476D01*
X143554761Y-362402380D02*
X143554761Y-361878571D01*
X143507142Y-361783333D01*
X143411904Y-361735714D01*
X143221428Y-361735714D01*
X143126190Y-361783333D01*
X143554761Y-362354761D02*
X143459523Y-362402380D01*
X143221428Y-362402380D01*
X143126190Y-362354761D01*
X143078571Y-362259523D01*
X143078571Y-362164285D01*
X143126190Y-362069047D01*
X143221428Y-362021428D01*
X143459523Y-362021428D01*
X143554761Y-361973809D01*
X144030952Y-362402380D02*
X144030952Y-361402380D01*
X144126190Y-362021428D02*
X144411904Y-362402380D01*
X144411904Y-361735714D02*
X144030952Y-362116666D01*
X145269047Y-361402380D02*
X145078571Y-361402380D01*
X144983333Y-361450000D01*
X144935714Y-361497619D01*
X144840476Y-361640476D01*
X144792857Y-361830952D01*
X144792857Y-362211904D01*
X144840476Y-362307142D01*
X144888095Y-362354761D01*
X144983333Y-362402380D01*
X145173809Y-362402380D01*
X145269047Y-362354761D01*
X145316666Y-362307142D01*
X145364285Y-362211904D01*
X145364285Y-361973809D01*
X145316666Y-361878571D01*
X145269047Y-361830952D01*
X145173809Y-361783333D01*
X144983333Y-361783333D01*
X144888095Y-361830952D01*
X144840476Y-361878571D01*
X144792857Y-361973809D01*
X146221428Y-361402380D02*
X146030952Y-361402380D01*
X145935714Y-361450000D01*
X145888095Y-361497619D01*
X145792857Y-361640476D01*
X145745238Y-361830952D01*
X145745238Y-362211904D01*
X145792857Y-362307142D01*
X145840476Y-362354761D01*
X145935714Y-362402380D01*
X146126190Y-362402380D01*
X146221428Y-362354761D01*
X146269047Y-362307142D01*
X146316666Y-362211904D01*
X146316666Y-361973809D01*
X146269047Y-361878571D01*
X146221428Y-361830952D01*
X146126190Y-361783333D01*
X145935714Y-361783333D01*
X145840476Y-361830952D01*
X145792857Y-361878571D01*
X145745238Y-361973809D01*
X147173809Y-361402380D02*
X146983333Y-361402380D01*
X146888095Y-361450000D01*
X146840476Y-361497619D01*
X146745238Y-361640476D01*
X146697619Y-361830952D01*
X146697619Y-362211904D01*
X146745238Y-362307142D01*
X146792857Y-362354761D01*
X146888095Y-362402380D01*
X147078571Y-362402380D01*
X147173809Y-362354761D01*
X147221428Y-362307142D01*
X147269047Y-362211904D01*
X147269047Y-361973809D01*
X147221428Y-361878571D01*
X147173809Y-361830952D01*
X147078571Y-361783333D01*
X146888095Y-361783333D01*
X146792857Y-361830952D01*
X146745238Y-361878571D01*
X146697619Y-361973809D01*
X148126190Y-361402380D02*
X147935714Y-361402380D01*
X147840476Y-361450000D01*
X147792857Y-361497619D01*
X147697619Y-361640476D01*
X147650000Y-361830952D01*
X147650000Y-362211904D01*
X147697619Y-362307142D01*
X147745238Y-362354761D01*
X147840476Y-362402380D01*
X148030952Y-362402380D01*
X148126190Y-362354761D01*
X148173809Y-362307142D01*
X148221428Y-362211904D01*
X148221428Y-361973809D01*
X148173809Y-361878571D01*
X148126190Y-361830952D01*
X148030952Y-361783333D01*
X147840476Y-361783333D01*
X147745238Y-361830952D01*
X147697619Y-361878571D01*
X147650000Y-361973809D01*
X149078571Y-361402380D02*
X148888095Y-361402380D01*
X148792857Y-361450000D01*
X148745238Y-361497619D01*
X148650000Y-361640476D01*
X148602380Y-361830952D01*
X148602380Y-362211904D01*
X148650000Y-362307142D01*
X148697619Y-362354761D01*
X148792857Y-362402380D01*
X148983333Y-362402380D01*
X149078571Y-362354761D01*
X149126190Y-362307142D01*
X149173809Y-362211904D01*
X149173809Y-361973809D01*
X149126190Y-361878571D01*
X149078571Y-361830952D01*
X148983333Y-361783333D01*
X148792857Y-361783333D01*
X148697619Y-361830952D01*
X148650000Y-361878571D01*
X148602380Y-361973809D01*
X150316666Y-361354761D02*
X149459523Y-362640476D01*
X150507142Y-361402380D02*
X151078571Y-361402380D01*
X150792857Y-362402380D02*
X150792857Y-361402380D01*
X151411904Y-362402380D02*
X151411904Y-361402380D01*
X151840476Y-362402380D02*
X151840476Y-361878571D01*
X151792857Y-361783333D01*
X151697619Y-361735714D01*
X151554761Y-361735714D01*
X151459523Y-361783333D01*
X151411904Y-361830952D01*
X152745238Y-361735714D02*
X152745238Y-362402380D01*
X152316666Y-361735714D02*
X152316666Y-362259523D01*
X152364285Y-362354761D01*
X152459523Y-362402380D01*
X152602380Y-362402380D01*
X152697619Y-362354761D01*
X152745238Y-362307142D01*
X153221428Y-362402380D02*
X153221428Y-361735714D01*
X153221428Y-361830952D02*
X153269047Y-361783333D01*
X153364285Y-361735714D01*
X153507142Y-361735714D01*
X153602380Y-361783333D01*
X153650000Y-361878571D01*
X153650000Y-362402380D01*
X153650000Y-361878571D02*
X153697619Y-361783333D01*
X153792857Y-361735714D01*
X153935714Y-361735714D01*
X154030952Y-361783333D01*
X154078571Y-361878571D01*
X154078571Y-362402380D01*
X154554761Y-362402380D02*
X154554761Y-361402380D01*
X154554761Y-361783333D02*
X154649999Y-361735714D01*
X154840476Y-361735714D01*
X154935714Y-361783333D01*
X154983333Y-361830952D01*
X155030952Y-361926190D01*
X155030952Y-362211904D01*
X154983333Y-362307142D01*
X154935714Y-362354761D01*
X154840476Y-362402380D01*
X154649999Y-362402380D01*
X154554761Y-362354761D01*
X155411904Y-362354761D02*
X155507142Y-362402380D01*
X155697619Y-362402380D01*
X155792857Y-362354761D01*
X155840476Y-362259523D01*
X155840476Y-362211904D01*
X155792857Y-362116666D01*
X155697619Y-362069047D01*
X155554761Y-362069047D01*
X155459523Y-362021428D01*
X155411904Y-361926190D01*
X155411904Y-361878571D01*
X155459523Y-361783333D01*
X155554761Y-361735714D01*
X155697619Y-361735714D01*
X155792857Y-361783333D01*
X156269047Y-361402380D02*
X156269047Y-362211904D01*
X156316666Y-362307142D01*
X156364285Y-362354761D01*
X156459523Y-362402380D01*
X156649999Y-362402380D01*
X156745238Y-362354761D01*
X156792857Y-362307142D01*
X156840476Y-362211904D01*
X156840476Y-361402380D01*
X157316666Y-361735714D02*
X157316666Y-362735714D01*
X157316666Y-361783333D02*
X157411904Y-361735714D01*
X157602380Y-361735714D01*
X157697619Y-361783333D01*
X157745238Y-361830952D01*
X157792857Y-361926190D01*
X157792857Y-362211904D01*
X157745238Y-362307142D01*
X157697619Y-362354761D01*
X157602380Y-362402380D01*
X157411904Y-362402380D01*
X157316666Y-362354761D01*
X158221428Y-361402380D02*
X158221428Y-362211904D01*
X158269047Y-362307142D01*
X158316666Y-362354761D01*
X158411904Y-362402380D01*
X158602380Y-362402380D01*
X158697619Y-362354761D01*
X158745238Y-362307142D01*
X158792857Y-362211904D01*
X158792857Y-361402380D01*
X159269047Y-361735714D02*
X159269047Y-362402380D01*
X159269047Y-361830952D02*
X159316666Y-361783333D01*
X159411904Y-361735714D01*
X159554761Y-361735714D01*
X159649999Y-361783333D01*
X159697619Y-361878571D01*
X159697619Y-362402380D01*
X160126190Y-362354761D02*
X160221428Y-362402380D01*
X160411904Y-362402380D01*
X160507142Y-362354761D01*
X160554761Y-362259523D01*
X160554761Y-362211904D01*
X160507142Y-362116666D01*
X160411904Y-362069047D01*
X160269047Y-362069047D01*
X160173809Y-362021428D01*
X160126190Y-361926190D01*
X160126190Y-361878571D01*
X160173809Y-361783333D01*
X160269047Y-361735714D01*
X160411904Y-361735714D01*
X160507142Y-361783333D01*
X160983333Y-361735714D02*
X160983333Y-362735714D01*
X160983333Y-361783333D02*
X161078571Y-361735714D01*
X161269047Y-361735714D01*
X161364285Y-361783333D01*
X161411904Y-361830952D01*
X161459523Y-361926190D01*
X161459523Y-362211904D01*
X161411904Y-362307142D01*
X161364285Y-362354761D01*
X161269047Y-362402380D01*
X161078571Y-362402380D01*
X160983333Y-362354761D01*
X162030952Y-362402380D02*
X161935714Y-362354761D01*
X161888095Y-362259523D01*
X161888095Y-361402380D01*
X162411904Y-362402380D02*
X162411904Y-361735714D01*
X162411904Y-361402380D02*
X162364285Y-361450000D01*
X162411904Y-361497619D01*
X162459523Y-361450000D01*
X162411904Y-361402380D01*
X162411904Y-361497619D01*
X162745238Y-361735714D02*
X163126190Y-361735714D01*
X162888095Y-361402380D02*
X162888095Y-362259523D01*
X162935714Y-362354761D01*
X163030952Y-362402380D01*
X163126190Y-362402380D01*
X163316666Y-361402380D02*
X163649999Y-362402380D01*
X163983333Y-361402380D01*
X164269047Y-361497619D02*
X164316666Y-361450000D01*
X164411904Y-361402380D01*
X164650000Y-361402380D01*
X164745238Y-361450000D01*
X164792857Y-361497619D01*
X164840476Y-361592857D01*
X164840476Y-361688095D01*
X164792857Y-361830952D01*
X164221428Y-362402380D01*
X164840476Y-362402380D01*
D11*
X187125750Y-318607404D02*
X186129297Y-316141095D01*
X187125750Y-318607404D02*
X194246522Y-315730426D01*
X194246522Y-315730426D02*
X193250069Y-313264116D01*
X186129297Y-316141095D02*
X193250069Y-313264116D01*
X183718619Y-317115072D02*
X184951773Y-316616845D01*
X184216845Y-318348227D02*
X183718619Y-317115072D01*
X239371389Y-318439686D02*
X240604544Y-317941460D01*
X240604544Y-317941460D02*
X241102771Y-319174614D01*
X241578521Y-320352138D02*
X244455500Y-327472910D01*
X241989190Y-328469363D02*
X244455500Y-327472910D01*
X239112212Y-321348591D02*
X241989190Y-328469363D01*
X239112212Y-321348591D02*
X241578521Y-320352138D01*
X170102425Y-284550627D02*
X169604199Y-283317472D01*
X169604199Y-283317472D02*
X170837353Y-282819245D01*
X172014877Y-282343495D02*
X179135649Y-279466516D01*
X180132102Y-281932826D02*
X179135649Y-279466516D01*
X173011330Y-284809804D02*
X180132102Y-281932826D01*
X173011330Y-284809804D02*
X172014877Y-282343495D01*
X177716845Y-301848227D02*
X177218619Y-300615072D01*
X177218619Y-300615072D02*
X178451773Y-300116845D01*
X179629297Y-299641095D02*
X186750069Y-296764116D01*
X187746522Y-299230426D02*
X186750069Y-296764116D01*
X180625750Y-302107404D02*
X187746522Y-299230426D01*
X180625750Y-302107404D02*
X179629297Y-299641095D01*
X106916624Y-315765072D02*
X106418398Y-316998227D01*
X105683470Y-315266845D02*
X106916624Y-315765072D01*
X104505946Y-314791095D02*
X103509493Y-317257404D01*
X103509493Y-317257404D02*
X96388721Y-314380426D01*
X104505946Y-314791095D02*
X97385174Y-311914116D01*
X97385174Y-311914116D02*
X96388721Y-314380426D01*
X104199931Y-295914116D02*
X103203478Y-298380426D01*
X111320703Y-298791095D02*
X104199931Y-295914116D01*
X110324250Y-301257404D02*
X103203478Y-298380426D01*
X111320703Y-298791095D02*
X110324250Y-301257404D01*
X112498227Y-299266845D02*
X113731381Y-299765072D01*
X113731381Y-299765072D02*
X113233155Y-300998227D01*
X120288959Y-283458906D02*
X119790733Y-284692061D01*
X119055805Y-282960679D02*
X120288959Y-283458906D01*
X117878281Y-282484929D02*
X116881828Y-284951238D01*
X116881828Y-284951238D02*
X109761056Y-282074260D01*
X117878281Y-282484929D02*
X110757509Y-279607950D01*
X110757509Y-279607950D02*
X109761056Y-282074260D01*
X50001512Y-318133646D02*
X51234667Y-318631872D01*
X49503285Y-319366800D02*
X50001512Y-318133646D01*
X49027535Y-320544324D02*
X51493844Y-321540777D01*
X51493844Y-321540777D02*
X48616866Y-328661549D01*
X49027535Y-320544324D02*
X46150556Y-327665096D01*
X46150556Y-327665096D02*
X48616866Y-328661549D01*
D10*
X268125458Y-296177151D02*
X268500064Y-297104335D01*
X263255572Y-284123761D02*
X262328388Y-284498367D01*
X267572880Y-297478941D02*
X268500064Y-297104335D01*
X263255572Y-284123761D02*
X263630178Y-285050945D01*
X250649604Y-290295437D02*
X250274998Y-289368253D01*
X255519490Y-302348827D02*
X256446674Y-301974221D01*
X251202182Y-288993647D02*
X250274998Y-289368253D01*
X255519490Y-302348827D02*
X255144884Y-301421643D01*
X261569842Y-279951434D02*
X261944448Y-280878618D01*
X256699956Y-267898044D02*
X255772772Y-268272650D01*
X261017264Y-281253224D02*
X261944448Y-280878618D01*
X256699956Y-267898044D02*
X257074562Y-268825228D01*
X244093988Y-274069720D02*
X243719382Y-273142536D01*
X248963874Y-286123110D02*
X249891058Y-285748504D01*
X244646566Y-272767930D02*
X243719382Y-273142536D01*
X248963874Y-286123110D02*
X248589268Y-285195926D01*
X255014227Y-263725716D02*
X255388833Y-264652900D01*
X250144341Y-251672326D02*
X249217157Y-252046932D01*
X254461649Y-265027506D02*
X255388833Y-264652900D01*
X250144341Y-251672326D02*
X250518947Y-252599510D01*
X237538373Y-257844002D02*
X237163767Y-256916818D01*
X242408259Y-269897392D02*
X243335443Y-269522786D01*
X238090951Y-256542212D02*
X237163767Y-256916818D01*
X242408259Y-269897392D02*
X242033653Y-268970208D01*
X252470983Y-306816109D02*
X252845589Y-307743293D01*
X247601097Y-294762719D02*
X246673913Y-295137325D01*
X251918405Y-308117899D02*
X252845589Y-307743293D01*
X247601097Y-294762719D02*
X247975703Y-295689903D01*
X234995129Y-300934395D02*
X234620523Y-300007211D01*
X239865015Y-312987785D02*
X240792199Y-312613179D01*
X235547707Y-299632605D02*
X234620523Y-300007211D01*
X239865015Y-312987785D02*
X239490409Y-312060601D01*
X245915368Y-290590391D02*
X246289974Y-291517575D01*
X241045482Y-278537001D02*
X240118298Y-278911607D01*
X245362790Y-291892181D02*
X246289974Y-291517575D01*
X241045482Y-278537001D02*
X241420088Y-279464185D01*
X228439514Y-284708677D02*
X228064908Y-283781493D01*
X233309400Y-296762067D02*
X234236584Y-296387461D01*
X228992092Y-283406887D02*
X228064908Y-283781493D01*
X233309400Y-296762067D02*
X232934794Y-295834883D01*
X239359752Y-274364674D02*
X239734358Y-275291858D01*
X234489866Y-262311284D02*
X233562682Y-262685890D01*
X238807174Y-275666464D02*
X239734358Y-275291858D01*
X234489866Y-262311284D02*
X234864472Y-263238468D01*
X221883898Y-268482960D02*
X221509292Y-267555776D01*
X226753784Y-280536350D02*
X227680968Y-280161744D01*
X222436476Y-267181170D02*
X221509292Y-267555776D01*
X226753784Y-280536350D02*
X226379178Y-279609166D01*
X233445049Y-309110411D02*
X233819655Y-310037595D01*
X228575163Y-297057021D02*
X227647979Y-297431627D01*
X232892471Y-310412201D02*
X233819655Y-310037595D01*
X228575163Y-297057021D02*
X228949769Y-297984205D01*
X215969195Y-303228697D02*
X215594589Y-302301513D01*
X220839081Y-315282087D02*
X221766265Y-314907481D01*
X216521773Y-301926907D02*
X215594589Y-302301513D01*
X220839081Y-315282087D02*
X220464475Y-314354903D01*
X226889433Y-292884694D02*
X227264039Y-293811878D01*
X222019547Y-280831304D02*
X221092363Y-281205910D01*
X226336855Y-294186484D02*
X227264039Y-293811878D01*
X222019547Y-280831304D02*
X222394153Y-281758488D01*
X209413579Y-287002980D02*
X209038973Y-286075796D01*
X214283465Y-299056370D02*
X215210649Y-298681764D01*
X209966157Y-285701190D02*
X209038973Y-286075796D01*
X214283465Y-299056370D02*
X213908859Y-298129186D01*
X220333818Y-276658977D02*
X220708424Y-277586161D01*
X215463932Y-264605587D02*
X214536748Y-264980193D01*
X219781240Y-277960767D02*
X220708424Y-277586161D01*
X215463932Y-264605587D02*
X215838538Y-265532771D01*
X202857964Y-270777263D02*
X202483358Y-269850079D01*
X207727850Y-282830653D02*
X208655034Y-282456047D01*
X203410542Y-269475473D02*
X202483358Y-269850079D01*
X207727850Y-282830653D02*
X207353244Y-281903469D01*
X214419114Y-311404714D02*
X214793720Y-312331898D01*
X209549228Y-299351324D02*
X208622044Y-299725930D01*
X213866536Y-312706504D02*
X214793720Y-312331898D01*
X209549228Y-299351324D02*
X209923834Y-300278508D01*
X196943260Y-305523000D02*
X196568654Y-304595816D01*
X201813146Y-317576390D02*
X202740330Y-317201784D01*
X197495838Y-304221210D02*
X196568654Y-304595816D01*
X201813146Y-317576390D02*
X201438540Y-316649206D01*
X207863499Y-295178997D02*
X208238105Y-296106181D01*
X202993613Y-283125607D02*
X202066429Y-283500213D01*
X207310921Y-296480787D02*
X208238105Y-296106181D01*
X202993613Y-283125607D02*
X203368219Y-284052791D01*
X190387645Y-289297283D02*
X190013039Y-288370099D01*
X195257531Y-301350673D02*
X196184715Y-300976067D01*
X190940223Y-287995493D02*
X190013039Y-288370099D01*
X195257531Y-301350673D02*
X194882925Y-300423489D01*
X201307884Y-278953279D02*
X201682490Y-279880463D01*
X196437998Y-266899889D02*
X195510814Y-267274495D01*
X200755306Y-280255069D02*
X201682490Y-279880463D01*
X196437998Y-266899889D02*
X196812604Y-267827073D01*
X183832030Y-273071565D02*
X183457424Y-272144381D01*
X188701916Y-285124955D02*
X189629100Y-284750349D01*
X184384608Y-271769775D02*
X183457424Y-272144381D01*
X188701916Y-285124955D02*
X188327310Y-284197771D01*
X80211138Y-300301934D02*
X80585744Y-299374750D01*
X75341252Y-312355324D02*
X76268436Y-312729930D01*
X81512928Y-299749356D02*
X80585744Y-299374750D01*
X75341252Y-312355324D02*
X75715858Y-311428140D01*
X88696432Y-316672632D02*
X88321826Y-317599816D01*
X93566318Y-304619242D02*
X92639134Y-304244636D01*
X87394642Y-317225210D02*
X88321826Y-317599816D01*
X93566318Y-304619242D02*
X93191712Y-305546426D01*
X86766753Y-284076217D02*
X87141359Y-283149033D01*
X81896867Y-296129607D02*
X82824051Y-296504213D01*
X88068543Y-283523639D02*
X87141359Y-283149033D01*
X81896867Y-296129607D02*
X82271473Y-295202423D01*
X95252047Y-300446915D02*
X94877441Y-301374099D01*
X100121933Y-288393525D02*
X99194749Y-288018919D01*
X93950257Y-300999493D02*
X94877441Y-301374099D01*
X100121933Y-288393525D02*
X99747327Y-289320709D01*
X93322369Y-267850499D02*
X93696975Y-266923315D01*
X88452483Y-279903889D02*
X89379667Y-280278495D01*
X94624159Y-267297921D02*
X93696975Y-266923315D01*
X88452483Y-279903889D02*
X88827089Y-278976705D01*
X101807663Y-284221197D02*
X101433057Y-285148381D01*
X106677549Y-272167807D02*
X105750365Y-271793201D01*
X100505873Y-284773775D02*
X101433057Y-285148381D01*
X106677549Y-272167807D02*
X106302943Y-273094991D01*
X61185204Y-298007632D02*
X61559810Y-297080448D01*
X56315318Y-310061022D02*
X57242502Y-310435628D01*
X62486994Y-297455054D02*
X61559810Y-297080448D01*
X56315318Y-310061022D02*
X56689924Y-309133838D01*
X69670498Y-314378330D02*
X69295892Y-315305514D01*
X74540384Y-302324940D02*
X73613200Y-301950334D01*
X68368708Y-314930908D02*
X69295892Y-315305514D01*
X74540384Y-302324940D02*
X74165778Y-303252124D01*
X67740819Y-281781914D02*
X68115425Y-280854730D01*
X62870933Y-293835304D02*
X63798117Y-294209910D01*
X69042609Y-281229336D02*
X68115425Y-280854730D01*
X62870933Y-293835304D02*
X63245539Y-292908120D01*
X76226113Y-298152612D02*
X75851507Y-299079796D01*
X81095999Y-286099222D02*
X80168815Y-285724616D01*
X74924323Y-298705190D02*
X75851507Y-299079796D01*
X81095999Y-286099222D02*
X80721393Y-287026406D01*
X74296434Y-265556197D02*
X74671040Y-264629013D01*
X69426548Y-277609587D02*
X70353732Y-277984193D01*
X75598224Y-265003619D02*
X74671040Y-264629013D01*
X69426548Y-277609587D02*
X69801154Y-276682403D01*
X82781728Y-281926895D02*
X82407122Y-282854079D01*
X87651614Y-269873505D02*
X86724430Y-269498899D01*
X81479938Y-282479473D02*
X82407122Y-282854079D01*
X87651614Y-269873505D02*
X87277008Y-270800689D01*
X42159269Y-295713329D02*
X42533875Y-294786145D01*
X37289383Y-307766719D02*
X38216567Y-308141325D01*
X43461059Y-295160751D02*
X42533875Y-294786145D01*
X37289383Y-307766719D02*
X37663989Y-306839535D01*
X50644563Y-312084027D02*
X50269957Y-313011211D01*
X55514449Y-300030637D02*
X54587265Y-299656031D01*
X49342773Y-312636605D02*
X50269957Y-313011211D01*
X55514449Y-300030637D02*
X55139843Y-300957821D01*
X48714885Y-279487611D02*
X49089491Y-278560427D01*
X43844999Y-291541001D02*
X44772183Y-291915607D01*
X50016675Y-278935033D02*
X49089491Y-278560427D01*
X43844999Y-291541001D02*
X44219605Y-290613817D01*
X57200179Y-295858309D02*
X56825573Y-296785493D01*
X62070065Y-283804919D02*
X61142881Y-283430313D01*
X55898389Y-296410887D02*
X56825573Y-296785493D01*
X62070065Y-283804919D02*
X61695459Y-284732103D01*
X55270500Y-263261894D02*
X55645106Y-262334710D01*
X50400614Y-275315284D02*
X51327798Y-275689890D01*
X56572290Y-262709316D02*
X55645106Y-262334710D01*
X50400614Y-275315284D02*
X50775220Y-274388100D01*
X63755794Y-279632592D02*
X63381188Y-280559776D01*
X68625680Y-267579202D02*
X67698496Y-267204596D01*
X62454004Y-280185170D02*
X63381188Y-280559776D01*
X68625680Y-267579202D02*
X68251074Y-268506386D01*
X26504794Y-285074371D02*
X26879400Y-284147187D01*
X21634908Y-297127761D02*
X22562092Y-297502367D01*
X27806584Y-284521793D02*
X26879400Y-284147187D01*
X21634908Y-297127761D02*
X22009514Y-296200577D01*
X34990088Y-301445069D02*
X34615482Y-302372253D01*
X39859974Y-289391679D02*
X38932790Y-289017073D01*
X33688298Y-301997647D02*
X34615482Y-302372253D01*
X39859974Y-289391679D02*
X39485368Y-290318863D01*
X33060410Y-268848654D02*
X33435016Y-267921470D01*
X28190524Y-280902044D02*
X29117708Y-281276650D01*
X34362200Y-268296076D02*
X33435016Y-267921470D01*
X28190524Y-280902044D02*
X28565130Y-279974860D01*
X41545704Y-285219352D02*
X41171098Y-286146536D01*
X46415590Y-273165962D02*
X45488406Y-272791356D01*
X40243914Y-285771930D02*
X41171098Y-286146536D01*
X46415590Y-273165962D02*
X46040984Y-274093146D01*
X39616025Y-252622937D02*
X39990631Y-251695753D01*
X34746139Y-264676327D02*
X35673323Y-265050933D01*
X40917815Y-252070359D02*
X39990631Y-251695753D01*
X34746139Y-264676327D02*
X35120745Y-263749143D01*
X48101319Y-268993635D02*
X47726713Y-269920819D01*
X52971205Y-256940245D02*
X52044021Y-256565639D01*
X46799529Y-269546213D02*
X47726713Y-269920819D01*
X52971205Y-256940245D02*
X52596599Y-257867429D01*
D11*
X100431326Y-365311401D02*
X102032154Y-363187030D01*
X94297805Y-360689461D02*
X100431326Y-365311401D01*
X95898633Y-358565091D02*
X102032154Y-363187030D01*
X94297805Y-360689461D02*
X95898633Y-358565091D01*
X93283538Y-359925156D02*
X92221353Y-359124742D01*
X92221353Y-359124742D02*
X93021767Y-358062557D01*
X198006338Y-359063855D02*
X196405510Y-356939484D01*
X191872817Y-363685794D02*
X198006338Y-359063855D01*
X190271989Y-361561424D02*
X196405510Y-356939484D01*
X191872817Y-363685794D02*
X190271989Y-361561424D01*
X190858550Y-364450099D02*
X189796365Y-365250513D01*
X189796365Y-365250513D02*
X188995951Y-364188328D01*
D10*
X183086191Y-317931940D02*
X182423917Y-318199517D01*
X182273624Y-318208880D01*
X182149644Y-318156254D01*
X182051977Y-318041637D01*
X182016300Y-317953334D01*
X183228898Y-318285153D02*
X183460798Y-318859124D01*
X182982716Y-318692770D01*
X183036231Y-318825225D01*
X183027756Y-318931367D01*
X183001443Y-318993357D01*
X182930978Y-319073185D01*
X182710220Y-319162377D01*
X182604079Y-319153902D01*
X182542089Y-319127589D01*
X182462260Y-319057124D01*
X182355230Y-318792215D01*
X182363705Y-318686073D01*
X182390018Y-318624083D01*
X182890382Y-320116763D02*
X182676321Y-319586944D01*
X182783352Y-319851853D02*
X183710535Y-319477247D01*
X183542404Y-319442459D01*
X183418424Y-319389832D01*
X183338595Y-319319368D01*
X237876236Y-316900051D02*
X238143813Y-317562325D01*
X238153176Y-317712618D01*
X238100550Y-317836598D01*
X237985933Y-317934265D01*
X237897630Y-317969942D01*
X238309278Y-316827808D02*
X238335591Y-316765818D01*
X238406056Y-316685990D01*
X238626814Y-316596798D01*
X238732955Y-316605273D01*
X238794945Y-316631586D01*
X238874774Y-316702051D01*
X238910451Y-316790354D01*
X238919814Y-316940647D01*
X238604056Y-317684527D01*
X239178027Y-317452628D01*
X239493785Y-316708748D02*
X239387644Y-316700273D01*
X239325654Y-316673960D01*
X239245825Y-316603495D01*
X239227987Y-316559343D01*
X239236462Y-316453202D01*
X239262775Y-316391212D01*
X239333240Y-316311383D01*
X239509846Y-316240030D01*
X239615988Y-316248505D01*
X239677978Y-316274818D01*
X239757806Y-316345283D01*
X239775645Y-316389434D01*
X239767170Y-316495576D01*
X239740857Y-316557566D01*
X239670392Y-316637394D01*
X239493785Y-316708748D01*
X239423320Y-316788576D01*
X239397007Y-316850566D01*
X239388532Y-316956708D01*
X239459886Y-317133314D01*
X239539715Y-317203779D01*
X239601705Y-317230092D01*
X239707846Y-317238567D01*
X239884453Y-317167214D01*
X239954917Y-317087385D01*
X239981231Y-317025395D01*
X239989705Y-316919254D01*
X239918352Y-316742647D01*
X239838523Y-316672182D01*
X239776533Y-316645869D01*
X239670392Y-316637394D01*
X168971771Y-284134340D02*
X168309497Y-284401917D01*
X168159204Y-284411280D01*
X168035224Y-284358654D01*
X167937557Y-284244037D01*
X167901880Y-284155734D01*
X169044014Y-284567382D02*
X169106004Y-284593695D01*
X169185832Y-284664160D01*
X169275024Y-284884918D01*
X169266549Y-284991059D01*
X169240236Y-285053049D01*
X169169771Y-285132878D01*
X169081468Y-285168555D01*
X168931175Y-285177918D01*
X168187295Y-284862160D01*
X168419194Y-285436131D01*
X168597578Y-285877647D02*
X168668932Y-286054253D01*
X168748760Y-286124718D01*
X168810750Y-286151031D01*
X168978882Y-286185819D01*
X169173327Y-286158617D01*
X169526539Y-286015910D01*
X169597004Y-285936082D01*
X169623317Y-285874092D01*
X169631792Y-285767950D01*
X169560439Y-285591344D01*
X169480610Y-285520879D01*
X169418620Y-285494566D01*
X169312479Y-285486091D01*
X169091720Y-285575283D01*
X169021256Y-285655111D01*
X168994942Y-285717101D01*
X168986468Y-285823243D01*
X169057821Y-285999849D01*
X169137650Y-286070314D01*
X169199640Y-286096627D01*
X169305781Y-286105102D01*
X176586191Y-301431940D02*
X175923917Y-301699517D01*
X175773624Y-301708880D01*
X175649644Y-301656254D01*
X175551977Y-301541637D01*
X175516300Y-301453334D01*
X176728898Y-301785153D02*
X176960798Y-302359124D01*
X176482716Y-302192770D01*
X176536231Y-302325225D01*
X176527756Y-302431367D01*
X176501443Y-302493357D01*
X176430978Y-302573185D01*
X176210220Y-302662377D01*
X176104079Y-302653902D01*
X176042089Y-302627589D01*
X175962260Y-302557124D01*
X175855230Y-302292215D01*
X175863705Y-302186073D01*
X175890018Y-302124083D01*
X177192697Y-302933095D02*
X177228374Y-303021398D01*
X177219899Y-303127540D01*
X177193586Y-303189530D01*
X177123121Y-303269359D01*
X176964353Y-303384864D01*
X176743595Y-303474056D01*
X176549150Y-303501258D01*
X176443008Y-303492783D01*
X176381018Y-303466470D01*
X176301190Y-303396005D01*
X176265513Y-303307702D01*
X176273988Y-303201560D01*
X176300301Y-303139570D01*
X176370766Y-303059742D01*
X176529534Y-302944236D01*
X176750292Y-302855044D01*
X176944737Y-302827842D01*
X177050879Y-302836317D01*
X177112869Y-302862630D01*
X177192697Y-302933095D01*
X106712968Y-317476752D02*
X107375242Y-317744328D01*
X107489859Y-317841995D01*
X107542485Y-317965975D01*
X107533121Y-318116268D01*
X107497445Y-318204572D01*
X107342232Y-317063327D02*
X107262403Y-317133792D01*
X107200413Y-317160105D01*
X107094272Y-317168580D01*
X107050120Y-317150741D01*
X106979655Y-317070913D01*
X106953342Y-317008923D01*
X106944867Y-316902781D01*
X107016221Y-316726175D01*
X107096049Y-316655710D01*
X107158040Y-316629397D01*
X107264181Y-316620922D01*
X107308333Y-316638760D01*
X107378798Y-316718589D01*
X107405111Y-316780579D01*
X107413586Y-316886720D01*
X107342232Y-317063327D01*
X107350707Y-317169468D01*
X107377020Y-317231458D01*
X107447485Y-317311287D01*
X107624091Y-317382641D01*
X107730233Y-317374166D01*
X107792223Y-317347853D01*
X107872051Y-317277388D01*
X107943405Y-317100781D01*
X107934930Y-316994640D01*
X107908617Y-316932650D01*
X107838152Y-316852821D01*
X107661546Y-316781468D01*
X107555404Y-316789942D01*
X107493414Y-316816256D01*
X107413586Y-316886720D01*
X113527725Y-301476752D02*
X114189999Y-301744328D01*
X114304616Y-301841995D01*
X114357242Y-301965975D01*
X114347878Y-302116268D01*
X114312202Y-302204572D01*
X113670432Y-301123539D02*
X113920170Y-300505417D01*
X114686808Y-301277388D01*
X120085303Y-285170586D02*
X120747577Y-285438162D01*
X120862194Y-285535829D01*
X120914820Y-285659809D01*
X120905456Y-285810102D01*
X120869780Y-285898406D01*
X120334152Y-284808898D02*
X120307839Y-284746908D01*
X120299364Y-284640767D01*
X120388556Y-284420009D01*
X120468384Y-284349544D01*
X120530375Y-284323231D01*
X120636516Y-284314756D01*
X120724819Y-284350433D01*
X120839436Y-284448100D01*
X121155194Y-285191980D01*
X121387094Y-284618009D01*
X51505353Y-317072076D02*
X51237777Y-317734350D01*
X51140110Y-317848967D01*
X51016130Y-317901593D01*
X50865837Y-317892229D01*
X50777533Y-317856553D01*
X52057930Y-318373867D02*
X51528111Y-318159806D01*
X51793021Y-318266836D02*
X52167627Y-317339652D01*
X52025809Y-317436430D01*
X51901829Y-317489057D01*
X51795687Y-317497531D01*
X261015763Y-301969658D02*
X260641156Y-301042474D01*
X261217794Y-301579879D01*
X261259279Y-300792736D01*
X261633885Y-301719920D01*
X261612492Y-300650029D02*
X262605221Y-301327475D01*
X262230614Y-300400291D02*
X261987098Y-301577213D01*
X263106060Y-300406100D02*
X263355798Y-301024222D01*
X262742595Y-300142079D02*
X262789413Y-300893545D01*
X263363384Y-300661646D01*
X263989093Y-300049332D02*
X264238830Y-300667454D01*
X263625627Y-299785311D02*
X263672445Y-300536777D01*
X264246416Y-300304878D01*
X254460147Y-285743941D02*
X254085540Y-284816757D01*
X254662178Y-285354162D01*
X254703663Y-284567019D01*
X255078269Y-285494203D01*
X255056876Y-284424312D02*
X256049605Y-285101758D01*
X255674998Y-284174574D02*
X255431482Y-285351496D01*
X256550444Y-284180383D02*
X256800182Y-284798505D01*
X256186979Y-283916362D02*
X256233797Y-284667828D01*
X256807768Y-284435929D01*
X256822940Y-283710776D02*
X257396911Y-283478876D01*
X257230557Y-283956958D01*
X257363012Y-283903443D01*
X257469154Y-283911918D01*
X257531144Y-283938231D01*
X257610972Y-284008696D01*
X257700164Y-284229454D01*
X257691689Y-284335595D01*
X257665376Y-284397585D01*
X257594911Y-284477414D01*
X257330002Y-284584444D01*
X257223860Y-284575970D01*
X257161870Y-284549656D01*
X247904532Y-269518223D02*
X247529925Y-268591039D01*
X248106563Y-269128444D01*
X248148048Y-268341301D01*
X248522654Y-269268485D01*
X248501261Y-268198594D02*
X249493990Y-268876040D01*
X249119383Y-267948856D02*
X248875867Y-269125778D01*
X249994829Y-267954665D02*
X250244567Y-268572787D01*
X249631364Y-267690644D02*
X249678182Y-268442110D01*
X250252153Y-268210211D01*
X250347154Y-267555523D02*
X250373467Y-267493533D01*
X250443932Y-267413704D01*
X250664690Y-267324512D01*
X250770831Y-267332987D01*
X250832821Y-267359300D01*
X250912650Y-267429765D01*
X250948327Y-267518068D01*
X250957690Y-267668361D01*
X250641932Y-268412242D01*
X251215903Y-268180342D01*
X245361288Y-312608616D02*
X244986681Y-311681432D01*
X245563319Y-312218837D01*
X245604804Y-311431694D01*
X245979410Y-312358878D01*
X245958017Y-311288987D02*
X246950746Y-311966433D01*
X246576139Y-311039249D02*
X246332623Y-312216171D01*
X247451585Y-311045058D02*
X247701323Y-311663180D01*
X247088120Y-310781037D02*
X247134938Y-311532503D01*
X247708909Y-311300604D01*
X248672659Y-311270735D02*
X248142839Y-311484796D01*
X248407749Y-311377766D02*
X248033142Y-310450582D01*
X247998354Y-310618714D01*
X247945728Y-310742694D01*
X247875263Y-310822522D01*
X238805673Y-296382898D02*
X238431066Y-295455714D01*
X239007704Y-295993119D01*
X239049189Y-295205976D01*
X239423795Y-296133160D01*
X239402402Y-295063269D02*
X240395131Y-295740715D01*
X240020524Y-294813531D02*
X239777008Y-295990453D01*
X240895970Y-294819340D02*
X241145708Y-295437462D01*
X240532505Y-294555319D02*
X240579323Y-295306785D01*
X241153294Y-295074886D01*
X241433376Y-294242702D02*
X241521679Y-294207025D01*
X241627821Y-294215500D01*
X241689811Y-294241813D01*
X241769639Y-294312278D01*
X241885144Y-294471046D01*
X241974336Y-294691804D01*
X242001538Y-294886249D01*
X241993064Y-294992391D01*
X241966750Y-295054381D01*
X241896286Y-295134209D01*
X241807982Y-295169886D01*
X241701841Y-295161411D01*
X241639851Y-295135098D01*
X241560022Y-295064633D01*
X241444517Y-294905865D01*
X241355325Y-294685107D01*
X241328123Y-294490662D01*
X241336598Y-294384521D01*
X241362911Y-294322531D01*
X241433376Y-294242702D01*
X232250057Y-280157181D02*
X231875450Y-279229997D01*
X232452088Y-279767402D01*
X232493573Y-278980259D01*
X232868179Y-279907443D01*
X232846786Y-278837552D02*
X233839515Y-279514998D01*
X233464908Y-278587814D02*
X233221392Y-279764736D01*
X233729818Y-278480784D02*
X234303789Y-278248885D01*
X234137435Y-278726966D01*
X234269890Y-278673451D01*
X234376031Y-278681926D01*
X234438021Y-278708239D01*
X234517850Y-278778704D01*
X234607042Y-278999462D01*
X234598567Y-279105604D01*
X234572254Y-279167594D01*
X234501789Y-279247422D01*
X234236879Y-279354453D01*
X234130738Y-279345978D01*
X234068748Y-279319665D01*
X235119912Y-278997684D02*
X235296518Y-278926331D01*
X235366983Y-278846502D01*
X235393296Y-278784512D01*
X235428084Y-278616381D01*
X235400882Y-278421936D01*
X235258175Y-278068723D01*
X235178346Y-277998258D01*
X235116356Y-277971945D01*
X235010215Y-277963470D01*
X234833608Y-278034824D01*
X234763143Y-278114652D01*
X234736830Y-278176642D01*
X234728355Y-278282784D01*
X234817547Y-278503542D01*
X234897376Y-278574007D01*
X234959366Y-278600320D01*
X235065507Y-278608795D01*
X235242114Y-278537441D01*
X235312579Y-278457613D01*
X235338892Y-278395623D01*
X235347367Y-278289481D01*
X226335354Y-314902918D02*
X225960747Y-313975734D01*
X226537385Y-314513139D01*
X226578870Y-313725996D01*
X226953476Y-314653180D01*
X226932083Y-313583289D02*
X227924812Y-314260735D01*
X227550205Y-313333551D02*
X227306689Y-314510473D01*
X227815115Y-313226521D02*
X228389086Y-312994622D01*
X228222732Y-313472703D01*
X228355187Y-313419188D01*
X228461328Y-313427663D01*
X228523318Y-313453976D01*
X228603147Y-313524441D01*
X228692339Y-313745199D01*
X228683864Y-313851341D01*
X228657551Y-313913331D01*
X228587086Y-313993159D01*
X228322176Y-314100190D01*
X228216035Y-314091715D01*
X228154045Y-314065402D01*
X228698147Y-312869753D02*
X229316270Y-312620015D01*
X229293512Y-313707745D01*
X219779738Y-298677201D02*
X219405131Y-297750017D01*
X219981769Y-298287422D01*
X220023254Y-297500279D01*
X220397860Y-298427463D01*
X220376467Y-297357572D02*
X221369196Y-298035018D01*
X220994589Y-297107834D02*
X220751073Y-298284756D01*
X221259499Y-297000804D02*
X221833470Y-296768905D01*
X221667116Y-297246986D01*
X221799571Y-297193471D01*
X221905712Y-297201946D01*
X221967702Y-297228259D01*
X222047531Y-297298724D01*
X222136723Y-297519482D01*
X222128248Y-297625624D01*
X222101935Y-297687614D01*
X222031470Y-297767442D01*
X221766560Y-297874473D01*
X221660419Y-297865998D01*
X221598429Y-297839685D01*
X222628199Y-296447813D02*
X222451592Y-296519167D01*
X222381128Y-296598995D01*
X222354814Y-296660985D01*
X222320026Y-296829117D01*
X222347228Y-297023562D01*
X222489936Y-297376775D01*
X222569764Y-297447240D01*
X222631754Y-297473553D01*
X222737896Y-297482028D01*
X222914502Y-297410674D01*
X222984967Y-297330845D01*
X223011280Y-297268855D01*
X223019755Y-297162714D01*
X222930563Y-296941956D01*
X222850735Y-296871491D01*
X222788745Y-296845178D01*
X222682603Y-296836703D01*
X222505996Y-296908057D01*
X222435532Y-296987885D01*
X222409218Y-297049875D01*
X222400744Y-297156017D01*
X213224123Y-282451484D02*
X212849516Y-281524300D01*
X213426154Y-282061705D01*
X213467639Y-281274562D01*
X213842245Y-282201746D01*
X213820852Y-281131855D02*
X214813581Y-281809301D01*
X214438974Y-280882117D02*
X214195458Y-282059039D01*
X214703884Y-280775087D02*
X215277855Y-280543188D01*
X215111501Y-281021269D01*
X215243956Y-280967754D01*
X215350097Y-280976229D01*
X215412087Y-281002542D01*
X215491916Y-281073007D01*
X215581108Y-281293765D01*
X215572633Y-281399907D01*
X215546320Y-281461897D01*
X215475855Y-281541725D01*
X215210945Y-281648756D01*
X215104804Y-281640281D01*
X215042814Y-281613968D01*
X216116735Y-280204258D02*
X215675219Y-280382642D01*
X215809452Y-280841996D01*
X215835765Y-280780006D01*
X215906230Y-280700178D01*
X216126988Y-280610986D01*
X216233130Y-280619461D01*
X216295120Y-280645774D01*
X216374948Y-280716239D01*
X216464140Y-280936997D01*
X216455665Y-281043138D01*
X216429352Y-281105128D01*
X216358887Y-281184957D01*
X216138129Y-281274149D01*
X216031988Y-281265674D01*
X215969997Y-281239361D01*
X207309419Y-317197221D02*
X206934812Y-316270037D01*
X207511450Y-316807442D01*
X207552935Y-316020299D01*
X207927541Y-316947483D01*
X207906148Y-315877592D02*
X208898877Y-316555038D01*
X208524270Y-315627854D02*
X208280754Y-316804776D01*
X208789180Y-315520824D02*
X209363151Y-315288925D01*
X209196797Y-315767006D01*
X209329252Y-315713491D01*
X209435393Y-315721966D01*
X209497383Y-315748279D01*
X209577212Y-315818744D01*
X209666404Y-316039502D01*
X209657929Y-316145644D01*
X209631616Y-316207634D01*
X209561151Y-316287462D01*
X209296241Y-316394493D01*
X209190100Y-316386018D01*
X209128110Y-316359705D01*
X209672212Y-315164056D02*
X210246183Y-314932156D01*
X210079829Y-315410238D01*
X210212284Y-315356723D01*
X210318426Y-315365198D01*
X210380416Y-315391511D01*
X210460244Y-315461976D01*
X210549436Y-315682734D01*
X210540961Y-315788875D01*
X210514648Y-315850865D01*
X210444183Y-315930694D01*
X210179274Y-316037724D01*
X210073132Y-316029250D01*
X210011142Y-316002936D01*
X200753804Y-300971504D02*
X200379197Y-300044320D01*
X200955835Y-300581725D01*
X200997320Y-299794582D01*
X201371926Y-300721766D01*
X201350533Y-299651875D02*
X202343262Y-300329321D01*
X201968655Y-299402137D02*
X201725139Y-300579059D01*
X202233565Y-299295107D02*
X202807536Y-299063208D01*
X202641182Y-299541289D01*
X202773637Y-299487774D01*
X202879778Y-299496249D01*
X202941768Y-299522562D01*
X203021597Y-299593027D01*
X203110789Y-299813785D01*
X203102314Y-299919927D01*
X203076001Y-299981917D01*
X203005536Y-300061745D01*
X202740626Y-300168776D01*
X202634485Y-300160301D01*
X202572495Y-300133988D01*
X203196426Y-299008804D02*
X203222739Y-298946814D01*
X203293204Y-298866985D01*
X203513962Y-298777793D01*
X203620103Y-298786268D01*
X203682093Y-298812581D01*
X203761922Y-298883046D01*
X203797599Y-298971349D01*
X203806962Y-299121642D01*
X203491204Y-299865523D01*
X204065175Y-299633623D01*
X194198189Y-284745786D02*
X193823582Y-283818602D01*
X194400220Y-284356007D01*
X194441705Y-283568864D01*
X194816311Y-284496048D01*
X194794918Y-283426157D02*
X195787647Y-284103603D01*
X195413040Y-283176419D02*
X195169524Y-284353341D01*
X195677950Y-283069389D02*
X196251921Y-282837490D01*
X196085567Y-283315571D01*
X196218022Y-283262056D01*
X196324163Y-283270531D01*
X196386153Y-283296844D01*
X196465982Y-283367309D01*
X196555174Y-283588067D01*
X196546699Y-283694209D01*
X196520386Y-283756199D01*
X196449921Y-283836027D01*
X196185011Y-283943058D01*
X196078870Y-283934583D01*
X196016880Y-283908270D01*
X197509560Y-283407905D02*
X196979740Y-283621966D01*
X197244650Y-283514936D02*
X196870043Y-282587752D01*
X196835255Y-282755884D01*
X196782629Y-282879864D01*
X196712164Y-282959692D01*
X85743087Y-300592799D02*
X86117694Y-299665615D01*
X86159179Y-300452758D01*
X86735816Y-299915353D01*
X86361210Y-300842536D01*
X87089029Y-300058060D02*
X87332545Y-301234981D01*
X87707152Y-300307798D02*
X86714422Y-300985244D01*
X88171426Y-301573911D02*
X87641606Y-301359850D01*
X87906516Y-301466881D02*
X88281123Y-300539697D01*
X88139304Y-300636475D01*
X88015324Y-300689101D01*
X87909182Y-300697576D01*
X88855094Y-300771596D02*
X89429064Y-301003496D01*
X88977296Y-301231840D01*
X89109751Y-301285355D01*
X89180216Y-301365183D01*
X89206529Y-301427173D01*
X89215004Y-301533315D01*
X89125812Y-301754073D01*
X89045983Y-301824538D01*
X88983993Y-301850851D01*
X88877851Y-301859326D01*
X88612942Y-301752295D01*
X88542477Y-301672467D01*
X88516164Y-301610477D01*
X92298702Y-284367082D02*
X92673309Y-283439898D01*
X92714794Y-284227041D01*
X93291431Y-283689636D01*
X92916825Y-284616819D01*
X93644644Y-283832343D02*
X93888160Y-285009264D01*
X94262767Y-284082081D02*
X93270037Y-284759527D01*
X94727041Y-285348194D02*
X94197221Y-285134133D01*
X94462131Y-285241164D02*
X94836738Y-284313980D01*
X94694919Y-284410758D01*
X94570939Y-284463384D01*
X94464797Y-284471859D01*
X95419183Y-284652021D02*
X95481173Y-284625708D01*
X95587315Y-284617233D01*
X95808073Y-284706425D01*
X95878538Y-284786253D01*
X95904851Y-284848243D01*
X95913326Y-284954385D01*
X95877649Y-285042688D01*
X95779982Y-285157305D01*
X95036102Y-285473063D01*
X95610073Y-285704962D01*
X98854318Y-268141364D02*
X99228925Y-267214180D01*
X99270410Y-268001323D01*
X99847047Y-267463918D01*
X99472441Y-268391101D01*
X100200260Y-267606625D02*
X100443776Y-268783546D01*
X100818383Y-267856363D02*
X99825653Y-268533809D01*
X101282657Y-269122476D02*
X100752837Y-268908415D01*
X101017747Y-269015446D02*
X101392354Y-268088262D01*
X101250535Y-268185040D01*
X101126555Y-268237666D01*
X101020413Y-268246141D01*
X102165689Y-269479244D02*
X101635870Y-269265183D01*
X101900779Y-269372214D02*
X102275386Y-268445030D01*
X102133567Y-268541808D01*
X102009587Y-268594434D01*
X101903446Y-268602909D01*
X67158669Y-298476881D02*
X67533276Y-297549697D01*
X67574761Y-298336840D01*
X68151398Y-297799435D01*
X67776792Y-298726618D01*
X68504611Y-297942142D02*
X68748127Y-299119063D01*
X69122734Y-298191880D02*
X68130005Y-298869326D01*
X69145492Y-299279609D02*
X69322098Y-299350963D01*
X69428240Y-299342488D01*
X69490230Y-299316175D01*
X69632048Y-299219397D01*
X69747553Y-299060629D01*
X69890261Y-298707416D01*
X69881786Y-298601274D01*
X69855473Y-298539284D01*
X69785008Y-298459456D01*
X69608401Y-298388102D01*
X69502260Y-298396577D01*
X69440270Y-298422890D01*
X69360441Y-298493355D01*
X69271249Y-298714113D01*
X69279724Y-298820255D01*
X69306037Y-298882245D01*
X69376502Y-298962073D01*
X69553109Y-299033427D01*
X69659250Y-299024952D01*
X69721240Y-298998639D01*
X69801069Y-298928174D01*
X73714284Y-282251163D02*
X74088891Y-281323979D01*
X74130376Y-282111122D01*
X74707013Y-281573717D01*
X74332407Y-282500900D01*
X75060226Y-281716424D02*
X75303742Y-282893345D01*
X75678349Y-281966162D02*
X74685620Y-282643608D01*
X76003471Y-282559749D02*
X75933006Y-282479920D01*
X75906693Y-282417930D01*
X75898218Y-282311789D01*
X75916056Y-282267637D01*
X75995885Y-282197172D01*
X76057875Y-282170859D01*
X76164016Y-282162384D01*
X76340623Y-282233738D01*
X76411088Y-282313566D01*
X76437401Y-282375556D01*
X76445876Y-282481698D01*
X76428037Y-282525849D01*
X76348209Y-282596314D01*
X76286219Y-282622627D01*
X76180077Y-282631102D01*
X76003471Y-282559749D01*
X75897329Y-282568223D01*
X75835339Y-282594537D01*
X75755511Y-282665001D01*
X75684157Y-282841608D01*
X75692632Y-282947750D01*
X75718945Y-283009740D01*
X75789410Y-283089568D01*
X75966016Y-283160922D01*
X76072158Y-283152447D01*
X76134148Y-283126134D01*
X76213976Y-283055669D01*
X76285330Y-282879062D01*
X76276855Y-282772921D01*
X76250542Y-282710931D01*
X76180077Y-282631102D01*
X80269899Y-266025446D02*
X80644506Y-265098262D01*
X80685991Y-265885405D01*
X81262628Y-265348000D01*
X80888022Y-266275183D01*
X81615841Y-265490707D02*
X81859357Y-266667628D01*
X82233964Y-265740445D02*
X81241235Y-266417891D01*
X82498873Y-265847475D02*
X83116996Y-266097213D01*
X82345025Y-266863851D01*
X48132734Y-296182578D02*
X48507341Y-295255394D01*
X48548826Y-296042537D01*
X49125463Y-295505132D01*
X48750857Y-296432315D01*
X49478676Y-295647839D02*
X49722192Y-296824760D01*
X50096799Y-295897577D02*
X49104070Y-296575023D01*
X50847376Y-296200830D02*
X50670770Y-296129476D01*
X50564628Y-296137951D01*
X50502638Y-296164264D01*
X50360820Y-296261042D01*
X50245314Y-296419810D01*
X50102607Y-296773023D01*
X50111082Y-296879165D01*
X50137395Y-296941155D01*
X50207860Y-297020983D01*
X50384466Y-297092337D01*
X50490608Y-297083862D01*
X50552598Y-297057549D01*
X50632426Y-296987084D01*
X50721618Y-296766326D01*
X50713144Y-296660184D01*
X50686830Y-296598194D01*
X50616366Y-296518366D01*
X50439759Y-296447012D01*
X50333618Y-296455487D01*
X50271628Y-296481800D01*
X50191799Y-296552265D01*
X54688350Y-279956860D02*
X55062957Y-279029676D01*
X55104442Y-279816819D01*
X55681079Y-279279414D01*
X55306473Y-280206597D01*
X56034292Y-279422121D02*
X56277808Y-280599042D01*
X56652415Y-279671859D02*
X55659686Y-280349305D01*
X57447144Y-279992950D02*
X57005628Y-279814566D01*
X56783092Y-280238244D01*
X56845082Y-280211930D01*
X56951224Y-280203456D01*
X57171982Y-280292648D01*
X57242446Y-280372476D01*
X57268760Y-280434466D01*
X57277234Y-280540608D01*
X57188042Y-280761366D01*
X57108214Y-280831831D01*
X57046224Y-280858144D01*
X56940082Y-280866619D01*
X56719324Y-280777427D01*
X56648859Y-280697598D01*
X56622546Y-280635608D01*
X61243965Y-263731143D02*
X61618572Y-262803959D01*
X61660057Y-263591102D01*
X62236694Y-263053697D01*
X61862088Y-263980880D01*
X62589907Y-263196404D02*
X62833423Y-264373325D01*
X63208030Y-263446142D02*
X62215301Y-264123588D01*
X63833738Y-264058456D02*
X63584001Y-264676578D01*
X63755687Y-263616051D02*
X63267353Y-264189133D01*
X63841324Y-264421032D01*
X32478259Y-285543620D02*
X32852866Y-284616436D01*
X32894351Y-285403579D01*
X33470988Y-284866174D01*
X33096382Y-285793357D01*
X33824201Y-285008881D02*
X34067717Y-286185802D01*
X34442324Y-285258619D02*
X33449595Y-285936065D01*
X34707233Y-285365649D02*
X35281204Y-285597548D01*
X34829436Y-285825892D01*
X34961891Y-285879408D01*
X35032355Y-285959236D01*
X35058669Y-286021226D01*
X35067143Y-286127368D01*
X34977951Y-286348126D01*
X34898123Y-286418591D01*
X34836133Y-286444904D01*
X34729991Y-286453379D01*
X34465082Y-286346348D01*
X34394617Y-286266520D01*
X34368304Y-286204530D01*
X39033875Y-269317903D02*
X39408482Y-268390719D01*
X39449967Y-269177862D01*
X40026604Y-268640457D01*
X39651998Y-269567640D01*
X40379817Y-268783164D02*
X40623333Y-269960085D01*
X40997940Y-269032902D02*
X40005211Y-269710348D01*
X41271324Y-269246074D02*
X41333314Y-269219761D01*
X41439456Y-269211286D01*
X41660214Y-269300478D01*
X41730679Y-269380306D01*
X41756992Y-269442296D01*
X41765467Y-269548438D01*
X41729790Y-269636741D01*
X41632123Y-269751358D01*
X40888243Y-270067116D01*
X41462214Y-270299015D01*
X45589490Y-253092186D02*
X45964097Y-252165002D01*
X46005582Y-252952145D01*
X46582219Y-252414740D01*
X46207613Y-253341923D01*
X46935432Y-252557447D02*
X47178948Y-253734368D01*
X47553555Y-252807185D02*
X46560826Y-253484631D01*
X48017829Y-254073298D02*
X47488009Y-253859237D01*
X47752919Y-253966268D02*
X48127526Y-253039084D01*
X47985707Y-253135862D01*
X47861727Y-253188488D01*
X47755586Y-253196963D01*
X91298599Y-357777691D02*
X91869053Y-358207558D01*
X91954486Y-358331562D01*
X91973231Y-358464939D01*
X91925287Y-358607687D01*
X91867972Y-358683748D01*
X92699049Y-357580870D02*
X92355155Y-358037233D01*
X92527102Y-357809052D02*
X91728467Y-357207237D01*
X91785242Y-357369271D01*
X91803987Y-357502647D01*
X91784701Y-357607365D01*
X92416255Y-356294510D02*
X92301624Y-356446631D01*
X92282338Y-356551350D01*
X92291711Y-356618038D01*
X92348486Y-356780072D01*
X92471949Y-356932734D01*
X92776191Y-357161997D01*
X92880910Y-357181282D01*
X92947598Y-357171910D01*
X93042944Y-357124507D01*
X93157575Y-356972386D01*
X93176861Y-356867668D01*
X93167488Y-356800979D01*
X93120086Y-356705633D01*
X92929934Y-356562344D01*
X92825216Y-356543059D01*
X92758528Y-356552431D01*
X92663182Y-356599834D01*
X92548550Y-356751955D01*
X92529265Y-356856673D01*
X92538637Y-356923361D01*
X92586040Y-357018707D01*
X188147479Y-363814063D02*
X187577025Y-364243931D01*
X187434276Y-364291874D01*
X187300900Y-364273129D01*
X187176896Y-364187696D01*
X187119581Y-364111636D01*
X187950658Y-365214513D02*
X187606764Y-364758150D01*
X187778711Y-364986332D02*
X188577347Y-364384517D01*
X188405940Y-364394430D01*
X188272564Y-364375685D01*
X188177218Y-364328282D01*
X188902496Y-364974256D02*
X188969184Y-364983628D01*
X189064530Y-365031031D01*
X189207820Y-365221182D01*
X189227105Y-365325901D01*
X189217733Y-365392589D01*
X189170330Y-365487935D01*
X189094270Y-365545251D01*
X188951521Y-365593194D01*
X188151263Y-365480725D01*
X188523816Y-365975118D01*
M02*
