M48
; DRILL file {KiCad (5.1.4)-1} date 11/4/2022 12:26:38 AM
; FORMAT={-:-/ absolute / inch / decimal}
; #@! TF.CreationDate,2022-11-04T00:26:38-04:00
; #@! TF.GenerationSoftware,Kicad,Pcbnew,(5.1.4)-1
; #@! TF.FileFunction,Plated,1,2,PTH
FMAT,2
INCH
T1C0.0157
T2C0.0394
T3C0.0500
%
G90
G05
T1
X2.3051Y-12.4291
X2.3071Y-12.5354
X8.3524Y-12.5472
X8.3524Y-12.5472
X8.9764Y-12.4449
X9.3061Y-12.6544
X9.689Y-12.3091
X9.689Y-12.3091
T2
X9.4437Y-12.5855
X9.4811Y-12.6783
X9.5186Y-12.771
X9.5561Y-12.8637
X7.0453Y-11.8642
X7.138Y-11.8267
X7.2307Y-11.7893
X7.3234Y-11.7518
X7.3012Y-12.5138
X7.3939Y-12.4763
X7.4866Y-12.4389
X7.5793Y-12.4014
X6.7455Y-11.1832
X6.8382Y-11.1457
X6.9309Y-11.1082
X7.0237Y-11.0708
X4.1313Y-11.7183
X4.224Y-11.7558
X4.3167Y-11.7932
X4.4094Y-11.8307
X7.4826Y-14.3066
X7.5625Y-14.2464
X7.6423Y-14.1862
X7.7222Y-14.1261
X3.863Y-12.3482
X3.9557Y-12.3857
X4.0484Y-12.4232
X4.1412Y-12.4606
X3.7041Y-14.1285
X3.784Y-14.1886
X3.8638Y-14.2488
X3.9437Y-14.309
X4.3895Y-11.0764
X4.4822Y-11.1138
X4.5749Y-11.1513
X4.6676Y-11.1887
X1.8851Y-12.8713
X1.9226Y-12.7785
X1.96Y-12.6858
X1.9975Y-12.5931
T3
X9.6089Y-10.0518
X9.8224Y-10.0547
X0.972Y-11.6106
X1.1235Y-11.761
X8.7597Y-11.8385
X8.9732Y-11.8415
X1.4882Y-10.333
X1.6397Y-10.4834
X9.5088Y-11.7482
X9.7223Y-11.7511
X2.5954Y-11.481
X2.747Y-11.6314
X3.3445Y-11.5713
X3.496Y-11.7217
X2.8535Y-10.8422
X3.0051Y-10.9926
X7.7526Y-11.2901
X7.9661Y-11.293
X3.0864Y-12.2101
X3.2379Y-12.3605
X1.5883Y-12.0295
X1.7398Y-12.1799
X9.2507Y-11.1094
X9.4642Y-11.1123
X10.1251Y-11.3294
X10.3386Y-11.3323
X7.4945Y-10.6513
X7.708Y-10.6542
X9.867Y-10.6906
X10.0805Y-10.6935
X1.8464Y-11.3907
X1.9979Y-11.5411
X3.6026Y-10.9325
X3.7541Y-11.0829
X2.1045Y-10.7519
X2.256Y-10.9023
X2.3373Y-12.1198
X2.4889Y-12.2702
X8.2435Y-10.5609
X8.457Y-10.5638
X8.0107Y-11.9289
X8.2242Y-11.9318
X8.9926Y-10.4706
X9.2061Y-10.4735
X1.2301Y-10.9718
X1.3816Y-11.1222
X8.5016Y-11.1997
X8.7151Y-11.2027
T0
M30
