M48
; DRILL file {KiCad (5.1.4)-1} date 11/4/2022 12:26:38 AM
; FORMAT={-:-/ absolute / inch / decimal}
; #@! TF.CreationDate,2022-11-04T00:26:38-04:00
; #@! TF.GenerationSoftware,Kicad,Pcbnew,(5.1.4)-1
; #@! TF.FileFunction,NonPlated,1,2,NPTH
FMAT,2
INCH
T1C0.0670
T2C0.1181
T3C0.1350
%
G90
G05
T1
X3.6404Y-10.7864
X4.0419Y-10.9487
X2.1423Y-10.6058
X2.5438Y-10.768
X2.3751Y-11.9737
X2.7767Y-12.136
X8.1298Y-10.8574
X8.5313Y-10.6952
X7.8969Y-12.2254
X8.2985Y-12.0631
X8.8788Y-10.7671
X9.2804Y-10.6049
X1.2679Y-10.8257
X1.6694Y-10.988
X8.3879Y-11.4962
X8.7894Y-11.334
X9.4951Y-10.3482
X9.8967Y-10.186
X1.0098Y-11.4645
X1.4113Y-11.6268
X8.646Y-12.135
X9.0475Y-11.9728
X1.526Y-10.1869
X1.9275Y-10.3492
X9.395Y-12.0447
X9.7966Y-11.8825
X2.6332Y-11.3349
X3.0348Y-11.4971
X3.3823Y-11.4252
X3.7838Y-11.5875
X2.8913Y-10.6961
X3.2929Y-10.8583
X7.6388Y-11.5866
X8.0404Y-11.4243
X3.1242Y-12.0641
X3.5257Y-12.2263
X1.6261Y-11.8834
X2.0276Y-12.0456
X9.1369Y-11.4059
X9.5385Y-11.2437
X10.0113Y-11.6259
X10.4129Y-11.4636
X7.3807Y-10.9477
X7.7823Y-10.7855
X9.7532Y-10.987
X10.1548Y-10.8248
X1.8842Y-11.2446
X2.2857Y-11.4068
T2
X1.5564Y-10.6897
X1.7064Y-10.8437
X8.4614Y-11.6257
X8.6764Y-11.6323
X9.5687Y-10.4777
X9.7837Y-10.4843
X1.2983Y-11.3285
X1.4484Y-11.4825
X8.7195Y-12.2645
X8.9345Y-12.2711
X1.8145Y-10.0508
X1.9645Y-10.2049
X9.4686Y-12.1742
X9.6835Y-12.1808
X2.9217Y-11.1988
X3.0718Y-11.3529
X3.6708Y-11.2892
X3.8209Y-11.4432
X3.1798Y-10.56
X3.3299Y-10.7141
X7.7124Y-11.7161
X7.9273Y-11.7226
X3.4127Y-11.928
X3.5628Y-12.082
X1.9146Y-11.7473
X2.0647Y-11.9014
X9.2105Y-11.5354
X9.4254Y-11.542
X10.0849Y-11.7554
X10.2999Y-11.7619
X7.4543Y-11.0773
X7.6692Y-11.0838
X9.8268Y-11.1166
X10.0418Y-11.1231
X2.1727Y-11.1085
X2.3228Y-11.2626
X3.9289Y-10.6504
X4.079Y-10.8044
X2.4308Y-10.4697
X2.5809Y-10.6238
X2.6637Y-11.8376
X2.8137Y-11.9917
X8.2033Y-10.9869
X8.4183Y-10.9935
X7.9705Y-12.3549
X8.1854Y-12.3614
X8.9524Y-10.8966
X9.1674Y-10.9032
T3
X2.0849Y-11.3257
X3.8411Y-10.8676
X2.343Y-10.6869
X2.5759Y-12.0548
X8.3305Y-10.7763
X8.0977Y-12.1442
X9.0796Y-10.686
X1.4686Y-10.9069
X8.5886Y-11.4151
X9.6959Y-10.2671
X1.2105Y-11.5457
X8.8467Y-12.0539
X1.7267Y-10.268
X9.5958Y-11.9636
X2.834Y-11.416
X3.583Y-11.5064
X3.0921Y-10.7772
X7.8396Y-11.5054
X3.325Y-12.1452
X1.8268Y-11.9645
X9.3377Y-11.3248
X10.2121Y-11.5447
X7.5815Y-10.8666
X9.954Y-10.9059
T0
M30
